<svg xmlns="http://www.w3.org/2000/svg" xmlns:xlink="http://www.w3.org/1999/xlink" contentStyleType="text/css" height="1525px" preserveAspectRatio="none" style="width:6140px;height:1525px;background:#FFFFFF;" version="1.1" viewBox="0 0 6140 1525" width="6140px" zoomAndPan="magnify"><title>Family Tasks - Current Class Overview</title><defs/><g><text fill="#000000" font-family="Arial" font-size="35" font-weight="bold" lengthAdjust="spacing" textLength="645.8423" x="2640.8289" y="57.8296">Family Tasks - Current Class Overview</text><!--cluster auth--><g id="cluster_auth"><path d="M41.25,102.7466 L138.7378,102.7466 A9.375,9.375 0 0 1 144.9878,108.9966 L162.4878,169.4922 L1568.75,169.4922 A6.25,6.25 0 0 1 1575,175.7422 L1575,968.9966 A6.25,6.25 0 0 1 1568.75,975.2466 L41.25,975.2466 A6.25,6.25 0 0 1 35,968.9966 L35,108.9966 A6.25,6.25 0 0 1 41.25,102.7466 " fill="#DCEEFF" style="stroke:#000000;stroke-width:3.75;"/><line style="stroke:#000000;stroke-width:3.75;" x1="35" x2="162.4878" y1="169.4922" y2="169.4922"/><text fill="#000000" font-family="Arial" font-size="45" font-weight="bold" lengthAdjust="spacing" textLength="94.9878" x="45" y="149.9561">auth</text></g><!--cluster parent--><g id="cluster_parent"><path d="M3516.25,535.2466 L3656.2769,535.2466 A9.375,9.375 0 0 1 3662.5269,541.4966 L3680.0269,601.9922 L5943.75,601.9922 A6.25,6.25 0 0 1 5950,608.2422 L5950,1208.9966 A6.25,6.25 0 0 1 5943.75,1215.2466 L3516.25,1215.2466 A6.25,6.25 0 0 1 3510,1208.9966 L3510,541.4966 A6.25,6.25 0 0 1 3516.25,535.2466 " fill="#DCEEFF" style="stroke:#000000;stroke-width:3.75;"/><line style="stroke:#000000;stroke-width:3.75;" x1="3510" x2="3680.0269" y1="601.9922" y2="601.9922"/><text fill="#000000" font-family="Arial" font-size="45" font-weight="bold" lengthAdjust="spacing" textLength="137.5269" x="3520" y="582.4561">parent</text></g><!--cluster child--><g id="cluster_child"><path d="M2558.75,755.2466 L2666.2573,755.2466 A9.375,9.375 0 0 1 2672.5073,761.4966 L2690.0073,821.9922 L3056.25,821.9922 A6.25,6.25 0 0 1 3062.5,828.2422 L3062.5,968.9966 A6.25,6.25 0 0 1 3056.25,975.2466 L2558.75,975.2466 A6.25,6.25 0 0 1 2552.5,968.9966 L2552.5,761.4966 A6.25,6.25 0 0 1 2558.75,755.2466 " fill="#DCEEFF" style="stroke:#000000;stroke-width:3.75;"/><line style="stroke:#000000;stroke-width:3.75;" x1="2552.5" x2="2690.0073" y1="821.9922" y2="821.9922"/><text fill="#000000" font-family="Arial" font-size="45" font-weight="bold" lengthAdjust="spacing" textLength="105.0073" x="2562.5" y="802.4561">child</text></g><!--cluster adapters--><g id="cluster_adapters"><path d="M1601.25,755.2466 L1791.3306,755.2466 A9.375,9.375 0 0 1 1797.5806,761.4966 L1815.0806,821.9922 L2498.75,821.9922 A6.25,6.25 0 0 1 2505,828.2422 L2505,1208.9966 A6.25,6.25 0 0 1 2498.75,1215.2466 L1601.25,1215.2466 A6.25,6.25 0 0 1 1595,1208.9966 L1595,761.4966 A6.25,6.25 0 0 1 1601.25,755.2466 " fill="#FFF3BF" style="stroke:#000000;stroke-width:3.75;"/><line style="stroke:#000000;stroke-width:3.75;" x1="1595" x2="1815.0806" y1="821.9922" y2="821.9922"/><text fill="#000000" font-family="Arial" font-size="45" font-weight="bold" lengthAdjust="spacing" textLength="187.5806" x="1605" y="802.4561">adapters</text></g><!--cluster models--><g id="cluster_models"><path d="M3286.25,1235.2466 L3446.2939,1235.2466 A9.375,9.375 0 0 1 3452.5439,1241.4966 L3470.0439,1301.9922 L4288.75,1301.9922 A6.25,6.25 0 0 1 4295,1308.2422 L4295,1448.9966 A6.25,6.25 0 0 1 4288.75,1455.2466 L3286.25,1455.2466 A6.25,6.25 0 0 1 3280,1448.9966 L3280,1241.4966 A6.25,6.25 0 0 1 3286.25,1235.2466 " fill="#E2F5E6" style="stroke:#000000;stroke-width:3.75;"/><line style="stroke:#000000;stroke-width:3.75;" x1="3280" x2="3470.0439" y1="1301.9922" y2="1301.9922"/><text fill="#000000" font-family="Arial" font-size="45" font-weight="bold" lengthAdjust="spacing" textLength="157.5439" x="3290" y="1282.4561">models</text></g><!--cluster utils--><g id="cluster_utils"><path d="M2706.25,995.2466 L2801.2549,995.2466 A9.375,9.375 0 0 1 2807.5049,1001.4966 L2825.0049,1061.9922 L3308.75,1061.9922 A6.25,6.25 0 0 1 3315,1068.2422 L3315,1208.9966 A6.25,6.25 0 0 1 3308.75,1215.2466 L2706.25,1215.2466 A6.25,6.25 0 0 1 2700,1208.9966 L2700,1001.4966 A6.25,6.25 0 0 1 2706.25,995.2466 " fill="#EFEFEF" style="stroke:#000000;stroke-width:3.75;"/><line style="stroke:#000000;stroke-width:3.75;" x1="2700" x2="2825.0049" y1="1061.9922" y2="1061.9922"/><text fill="#000000" font-family="Arial" font-size="45" font-weight="bold" lengthAdjust="spacing" textLength="92.5049" x="2710" y="1042.4561">utils</text></g><!--class MainActivity--><g id="elem_MainActivity"><rect codeLine="25" fill="#DCEEFF" height="122.6184" id="MainActivity" rx="6.25" ry="6.25" style="stroke:#2F6FA3;stroke-width:1.25;" width="280.0427" x="657.5" y="180.2466"/><ellipse cx="695" cy="231.5558" fill="#ADD1B2" rx="27.5" ry="27.5" style="stroke:#181818;stroke-width:2.5;"/><path d="M701.9141,221.2433 Q702.3047,220.6964 702.7734,220.423 Q703.2422,220.1495 703.7891,220.1495 Q704.7266,220.1495 705.3125,220.8136 Q705.8984,221.4386 705.8984,222.962 L705.8984,226.5948 Q705.8984,228.1183 705.3125,228.7823 Q704.7266,229.4464 703.7891,229.4464 Q702.9297,229.4464 702.4219,228.9386 Q701.9141,228.4698 701.6406,227.1808 Q701.5234,226.2823 701.0547,225.8136 Q700.2344,224.8761 698.7109,224.3292 Q697.1875,223.7823 695.625,223.7823 Q693.7109,223.7823 692.1094,224.6027 Q690.5469,225.423 689.2969,227.298 Q688.0859,229.173 688.0859,231.7511 L688.0859,234.4855 Q688.0859,237.5714 690.3125,239.6417 Q692.5391,241.673 696.5234,241.673 Q698.8672,241.673 700.5078,241.048 Q701.4844,240.6573 702.5391,239.5636 Q703.2031,238.8995 703.5547,238.7042 Q703.9453,238.5089 704.4531,238.5089 Q705.2734,238.5089 705.8984,239.173 Q706.5625,239.798 706.5625,240.6573 Q706.5625,241.5167 705.7031,242.5323 Q704.4531,243.9777 702.4609,244.798 Q699.7656,245.9308 696.5234,245.9308 Q692.7344,245.9308 689.7266,244.3683 Q687.2656,243.1183 685.5469,240.462 Q683.8281,237.7667 683.8281,234.5636 L683.8281,231.673 Q683.8281,228.3527 685.3516,225.5011 Q686.9141,222.6105 689.6484,221.087 Q692.3828,219.5245 695.4688,219.5245 Q697.3047,219.5245 698.9063,219.9542 Q700.5469,220.3448 701.9141,221.2433 Z " fill="#000000"/><text fill="#000000" font-family="Arial" font-size="30" font-style="italic" lengthAdjust="spacing" textLength="123.4131" x="768.3148" y="220.8862">&#171;screen&#187;</text><text fill="#000000" font-family="Arial" font-size="37.5" lengthAdjust="spacing" textLength="200.0427" x="730" y="262.4182">MainActivity</text><line style="stroke:#2F6FA3;stroke-width:1.25;" x1="660" x2="935.0427" y1="282.865" y2="282.865"/></g><!--class ParentLoginFragment--><g id="elem_ParentLoginFragment"><rect codeLine="26" fill="#DCEEFF" height="122.6184" id="ParentLoginFragment" rx="6.25" ry="6.25" style="stroke:#2F6FA3;stroke-width:1.25;" width="442.7136" x="576.25" y="392.7466"/><ellipse cx="613.75" cy="444.0558" fill="#ADD1B2" rx="27.5" ry="27.5" style="stroke:#181818;stroke-width:2.5;"/><path d="M620.6641,433.7433 Q621.0547,433.1964 621.5234,432.923 Q621.9922,432.6495 622.5391,432.6495 Q623.4766,432.6495 624.0625,433.3136 Q624.6484,433.9386 624.6484,435.462 L624.6484,439.0948 Q624.6484,440.6183 624.0625,441.2823 Q623.4766,441.9464 622.5391,441.9464 Q621.6797,441.9464 621.1719,441.4386 Q620.6641,440.9698 620.3906,439.6808 Q620.2734,438.7823 619.8047,438.3136 Q618.9844,437.3761 617.4609,436.8292 Q615.9375,436.2823 614.375,436.2823 Q612.4609,436.2823 610.8594,437.1027 Q609.2969,437.923 608.0469,439.798 Q606.8359,441.673 606.8359,444.2511 L606.8359,446.9855 Q606.8359,450.0714 609.0625,452.1417 Q611.2891,454.173 615.2734,454.173 Q617.6172,454.173 619.2578,453.548 Q620.2344,453.1573 621.2891,452.0636 Q621.9531,451.3995 622.3047,451.2042 Q622.6953,451.0089 623.2031,451.0089 Q624.0234,451.0089 624.6484,451.673 Q625.3125,452.298 625.3125,453.1573 Q625.3125,454.0167 624.4531,455.0323 Q623.2031,456.4777 621.2109,457.298 Q618.5156,458.4308 615.2734,458.4308 Q611.4844,458.4308 608.4766,456.8683 Q606.0156,455.6183 604.2969,452.962 Q602.5781,450.2667 602.5781,447.0636 L602.5781,444.173 Q602.5781,440.8527 604.1016,438.0011 Q605.6641,435.1105 608.3984,433.587 Q611.1328,432.0245 614.2188,432.0245 Q616.0547,432.0245 617.6563,432.4542 Q619.2969,432.8448 620.6641,433.7433 Z " fill="#000000"/><text fill="#000000" font-family="Arial" font-size="30" font-style="italic" lengthAdjust="spacing" textLength="123.4131" x="768.4003" y="433.3862">&#171;screen&#187;</text><text fill="#000000" font-family="Arial" font-size="37.5" lengthAdjust="spacing" textLength="362.7136" x="648.75" y="474.9182">ParentLoginFragment</text><line style="stroke:#2F6FA3;stroke-width:1.25;" x1="578.75" x2="1016.4636" y1="495.365" y2="495.365"/></g><!--class ParentRegisterFragment--><g id="elem_ParentRegisterFragment"><rect codeLine="27" fill="#DCEEFF" height="122.6184" id="ParentRegisterFragment" rx="6.25" ry="6.25" style="stroke:#2F6FA3;stroke-width:1.25;" width="490.5957" x="1065" y="392.7466"/><ellipse cx="1102.5" cy="444.0558" fill="#ADD1B2" rx="27.5" ry="27.5" style="stroke:#181818;stroke-width:2.5;"/><path d="M1109.4141,433.7433 Q1109.8047,433.1964 1110.2734,432.923 Q1110.7422,432.6495 1111.2891,432.6495 Q1112.2266,432.6495 1112.8125,433.3136 Q1113.3984,433.9386 1113.3984,435.462 L1113.3984,439.0948 Q1113.3984,440.6183 1112.8125,441.2823 Q1112.2266,441.9464 1111.2891,441.9464 Q1110.4297,441.9464 1109.9219,441.4386 Q1109.4141,440.9698 1109.1406,439.6808 Q1109.0234,438.7823 1108.5547,438.3136 Q1107.7344,437.3761 1106.2109,436.8292 Q1104.6875,436.2823 1103.125,436.2823 Q1101.2109,436.2823 1099.6094,437.1027 Q1098.0469,437.923 1096.7969,439.798 Q1095.5859,441.673 1095.5859,444.2511 L1095.5859,446.9855 Q1095.5859,450.0714 1097.8125,452.1417 Q1100.0391,454.173 1104.0234,454.173 Q1106.3672,454.173 1108.0078,453.548 Q1108.9844,453.1573 1110.0391,452.0636 Q1110.7031,451.3995 1111.0547,451.2042 Q1111.4453,451.0089 1111.9531,451.0089 Q1112.7734,451.0089 1113.3984,451.673 Q1114.0625,452.298 1114.0625,453.1573 Q1114.0625,454.0167 1113.2031,455.0323 Q1111.9531,456.4777 1109.9609,457.298 Q1107.2656,458.4308 1104.0234,458.4308 Q1100.2344,458.4308 1097.2266,456.8683 Q1094.7656,455.6183 1093.0469,452.962 Q1091.3281,450.2667 1091.3281,447.0636 L1091.3281,444.173 Q1091.3281,440.8527 1092.8516,438.0011 Q1094.4141,435.1105 1097.1484,433.587 Q1099.8828,432.0245 1102.9688,432.0245 Q1104.8047,432.0245 1106.4063,432.4542 Q1108.0469,432.8448 1109.4141,433.7433 Z " fill="#000000"/><text fill="#000000" font-family="Arial" font-size="30" font-style="italic" lengthAdjust="spacing" textLength="123.4131" x="1281.0913" y="433.3862">&#171;screen&#187;</text><text fill="#000000" font-family="Arial" font-size="37.5" lengthAdjust="spacing" textLength="410.5957" x="1137.5" y="474.9182">ParentRegisterFragment</text><line style="stroke:#2F6FA3;stroke-width:1.25;" x1="1067.5" x2="1553.0957" y1="495.365" y2="495.365"/></g><!--class ChildQRLoginFragment--><g id="elem_ChildQRLoginFragment"><rect codeLine="28" fill="#DCEEFF" height="122.6184" id="ChildQRLoginFragment" rx="6.25" ry="6.25" style="stroke:#2F6FA3;stroke-width:1.25;" width="473.9331" x="55" y="392.7466"/><ellipse cx="92.5" cy="444.0558" fill="#ADD1B2" rx="27.5" ry="27.5" style="stroke:#181818;stroke-width:2.5;"/><path d="M99.4141,433.7433 Q99.8047,433.1964 100.2734,432.923 Q100.7422,432.6495 101.2891,432.6495 Q102.2266,432.6495 102.8125,433.3136 Q103.3984,433.9386 103.3984,435.462 L103.3984,439.0948 Q103.3984,440.6183 102.8125,441.2823 Q102.2266,441.9464 101.2891,441.9464 Q100.4297,441.9464 99.9219,441.4386 Q99.4141,440.9698 99.1406,439.6808 Q99.0234,438.7823 98.5547,438.3136 Q97.7344,437.3761 96.2109,436.8292 Q94.6875,436.2823 93.125,436.2823 Q91.2109,436.2823 89.6094,437.1027 Q88.0469,437.923 86.7969,439.798 Q85.5859,441.673 85.5859,444.2511 L85.5859,446.9855 Q85.5859,450.0714 87.8125,452.1417 Q90.0391,454.173 94.0234,454.173 Q96.3672,454.173 98.0078,453.548 Q98.9844,453.1573 100.0391,452.0636 Q100.7031,451.3995 101.0547,451.2042 Q101.4453,451.0089 101.9531,451.0089 Q102.7734,451.0089 103.3984,451.673 Q104.0625,452.298 104.0625,453.1573 Q104.0625,454.0167 103.2031,455.0323 Q101.9531,456.4777 99.9609,457.298 Q97.2656,458.4308 94.0234,458.4308 Q90.2344,458.4308 87.2266,456.8683 Q84.7656,455.6183 83.0469,452.962 Q81.3281,450.2667 81.3281,447.0636 L81.3281,444.173 Q81.3281,440.8527 82.8516,438.0011 Q84.4141,435.1105 87.1484,433.587 Q89.8828,432.0245 92.9688,432.0245 Q94.8047,432.0245 96.4063,432.4542 Q98.0469,432.8448 99.4141,433.7433 Z " fill="#000000"/><text fill="#000000" font-family="Arial" font-size="30" font-style="italic" lengthAdjust="spacing" textLength="123.4131" x="262.76" y="433.3862">&#171;screen&#187;</text><text fill="#000000" font-family="Arial" font-size="37.5" lengthAdjust="spacing" textLength="393.9331" x="127.5" y="474.9182">ChildQRLoginFragment</text><line style="stroke:#2F6FA3;stroke-width:1.25;" x1="57.5" x2="526.4331" y1="495.365" y2="495.365"/></g><!--class ChildSelectionActivity--><g id="elem_ChildSelectionActivity"><rect codeLine="29" fill="#DCEEFF" height="122.6184" id="ChildSelectionActivity" rx="6.25" ry="6.25" style="stroke:#2F6FA3;stroke-width:1.25;" width="438.4839" x="586.25" y="612.7466"/><ellipse cx="623.75" cy="664.0558" fill="#ADD1B2" rx="27.5" ry="27.5" style="stroke:#181818;stroke-width:2.5;"/><path d="M630.6641,653.7433 Q631.0547,653.1964 631.5234,652.923 Q631.9922,652.6495 632.5391,652.6495 Q633.4766,652.6495 634.0625,653.3136 Q634.6484,653.9386 634.6484,655.462 L634.6484,659.0948 Q634.6484,660.6183 634.0625,661.2823 Q633.4766,661.9464 632.5391,661.9464 Q631.6797,661.9464 631.1719,661.4386 Q630.6641,660.9698 630.3906,659.6808 Q630.2734,658.7823 629.8047,658.3136 Q628.9844,657.3761 627.4609,656.8292 Q625.9375,656.2823 624.375,656.2823 Q622.4609,656.2823 620.8594,657.1027 Q619.2969,657.923 618.0469,659.798 Q616.8359,661.673 616.8359,664.2511 L616.8359,666.9855 Q616.8359,670.0714 619.0625,672.1417 Q621.2891,674.173 625.2734,674.173 Q627.6172,674.173 629.2578,673.548 Q630.2344,673.1573 631.2891,672.0636 Q631.9531,671.3995 632.3047,671.2042 Q632.6953,671.0089 633.2031,671.0089 Q634.0234,671.0089 634.6484,671.673 Q635.3125,672.298 635.3125,673.1573 Q635.3125,674.0167 634.4531,675.0323 Q633.2031,676.4777 631.2109,677.298 Q628.5156,678.4308 625.2734,678.4308 Q621.4844,678.4308 618.4766,676.8683 Q616.0156,675.6183 614.2969,672.962 Q612.5781,670.2667 612.5781,667.0636 L612.5781,664.173 Q612.5781,660.8527 614.1016,658.0011 Q615.6641,655.1105 618.3984,653.587 Q621.1328,652.0245 624.2188,652.0245 Q626.0547,652.0245 627.6563,652.4542 Q629.2969,652.8448 630.6641,653.7433 Z " fill="#000000"/><text fill="#000000" font-family="Arial" font-size="30" font-style="italic" lengthAdjust="spacing" textLength="123.4131" x="776.2854" y="653.3862">&#171;screen&#187;</text><text fill="#000000" font-family="Arial" font-size="37.5" lengthAdjust="spacing" textLength="358.4839" x="658.75" y="694.9182">ChildSelectionActivity</text><line style="stroke:#2F6FA3;stroke-width:1.25;" x1="588.75" x2="1022.2339" y1="715.365" y2="715.365"/></g><!--class SelectionChildItem--><g id="elem_SelectionChildItem"><rect codeLine="30" fill="#FFFFFF" height="122.6184" id="SelectionChildItem" rx="6.25" ry="6.25" style="stroke:#666666;stroke-width:1.25;" width="607.2888" x="501.25" y="832.7466"/><ellipse cx="538.75" cy="884.0558" fill="#ADD1B2" rx="27.5" ry="27.5" style="stroke:#181818;stroke-width:2.5;"/><path d="M545.6641,873.7433 Q546.0547,873.1964 546.5234,872.923 Q546.9922,872.6495 547.5391,872.6495 Q548.4766,872.6495 549.0625,873.3136 Q549.6484,873.9386 549.6484,875.462 L549.6484,879.0948 Q549.6484,880.6183 549.0625,881.2823 Q548.4766,881.9464 547.5391,881.9464 Q546.6797,881.9464 546.1719,881.4386 Q545.6641,880.9698 545.3906,879.6808 Q545.2734,878.7823 544.8047,878.3136 Q543.9844,877.3761 542.4609,876.8292 Q540.9375,876.2823 539.375,876.2823 Q537.4609,876.2823 535.8594,877.1027 Q534.2969,877.923 533.0469,879.798 Q531.8359,881.673 531.8359,884.2511 L531.8359,886.9855 Q531.8359,890.0714 534.0625,892.1417 Q536.2891,894.173 540.2734,894.173 Q542.6172,894.173 544.2578,893.548 Q545.2344,893.1573 546.2891,892.0636 Q546.9531,891.3995 547.3047,891.2042 Q547.6953,891.0089 548.2031,891.0089 Q549.0234,891.0089 549.6484,891.673 Q550.3125,892.298 550.3125,893.1573 Q550.3125,894.0167 549.4531,895.0323 Q548.2031,896.4777 546.2109,897.298 Q543.5156,898.4308 540.2734,898.4308 Q536.4844,898.4308 533.4766,896.8683 Q531.0156,895.6183 529.2969,892.962 Q527.5781,890.2667 527.5781,887.0636 L527.5781,884.173 Q527.5781,880.8527 529.1016,878.0011 Q530.6641,875.1105 533.3984,873.587 Q536.1328,872.0245 539.2188,872.0245 Q541.0547,872.0245 542.6563,872.4542 Q544.2969,872.8448 545.6641,873.7433 Z " fill="#000000"/><text fill="#000000" font-family="Arial" font-size="30" font-style="italic" lengthAdjust="spacing" textLength="100.0781" x="787.3553" y="873.3862">&#171;inner&#187;</text><text fill="#000000" font-family="Arial" font-size="37.5" lengthAdjust="spacing" textLength="527.2888" x="573.75" y="914.9182">ChildSelectionActivity.ChildItem</text><line style="stroke:#666666;stroke-width:1.25;" x1="503.75" x2="1106.0388" y1="935.365" y2="935.365"/></g><!--class ParentDashboardActivity--><g id="elem_ParentDashboardActivity"><rect codeLine="34" fill="#DCEEFF" height="122.6184" id="ParentDashboardActivity" rx="6.25" ry="6.25" style="stroke:#2F6FA3;stroke-width:1.25;" width="492.7014" x="3558.75" y="612.7466"/><ellipse cx="3596.25" cy="664.0558" fill="#ADD1B2" rx="27.5" ry="27.5" style="stroke:#181818;stroke-width:2.5;"/><path d="M3603.1641,653.7433 Q3603.5547,653.1964 3604.0234,652.923 Q3604.4922,652.6495 3605.0391,652.6495 Q3605.9766,652.6495 3606.5625,653.3136 Q3607.1484,653.9386 3607.1484,655.462 L3607.1484,659.0948 Q3607.1484,660.6183 3606.5625,661.2823 Q3605.9766,661.9464 3605.0391,661.9464 Q3604.1797,661.9464 3603.6719,661.4386 Q3603.1641,660.9698 3602.8906,659.6808 Q3602.7734,658.7823 3602.3047,658.3136 Q3601.4844,657.3761 3599.9609,656.8292 Q3598.4375,656.2823 3596.875,656.2823 Q3594.9609,656.2823 3593.3594,657.1027 Q3591.7969,657.923 3590.5469,659.798 Q3589.3359,661.673 3589.3359,664.2511 L3589.3359,666.9855 Q3589.3359,670.0714 3591.5625,672.1417 Q3593.7891,674.173 3597.7734,674.173 Q3600.1172,674.173 3601.7578,673.548 Q3602.7344,673.1573 3603.7891,672.0636 Q3604.4531,671.3995 3604.8047,671.2042 Q3605.1953,671.0089 3605.7031,671.0089 Q3606.5234,671.0089 3607.1484,671.673 Q3607.8125,672.298 3607.8125,673.1573 Q3607.8125,674.0167 3606.9531,675.0323 Q3605.7031,676.4777 3603.7109,677.298 Q3601.0156,678.4308 3597.7734,678.4308 Q3593.9844,678.4308 3590.9766,676.8683 Q3588.5156,675.6183 3586.7969,672.962 Q3585.0781,670.2667 3585.0781,667.0636 L3585.0781,664.173 Q3585.0781,660.8527 3586.6016,658.0011 Q3588.1641,655.1105 3590.8984,653.587 Q3593.6328,652.0245 3596.7188,652.0245 Q3598.5547,652.0245 3600.1563,652.4542 Q3601.7969,652.8448 3603.1641,653.7433 Z " fill="#000000"/><text fill="#000000" font-family="Arial" font-size="30" font-style="italic" lengthAdjust="spacing" textLength="123.4131" x="3775.8942" y="653.3862">&#171;screen&#187;</text><text fill="#000000" font-family="Arial" font-size="37.5" lengthAdjust="spacing" textLength="412.7014" x="3631.25" y="694.9182">ParentDashboardActivity</text><line style="stroke:#2F6FA3;stroke-width:1.25;" x1="3561.25" x2="4048.9514" y1="715.365" y2="715.365"/></g><!--class ManageChildrenActivity--><g id="elem_ManageChildrenActivity"><rect codeLine="35" fill="#DCEEFF" height="122.6184" id="ManageChildrenActivity" rx="6.25" ry="6.25" style="stroke:#2F6FA3;stroke-width:1.25;" width="473.9331" x="4692.5" y="832.7466"/><ellipse cx="4730" cy="884.0558" fill="#ADD1B2" rx="27.5" ry="27.5" style="stroke:#181818;stroke-width:2.5;"/><path d="M4736.9141,873.7433 Q4737.3047,873.1964 4737.7734,872.923 Q4738.2422,872.6495 4738.7891,872.6495 Q4739.7266,872.6495 4740.3125,873.3136 Q4740.8984,873.9386 4740.8984,875.462 L4740.8984,879.0948 Q4740.8984,880.6183 4740.3125,881.2823 Q4739.7266,881.9464 4738.7891,881.9464 Q4737.9297,881.9464 4737.4219,881.4386 Q4736.9141,880.9698 4736.6406,879.6808 Q4736.5234,878.7823 4736.0547,878.3136 Q4735.2344,877.3761 4733.7109,876.8292 Q4732.1875,876.2823 4730.625,876.2823 Q4728.7109,876.2823 4727.1094,877.1027 Q4725.5469,877.923 4724.2969,879.798 Q4723.0859,881.673 4723.0859,884.2511 L4723.0859,886.9855 Q4723.0859,890.0714 4725.3125,892.1417 Q4727.5391,894.173 4731.5234,894.173 Q4733.8672,894.173 4735.5078,893.548 Q4736.4844,893.1573 4737.5391,892.0636 Q4738.2031,891.3995 4738.5547,891.2042 Q4738.9453,891.0089 4739.4531,891.0089 Q4740.2734,891.0089 4740.8984,891.673 Q4741.5625,892.298 4741.5625,893.1573 Q4741.5625,894.0167 4740.7031,895.0323 Q4739.4531,896.4777 4737.4609,897.298 Q4734.7656,898.4308 4731.5234,898.4308 Q4727.7344,898.4308 4724.7266,896.8683 Q4722.2656,895.6183 4720.5469,892.962 Q4718.8281,890.2667 4718.8281,887.0636 L4718.8281,884.173 Q4718.8281,880.8527 4720.3516,878.0011 Q4721.9141,875.1105 4724.6484,873.587 Q4727.3828,872.0245 4730.4688,872.0245 Q4732.3047,872.0245 4733.9063,872.4542 Q4735.5469,872.8448 4736.9141,873.7433 Z " fill="#000000"/><text fill="#000000" font-family="Arial" font-size="30" font-style="italic" lengthAdjust="spacing" textLength="123.4131" x="4900.26" y="873.3862">&#171;screen&#187;</text><text fill="#000000" font-family="Arial" font-size="37.5" lengthAdjust="spacing" textLength="393.9331" x="4765" y="914.9182">ManageChildrenActivity</text><line style="stroke:#2F6FA3;stroke-width:1.25;" x1="4695" x2="5163.9331" y1="935.365" y2="935.365"/></g><!--class GenerateQRActivity--><g id="elem_GenerateQRActivity"><rect codeLine="36" fill="#DCEEFF" height="122.6184" id="GenerateQRActivity" rx="6.25" ry="6.25" style="stroke:#2F6FA3;stroke-width:1.25;" width="411.366" x="5213.75" y="832.7466"/><ellipse cx="5251.25" cy="884.0558" fill="#ADD1B2" rx="27.5" ry="27.5" style="stroke:#181818;stroke-width:2.5;"/><path d="M5258.1641,873.7433 Q5258.5547,873.1964 5259.0234,872.923 Q5259.4922,872.6495 5260.0391,872.6495 Q5260.9766,872.6495 5261.5625,873.3136 Q5262.1484,873.9386 5262.1484,875.462 L5262.1484,879.0948 Q5262.1484,880.6183 5261.5625,881.2823 Q5260.9766,881.9464 5260.0391,881.9464 Q5259.1797,881.9464 5258.6719,881.4386 Q5258.1641,880.9698 5257.8906,879.6808 Q5257.7734,878.7823 5257.3047,878.3136 Q5256.4844,877.3761 5254.9609,876.8292 Q5253.4375,876.2823 5251.875,876.2823 Q5249.9609,876.2823 5248.3594,877.1027 Q5246.7969,877.923 5245.5469,879.798 Q5244.3359,881.673 5244.3359,884.2511 L5244.3359,886.9855 Q5244.3359,890.0714 5246.5625,892.1417 Q5248.7891,894.173 5252.7734,894.173 Q5255.1172,894.173 5256.7578,893.548 Q5257.7344,893.1573 5258.7891,892.0636 Q5259.4531,891.3995 5259.8047,891.2042 Q5260.1953,891.0089 5260.7031,891.0089 Q5261.5234,891.0089 5262.1484,891.673 Q5262.8125,892.298 5262.8125,893.1573 Q5262.8125,894.0167 5261.9531,895.0323 Q5260.7031,896.4777 5258.7109,897.298 Q5256.0156,898.4308 5252.7734,898.4308 Q5248.9844,898.4308 5245.9766,896.8683 Q5243.5156,895.6183 5241.7969,892.962 Q5240.0781,890.2667 5240.0781,887.0636 L5240.0781,884.173 Q5240.0781,880.8527 5241.6016,878.0011 Q5243.1641,875.1105 5245.8984,873.587 Q5248.6328,872.0245 5251.7188,872.0245 Q5253.5547,872.0245 5255.1563,872.4542 Q5256.7969,872.8448 5258.1641,873.7433 Z " fill="#000000"/><text fill="#000000" font-family="Arial" font-size="30" font-style="italic" lengthAdjust="spacing" textLength="123.4131" x="5390.2264" y="873.3862">&#171;screen&#187;</text><text fill="#000000" font-family="Arial" font-size="37.5" lengthAdjust="spacing" textLength="331.366" x="5286.25" y="914.9182">GenerateQRActivity</text><line style="stroke:#2F6FA3;stroke-width:1.25;" x1="5216.25" x2="5622.616" y1="935.365" y2="935.365"/></g><!--class AssignTaskToChildActivity--><g id="elem_AssignTaskToChildActivity"><rect codeLine="37" fill="#DCEEFF" height="122.6184" id="AssignTaskToChildActivity" rx="6.25" ry="6.25" style="stroke:#2F6FA3;stroke-width:1.25;" width="521.7969" x="4123.75" y="832.7466"/><ellipse cx="4161.25" cy="884.0558" fill="#ADD1B2" rx="27.5" ry="27.5" style="stroke:#181818;stroke-width:2.5;"/><path d="M4168.1641,873.7433 Q4168.5547,873.1964 4169.0234,872.923 Q4169.4922,872.6495 4170.0391,872.6495 Q4170.9766,872.6495 4171.5625,873.3136 Q4172.1484,873.9386 4172.1484,875.462 L4172.1484,879.0948 Q4172.1484,880.6183 4171.5625,881.2823 Q4170.9766,881.9464 4170.0391,881.9464 Q4169.1797,881.9464 4168.6719,881.4386 Q4168.1641,880.9698 4167.8906,879.6808 Q4167.7734,878.7823 4167.3047,878.3136 Q4166.4844,877.3761 4164.9609,876.8292 Q4163.4375,876.2823 4161.875,876.2823 Q4159.9609,876.2823 4158.3594,877.1027 Q4156.7969,877.923 4155.5469,879.798 Q4154.3359,881.673 4154.3359,884.2511 L4154.3359,886.9855 Q4154.3359,890.0714 4156.5625,892.1417 Q4158.7891,894.173 4162.7734,894.173 Q4165.1172,894.173 4166.7578,893.548 Q4167.7344,893.1573 4168.7891,892.0636 Q4169.4531,891.3995 4169.8047,891.2042 Q4170.1953,891.0089 4170.7031,891.0089 Q4171.5234,891.0089 4172.1484,891.673 Q4172.8125,892.298 4172.8125,893.1573 Q4172.8125,894.0167 4171.9531,895.0323 Q4170.7031,896.4777 4168.7109,897.298 Q4166.0156,898.4308 4162.7734,898.4308 Q4158.9844,898.4308 4155.9766,896.8683 Q4153.5156,895.6183 4151.7969,892.962 Q4150.0781,890.2667 4150.0781,887.0636 L4150.0781,884.173 Q4150.0781,880.8527 4151.6016,878.0011 Q4153.1641,875.1105 4155.8984,873.587 Q4158.6328,872.0245 4161.7188,872.0245 Q4163.5547,872.0245 4165.1563,872.4542 Q4166.7969,872.8448 4168.1641,873.7433 Z " fill="#000000"/><text fill="#000000" font-family="Arial" font-size="30" font-style="italic" lengthAdjust="spacing" textLength="123.4131" x="4355.4419" y="873.3862">&#171;screen&#187;</text><text fill="#000000" font-family="Arial" font-size="37.5" lengthAdjust="spacing" textLength="441.7969" x="4196.25" y="914.9182">AssignTaskToChildActivity</text><line style="stroke:#2F6FA3;stroke-width:1.25;" x1="4126.25" x2="4643.0469" y1="935.365" y2="935.365"/></g><!--class ParentTaskTemplateActivity--><g id="elem_ParentTaskTemplateActivity"><rect codeLine="38" fill="#DCEEFF" height="122.6184" id="ParentTaskTemplateActivity" rx="6.25" ry="6.25" style="stroke:#2F6FA3;stroke-width:1.25;" width="546.8274" x="3531.25" y="832.7466"/><ellipse cx="3568.75" cy="884.0558" fill="#ADD1B2" rx="27.5" ry="27.5" style="stroke:#181818;stroke-width:2.5;"/><path d="M3575.6641,873.7433 Q3576.0547,873.1964 3576.5234,872.923 Q3576.9922,872.6495 3577.5391,872.6495 Q3578.4766,872.6495 3579.0625,873.3136 Q3579.6484,873.9386 3579.6484,875.462 L3579.6484,879.0948 Q3579.6484,880.6183 3579.0625,881.2823 Q3578.4766,881.9464 3577.5391,881.9464 Q3576.6797,881.9464 3576.1719,881.4386 Q3575.6641,880.9698 3575.3906,879.6808 Q3575.2734,878.7823 3574.8047,878.3136 Q3573.9844,877.3761 3572.4609,876.8292 Q3570.9375,876.2823 3569.375,876.2823 Q3567.4609,876.2823 3565.8594,877.1027 Q3564.2969,877.923 3563.0469,879.798 Q3561.8359,881.673 3561.8359,884.2511 L3561.8359,886.9855 Q3561.8359,890.0714 3564.0625,892.1417 Q3566.2891,894.173 3570.2734,894.173 Q3572.6172,894.173 3574.2578,893.548 Q3575.2344,893.1573 3576.2891,892.0636 Q3576.9531,891.3995 3577.3047,891.2042 Q3577.6953,891.0089 3578.2031,891.0089 Q3579.0234,891.0089 3579.6484,891.673 Q3580.3125,892.298 3580.3125,893.1573 Q3580.3125,894.0167 3579.4531,895.0323 Q3578.2031,896.4777 3576.2109,897.298 Q3573.5156,898.4308 3570.2734,898.4308 Q3566.4844,898.4308 3563.4766,896.8683 Q3561.0156,895.6183 3559.2969,892.962 Q3557.5781,890.2667 3557.5781,887.0636 L3557.5781,884.173 Q3557.5781,880.8527 3559.1016,878.0011 Q3560.6641,875.1105 3563.3984,873.587 Q3566.1328,872.0245 3569.2188,872.0245 Q3571.0547,872.0245 3572.6563,872.4542 Q3574.2969,872.8448 3575.6641,873.7433 Z " fill="#000000"/><text fill="#000000" font-family="Arial" font-size="30" font-style="italic" lengthAdjust="spacing" textLength="123.4131" x="3775.4572" y="873.3862">&#171;screen&#187;</text><text fill="#000000" font-family="Arial" font-size="37.5" lengthAdjust="spacing" textLength="466.8274" x="3603.75" y="914.9182">ParentTaskTemplateActivity</text><line style="stroke:#2F6FA3;stroke-width:1.25;" x1="3533.75" x2="4075.5774" y1="935.365" y2="935.365"/></g><!--class ManageChildItem--><g id="elem_ManageChildItem"><rect codeLine="39" fill="#FFFFFF" height="122.6184" id="ManageChildItem" rx="6.25" ry="6.25" style="stroke:#666666;stroke-width:1.25;" width="642.738" x="5286.25" y="1072.7466"/><ellipse cx="5323.75" cy="1124.0558" fill="#ADD1B2" rx="27.5" ry="27.5" style="stroke:#181818;stroke-width:2.5;"/><path d="M5330.6641,1113.7433 Q5331.0547,1113.1964 5331.5234,1112.923 Q5331.9922,1112.6495 5332.5391,1112.6495 Q5333.4766,1112.6495 5334.0625,1113.3136 Q5334.6484,1113.9386 5334.6484,1115.462 L5334.6484,1119.0948 Q5334.6484,1120.6183 5334.0625,1121.2823 Q5333.4766,1121.9464 5332.5391,1121.9464 Q5331.6797,1121.9464 5331.1719,1121.4386 Q5330.6641,1120.9698 5330.3906,1119.6808 Q5330.2734,1118.7823 5329.8047,1118.3136 Q5328.9844,1117.3761 5327.4609,1116.8292 Q5325.9375,1116.2823 5324.375,1116.2823 Q5322.4609,1116.2823 5320.8594,1117.1027 Q5319.2969,1117.923 5318.0469,1119.798 Q5316.8359,1121.673 5316.8359,1124.2511 L5316.8359,1126.9855 Q5316.8359,1130.0714 5319.0625,1132.1417 Q5321.2891,1134.173 5325.2734,1134.173 Q5327.6172,1134.173 5329.2578,1133.548 Q5330.2344,1133.1573 5331.2891,1132.0636 Q5331.9531,1131.3995 5332.3047,1131.2042 Q5332.6953,1131.0089 5333.2031,1131.0089 Q5334.0234,1131.0089 5334.6484,1131.673 Q5335.3125,1132.298 5335.3125,1133.1573 Q5335.3125,1134.0167 5334.4531,1135.0323 Q5333.2031,1136.4777 5331.2109,1137.298 Q5328.5156,1138.4308 5325.2734,1138.4308 Q5321.4844,1138.4308 5318.4766,1136.8683 Q5316.0156,1135.6183 5314.2969,1132.962 Q5312.5781,1130.2667 5312.5781,1127.0636 L5312.5781,1124.173 Q5312.5781,1120.8527 5314.1016,1118.0011 Q5315.6641,1115.1105 5318.3984,1113.587 Q5321.1328,1112.0245 5324.2188,1112.0245 Q5326.0547,1112.0245 5327.6563,1112.4542 Q5329.2969,1112.8448 5330.6641,1113.7433 Z " fill="#000000"/><text fill="#000000" font-family="Arial" font-size="30" font-style="italic" lengthAdjust="spacing" textLength="100.0781" x="5590.08" y="1113.3862">&#171;inner&#187;</text><text fill="#000000" font-family="Arial" font-size="37.5" lengthAdjust="spacing" textLength="562.738" x="5358.75" y="1154.9182">ManageChildrenActivity.ChildItem</text><line style="stroke:#666666;stroke-width:1.25;" x1="5288.75" x2="5926.488" y1="1175.365" y2="1175.365"/></g><!--class ChildListAdapter--><g id="elem_ChildListAdapter"><rect codeLine="40" fill="#FFF3BF" height="122.6184" id="ChildListAdapter" rx="6.25" ry="6.25" style="stroke:#B68A00;stroke-width:1.25;" width="759.5044" x="4480" y="1072.7466"/><ellipse cx="4517.5" cy="1124.0558" fill="#ADD1B2" rx="27.5" ry="27.5" style="stroke:#181818;stroke-width:2.5;"/><path d="M4524.4141,1113.7433 Q4524.8047,1113.1964 4525.2734,1112.923 Q4525.7422,1112.6495 4526.2891,1112.6495 Q4527.2266,1112.6495 4527.8125,1113.3136 Q4528.3984,1113.9386 4528.3984,1115.462 L4528.3984,1119.0948 Q4528.3984,1120.6183 4527.8125,1121.2823 Q4527.2266,1121.9464 4526.2891,1121.9464 Q4525.4297,1121.9464 4524.9219,1121.4386 Q4524.4141,1120.9698 4524.1406,1119.6808 Q4524.0234,1118.7823 4523.5547,1118.3136 Q4522.7344,1117.3761 4521.2109,1116.8292 Q4519.6875,1116.2823 4518.125,1116.2823 Q4516.2109,1116.2823 4514.6094,1117.1027 Q4513.0469,1117.923 4511.7969,1119.798 Q4510.5859,1121.673 4510.5859,1124.2511 L4510.5859,1126.9855 Q4510.5859,1130.0714 4512.8125,1132.1417 Q4515.0391,1134.173 4519.0234,1134.173 Q4521.3672,1134.173 4523.0078,1133.548 Q4523.9844,1133.1573 4525.0391,1132.0636 Q4525.7031,1131.3995 4526.0547,1131.2042 Q4526.4453,1131.0089 4526.9531,1131.0089 Q4527.7734,1131.0089 4528.3984,1131.673 Q4529.0625,1132.298 4529.0625,1133.1573 Q4529.0625,1134.0167 4528.2031,1135.0323 Q4526.9531,1136.4777 4524.9609,1137.298 Q4522.2656,1138.4308 4519.0234,1138.4308 Q4515.2344,1138.4308 4512.2266,1136.8683 Q4509.7656,1135.6183 4508.0469,1132.962 Q4506.3281,1130.2667 4506.3281,1127.0636 L4506.3281,1124.173 Q4506.3281,1120.8527 4507.8516,1118.0011 Q4509.4141,1115.1105 4512.1484,1113.587 Q4514.8828,1112.0245 4517.9688,1112.0245 Q4519.8047,1112.0245 4521.4063,1112.4542 Q4523.0469,1112.8448 4524.4141,1113.7433 Z " fill="#000000"/><text fill="#000000" font-family="Arial" font-size="30" font-style="italic" lengthAdjust="spacing" textLength="135.1172" x="4824.6936" y="1113.3862">&#171;adapter&#187;</text><text fill="#000000" font-family="Arial" font-size="37.5" lengthAdjust="spacing" textLength="679.5044" x="4552.5" y="1154.9182">ManageChildrenActivity.ChildListAdapter</text><line style="stroke:#B68A00;stroke-width:1.25;" x1="4482.5" x2="5237.0044" y1="1175.365" y2="1175.365"/></g><!--class TemplateListAdapter--><g id="elem_TemplateListAdapter"><rect codeLine="41" fill="#FFF3BF" height="122.6184" id="TemplateListAdapter" rx="6.25" ry="6.25" style="stroke:#B68A00;stroke-width:1.25;" width="903.2605" x="3531.25" y="1072.7466"/><ellipse cx="3568.75" cy="1124.0558" fill="#ADD1B2" rx="27.5" ry="27.5" style="stroke:#181818;stroke-width:2.5;"/><path d="M3575.6641,1113.7433 Q3576.0547,1113.1964 3576.5234,1112.923 Q3576.9922,1112.6495 3577.5391,1112.6495 Q3578.4766,1112.6495 3579.0625,1113.3136 Q3579.6484,1113.9386 3579.6484,1115.462 L3579.6484,1119.0948 Q3579.6484,1120.6183 3579.0625,1121.2823 Q3578.4766,1121.9464 3577.5391,1121.9464 Q3576.6797,1121.9464 3576.1719,1121.4386 Q3575.6641,1120.9698 3575.3906,1119.6808 Q3575.2734,1118.7823 3574.8047,1118.3136 Q3573.9844,1117.3761 3572.4609,1116.8292 Q3570.9375,1116.2823 3569.375,1116.2823 Q3567.4609,1116.2823 3565.8594,1117.1027 Q3564.2969,1117.923 3563.0469,1119.798 Q3561.8359,1121.673 3561.8359,1124.2511 L3561.8359,1126.9855 Q3561.8359,1130.0714 3564.0625,1132.1417 Q3566.2891,1134.173 3570.2734,1134.173 Q3572.6172,1134.173 3574.2578,1133.548 Q3575.2344,1133.1573 3576.2891,1132.0636 Q3576.9531,1131.3995 3577.3047,1131.2042 Q3577.6953,1131.0089 3578.2031,1131.0089 Q3579.0234,1131.0089 3579.6484,1131.673 Q3580.3125,1132.298 3580.3125,1133.1573 Q3580.3125,1134.0167 3579.4531,1135.0323 Q3578.2031,1136.4777 3576.2109,1137.298 Q3573.5156,1138.4308 3570.2734,1138.4308 Q3566.4844,1138.4308 3563.4766,1136.8683 Q3561.0156,1135.6183 3559.2969,1132.962 Q3557.5781,1130.2667 3557.5781,1127.0636 L3557.5781,1124.173 Q3557.5781,1120.8527 3559.1016,1118.0011 Q3560.6641,1115.1105 3563.3984,1113.587 Q3566.1328,1112.0245 3569.2188,1112.0245 Q3571.0547,1112.0245 3572.6563,1112.4542 Q3574.2969,1112.8448 3575.6641,1113.7433 Z " fill="#000000"/><text fill="#000000" font-family="Arial" font-size="30" font-style="italic" lengthAdjust="spacing" textLength="135.1172" x="3947.8217" y="1113.3862">&#171;adapter&#187;</text><text fill="#000000" font-family="Arial" font-size="37.5" lengthAdjust="spacing" textLength="823.2605" x="3603.75" y="1154.9182">ParentTaskTemplateActivity.TemplateListAdapter</text><line style="stroke:#B68A00;stroke-width:1.25;" x1="3533.75" x2="4432.0105" y1="1175.365" y2="1175.365"/></g><!--class ChildDashboardActivity--><g id="elem_ChildDashboardActivity"><rect codeLine="45" fill="#DCEEFF" height="122.6184" id="ChildDashboardActivity" rx="6.25" ry="6.25" style="stroke:#2F6FA3;stroke-width:1.25;" width="467.6709" x="2573.75" y="832.7466"/><ellipse cx="2611.25" cy="884.0558" fill="#ADD1B2" rx="27.5" ry="27.5" style="stroke:#181818;stroke-width:2.5;"/><path d="M2618.1641,873.7433 Q2618.5547,873.1964 2619.0234,872.923 Q2619.4922,872.6495 2620.0391,872.6495 Q2620.9766,872.6495 2621.5625,873.3136 Q2622.1484,873.9386 2622.1484,875.462 L2622.1484,879.0948 Q2622.1484,880.6183 2621.5625,881.2823 Q2620.9766,881.9464 2620.0391,881.9464 Q2619.1797,881.9464 2618.6719,881.4386 Q2618.1641,880.9698 2617.8906,879.6808 Q2617.7734,878.7823 2617.3047,878.3136 Q2616.4844,877.3761 2614.9609,876.8292 Q2613.4375,876.2823 2611.875,876.2823 Q2609.9609,876.2823 2608.3594,877.1027 Q2606.7969,877.923 2605.5469,879.798 Q2604.3359,881.673 2604.3359,884.2511 L2604.3359,886.9855 Q2604.3359,890.0714 2606.5625,892.1417 Q2608.7891,894.173 2612.7734,894.173 Q2615.1172,894.173 2616.7578,893.548 Q2617.7344,893.1573 2618.7891,892.0636 Q2619.4531,891.3995 2619.8047,891.2042 Q2620.1953,891.0089 2620.7031,891.0089 Q2621.5234,891.0089 2622.1484,891.673 Q2622.8125,892.298 2622.8125,893.1573 Q2622.8125,894.0167 2621.9531,895.0323 Q2620.7031,896.4777 2618.7109,897.298 Q2616.0156,898.4308 2612.7734,898.4308 Q2608.9844,898.4308 2605.9766,896.8683 Q2603.5156,895.6183 2601.7969,892.962 Q2600.0781,890.2667 2600.0781,887.0636 L2600.0781,884.173 Q2600.0781,880.8527 2601.6016,878.0011 Q2603.1641,875.1105 2605.8984,873.587 Q2608.6328,872.0245 2611.7188,872.0245 Q2613.5547,872.0245 2615.1563,872.4542 Q2616.7969,872.8448 2618.1641,873.7433 Z " fill="#000000"/><text fill="#000000" font-family="Arial" font-size="30" font-style="italic" lengthAdjust="spacing" textLength="123.4131" x="2778.3789" y="873.3862">&#171;screen&#187;</text><text fill="#000000" font-family="Arial" font-size="37.5" lengthAdjust="spacing" textLength="387.6709" x="2646.25" y="914.9182">ChildDashboardActivity</text><line style="stroke:#2F6FA3;stroke-width:1.25;" x1="2576.25" x2="3038.9209" y1="935.365" y2="935.365"/></g><!--class ParentDashboardTaskAdapter--><g id="elem_ParentDashboardTaskAdapter"><rect codeLine="49" fill="#FFF3BF" height="122.6184" id="ParentDashboardTaskAdapter" rx="6.25" ry="6.25" style="stroke:#B68A00;stroke-width:1.25;" width="586.543" x="1896.25" y="832.7466"/><ellipse cx="1933.75" cy="884.0558" fill="#ADD1B2" rx="27.5" ry="27.5" style="stroke:#181818;stroke-width:2.5;"/><path d="M1940.6641,873.7433 Q1941.0547,873.1964 1941.5234,872.923 Q1941.9922,872.6495 1942.5391,872.6495 Q1943.4766,872.6495 1944.0625,873.3136 Q1944.6484,873.9386 1944.6484,875.462 L1944.6484,879.0948 Q1944.6484,880.6183 1944.0625,881.2823 Q1943.4766,881.9464 1942.5391,881.9464 Q1941.6797,881.9464 1941.1719,881.4386 Q1940.6641,880.9698 1940.3906,879.6808 Q1940.2734,878.7823 1939.8047,878.3136 Q1938.9844,877.3761 1937.4609,876.8292 Q1935.9375,876.2823 1934.375,876.2823 Q1932.4609,876.2823 1930.8594,877.1027 Q1929.2969,877.923 1928.0469,879.798 Q1926.8359,881.673 1926.8359,884.2511 L1926.8359,886.9855 Q1926.8359,890.0714 1929.0625,892.1417 Q1931.2891,894.173 1935.2734,894.173 Q1937.6172,894.173 1939.2578,893.548 Q1940.2344,893.1573 1941.2891,892.0636 Q1941.9531,891.3995 1942.3047,891.2042 Q1942.6953,891.0089 1943.2031,891.0089 Q1944.0234,891.0089 1944.6484,891.673 Q1945.3125,892.298 1945.3125,893.1573 Q1945.3125,894.0167 1944.4531,895.0323 Q1943.2031,896.4777 1941.2109,897.298 Q1938.5156,898.4308 1935.2734,898.4308 Q1931.4844,898.4308 1928.4766,896.8683 Q1926.0156,895.6183 1924.2969,892.962 Q1922.5781,890.2667 1922.5781,887.0636 L1922.5781,884.173 Q1922.5781,880.8527 1924.1016,878.0011 Q1925.6641,875.1105 1928.3984,873.587 Q1931.1328,872.0245 1934.2188,872.0245 Q1936.0547,872.0245 1937.6563,872.4542 Q1939.2969,872.8448 1940.6641,873.7433 Z " fill="#000000"/><text fill="#000000" font-family="Arial" font-size="30" font-style="italic" lengthAdjust="spacing" textLength="135.1172" x="2154.4629" y="873.3862">&#171;adapter&#187;</text><text fill="#000000" font-family="Arial" font-size="37.5" lengthAdjust="spacing" textLength="506.543" x="1968.75" y="914.9182">ParentDashboardTaskAdapter</text><line style="stroke:#B68A00;stroke-width:1.25;" x1="1898.75" x2="2480.293" y1="935.365" y2="935.365"/></g><!--class ParentTaskViewHolder--><g id="elem_ParentTaskViewHolder"><rect codeLine="50" fill="#FFF3BF" height="122.6184" id="ParentTaskViewHolder" rx="6.25" ry="6.25" style="stroke:#B68A00;stroke-width:1.25;" width="869.9719" x="1615" y="1072.7466"/><ellipse cx="1652.5" cy="1124.0558" fill="#ADD1B2" rx="27.5" ry="27.5" style="stroke:#181818;stroke-width:2.5;"/><path d="M1659.4141,1113.7433 Q1659.8047,1113.1964 1660.2734,1112.923 Q1660.7422,1112.6495 1661.2891,1112.6495 Q1662.2266,1112.6495 1662.8125,1113.3136 Q1663.3984,1113.9386 1663.3984,1115.462 L1663.3984,1119.0948 Q1663.3984,1120.6183 1662.8125,1121.2823 Q1662.2266,1121.9464 1661.2891,1121.9464 Q1660.4297,1121.9464 1659.9219,1121.4386 Q1659.4141,1120.9698 1659.1406,1119.6808 Q1659.0234,1118.7823 1658.5547,1118.3136 Q1657.7344,1117.3761 1656.2109,1116.8292 Q1654.6875,1116.2823 1653.125,1116.2823 Q1651.2109,1116.2823 1649.6094,1117.1027 Q1648.0469,1117.923 1646.7969,1119.798 Q1645.5859,1121.673 1645.5859,1124.2511 L1645.5859,1126.9855 Q1645.5859,1130.0714 1647.8125,1132.1417 Q1650.0391,1134.173 1654.0234,1134.173 Q1656.3672,1134.173 1658.0078,1133.548 Q1658.9844,1133.1573 1660.0391,1132.0636 Q1660.7031,1131.3995 1661.0547,1131.2042 Q1661.4453,1131.0089 1661.9531,1131.0089 Q1662.7734,1131.0089 1663.3984,1131.673 Q1664.0625,1132.298 1664.0625,1133.1573 Q1664.0625,1134.0167 1663.2031,1135.0323 Q1661.9531,1136.4777 1659.9609,1137.298 Q1657.2656,1138.4308 1654.0234,1138.4308 Q1650.2344,1138.4308 1647.2266,1136.8683 Q1644.7656,1135.6183 1643.0469,1132.962 Q1641.3281,1130.2667 1641.3281,1127.0636 L1641.3281,1124.173 Q1641.3281,1120.8527 1642.8516,1118.0011 Q1644.4141,1115.1105 1647.1484,1113.587 Q1649.8828,1112.0245 1652.9688,1112.0245 Q1654.8047,1112.0245 1656.4063,1112.4542 Q1658.0469,1112.8448 1659.4141,1113.7433 Z " fill="#000000"/><text fill="#000000" font-family="Arial" font-size="30" font-style="italic" lengthAdjust="spacing" textLength="135.1172" x="2014.9274" y="1113.3862">&#171;adapter&#187;</text><text fill="#000000" font-family="Arial" font-size="37.5" lengthAdjust="spacing" textLength="789.9719" x="1687.5" y="1154.9182">ParentDashboardTaskAdapter.TaskViewHolder</text><line style="stroke:#B68A00;stroke-width:1.25;" x1="1617.5" x2="2482.4719" y1="1175.365" y2="1175.365"/></g><!--class AssignedTask--><g id="elem_AssignedTask"><rect codeLine="54" fill="#E2F5E6" height="122.6184" id="AssignedTask" rx="6.25" ry="6.25" style="stroke:#3B8B4F;stroke-width:1.25;" width="315.5286" x="3665" y="1312.7466"/><ellipse cx="3702.5" cy="1364.0558" fill="#ADD1B2" rx="27.5" ry="27.5" style="stroke:#181818;stroke-width:2.5;"/><path d="M3709.4141,1353.7433 Q3709.8047,1353.1964 3710.2734,1352.923 Q3710.7422,1352.6495 3711.2891,1352.6495 Q3712.2266,1352.6495 3712.8125,1353.3136 Q3713.3984,1353.9386 3713.3984,1355.462 L3713.3984,1359.0948 Q3713.3984,1360.6183 3712.8125,1361.2823 Q3712.2266,1361.9464 3711.2891,1361.9464 Q3710.4297,1361.9464 3709.9219,1361.4386 Q3709.4141,1360.9698 3709.1406,1359.6808 Q3709.0234,1358.7823 3708.5547,1358.3136 Q3707.7344,1357.3761 3706.2109,1356.8292 Q3704.6875,1356.2823 3703.125,1356.2823 Q3701.2109,1356.2823 3699.6094,1357.1027 Q3698.0469,1357.923 3696.7969,1359.798 Q3695.5859,1361.673 3695.5859,1364.2511 L3695.5859,1366.9855 Q3695.5859,1370.0714 3697.8125,1372.1417 Q3700.0391,1374.173 3704.0234,1374.173 Q3706.3672,1374.173 3708.0078,1373.548 Q3708.9844,1373.1573 3710.0391,1372.0636 Q3710.7031,1371.3995 3711.0547,1371.2042 Q3711.4453,1371.0089 3711.9531,1371.0089 Q3712.7734,1371.0089 3713.3984,1371.673 Q3714.0625,1372.298 3714.0625,1373.1573 Q3714.0625,1374.0167 3713.2031,1375.0323 Q3711.9531,1376.4777 3709.9609,1377.298 Q3707.2656,1378.4308 3704.0234,1378.4308 Q3700.2344,1378.4308 3697.2266,1376.8683 Q3694.7656,1375.6183 3693.0469,1372.962 Q3691.3281,1370.2667 3691.3281,1367.0636 L3691.3281,1364.173 Q3691.3281,1360.8527 3692.8516,1358.0011 Q3694.4141,1355.1105 3697.1484,1353.587 Q3699.8828,1352.0245 3702.9688,1352.0245 Q3704.8047,1352.0245 3706.4063,1352.4542 Q3708.0469,1352.8448 3709.4141,1353.7433 Z " fill="#000000"/><text fill="#000000" font-family="Arial" font-size="30" font-style="italic" lengthAdjust="spacing" textLength="115.0781" x="3797.7252" y="1353.3862">&#171;model&#187;</text><text fill="#000000" font-family="Arial" font-size="37.5" lengthAdjust="spacing" textLength="235.5286" x="3737.5" y="1394.9182">AssignedTask</text><line style="stroke:#3B8B4F;stroke-width:1.25;" x1="3667.5" x2="3978.0286" y1="1415.365" y2="1415.365"/></g><!--class ChildTask--><g id="elem_ChildTask"><rect codeLine="55" fill="#E2F5E6" height="122.6184" id="ChildTask" rx="6.25" ry="6.25" style="stroke:#3B8B4F;stroke-width:1.25;" width="246.7175" x="4026.25" y="1312.7466"/><ellipse cx="4063.75" cy="1364.0558" fill="#ADD1B2" rx="27.5" ry="27.5" style="stroke:#181818;stroke-width:2.5;"/><path d="M4070.6641,1353.7433 Q4071.0547,1353.1964 4071.5234,1352.923 Q4071.9922,1352.6495 4072.5391,1352.6495 Q4073.4766,1352.6495 4074.0625,1353.3136 Q4074.6484,1353.9386 4074.6484,1355.462 L4074.6484,1359.0948 Q4074.6484,1360.6183 4074.0625,1361.2823 Q4073.4766,1361.9464 4072.5391,1361.9464 Q4071.6797,1361.9464 4071.1719,1361.4386 Q4070.6641,1360.9698 4070.3906,1359.6808 Q4070.2734,1358.7823 4069.8047,1358.3136 Q4068.9844,1357.3761 4067.4609,1356.8292 Q4065.9375,1356.2823 4064.375,1356.2823 Q4062.4609,1356.2823 4060.8594,1357.1027 Q4059.2969,1357.923 4058.0469,1359.798 Q4056.8359,1361.673 4056.8359,1364.2511 L4056.8359,1366.9855 Q4056.8359,1370.0714 4059.0625,1372.1417 Q4061.2891,1374.173 4065.2734,1374.173 Q4067.6172,1374.173 4069.2578,1373.548 Q4070.2344,1373.1573 4071.2891,1372.0636 Q4071.9531,1371.3995 4072.3047,1371.2042 Q4072.6953,1371.0089 4073.2031,1371.0089 Q4074.0234,1371.0089 4074.6484,1371.673 Q4075.3125,1372.298 4075.3125,1373.1573 Q4075.3125,1374.0167 4074.4531,1375.0323 Q4073.2031,1376.4777 4071.2109,1377.298 Q4068.5156,1378.4308 4065.2734,1378.4308 Q4061.4844,1378.4308 4058.4766,1376.8683 Q4056.0156,1375.6183 4054.2969,1372.962 Q4052.5781,1370.2667 4052.5781,1367.0636 L4052.5781,1364.173 Q4052.5781,1360.8527 4054.1016,1358.0011 Q4055.6641,1355.1105 4058.3984,1353.587 Q4061.1328,1352.0245 4064.2188,1352.0245 Q4066.0547,1352.0245 4067.6563,1352.4542 Q4069.2969,1352.8448 4070.6641,1353.7433 Z " fill="#000000"/><text fill="#000000" font-family="Arial" font-size="30" font-style="italic" lengthAdjust="spacing" textLength="115.0781" x="4124.5697" y="1353.3862">&#171;model&#187;</text><text fill="#000000" font-family="Arial" font-size="37.5" lengthAdjust="spacing" textLength="166.7175" x="4098.75" y="1394.9182">ChildTask</text><line style="stroke:#3B8B4F;stroke-width:1.25;" x1="4028.75" x2="4270.4675" y1="1415.365" y2="1415.365"/></g><!--class TaskTemplate--><g id="elem_TaskTemplate"><rect codeLine="56" fill="#E2F5E6" height="122.6184" id="TaskTemplate" rx="6.25" ry="6.25" style="stroke:#3B8B4F;stroke-width:1.25;" width="317.5793" x="3301.25" y="1312.7466"/><ellipse cx="3338.75" cy="1364.0558" fill="#ADD1B2" rx="27.5" ry="27.5" style="stroke:#181818;stroke-width:2.5;"/><path d="M3345.6641,1353.7433 Q3346.0547,1353.1964 3346.5234,1352.923 Q3346.9922,1352.6495 3347.5391,1352.6495 Q3348.4766,1352.6495 3349.0625,1353.3136 Q3349.6484,1353.9386 3349.6484,1355.462 L3349.6484,1359.0948 Q3349.6484,1360.6183 3349.0625,1361.2823 Q3348.4766,1361.9464 3347.5391,1361.9464 Q3346.6797,1361.9464 3346.1719,1361.4386 Q3345.6641,1360.9698 3345.3906,1359.6808 Q3345.2734,1358.7823 3344.8047,1358.3136 Q3343.9844,1357.3761 3342.4609,1356.8292 Q3340.9375,1356.2823 3339.375,1356.2823 Q3337.4609,1356.2823 3335.8594,1357.1027 Q3334.2969,1357.923 3333.0469,1359.798 Q3331.8359,1361.673 3331.8359,1364.2511 L3331.8359,1366.9855 Q3331.8359,1370.0714 3334.0625,1372.1417 Q3336.2891,1374.173 3340.2734,1374.173 Q3342.6172,1374.173 3344.2578,1373.548 Q3345.2344,1373.1573 3346.2891,1372.0636 Q3346.9531,1371.3995 3347.3047,1371.2042 Q3347.6953,1371.0089 3348.2031,1371.0089 Q3349.0234,1371.0089 3349.6484,1371.673 Q3350.3125,1372.298 3350.3125,1373.1573 Q3350.3125,1374.0167 3349.4531,1375.0323 Q3348.2031,1376.4777 3346.2109,1377.298 Q3343.5156,1378.4308 3340.2734,1378.4308 Q3336.4844,1378.4308 3333.4766,1376.8683 Q3331.0156,1375.6183 3329.2969,1372.962 Q3327.5781,1370.2667 3327.5781,1367.0636 L3327.5781,1364.173 Q3327.5781,1360.8527 3329.1016,1358.0011 Q3330.6641,1355.1105 3333.3984,1353.587 Q3336.1328,1352.0245 3339.2188,1352.0245 Q3341.0547,1352.0245 3342.6563,1352.4542 Q3344.2969,1352.8448 3345.6641,1353.7433 Z " fill="#000000"/><text fill="#000000" font-family="Arial" font-size="30" font-style="italic" lengthAdjust="spacing" textLength="115.0781" x="3435.0006" y="1353.3862">&#171;model&#187;</text><text fill="#000000" font-family="Arial" font-size="37.5" lengthAdjust="spacing" textLength="237.5793" x="3373.75" y="1394.9182">TaskTemplate</text><line style="stroke:#3B8B4F;stroke-width:1.25;" x1="3303.75" x2="3616.3293" y1="1415.365" y2="1415.365"/></g><!--class DateUtils--><g id="elem_DateUtils"><rect codeLine="60" fill="#EFEFEF" height="122.6184" id="DateUtils" rx="6.25" ry="6.25" style="stroke:#777777;stroke-width:1.25;" width="232.124" x="2721.25" y="1072.7466"/><ellipse cx="2758.75" cy="1124.0558" fill="#ADD1B2" rx="27.5" ry="27.5" style="stroke:#181818;stroke-width:2.5;"/><path d="M2765.6641,1113.7433 Q2766.0547,1113.1964 2766.5234,1112.923 Q2766.9922,1112.6495 2767.5391,1112.6495 Q2768.4766,1112.6495 2769.0625,1113.3136 Q2769.6484,1113.9386 2769.6484,1115.462 L2769.6484,1119.0948 Q2769.6484,1120.6183 2769.0625,1121.2823 Q2768.4766,1121.9464 2767.5391,1121.9464 Q2766.6797,1121.9464 2766.1719,1121.4386 Q2765.6641,1120.9698 2765.3906,1119.6808 Q2765.2734,1118.7823 2764.8047,1118.3136 Q2763.9844,1117.3761 2762.4609,1116.8292 Q2760.9375,1116.2823 2759.375,1116.2823 Q2757.4609,1116.2823 2755.8594,1117.1027 Q2754.2969,1117.923 2753.0469,1119.798 Q2751.8359,1121.673 2751.8359,1124.2511 L2751.8359,1126.9855 Q2751.8359,1130.0714 2754.0625,1132.1417 Q2756.2891,1134.173 2760.2734,1134.173 Q2762.6172,1134.173 2764.2578,1133.548 Q2765.2344,1133.1573 2766.2891,1132.0636 Q2766.9531,1131.3995 2767.3047,1131.2042 Q2767.6953,1131.0089 2768.2031,1131.0089 Q2769.0234,1131.0089 2769.6484,1131.673 Q2770.3125,1132.298 2770.3125,1133.1573 Q2770.3125,1134.0167 2769.4531,1135.0323 Q2768.2031,1136.4777 2766.2109,1137.298 Q2763.5156,1138.4308 2760.2734,1138.4308 Q2756.4844,1138.4308 2753.4766,1136.8683 Q2751.0156,1135.6183 2749.2969,1132.962 Q2747.5781,1130.2667 2747.5781,1127.0636 L2747.5781,1124.173 Q2747.5781,1120.8527 2749.1016,1118.0011 Q2750.6641,1115.1105 2753.3984,1113.587 Q2756.1328,1112.0245 2759.2188,1112.0245 Q2761.0547,1112.0245 2762.6563,1112.4542 Q2764.2969,1112.8448 2765.6641,1113.7433 Z " fill="#000000"/><text fill="#000000" font-family="Arial" font-size="30" font-style="italic" lengthAdjust="spacing" textLength="71.7188" x="2833.9526" y="1113.3862">&#171;util&#187;</text><text fill="#000000" font-family="Arial" font-size="37.5" lengthAdjust="spacing" textLength="152.124" x="2793.75" y="1154.9182">DateUtils</text><line style="stroke:#777777;stroke-width:1.25;" x1="2723.75" x2="2950.874" y1="1175.365" y2="1175.365"/></g><!--class ImageHelper--><g id="elem_ImageHelper"><rect codeLine="61" fill="#EFEFEF" height="122.6184" id="ImageHelper" rx="6.25" ry="6.25" style="stroke:#777777;stroke-width:1.25;" width="294.6912" x="3000" y="1072.7466"/><ellipse cx="3037.5" cy="1124.0558" fill="#ADD1B2" rx="27.5" ry="27.5" style="stroke:#181818;stroke-width:2.5;"/><path d="M3044.4141,1113.7433 Q3044.8047,1113.1964 3045.2734,1112.923 Q3045.7422,1112.6495 3046.2891,1112.6495 Q3047.2266,1112.6495 3047.8125,1113.3136 Q3048.3984,1113.9386 3048.3984,1115.462 L3048.3984,1119.0948 Q3048.3984,1120.6183 3047.8125,1121.2823 Q3047.2266,1121.9464 3046.2891,1121.9464 Q3045.4297,1121.9464 3044.9219,1121.4386 Q3044.4141,1120.9698 3044.1406,1119.6808 Q3044.0234,1118.7823 3043.5547,1118.3136 Q3042.7344,1117.3761 3041.2109,1116.8292 Q3039.6875,1116.2823 3038.125,1116.2823 Q3036.2109,1116.2823 3034.6094,1117.1027 Q3033.0469,1117.923 3031.7969,1119.798 Q3030.5859,1121.673 3030.5859,1124.2511 L3030.5859,1126.9855 Q3030.5859,1130.0714 3032.8125,1132.1417 Q3035.0391,1134.173 3039.0234,1134.173 Q3041.3672,1134.173 3043.0078,1133.548 Q3043.9844,1133.1573 3045.0391,1132.0636 Q3045.7031,1131.3995 3046.0547,1131.2042 Q3046.4453,1131.0089 3046.9531,1131.0089 Q3047.7734,1131.0089 3048.3984,1131.673 Q3049.0625,1132.298 3049.0625,1133.1573 Q3049.0625,1134.0167 3048.2031,1135.0323 Q3046.9531,1136.4777 3044.9609,1137.298 Q3042.2656,1138.4308 3039.0234,1138.4308 Q3035.2344,1138.4308 3032.2266,1136.8683 Q3029.7656,1135.6183 3028.0469,1132.962 Q3026.3281,1130.2667 3026.3281,1127.0636 L3026.3281,1124.173 Q3026.3281,1120.8527 3027.8516,1118.0011 Q3029.4141,1115.1105 3032.1484,1113.587 Q3034.8828,1112.0245 3037.9688,1112.0245 Q3039.8047,1112.0245 3041.4063,1112.4542 Q3043.0469,1112.8448 3044.4141,1113.7433 Z " fill="#000000"/><text fill="#000000" font-family="Arial" font-size="30" font-style="italic" lengthAdjust="spacing" textLength="71.7188" x="3143.9862" y="1113.3862">&#171;util&#187;</text><text fill="#000000" font-family="Arial" font-size="37.5" lengthAdjust="spacing" textLength="214.6912" x="3072.5" y="1154.9182">ImageHelper</text><line style="stroke:#777777;stroke-width:1.25;" x1="3002.5" x2="3292.1912" y1="1175.365" y2="1175.365"/></g><polygon fill="#181818" points="797.5,392.4431,807.5,369.9431,797.5,379.9431,787.5,369.9431,797.5,392.4431" style="stroke:#181818;stroke-width:2.5;"/><path d="M797.5,302.9027 C797.5,330.9398 797.5,349.3872 797.5,377.4431 " fill="none" style="stroke:#181818;stroke-width:2.5;stroke-dasharray:7.0,7.0;"/><polygon fill="#181818" points="1164.7656,392.6944,1147.663,374.9813,1153.1792,388.0033,1140.1573,393.5195,1164.7656,392.6944" style="stroke:#181818;stroke-width:2.5;"/><path d="M937.5429,300.6969 C1008.0791,329.2554 1079.6155,358.2189 1150.8619,387.0651 " fill="none" style="stroke:#181818;stroke-width:2.5;stroke-dasharray:7.0,7.0;"/><polygon fill="#181818" points="436.289,392.415,460.9012,393.1133,447.851,387.6642,453.3,374.614,436.289,392.415" style="stroke:#181818;stroke-width:2.5;"/><path d="M657.5,301.5213 C588.6119,329.8268 519.5553,358.2016 450.1634,386.7141 " fill="none" style="stroke:#181818;stroke-width:2.5;stroke-dasharray:7.0,7.0;"/><polygon fill="#181818" points="3558.7245,654.4088,3536.9582,642.8988,3546.2535,653.557,3535.5953,662.8523,3558.7245,654.4088" style="stroke:#181818;stroke-width:2.5;"/><path d="M1018.8103,511.6461 C1026.7847,512.9698 1034.6995,514.1783 1042.5,515.2466 C1281.5437,547.983 1344.0156,523.4112 1585,535.2466 C2302.3592,570.4781 3134.2633,625.4171 3543.7593,653.3866 " fill="none" style="stroke:#181818;stroke-width:2.5;stroke-dasharray:7.0,7.0;"/><polygon fill="#181818" points="3558.0211,650.2138,3536.4627,638.319,3545.5672,649.1407,3534.7456,658.2452,3558.0211,650.2138" style="stroke:#181818;stroke-width:2.5;"/><path d="M1556.0584,477.7 C2033.3713,518.8312 3065.0327,607.7319 3543.0764,648.926 " fill="none" style="stroke:#181818;stroke-width:2.5;stroke-dasharray:7.0,7.0;"/><polygon fill="#181818" points="664.5931,612.5942,647.7134,594.6686,653.0664,607.7586,639.9764,613.1115,664.5931,612.5942" style="stroke:#181818;stroke-width:2.5;"/><path d="M433.2208,515.5307 C505.2286,545.7388 578.7979,576.6021 650.761,606.7914 " fill="none" style="stroke:#181818;stroke-width:2.5;stroke-dasharray:7.0,7.0;"/><polygon fill="#181818" points="2706.8679,832.6972,2691.6313,813.3556,2695.8114,826.8659,2682.3011,831.046,2706.8679,832.6972" style="stroke:#181818;stroke-width:2.5;"/><path d="M1024.1037,676.0439 C1419.9502,676.9738 2238.8432,687.3817 2515,755.2466 C2581.914,771.6906 2638.7838,796.7886 2693.6001,825.6996 " fill="none" style="stroke:#181818;stroke-width:2.5;stroke-dasharray:7.0,7.0;"/><ellipse cx="805" cy="756.3861" fill="#FFFFFF" rx="20" ry="20" style="stroke:#181818;stroke-width:2.5;"/><line style="stroke:#181818;stroke-width:2.5;" x1="805" x2="805" y1="776.3861" y2="736.3861"/><line style="stroke:#181818;stroke-width:2.5;" x1="785" x2="825" y1="756.3861" y2="756.3861"/><path d="M805,776.3861 C805,806.4549 805,802.7516 805,832.6714 " fill="none" style="stroke:#181818;stroke-width:2.5;"/><polygon fill="#181818" points="3880.0343,1312.707,3903.4774,1305.1789,3889.3578,1304.3809,3890.1557,1290.2613,3880.0343,1312.707" style="stroke:#181818;stroke-width:2.5;"/><path d="M4051.5969,678.5629 C4519.8771,683.7242 5504.2934,700.9543 5650,755.2466 C5879.2891,840.6828 6124.6319,1041.3402 5952.5,1215.2466 C5914.3933,1253.7461 4053.7625,1217.7398 4002.5,1235.2466 C3956.5086,1250.9532 3924.0281,1273.4196 3891.2225,1302.7157 " fill="none" style="stroke:#181818;stroke-width:2.5;stroke-dasharray:7.0,7.0;"/><polygon fill="#181818" points="2314.3627,832.6583,2338.9833,832.9356,2325.8418,827.7106,2331.0669,814.5691,2314.3627,832.6583" style="stroke:#181818;stroke-width:2.5;"/><path d="M3558.1729,682.9388 C3246.7929,692.6227 2729.4069,714.3199 2542.5,755.2466 C2464.3079,772.3681 2394.3607,798.1774 2328.1376,826.721 " fill="none" style="stroke:#181818;stroke-width:2.5;stroke-dasharray:7.0,7.0;"/><polygon fill="#181818" points="4837.7371,832.3574,4823.2921,812.4177,4826.9245,826.0854,4813.2568,829.7178,4837.7371,832.3574" style="stroke:#181818;stroke-width:2.5;"/><path d="M4051.6697,688.4218 C4264.9565,700.6746 4556.0276,722.5987 4667.5,755.2466 C4727.1242,772.7092 4776.0534,796.5766 4824.762,824.831 " fill="none" style="stroke:#181818;stroke-width:2.5;stroke-dasharray:7.0,7.0;"/><polygon fill="#181818" points="3805,832.6714,3815,810.1714,3805,820.1714,3795,810.1714,3805,832.6714" style="stroke:#181818;stroke-width:2.5;"/><path d="M3805,736.3861 C3805,766.4549 3805,787.7516 3805,817.6714 " fill="none" style="stroke:#181818;stroke-width:2.5;stroke-dasharray:7.0,7.0;"/><polygon fill="#181818" points="4274.0371,832.5534,4258.4072,813.5282,4262.8634,826.95,4249.4417,831.4062,4274.0371,832.5534" style="stroke:#181818;stroke-width:2.5;"/><path d="M4041.3168,735.3898 C4061.3137,741.638 4081.1016,748.275 4100,755.2466 C4158.9141,776.9797 4208.7325,799.8041 4260.6287,825.8293 " fill="none" style="stroke:#181818;stroke-width:2.5;stroke-dasharray:7.0,7.0;"/><polygon fill="#181818" points="5341.4393,832.152,5328.3826,811.2768,5331.0779,825.1597,5317.195,827.855,5341.4393,832.152" style="stroke:#181818;stroke-width:2.5;"/><path d="M4051.6984,676.5456 C4391.3191,679.0027 4984.2421,692.5434 5190,755.2466 C5244.1623,771.7521 5286.5032,795.0791 5329.0056,823.7613 " fill="none" style="stroke:#181818;stroke-width:2.5;stroke-dasharray:7.0,7.0;"/><polygon fill="#181818" points="2884.269,1072.5076,2906.7747,1062.5206,2892.6506,1063.2341,2891.9372,1049.11,2884.269,1072.5076" style="stroke:#181818;stroke-width:2.5;"/><path d="M3564.9125,735.3557 C3545.327,741.5759 3525.9767,748.2179 3507.5,755.2466 C3305.0043,832.2774 3276.9038,903.4319 3072.5,975.2466 C3031.7916,989.5489 3015.5776,974.9531 2977.5,995.2466 C2941.8825,1014.229 2919.185,1033.8763 2894.327,1061.3794 " fill="none" style="stroke:#181818;stroke-width:2.5;stroke-dasharray:7.0,7.0;"/><ellipse cx="4906.6265" cy="974.9647" fill="#FFFFFF" rx="20" ry="20" style="stroke:#181818;stroke-width:2.5;"/><line style="stroke:#181818;stroke-width:2.5;" x1="4900.917" x2="4912.336" y1="994.1324" y2="955.797"/><line style="stroke:#181818;stroke-width:2.5;" x1="4887.4588" x2="4925.7942" y1="969.2552" y2="980.6743"/><path d="M4900.917,994.1324 C4890.3055,1029.7567 4888.2688,1036.5943 4877.6583,1072.2151 " fill="none" style="stroke:#181818;stroke-width:2.5;"/><ellipse cx="5141.3967" cy="961.0251" fill="#FFFFFF" rx="20" ry="20" style="stroke:#181818;stroke-width:2.5;"/><line style="stroke:#181818;stroke-width:2.5;" x1="5160.5621" x2="5122.2313" y1="966.7424" y2="955.3078"/><line style="stroke:#181818;stroke-width:2.5;" x1="5135.6794" x2="5147.114" y1="980.1905" y2="941.8597"/><path d="M5160.5621,966.7424 C5183.3779,973.5487 5168.0267,968.8892 5190,975.2466 C5222.1089,984.5365 5230.799,984.648 5262.5,995.2466 C5331.209,1018.218 5406.1552,1047.3122 5468.5878,1072.7115 " fill="none" style="stroke:#181818;stroke-width:2.5;"/><polygon fill="#181818" points="3446.7986,1312.1175,3452.7469,1288.2247,3444.6318,1299.8068,3433.0497,1291.6916,3446.7986,1312.1175" style="stroke:#181818;stroke-width:2.5;"/><path d="M4196.2555,955.3424 C4164.4002,963.3396 4131.4613,970.4381 4100,975.2466 C4067.4427,980.2226 3531.8333,973.0513 3507.5,995.2466 C3420.1846,1074.8899 3429.3622,1213.0533 3444.1984,1297.3446 " fill="none" style="stroke:#181818;stroke-width:2.5;stroke-dasharray:7.0,7.0;"/><polygon fill="#181818" points="4273.8551,1370.2145,4296.4893,1379.9071,4286.354,1370.0442,4296.2168,1359.9089,4273.8551,1370.2145" style="stroke:#181818;stroke-width:2.5;"/><path d="M4571.3608,955.2568 C4603.94,963.4348 4637.7342,970.6143 4670,975.2466 C4705.2677,980.3098 5927.5034,969.8572 5952.5,995.2466 C6021.0982,1064.9229 6018.5864,1143.1836 5952.5,1215.2466 C5839.251,1338.7372 4677.5607,1364.7149 4288.8538,1370.0102 " fill="none" style="stroke:#181818;stroke-width:2.5;stroke-dasharray:7.0,7.0;"/><polygon fill="#181818" points="3241.8596,1072.5989,3266.3759,1070.318,3252.7628,1066.4859,3256.595,1052.8728,3241.8596,1072.5989" style="stroke:#181818;stroke-width:2.5;"/><path d="M4197.043,955.2608 C4164.9465,963.3238 4131.7249,970.4646 4100,975.2466 C3951.6104,997.6135 3570.6563,959.1358 3425,995.2466 C3360.6641,1011.1966 3306.9033,1036.1312 3254.9435,1065.2633 " fill="none" style="stroke:#181818;stroke-width:2.5;stroke-dasharray:7.0,7.0;"/><polygon fill="#181818" points="3431.7638,1312.3616,3432.2607,1287.7445,3426.9186,1300.8389,3413.8243,1295.4968,3431.7638,1312.3616" style="stroke:#181818;stroke-width:2.5;"/><path d="M3531.0014,943.371 C3481.8292,957.282 3441.0542,974.4872 3425,995.2466 C3353.9646,1087.1012 3392.0751,1217.9743 3425.9496,1298.5343 " fill="none" style="stroke:#181818;stroke-width:2.5;stroke-dasharray:7.0,7.0;"/><polygon fill="#181818" points="3212.3348,1072.1063,3236.0532,1065.4968,3221.9754,1064.1496,3223.3226,1050.0718,3212.3348,1072.1063" style="stroke:#181818;stroke-width:2.5;"/><path d="M3531.0213,932.3023 C3463.4729,946.8099 3392.5919,967.0587 3330,995.2466 C3287.4578,1014.4052 3256.9283,1035.3022 3223.9035,1062.5583 " fill="none" style="stroke:#181818;stroke-width:2.5;stroke-dasharray:7.0,7.0;"/><ellipse cx="3861.845" cy="971.7562" fill="#FFFFFF" rx="20" ry="20" style="stroke:#181818;stroke-width:2.5;"/><line style="stroke:#181818;stroke-width:2.5;" x1="3873.8993" x2="3849.7907" y1="987.7153" y2="955.797"/><line style="stroke:#181818;stroke-width:2.5;" x1="3845.8858" x2="3877.8042" y1="983.8104" y2="959.7019"/><path d="M3873.8993,987.7153 C3900.8069,1023.3396 3910.8185,1036.5943 3937.7236,1072.2151 " fill="none" style="stroke:#181818;stroke-width:2.5;"/><polygon fill="#181818" points="4104.1684,1312.2768,4096.4947,1288.881,4095.7845,1303.0053,4081.6602,1302.2951,4104.1684,1312.2768" style="stroke:#181818;stroke-width:2.5;"/><path d="M2718.2102,956.0297 C2706.7923,967.6301 2696.7512,980.7538 2690,995.2466 C2648.7118,1083.8794 2621.3894,1145.5825 2690,1215.2466 C2715.5858,1241.2252 3968.6453,1221.7048 4002.5,1235.2466 C4042.3122,1251.1714 4067.8571,1272.1209 4094.1077,1301.151 " fill="none" style="stroke:#181818;stroke-width:2.5;stroke-dasharray:7.0,7.0;"/><polygon fill="#181818" points="2829.9322,1072.2151,2837.0024,1048.6299,2828.3493,1059.8158,2817.1634,1051.1626,2829.9322,1072.2151" style="stroke:#181818;stroke-width:2.5;"/><path d="M2815.0703,955.797 C2819.618,991.4212 2823.4853,1021.715 2828.0327,1057.3359 " fill="none" style="stroke:#181818;stroke-width:2.5;stroke-dasharray:7.0,7.0;"/><polygon fill="#181818" points="3076.9699,1072.2458,3065.7722,1050.3173,3067.2537,1064.3816,3053.1894,1065.8631,3076.9699,1072.2458" style="stroke:#181818;stroke-width:2.5;"/><path d="M2912.5161,955.4511 C2933.5377,968.0736 2955.2269,981.7013 2975,995.2466 C3009.6325,1018.9711 3034.6922,1038.0263 3065.3105,1062.8087 " fill="none" style="stroke:#181818;stroke-width:2.5;stroke-dasharray:7.0,7.0;"/><polygon fill="#181818" points="3763.1538,1312.1673,3752.8011,1289.8274,3753.7448,1303.938,3739.6342,1304.8818,3763.1538,1312.1673" style="stroke:#181818;stroke-width:2.5;"/><path d="M2441.469,955.2476 C2465.02,966.3669 2487.5147,979.5711 2507.5,995.2466 C2597.3116,1065.69 2541.1932,1158.1011 2640,1215.2466 C2688.1012,1243.0662 3587.4433,1217.2063 3640,1235.2466 C3685.9998,1251.0361 3718.636,1273.2311 3751.863,1302.2922 " fill="none" style="stroke:#181818;stroke-width:2.5;stroke-dasharray:7.0,7.0;"/><polygon fill="#181818" points="2743.9445,1072.405,2729.6074,1052.3876,2733.166,1066.0747,2719.4789,1069.6333,2743.9445,1072.405" style="stroke:#181818;stroke-width:2.5;"/><path d="M2469.4323,955.5305 C2510.4148,967.0434 2551.6932,980.2726 2590,995.2466 C2642.9926,1015.9612 2685.8437,1038.2819 2731.0103,1064.8086 " fill="none" style="stroke:#181818;stroke-width:2.5;stroke-dasharray:7.0,7.0;"/><polygon fill="#181818" points="3091.807,1072.678,3082.0687,1050.0634,3082.6264,1064.1946,3068.4953,1064.7523,3091.807,1072.678" style="stroke:#181818;stroke-width:2.5;"/><path d="M2426.9545,955.3287 C2465.3808,963.1644 2504.8976,970.2157 2542.5,975.2466 C2637.8641,988.0056 2884.8649,961.5901 2975,995.2466 C3018.9748,1011.6668 3049.4976,1033.5815 3080.7903,1062.4979 " fill="none" style="stroke:#181818;stroke-width:2.5;stroke-dasharray:7.0,7.0;"/><ellipse cx="2144.436" cy="972.979" fill="#FFFFFF" rx="20" ry="20" style="stroke:#181818;stroke-width:2.5;"/><line style="stroke:#181818;stroke-width:2.5;" x1="2134.1999" x2="2154.6721" y1="990.1611" y2="955.797"/><line style="stroke:#181818;stroke-width:2.5;" x1="2127.254" x2="2161.618" y1="962.7429" y2="983.2151"/><path d="M2134.1999,990.1611 C2112.9769,1025.7853 2106.5375,1036.5943 2085.3166,1072.2151 " fill="none" style="stroke:#181818;stroke-width:2.5;"/><polygon fill="#181818" points="3527.2063,1312.1621,3550.994,1305.8062,3536.9313,1304.3089,3538.4287,1290.2462,3527.2063,1312.1621" style="stroke:#181818;stroke-width:2.5;"/><path d="M3739.7086,1195.3534 C3706.3152,1206.7871 3673.038,1220.041 3642.5,1235.2466 C3601.4418,1255.6904 3571.7913,1276.1583 3538.8763,1302.7382 " fill="none" style="stroke:#181818;stroke-width:2.5;stroke-dasharray:7.0,7.0;"/><text fill="#000000" font-family="Arial" font-size="35" lengthAdjust="spacing" textLength="1445.4932" x="2241.0034" y="1495.5762">Current Java source. Child flow uses QR scan, then child selection, then the child dashboard.</text><!--SRC=[ZLLTJzim57tthxZh7ZSgLg3Z0I6bfHbCOnk5xTqa9h58xCXsMh5f_tsscm-JE0cjL5M-vvxxwUDtXS19ZY73BxnK87EYCCD8FbDMO85pY0iAYzDZvqIcEEPxoX9umfaaZYMZZAYNWW0NAkME8Sgmb85IWZwMYjn4dDtJFmHSrfWyuJ9J8MVgEyu918BYh4jXhDRpqvbZAd3qZ1FI6iyTOo04txUcHPTofPqJmKiMhtd6nSM5Z0GXxF8Itb-jDvimx3bm4HFH0o_2PHYSJBBdF2QPmMyMuTbcEKhUO4zMvwlJS98RnxXGH1YFC0nFLkEfE-ZLyZmuFfxaBnKzf1wQxoXv3VriFvFCbB4cxt2YvGrsQJyefJ41aXVg1VJofZoMI56L4GXnJhCNUC3oMS8Hh4iX25EmDepmOqV4Zf8zYdGNA6UD-IlUOP2y516PmpgbMGnF6Tz3AOc4kot82BEFe5B28B9MIJ8I6OhgLFzKbXZBz95Z4SyHgdOKPhXKwQpUBVYBR85mYoaBDCkEwZBQjQgiFx59xHjFA0lDTJLv3e2s9A5IZtKOPskwsqwmMTHzNTfmQZC_S6wFRnJ9Pu0bDFRc69f1edzETmfRHBy_X-AkweOEvtEhrIiXDeps6CPz8JeuLkHkEum9fAG9C_lpm2tZr8GiLAzYfeb7MkRFiTCo1zJfrnjOlkaT20xtsv9r3y6v_ZNVS0dp-g1Bwpb_nUnErbw9_c1jPgDpTKagQZch5MveGKmPaxNwq7Fp_xSMXckUnLMPRMTQms2TLhHDWWU1Rn8yB1EniQ3HThSBNeix3yVeHZHQQmDQMMu2NccFNyO4jHnNXfjSkrsJhB1LL2PD-4g3vlDBd-mCWRgoqyVvP0VvXAqbxQq56j2uCHVarRicevvoeG7bQppw8GOyFXmTUOGFeI4jCn7SBHa53c_mg9jVDDuGoQSBRwZ48vwZNdrP7eKtEswsrolyPWXTzHl3TcGNeU57m2JWjcK2sjpn2PnpFUjTyRuhlV0JM9Tt16gQuD7rwXxvnz2MDW9gPpK2yXJlrVIfkzB5ji4dWFqkUQ6cIxvd0I7VczWTrNy0]--></g></svg>