<svg xmlns="http://www.w3.org/2000/svg" xmlns:xlink="http://www.w3.org/1999/xlink" contentStyleType="text/css" height="927.5px" preserveAspectRatio="none" style="width:1365px;height:927px;background:#FFFFFF;" version="1.1" viewBox="0 0 1365 927" width="1365px" zoomAndPan="magnify"><title>Family Tasks - Model Classes</title><defs/><g><text fill="#000000" font-family="Arial" font-size="35" font-weight="bold" lengthAdjust="spacing" textLength="494.1016" x="426.5332" y="57.8296">Family Tasks - Model Classes</text><!--cluster models--><g id="cluster_models"><path d="M287.334,102.7466 L447.3779,102.7466 A9.375,9.375 0 0 1 453.6279,108.9966 L471.1279,169.4922 L1117.334,169.4922 A6.25,6.25 0 0 1 1123.584,175.7422 L1123.584,851.4966 A6.25,6.25 0 0 1 1117.334,857.7466 L287.334,857.7466 A6.25,6.25 0 0 1 281.084,851.4966 L281.084,108.9966 A6.25,6.25 0 0 1 287.334,102.7466 " fill="#E2F5E6" style="stroke:#000000;stroke-width:3.75;"/><line style="stroke:#000000;stroke-width:3.75;" x1="281.084" x2="471.1279" y1="169.4922" y2="169.4922"/><text fill="#000000" font-family="Arial" font-size="45" font-weight="bold" lengthAdjust="spacing" textLength="157.5439" x="291.084" y="149.9561">models</text></g><!--class AssignedTask--><g id="elem_AssignedTask"><rect codeLine="16" fill="#E2F5E6" height="323.8513" id="AssignedTask" rx="6.25" ry="6.25" style="stroke:#3B8B4F;stroke-width:1.25;" width="376.2915" x="302.334" y="180.2466"/><ellipse cx="367.1773" cy="231.5558" fill="#ADD1B2" rx="27.5" ry="27.5" style="stroke:#181818;stroke-width:2.5;"/><path d="M374.0914,221.2433 Q374.482,220.6964 374.9507,220.423 Q375.4195,220.1495 375.9664,220.1495 Q376.9039,220.1495 377.4898,220.8136 Q378.0757,221.4386 378.0757,222.962 L378.0757,226.5948 Q378.0757,228.1183 377.4898,228.7823 Q376.9039,229.4464 375.9664,229.4464 Q375.107,229.4464 374.5992,228.9386 Q374.0914,228.4698 373.8179,227.1808 Q373.7007,226.2823 373.232,225.8136 Q372.4117,224.8761 370.8882,224.3292 Q369.3648,223.7823 367.8023,223.7823 Q365.8882,223.7823 364.2867,224.6027 Q362.7242,225.423 361.4742,227.298 Q360.2632,229.173 360.2632,231.7511 L360.2632,234.4855 Q360.2632,237.5714 362.4898,239.6417 Q364.7164,241.673 368.7007,241.673 Q371.0445,241.673 372.6851,241.048 Q373.6617,240.6573 374.7164,239.5636 Q375.3804,238.8995 375.732,238.7042 Q376.1226,238.5089 376.6304,238.5089 Q377.4507,238.5089 378.0757,239.173 Q378.7398,239.798 378.7398,240.6573 Q378.7398,241.5167 377.8804,242.5323 Q376.6304,243.9777 374.6382,244.798 Q371.9429,245.9308 368.7007,245.9308 Q364.9117,245.9308 361.9039,244.3683 Q359.4429,243.1183 357.7242,240.462 Q356.0054,237.7667 356.0054,234.5636 L356.0054,231.673 Q356.0054,228.3527 357.5289,225.5011 Q359.0914,222.6105 361.8257,221.087 Q364.5601,219.5245 367.6461,219.5245 Q369.482,219.5245 371.0836,219.9542 Q372.7242,220.3448 374.0914,221.2433 Z " fill="#000000"/><text fill="#000000" font-family="Arial" font-size="30" font-style="italic" lengthAdjust="spacing" textLength="115.0781" x="468.4788" y="220.8862">&#171;model&#187;</text><text fill="#000000" font-family="Arial" font-size="37.5" lengthAdjust="spacing" textLength="235.5286" x="408.2536" y="262.4182">AssignedTask</text><line style="stroke:#3B8B4F;stroke-width:1.25;" x1="304.834" x2="676.1255" y1="282.865" y2="282.865"/><text fill="#000000" font-family="Arial" font-size="35" lengthAdjust="spacing" textLength="297.6025" x="317.334" y="325.6946">-childName : String</text><text fill="#000000" font-family="Arial" font-size="35" lengthAdjust="spacing" textLength="186.7236" x="317.334" y="365.9412">-title : String</text><text fill="#000000" font-family="Arial" font-size="35" lengthAdjust="spacing" textLength="223.7231" x="317.334" y="406.1877">-dueAt : String</text><text fill="#000000" font-family="Arial" font-size="35" lengthAdjust="spacing" textLength="346.2915" x="317.334" y="446.4343">-imageBase64 : String</text><text fill="#000000" font-family="Arial" font-size="35" lengthAdjust="spacing" textLength="274.3433" x="317.334" y="486.6809">-isDone : boolean</text></g><!--class ChildTask--><g id="elem_ChildTask"><rect codeLine="24" fill="#E2F5E6" height="323.8513" id="ChildTask" rx="6.25" ry="6.25" style="stroke:#3B8B4F;stroke-width:1.25;" width="376.2915" x="724.834" y="180.2466"/><ellipse cx="820.6423" cy="231.5558" fill="#ADD1B2" rx="27.5" ry="27.5" style="stroke:#181818;stroke-width:2.5;"/><path d="M827.5563,221.2433 Q827.947,220.6964 828.4157,220.423 Q828.8845,220.1495 829.4313,220.1495 Q830.3688,220.1495 830.9548,220.8136 Q831.5407,221.4386 831.5407,222.962 L831.5407,226.5948 Q831.5407,228.1183 830.9548,228.7823 Q830.3688,229.4464 829.4313,229.4464 Q828.572,229.4464 828.0641,228.9386 Q827.5563,228.4698 827.2829,227.1808 Q827.1657,226.2823 826.697,225.8136 Q825.8766,224.8761 824.3532,224.3292 Q822.8298,223.7823 821.2673,223.7823 Q819.3532,223.7823 817.7516,224.6027 Q816.1891,225.423 814.9391,227.298 Q813.7282,229.173 813.7282,231.7511 L813.7282,234.4855 Q813.7282,237.5714 815.9548,239.6417 Q818.1813,241.673 822.1657,241.673 Q824.5095,241.673 826.1501,241.048 Q827.1266,240.6573 828.1813,239.5636 Q828.8454,238.8995 829.197,238.7042 Q829.5876,238.5089 830.0954,238.5089 Q830.9157,238.5089 831.5407,239.173 Q832.2048,239.798 832.2048,240.6573 Q832.2048,241.5167 831.3454,242.5323 Q830.0954,243.9777 828.1032,244.798 Q825.4079,245.9308 822.1657,245.9308 Q818.3766,245.9308 815.3688,244.3683 Q812.9079,243.1183 811.1891,240.462 Q809.4704,237.7667 809.4704,234.5636 L809.4704,231.673 Q809.4704,228.3527 810.9938,225.5011 Q812.5563,222.6105 815.2907,221.087 Q818.0251,219.5245 821.111,219.5245 Q822.947,219.5245 824.5485,219.9542 Q826.1891,220.3448 827.5563,221.2433 Z " fill="#000000"/><text fill="#000000" font-family="Arial" font-size="30" font-style="italic" lengthAdjust="spacing" textLength="115.0781" x="894.4194" y="220.8862">&#171;model&#187;</text><text fill="#000000" font-family="Arial" font-size="37.5" lengthAdjust="spacing" textLength="166.7175" x="868.5997" y="262.4182">ChildTask</text><line style="stroke:#3B8B4F;stroke-width:1.25;" x1="727.334" x2="1098.6255" y1="282.865" y2="282.865"/><text fill="#000000" font-family="Arial" font-size="35" lengthAdjust="spacing" textLength="159.4995" x="739.834" y="325.6946">-id : String</text><text fill="#000000" font-family="Arial" font-size="35" lengthAdjust="spacing" textLength="186.7236" x="739.834" y="365.9412">-title : String</text><text fill="#000000" font-family="Arial" font-size="35" lengthAdjust="spacing" textLength="223.7231" x="739.834" y="406.1877">-dueAt : String</text><text fill="#000000" font-family="Arial" font-size="35" lengthAdjust="spacing" textLength="274.3433" x="739.834" y="446.4343">-isDone : boolean</text><text fill="#000000" font-family="Arial" font-size="35" lengthAdjust="spacing" textLength="346.2915" x="739.834" y="486.6809">-imageBase64 : String</text></g><!--class TaskTemplate--><g id="elem_TaskTemplate"><rect codeLine="32" fill="#E2F5E6" height="243.3582" id="TaskTemplate" rx="6.25" ry="6.25" style="stroke:#3B8B4F;stroke-width:1.25;" width="376.2915" x="302.334" y="595.2466"/><ellipse cx="366.2545" cy="646.5558" fill="#ADD1B2" rx="27.5" ry="27.5" style="stroke:#181818;stroke-width:2.5;"/><path d="M373.1685,636.2433 Q373.5591,635.6964 374.0279,635.423 Q374.4966,635.1495 375.0435,635.1495 Q375.981,635.1495 376.567,635.8136 Q377.1529,636.4386 377.1529,637.962 L377.1529,641.5948 Q377.1529,643.1183 376.567,643.7823 Q375.981,644.4464 375.0435,644.4464 Q374.1841,644.4464 373.6763,643.9386 Q373.1685,643.4698 372.8951,642.1808 Q372.7779,641.2823 372.3091,640.8136 Q371.4888,639.8761 369.9654,639.3292 Q368.442,638.7823 366.8795,638.7823 Q364.9654,638.7823 363.3638,639.6027 Q361.8013,640.423 360.5513,642.298 Q359.3404,644.173 359.3404,646.7511 L359.3404,649.4855 Q359.3404,652.5714 361.567,654.6417 Q363.7935,656.673 367.7779,656.673 Q370.1216,656.673 371.7623,656.048 Q372.7388,655.6573 373.7935,654.5636 Q374.4576,653.8995 374.8091,653.7042 Q375.1998,653.5089 375.7076,653.5089 Q376.5279,653.5089 377.1529,654.173 Q377.817,654.798 377.817,655.6573 Q377.817,656.5167 376.9576,657.5323 Q375.7076,658.9777 373.7154,659.798 Q371.0201,660.9308 367.7779,660.9308 Q363.9888,660.9308 360.981,659.3683 Q358.5201,658.1183 356.8013,655.462 Q355.0826,652.7667 355.0826,649.5636 L355.0826,646.673 Q355.0826,643.3527 356.606,640.5011 Q358.1685,637.6105 360.9029,636.087 Q363.6373,634.5245 366.7232,634.5245 Q368.5591,634.5245 370.1607,634.9542 Q371.8013,635.3448 373.1685,636.2433 Z " fill="#000000"/><text fill="#000000" font-family="Arial" font-size="30" font-style="italic" lengthAdjust="spacing" textLength="115.0781" x="468.3763" y="635.8862">&#171;model&#187;</text><text fill="#000000" font-family="Arial" font-size="37.5" lengthAdjust="spacing" textLength="237.5793" x="407.1257" y="677.4182">TaskTemplate</text><line style="stroke:#3B8B4F;stroke-width:1.25;" x1="304.834" x2="676.1255" y1="697.865" y2="697.865"/><text fill="#000000" font-family="Arial" font-size="35" lengthAdjust="spacing" textLength="159.4995" x="317.334" y="740.6946">-id : String</text><text fill="#000000" font-family="Arial" font-size="35" lengthAdjust="spacing" textLength="186.7236" x="317.334" y="780.9412">-title : String</text><text fill="#000000" font-family="Arial" font-size="35" lengthAdjust="spacing" textLength="346.2915" x="317.334" y="821.1877">-imageBase64 : String</text></g><text fill="#000000" font-family="Arial" font-size="35" lengthAdjust="spacing" textLength="1342.168" x="2.5" y="898.0762">Current model classes from app/src/main/java/com/example/family_tasks_proj/models.</text><!--SRC=[dP5FJ-D03CNlyocyvSo6FmMX5K9g2vKux5xWZap6JOREZ4TZ1xOWllicwK9341UEyso_z_FuHyfO1GIF6suK991YH2Dh5nDc362JWwFfmK2H6Yq_kLZ12htGeE9T9Dqa0ivQyw1GUXIPgMPttoXTbnnlt3F1qDNI2XklIuxw1mF1B3lqOukksayUdWnA2SirLhGhdetdvcr7bRc9Ti6Uy_bvO4l-uWBshewM9rUdd_evMyhZtkFvsNowDBMp11IIRg3zhPgj67Ng2POOdD_0BSfQO1z-TtEmwFn8J8b97KTOD3bJLEXTjsaaiCeS05Cg99T5G1UB1tp4ekHGq5yCoLEnwjtlj7E_IvaVYjv2VXhp_mDWibKcRsl1Y-a3O38JSLKasx5D00M60knsV37GafUryxQ_mY-uQOyMgrxURlb1iWtDzAFaGeioHw7JwQWWbnox-NjcJnZDgtd3MtI1xsplhqzWpdwBQ1py9UQEg8k_RO_iKQc76WhVuVeYx_KV]--></g></svg>