<?plantuml 1.2026.2?><svg xmlns="http://www.w3.org/2000/svg" xmlns:xlink="http://www.w3.org/1999/xlink" contentStyleType="text/css" data-diagram-type="CLASS" height="712.5px" preserveAspectRatio="none" style="width:5975px;height:712px;background:#FFFFFF;" version="1.1" viewBox="0 0 5975 712" width="5975px" zoomAndPan="magnify"><title>Family Tasks - Firebase And Utility Classes</title><defs/><g><g class="title" data-source-line="15"><text fill="#000000" font-family="Arial" font-size="35" font-weight="bold" lengthAdjust="spacing" textLength="721.6699" x="2616.665" y="57.8296">Family Tasks - Firebase And Utility Classes</text></g><!--cluster firebase / utils--><g class="cluster" data-qualified-name="firebase . utils" data-source-line="18" id="ent0002"><path d="M3218.75,342.7466 L3523.8574,342.7466 A9.375,9.375 0 0 1 3530.1074,348.9966 L3547.6074,409.4922 L4983.75,409.4922 A6.25,6.25 0 0 1 4990,415.7422 L4990,636.4966 A6.25,6.25 0 0 1 4983.75,642.7466 L3218.75,642.7466 A6.25,6.25 0 0 1 3212.5,636.4966 L3212.5,348.9966 A6.25,6.25 0 0 1 3218.75,342.7466" fill="#EFEFEF" style="stroke:#000000;stroke-width:3.75;"/><line style="stroke:#000000;stroke-width:3.75;" x1="3212.5" x2="3547.6074" y1="409.4922" y2="409.4922"/><text fill="#000000" font-family="Arial" font-size="45" font-weight="bold" lengthAdjust="spacing" textLength="302.6074" x="3222.5" y="389.9561">firebase / utils</text></g><!--cluster main Firebase users--><g class="cluster" data-qualified-name="main Firebase users" data-source-line="29" id="ent0008"><path d="M1696.25,102.7466 L2133.9624,102.7466 A9.375,9.375 0 0 1 2140.2124,108.9966 L2157.7124,169.4922 L5951.25,169.4922 A6.25,6.25 0 0 1 5957.5,175.7422 L5957.5,316.4966 A6.25,6.25 0 0 1 5951.25,322.7466 L1696.25,322.7466 A6.25,6.25 0 0 1 1690,316.4966 L1690,108.9966 A6.25,6.25 0 0 1 1696.25,102.7466" fill="#DCEEFF" style="stroke:#000000;stroke-width:3.75;"/><line style="stroke:#000000;stroke-width:3.75;" x1="1690" x2="2157.7124" y1="169.4922" y2="169.4922"/><text fill="#000000" font-family="Arial" font-size="45" font-weight="bold" lengthAdjust="spacing" textLength="435.2124" x="1700" y="149.9561">main Firebase users</text></g><g class="entity" data-qualified-name="GMN31" data-source-line="56" id="ent0032"><path d="M646.25,191.4966 L646.25,291.2402 A0,0 0 0 0 646.25,291.2402 L1139.5471,291.2402 A0,0 0 0 0 1139.5471,291.2402 L1139.5471,216.4966 L1114.5471,191.4966 L960.375,191.4966 L3977.5086,179.572 L940.375,191.4966 L646.25,191.4966 A0,0 0 0 0 646.25,191.4966" fill="#FEFFDD" style="stroke:#181818;stroke-width:1.25;"/><path d="M1114.5471,191.4966 L1114.5471,216.4966 L1139.5471,216.4966 L1114.5471,191.4966" fill="#FEFFDD" style="stroke:#181818;stroke-width:1.25;"/><text fill="#000000" font-family="Arial" font-size="32.5" lengthAdjust="spacing" textLength="440.7971" x="661.25" y="234.4812">Reads children and child tasks</text><text fill="#000000" font-family="Arial" font-size="32.5" lengthAdjust="spacing" textLength="292.7222" x="661.25" y="271.853">under /parents/{uid}.</text></g><g class="entity" data-qualified-name="GMN34" data-source-line="61" id="ent0035"><path d="M15,191.4966 L15,291.2402 A0,0 0 0 0 15,291.2402 L600.481,291.2402 A0,0 0 0 0 600.481,291.2402 L600.481,216.4966 L575.481,191.4966 L385.5927,191.4966 L2898.2617,179.5285 L365.5927,191.4966 L15,191.4966 A0,0 0 0 0 15,191.4966" fill="#FEFFDD" style="stroke:#181818;stroke-width:1.25;"/><path d="M575.481,191.4966 L575.481,216.4966 L600.481,216.4966 L575.481,191.4966" fill="#FEFFDD" style="stroke:#181818;stroke-width:1.25;"/><text fill="#000000" font-family="Arial" font-size="32.5" lengthAdjust="spacing" textLength="413.6292" x="30" y="234.4812">Writes new child tasks under</text><text fill="#000000" font-family="Arial" font-size="32.5" lengthAdjust="spacing" textLength="532.981" x="30" y="271.853">/parents/{uid}/children/{childId}/tasks.</text></g><g class="entity" data-qualified-name="GMN37" data-source-line="66" id="ent0038"><path d="M1185,191.4966 L1185,291.2402 A0,0 0 0 0 1185,291.2402 L1665.6812,291.2402 A0,0 0 0 0 1665.6812,291.2402 L1665.6812,216.4966 L1640.6812,191.4966 L1489.4382,191.4966 L4536.0813,179.9589 L1469.4382,191.4966 L1185,191.4966 A0,0 0 0 0 1185,191.4966" fill="#FEFFDD" style="stroke:#181818;stroke-width:1.25;"/><path d="M1640.6812,191.4966 L1640.6812,216.4966 L1665.6812,216.4966 L1640.6812,191.4966" fill="#FEFFDD" style="stroke:#181818;stroke-width:1.25;"/><text fill="#000000" font-family="Arial" font-size="32.5" lengthAdjust="spacing" textLength="334.1565" x="1200" y="234.4812">Writes templates under</text><text fill="#000000" font-family="Arial" font-size="32.5" lengthAdjust="spacing" textLength="428.1812" x="1200" y="271.853">/parents/{uid}/task_templates.</text></g><!--class FBsingleton--><g class="entity" data-qualified-name="firebase . utils.FBsingleton" data-source-line="19" id="ent0003"><rect fill="#EFEFEF" height="203.1116" rx="6.25" ry="6.25" style="stroke:#777777;stroke-width:1.25;" width="561.1182" x="4410" y="420.2466"/><ellipse cx="4580.9198" cy="471.5558" fill="#ADD1B2" rx="27.5" ry="27.5" style="stroke:#181818;stroke-width:2.5;"/><path d="M4587.8339,461.2433 Q4588.2245,460.6964 4588.6932,460.423 Q4589.162,460.1495 4589.7089,460.1495 Q4590.6464,460.1495 4591.2323,460.8136 Q4591.8182,461.4386 4591.8182,462.962 L4591.8182,466.5948 Q4591.8182,468.1183 4591.2323,468.7823 Q4590.6464,469.4464 4589.7089,469.4464 Q4588.8495,469.4464 4588.3417,468.9386 Q4587.8339,468.4698 4587.5604,467.1808 Q4587.4432,466.2823 4586.9745,465.8136 Q4586.1542,464.8761 4584.6307,464.3292 Q4583.1073,463.7823 4581.5448,463.7823 Q4579.6307,463.7823 4578.0292,464.6027 Q4576.4667,465.423 4575.2167,467.298 Q4574.0057,469.173 4574.0057,471.7511 L4574.0057,474.4855 Q4574.0057,477.5714 4576.2323,479.6417 Q4578.4589,481.673 4582.4432,481.673 Q4584.787,481.673 4586.4276,481.048 Q4587.4042,480.6573 4588.4589,479.5636 Q4589.1229,478.8995 4589.4745,478.7042 Q4589.8651,478.5089 4590.3729,478.5089 Q4591.1932,478.5089 4591.8182,479.173 Q4592.4823,479.798 4592.4823,480.6573 Q4592.4823,481.5167 4591.6229,482.5323 Q4590.3729,483.9777 4588.3807,484.798 Q4585.6854,485.9308 4582.4432,485.9308 Q4578.6542,485.9308 4575.6464,484.3683 Q4573.1854,483.1183 4571.4667,480.462 Q4569.7479,477.7667 4569.7479,474.5636 L4569.7479,471.673 Q4569.7479,468.3527 4571.2714,465.5011 Q4572.8339,462.6105 4575.5682,461.087 Q4578.3026,459.5245 4581.3885,459.5245 Q4583.2245,459.5245 4584.826,459.9542 Q4586.4667,460.3448 4587.8339,461.2433 Z " fill="#000000"/><text fill="#000000" font-family="Arial" font-size="30" font-style="italic" lengthAdjust="spacing" textLength="71.7188" x="4695.3247" y="460.8862">&#171;util&#187;</text><text fill="#000000" font-family="Arial" font-size="37.5" lengthAdjust="spacing" textLength="198.0286" x="4632.1698" y="502.4182">FBsingleton</text><line style="stroke:#777777;stroke-width:1.25;" x1="4412.5" x2="4968.6182" y1="522.865" y2="522.865"/><text fill="#000000" font-family="Arial" font-size="35" lengthAdjust="spacing" textLength="350.1538" x="4425" y="565.6946">-mAuth : FirebaseAuth</text><text fill="#000000" font-family="Arial" font-size="35" lengthAdjust="spacing" textLength="531.1182" x="4425" y="605.9412">-mDatabase : DatabaseReference</text></g><!--class DateUtils--><g class="entity" data-qualified-name="firebase . utils.DateUtils" data-source-line="23" id="ent0004"><rect fill="#EFEFEF" height="122.6184" rx="6.25" ry="6.25" style="stroke:#777777;stroke-width:1.25;" width="232.124" x="4131.25" y="460.2466"/><ellipse cx="4168.75" cy="511.5558" fill="#ADD1B2" rx="27.5" ry="27.5" style="stroke:#181818;stroke-width:2.5;"/><path d="M4175.6641,501.2433 Q4176.0547,500.6964 4176.5234,500.423 Q4176.9922,500.1495 4177.5391,500.1495 Q4178.4766,500.1495 4179.0625,500.8136 Q4179.6484,501.4386 4179.6484,502.962 L4179.6484,506.5948 Q4179.6484,508.1183 4179.0625,508.7823 Q4178.4766,509.4464 4177.5391,509.4464 Q4176.6797,509.4464 4176.1719,508.9386 Q4175.6641,508.4698 4175.3906,507.1808 Q4175.2734,506.2823 4174.8047,505.8136 Q4173.9844,504.8761 4172.4609,504.3292 Q4170.9375,503.7823 4169.375,503.7823 Q4167.4609,503.7823 4165.8594,504.6027 Q4164.2969,505.423 4163.0469,507.298 Q4161.8359,509.173 4161.8359,511.7511 L4161.8359,514.4855 Q4161.8359,517.5714 4164.0625,519.6417 Q4166.2891,521.673 4170.2734,521.673 Q4172.6172,521.673 4174.2578,521.048 Q4175.2344,520.6573 4176.2891,519.5636 Q4176.9531,518.8995 4177.3047,518.7042 Q4177.6953,518.5089 4178.2031,518.5089 Q4179.0234,518.5089 4179.6484,519.173 Q4180.3125,519.798 4180.3125,520.6573 Q4180.3125,521.5167 4179.4531,522.5323 Q4178.2031,523.9777 4176.2109,524.798 Q4173.5156,525.9308 4170.2734,525.9308 Q4166.4844,525.9308 4163.4766,524.3683 Q4161.0156,523.1183 4159.2969,520.462 Q4157.5781,517.7667 4157.5781,514.5636 L4157.5781,511.673 Q4157.5781,508.3527 4159.1016,505.5011 Q4160.6641,502.6105 4163.3984,501.087 Q4166.1328,499.5245 4169.2188,499.5245 Q4171.0547,499.5245 4172.6563,499.9542 Q4174.2969,500.3448 4175.6641,501.2433 Z " fill="#000000"/><text fill="#000000" font-family="Arial" font-size="30" font-style="italic" lengthAdjust="spacing" textLength="71.7188" x="4243.9526" y="500.8862">&#171;util&#187;</text><text fill="#000000" font-family="Arial" font-size="37.5" lengthAdjust="spacing" textLength="152.124" x="4203.75" y="542.4182">DateUtils</text><line style="stroke:#777777;stroke-width:1.25;" x1="4133.75" x2="4360.874" y1="562.865" y2="562.865"/></g><!--class ImageHelper--><g class="entity" data-qualified-name="firebase . utils.ImageHelper" data-source-line="24" id="ent0005"><rect fill="#EFEFEF" height="122.6184" rx="6.25" ry="6.25" style="stroke:#777777;stroke-width:1.25;" width="294.6912" x="3532.5" y="460.2466"/><ellipse cx="3570" cy="511.5558" fill="#ADD1B2" rx="27.5" ry="27.5" style="stroke:#181818;stroke-width:2.5;"/><path d="M3576.9141,501.2433 Q3577.3047,500.6964 3577.7734,500.423 Q3578.2422,500.1495 3578.7891,500.1495 Q3579.7266,500.1495 3580.3125,500.8136 Q3580.8984,501.4386 3580.8984,502.962 L3580.8984,506.5948 Q3580.8984,508.1183 3580.3125,508.7823 Q3579.7266,509.4464 3578.7891,509.4464 Q3577.9297,509.4464 3577.4219,508.9386 Q3576.9141,508.4698 3576.6406,507.1808 Q3576.5234,506.2823 3576.0547,505.8136 Q3575.2344,504.8761 3573.7109,504.3292 Q3572.1875,503.7823 3570.625,503.7823 Q3568.7109,503.7823 3567.1094,504.6027 Q3565.5469,505.423 3564.2969,507.298 Q3563.0859,509.173 3563.0859,511.7511 L3563.0859,514.4855 Q3563.0859,517.5714 3565.3125,519.6417 Q3567.5391,521.673 3571.5234,521.673 Q3573.8672,521.673 3575.5078,521.048 Q3576.4844,520.6573 3577.5391,519.5636 Q3578.2031,518.8995 3578.5547,518.7042 Q3578.9453,518.5089 3579.4531,518.5089 Q3580.2734,518.5089 3580.8984,519.173 Q3581.5625,519.798 3581.5625,520.6573 Q3581.5625,521.5167 3580.7031,522.5323 Q3579.4531,523.9777 3577.4609,524.798 Q3574.7656,525.9308 3571.5234,525.9308 Q3567.7344,525.9308 3564.7266,524.3683 Q3562.2656,523.1183 3560.5469,520.462 Q3558.8281,517.7667 3558.8281,514.5636 L3558.8281,511.673 Q3558.8281,508.3527 3560.3516,505.5011 Q3561.9141,502.6105 3564.6484,501.087 Q3567.3828,499.5245 3570.4688,499.5245 Q3572.3047,499.5245 3573.9063,499.9542 Q3575.5469,500.3448 3576.9141,501.2433 Z " fill="#000000"/><text fill="#000000" font-family="Arial" font-size="30" font-style="italic" lengthAdjust="spacing" textLength="71.7188" x="3676.4862" y="500.8862">&#171;util&#187;</text><text fill="#000000" font-family="Arial" font-size="37.5" lengthAdjust="spacing" textLength="214.6912" x="3605" y="542.4182">ImageHelper</text><line style="stroke:#777777;stroke-width:1.25;" x1="3535" x2="3824.6912" y1="562.865" y2="562.865"/></g><!--class ListUtils--><g class="entity" data-qualified-name="firebase . utils.ListUtils" data-source-line="25" id="ent0006"><rect fill="#EFEFEF" height="122.6184" rx="6.25" ry="6.25" style="stroke:#777777;stroke-width:1.25;" width="211.2683" x="3873.75" y="460.2466"/><ellipse cx="3911.25" cy="511.5558" fill="#ADD1B2" rx="27.5" ry="27.5" style="stroke:#181818;stroke-width:2.5;"/><path d="M3918.1641,501.2433 Q3918.5547,500.6964 3919.0234,500.423 Q3919.4922,500.1495 3920.0391,500.1495 Q3920.9766,500.1495 3921.5625,500.8136 Q3922.1484,501.4386 3922.1484,502.962 L3922.1484,506.5948 Q3922.1484,508.1183 3921.5625,508.7823 Q3920.9766,509.4464 3920.0391,509.4464 Q3919.1797,509.4464 3918.6719,508.9386 Q3918.1641,508.4698 3917.8906,507.1808 Q3917.7734,506.2823 3917.3047,505.8136 Q3916.4844,504.8761 3914.9609,504.3292 Q3913.4375,503.7823 3911.875,503.7823 Q3909.9609,503.7823 3908.3594,504.6027 Q3906.7969,505.423 3905.5469,507.298 Q3904.3359,509.173 3904.3359,511.7511 L3904.3359,514.4855 Q3904.3359,517.5714 3906.5625,519.6417 Q3908.7891,521.673 3912.7734,521.673 Q3915.1172,521.673 3916.7578,521.048 Q3917.7344,520.6573 3918.7891,519.5636 Q3919.4531,518.8995 3919.8047,518.7042 Q3920.1953,518.5089 3920.7031,518.5089 Q3921.5234,518.5089 3922.1484,519.173 Q3922.8125,519.798 3922.8125,520.6573 Q3922.8125,521.5167 3921.9531,522.5323 Q3920.7031,523.9777 3918.7109,524.798 Q3916.0156,525.9308 3912.7734,525.9308 Q3908.9844,525.9308 3905.9766,524.3683 Q3903.5156,523.1183 3901.7969,520.462 Q3900.0781,517.7667 3900.0781,514.5636 L3900.0781,511.673 Q3900.0781,508.3527 3901.6016,505.5011 Q3903.1641,502.6105 3905.8984,501.087 Q3908.6328,499.5245 3911.7188,499.5245 Q3913.5547,499.5245 3915.1563,499.9542 Q3916.7969,500.3448 3918.1641,501.2433 Z " fill="#000000"/><text fill="#000000" font-family="Arial" font-size="30" font-style="italic" lengthAdjust="spacing" textLength="71.7188" x="3976.0248" y="500.8862">&#171;util&#187;</text><text fill="#000000" font-family="Arial" font-size="37.5" lengthAdjust="spacing" textLength="131.2683" x="3946.25" y="542.4182">ListUtils</text><line style="stroke:#777777;stroke-width:1.25;" x1="3876.25" x2="4082.5183" y1="562.865" y2="562.865"/></g><!--class NameUtils--><g class="entity" data-qualified-name="firebase . utils.NameUtils" data-source-line="26" id="ent0007"><rect fill="#EFEFEF" height="122.6184" rx="6.25" ry="6.25" style="stroke:#777777;stroke-width:1.25;" width="252.9431" x="3233.75" y="460.2466"/><ellipse cx="3271.25" cy="511.5558" fill="#ADD1B2" rx="27.5" ry="27.5" style="stroke:#181818;stroke-width:2.5;"/><path d="M3278.1641,501.2433 Q3278.5547,500.6964 3279.0234,500.423 Q3279.4922,500.1495 3280.0391,500.1495 Q3280.9766,500.1495 3281.5625,500.8136 Q3282.1484,501.4386 3282.1484,502.962 L3282.1484,506.5948 Q3282.1484,508.1183 3281.5625,508.7823 Q3280.9766,509.4464 3280.0391,509.4464 Q3279.1797,509.4464 3278.6719,508.9386 Q3278.1641,508.4698 3277.8906,507.1808 Q3277.7734,506.2823 3277.3047,505.8136 Q3276.4844,504.8761 3274.9609,504.3292 Q3273.4375,503.7823 3271.875,503.7823 Q3269.9609,503.7823 3268.3594,504.6027 Q3266.7969,505.423 3265.5469,507.298 Q3264.3359,509.173 3264.3359,511.7511 L3264.3359,514.4855 Q3264.3359,517.5714 3266.5625,519.6417 Q3268.7891,521.673 3272.7734,521.673 Q3275.1172,521.673 3276.7578,521.048 Q3277.7344,520.6573 3278.7891,519.5636 Q3279.4531,518.8995 3279.8047,518.7042 Q3280.1953,518.5089 3280.7031,518.5089 Q3281.5234,518.5089 3282.1484,519.173 Q3282.8125,519.798 3282.8125,520.6573 Q3282.8125,521.5167 3281.9531,522.5323 Q3280.7031,523.9777 3278.7109,524.798 Q3276.0156,525.9308 3272.7734,525.9308 Q3268.9844,525.9308 3265.9766,524.3683 Q3263.5156,523.1183 3261.7969,520.462 Q3260.0781,517.7667 3260.0781,514.5636 L3260.0781,511.673 Q3260.0781,508.3527 3261.6016,505.5011 Q3263.1641,502.6105 3265.8984,501.087 Q3268.6328,499.5245 3271.7188,499.5245 Q3273.5547,499.5245 3275.1563,499.9542 Q3276.7969,500.3448 3278.1641,501.2433 Z " fill="#000000"/><text fill="#000000" font-family="Arial" font-size="30" font-style="italic" lengthAdjust="spacing" textLength="71.7188" x="3356.8622" y="500.8862">&#171;util&#187;</text><text fill="#000000" font-family="Arial" font-size="37.5" lengthAdjust="spacing" textLength="172.9431" x="3306.25" y="542.4182">NameUtils</text><line style="stroke:#777777;stroke-width:1.25;" x1="3236.25" x2="3484.1931" y1="562.865" y2="562.865"/></g><!--class ParentRegisterFragment--><g class="entity" data-qualified-name="main Firebase users.ParentRegisterFragment" data-source-line="30" id="ent0009"><rect fill="#DCEEFF" height="122.6184" rx="6.25" ry="6.25" style="stroke:#2F6FA3;stroke-width:1.25;" width="490.5957" x="5447.5" y="180.2466"/><ellipse cx="5485" cy="231.5558" fill="#ADD1B2" rx="27.5" ry="27.5" style="stroke:#181818;stroke-width:2.5;"/><path d="M5491.9141,221.2433 Q5492.3047,220.6964 5492.7734,220.423 Q5493.2422,220.1495 5493.7891,220.1495 Q5494.7266,220.1495 5495.3125,220.8136 Q5495.8984,221.4386 5495.8984,222.962 L5495.8984,226.5948 Q5495.8984,228.1183 5495.3125,228.7823 Q5494.7266,229.4464 5493.7891,229.4464 Q5492.9297,229.4464 5492.4219,228.9386 Q5491.9141,228.4698 5491.6406,227.1808 Q5491.5234,226.2823 5491.0547,225.8136 Q5490.2344,224.8761 5488.7109,224.3292 Q5487.1875,223.7823 5485.625,223.7823 Q5483.7109,223.7823 5482.1094,224.6027 Q5480.5469,225.423 5479.2969,227.298 Q5478.0859,229.173 5478.0859,231.7511 L5478.0859,234.4855 Q5478.0859,237.5714 5480.3125,239.6417 Q5482.5391,241.673 5486.5234,241.673 Q5488.8672,241.673 5490.5078,241.048 Q5491.4844,240.6573 5492.5391,239.5636 Q5493.2031,238.8995 5493.5547,238.7042 Q5493.9453,238.5089 5494.4531,238.5089 Q5495.2734,238.5089 5495.8984,239.173 Q5496.5625,239.798 5496.5625,240.6573 Q5496.5625,241.5167 5495.7031,242.5323 Q5494.4531,243.9777 5492.4609,244.798 Q5489.7656,245.9308 5486.5234,245.9308 Q5482.7344,245.9308 5479.7266,244.3683 Q5477.2656,243.1183 5475.5469,240.462 Q5473.8281,237.7667 5473.8281,234.5636 L5473.8281,231.673 Q5473.8281,228.3527 5475.3516,225.5011 Q5476.9141,222.6105 5479.6484,221.087 Q5482.3828,219.5245 5485.4688,219.5245 Q5487.3047,219.5245 5488.9063,219.9542 Q5490.5469,220.3448 5491.9141,221.2433 Z " fill="#000000"/><text fill="#000000" font-family="Arial" font-size="30" font-style="italic" lengthAdjust="spacing" textLength="123.4131" x="5663.5913" y="220.8862">&#171;screen&#187;</text><text fill="#000000" font-family="Arial" font-size="37.5" lengthAdjust="spacing" textLength="410.5957" x="5520" y="262.4182">ParentRegisterFragment</text><line style="stroke:#2F6FA3;stroke-width:1.25;" x1="5450" x2="5935.5957" y1="282.865" y2="282.865"/></g><!--class ChildQRLoginFragment--><g class="entity" data-qualified-name="main Firebase users.ChildQRLoginFragment" data-source-line="31" id="ent0010"><rect fill="#DCEEFF" height="122.6184" rx="6.25" ry="6.25" style="stroke:#2F6FA3;stroke-width:1.25;" width="473.9331" x="1710" y="180.2466"/><ellipse cx="1747.5" cy="231.5558" fill="#ADD1B2" rx="27.5" ry="27.5" style="stroke:#181818;stroke-width:2.5;"/><path d="M1754.4141,221.2433 Q1754.8047,220.6964 1755.2734,220.423 Q1755.7422,220.1495 1756.2891,220.1495 Q1757.2266,220.1495 1757.8125,220.8136 Q1758.3984,221.4386 1758.3984,222.962 L1758.3984,226.5948 Q1758.3984,228.1183 1757.8125,228.7823 Q1757.2266,229.4464 1756.2891,229.4464 Q1755.4297,229.4464 1754.9219,228.9386 Q1754.4141,228.4698 1754.1406,227.1808 Q1754.0234,226.2823 1753.5547,225.8136 Q1752.7344,224.8761 1751.2109,224.3292 Q1749.6875,223.7823 1748.125,223.7823 Q1746.2109,223.7823 1744.6094,224.6027 Q1743.0469,225.423 1741.7969,227.298 Q1740.5859,229.173 1740.5859,231.7511 L1740.5859,234.4855 Q1740.5859,237.5714 1742.8125,239.6417 Q1745.0391,241.673 1749.0234,241.673 Q1751.3672,241.673 1753.0078,241.048 Q1753.9844,240.6573 1755.0391,239.5636 Q1755.7031,238.8995 1756.0547,238.7042 Q1756.4453,238.5089 1756.9531,238.5089 Q1757.7734,238.5089 1758.3984,239.173 Q1759.0625,239.798 1759.0625,240.6573 Q1759.0625,241.5167 1758.2031,242.5323 Q1756.9531,243.9777 1754.9609,244.798 Q1752.2656,245.9308 1749.0234,245.9308 Q1745.2344,245.9308 1742.2266,244.3683 Q1739.7656,243.1183 1738.0469,240.462 Q1736.3281,237.7667 1736.3281,234.5636 L1736.3281,231.673 Q1736.3281,228.3527 1737.8516,225.5011 Q1739.4141,222.6105 1742.1484,221.087 Q1744.8828,219.5245 1747.9688,219.5245 Q1749.8047,219.5245 1751.4063,219.9542 Q1753.0469,220.3448 1754.4141,221.2433 Z " fill="#000000"/><text fill="#000000" font-family="Arial" font-size="30" font-style="italic" lengthAdjust="spacing" textLength="123.4131" x="1917.76" y="220.8862">&#171;screen&#187;</text><text fill="#000000" font-family="Arial" font-size="37.5" lengthAdjust="spacing" textLength="393.9331" x="1782.5" y="262.4182">ChildQRLoginFragment</text><line style="stroke:#2F6FA3;stroke-width:1.25;" x1="1712.5" x2="2181.4331" y1="282.865" y2="282.865"/></g><!--class ChildSelectionActivity--><g class="entity" data-qualified-name="main Firebase users.ChildSelectionActivity" data-source-line="32" id="ent0011"><rect fill="#DCEEFF" height="122.6184" rx="6.25" ry="6.25" style="stroke:#2F6FA3;stroke-width:1.25;" width="438.4839" x="2231.25" y="180.2466"/><ellipse cx="2268.75" cy="231.5558" fill="#ADD1B2" rx="27.5" ry="27.5" style="stroke:#181818;stroke-width:2.5;"/><path d="M2275.6641,221.2433 Q2276.0547,220.6964 2276.5234,220.423 Q2276.9922,220.1495 2277.5391,220.1495 Q2278.4766,220.1495 2279.0625,220.8136 Q2279.6484,221.4386 2279.6484,222.962 L2279.6484,226.5948 Q2279.6484,228.1183 2279.0625,228.7823 Q2278.4766,229.4464 2277.5391,229.4464 Q2276.6797,229.4464 2276.1719,228.9386 Q2275.6641,228.4698 2275.3906,227.1808 Q2275.2734,226.2823 2274.8047,225.8136 Q2273.9844,224.8761 2272.4609,224.3292 Q2270.9375,223.7823 2269.375,223.7823 Q2267.4609,223.7823 2265.8594,224.6027 Q2264.2969,225.423 2263.0469,227.298 Q2261.8359,229.173 2261.8359,231.7511 L2261.8359,234.4855 Q2261.8359,237.5714 2264.0625,239.6417 Q2266.2891,241.673 2270.2734,241.673 Q2272.6172,241.673 2274.2578,241.048 Q2275.2344,240.6573 2276.2891,239.5636 Q2276.9531,238.8995 2277.3047,238.7042 Q2277.6953,238.5089 2278.2031,238.5089 Q2279.0234,238.5089 2279.6484,239.173 Q2280.3125,239.798 2280.3125,240.6573 Q2280.3125,241.5167 2279.4531,242.5323 Q2278.2031,243.9777 2276.2109,244.798 Q2273.5156,245.9308 2270.2734,245.9308 Q2266.4844,245.9308 2263.4766,244.3683 Q2261.0156,243.1183 2259.2969,240.462 Q2257.5781,237.7667 2257.5781,234.5636 L2257.5781,231.673 Q2257.5781,228.3527 2259.1016,225.5011 Q2260.6641,222.6105 2263.3984,221.087 Q2266.1328,219.5245 2269.2188,219.5245 Q2271.0547,219.5245 2272.6563,219.9542 Q2274.2969,220.3448 2275.6641,221.2433 Z " fill="#000000"/><text fill="#000000" font-family="Arial" font-size="30" font-style="italic" lengthAdjust="spacing" textLength="123.4131" x="2421.2854" y="220.8862">&#171;screen&#187;</text><text fill="#000000" font-family="Arial" font-size="37.5" lengthAdjust="spacing" textLength="358.4839" x="2303.75" y="262.4182">ChildSelectionActivity</text><line style="stroke:#2F6FA3;stroke-width:1.25;" x1="2233.75" x2="2667.2339" y1="282.865" y2="282.865"/></g><!--class ParentDashboardActivity--><g class="entity" data-qualified-name="main Firebase users.ParentDashboardActivity" data-source-line="33" id="ent0012"><rect fill="#DCEEFF" height="122.6184" rx="6.25" ry="6.25" style="stroke:#2F6FA3;stroke-width:1.25;" width="492.7014" x="3803.75" y="180.2466"/><ellipse cx="3841.25" cy="231.5558" fill="#ADD1B2" rx="27.5" ry="27.5" style="stroke:#181818;stroke-width:2.5;"/><path d="M3848.1641,221.2433 Q3848.5547,220.6964 3849.0234,220.423 Q3849.4922,220.1495 3850.0391,220.1495 Q3850.9766,220.1495 3851.5625,220.8136 Q3852.1484,221.4386 3852.1484,222.962 L3852.1484,226.5948 Q3852.1484,228.1183 3851.5625,228.7823 Q3850.9766,229.4464 3850.0391,229.4464 Q3849.1797,229.4464 3848.6719,228.9386 Q3848.1641,228.4698 3847.8906,227.1808 Q3847.7734,226.2823 3847.3047,225.8136 Q3846.4844,224.8761 3844.9609,224.3292 Q3843.4375,223.7823 3841.875,223.7823 Q3839.9609,223.7823 3838.3594,224.6027 Q3836.7969,225.423 3835.5469,227.298 Q3834.3359,229.173 3834.3359,231.7511 L3834.3359,234.4855 Q3834.3359,237.5714 3836.5625,239.6417 Q3838.7891,241.673 3842.7734,241.673 Q3845.1172,241.673 3846.7578,241.048 Q3847.7344,240.6573 3848.7891,239.5636 Q3849.4531,238.8995 3849.8047,238.7042 Q3850.1953,238.5089 3850.7031,238.5089 Q3851.5234,238.5089 3852.1484,239.173 Q3852.8125,239.798 3852.8125,240.6573 Q3852.8125,241.5167 3851.9531,242.5323 Q3850.7031,243.9777 3848.7109,244.798 Q3846.0156,245.9308 3842.7734,245.9308 Q3838.9844,245.9308 3835.9766,244.3683 Q3833.5156,243.1183 3831.7969,240.462 Q3830.0781,237.7667 3830.0781,234.5636 L3830.0781,231.673 Q3830.0781,228.3527 3831.6016,225.5011 Q3833.1641,222.6105 3835.8984,221.087 Q3838.6328,219.5245 3841.7188,219.5245 Q3843.5547,219.5245 3845.1563,219.9542 Q3846.7969,220.3448 3848.1641,221.2433 Z " fill="#000000"/><text fill="#000000" font-family="Arial" font-size="30" font-style="italic" lengthAdjust="spacing" textLength="123.4131" x="4020.8942" y="220.8862">&#171;screen&#187;</text><text fill="#000000" font-family="Arial" font-size="37.5" lengthAdjust="spacing" textLength="412.7014" x="3876.25" y="262.4182">ParentDashboardActivity</text><line style="stroke:#2F6FA3;stroke-width:1.25;" x1="3806.25" x2="4293.9514" y1="282.865" y2="282.865"/></g><!--class ManageChildrenActivity--><g class="entity" data-qualified-name="main Firebase users.ManageChildrenActivity" data-source-line="34" id="ent0013"><rect fill="#DCEEFF" height="122.6184" rx="6.25" ry="6.25" style="stroke:#2F6FA3;stroke-width:1.25;" width="473.9331" x="3282.5" y="180.2466"/><ellipse cx="3320" cy="231.5558" fill="#ADD1B2" rx="27.5" ry="27.5" style="stroke:#181818;stroke-width:2.5;"/><path d="M3326.9141,221.2433 Q3327.3047,220.6964 3327.7734,220.423 Q3328.2422,220.1495 3328.7891,220.1495 Q3329.7266,220.1495 3330.3125,220.8136 Q3330.8984,221.4386 3330.8984,222.962 L3330.8984,226.5948 Q3330.8984,228.1183 3330.3125,228.7823 Q3329.7266,229.4464 3328.7891,229.4464 Q3327.9297,229.4464 3327.4219,228.9386 Q3326.9141,228.4698 3326.6406,227.1808 Q3326.5234,226.2823 3326.0547,225.8136 Q3325.2344,224.8761 3323.7109,224.3292 Q3322.1875,223.7823 3320.625,223.7823 Q3318.7109,223.7823 3317.1094,224.6027 Q3315.5469,225.423 3314.2969,227.298 Q3313.0859,229.173 3313.0859,231.7511 L3313.0859,234.4855 Q3313.0859,237.5714 3315.3125,239.6417 Q3317.5391,241.673 3321.5234,241.673 Q3323.8672,241.673 3325.5078,241.048 Q3326.4844,240.6573 3327.5391,239.5636 Q3328.2031,238.8995 3328.5547,238.7042 Q3328.9453,238.5089 3329.4531,238.5089 Q3330.2734,238.5089 3330.8984,239.173 Q3331.5625,239.798 3331.5625,240.6573 Q3331.5625,241.5167 3330.7031,242.5323 Q3329.4531,243.9777 3327.4609,244.798 Q3324.7656,245.9308 3321.5234,245.9308 Q3317.7344,245.9308 3314.7266,244.3683 Q3312.2656,243.1183 3310.5469,240.462 Q3308.8281,237.7667 3308.8281,234.5636 L3308.8281,231.673 Q3308.8281,228.3527 3310.3516,225.5011 Q3311.9141,222.6105 3314.6484,221.087 Q3317.3828,219.5245 3320.4688,219.5245 Q3322.3047,219.5245 3323.9063,219.9542 Q3325.5469,220.3448 3326.9141,221.2433 Z " fill="#000000"/><text fill="#000000" font-family="Arial" font-size="30" font-style="italic" lengthAdjust="spacing" textLength="123.4131" x="3490.26" y="220.8862">&#171;screen&#187;</text><text fill="#000000" font-family="Arial" font-size="37.5" lengthAdjust="spacing" textLength="393.9331" x="3355" y="262.4182">ManageChildrenActivity</text><line style="stroke:#2F6FA3;stroke-width:1.25;" x1="3285" x2="3753.9331" y1="282.865" y2="282.865"/></g><!--class AssignTaskToChildActivity--><g class="entity" data-qualified-name="main Firebase users.AssignTaskToChildActivity" data-source-line="35" id="ent0014"><rect fill="#DCEEFF" height="122.6184" rx="6.25" ry="6.25" style="stroke:#2F6FA3;stroke-width:1.25;" width="521.7969" x="2713.75" y="180.2466"/><ellipse cx="2751.25" cy="231.5558" fill="#ADD1B2" rx="27.5" ry="27.5" style="stroke:#181818;stroke-width:2.5;"/><path d="M2758.1641,221.2433 Q2758.5547,220.6964 2759.0234,220.423 Q2759.4922,220.1495 2760.0391,220.1495 Q2760.9766,220.1495 2761.5625,220.8136 Q2762.1484,221.4386 2762.1484,222.962 L2762.1484,226.5948 Q2762.1484,228.1183 2761.5625,228.7823 Q2760.9766,229.4464 2760.0391,229.4464 Q2759.1797,229.4464 2758.6719,228.9386 Q2758.1641,228.4698 2757.8906,227.1808 Q2757.7734,226.2823 2757.3047,225.8136 Q2756.4844,224.8761 2754.9609,224.3292 Q2753.4375,223.7823 2751.875,223.7823 Q2749.9609,223.7823 2748.3594,224.6027 Q2746.7969,225.423 2745.5469,227.298 Q2744.3359,229.173 2744.3359,231.7511 L2744.3359,234.4855 Q2744.3359,237.5714 2746.5625,239.6417 Q2748.7891,241.673 2752.7734,241.673 Q2755.1172,241.673 2756.7578,241.048 Q2757.7344,240.6573 2758.7891,239.5636 Q2759.4531,238.8995 2759.8047,238.7042 Q2760.1953,238.5089 2760.7031,238.5089 Q2761.5234,238.5089 2762.1484,239.173 Q2762.8125,239.798 2762.8125,240.6573 Q2762.8125,241.5167 2761.9531,242.5323 Q2760.7031,243.9777 2758.7109,244.798 Q2756.0156,245.9308 2752.7734,245.9308 Q2748.9844,245.9308 2745.9766,244.3683 Q2743.5156,243.1183 2741.7969,240.462 Q2740.0781,237.7667 2740.0781,234.5636 L2740.0781,231.673 Q2740.0781,228.3527 2741.6016,225.5011 Q2743.1641,222.6105 2745.8984,221.087 Q2748.6328,219.5245 2751.7188,219.5245 Q2753.5547,219.5245 2755.1563,219.9542 Q2756.7969,220.3448 2758.1641,221.2433 Z " fill="#000000"/><text fill="#000000" font-family="Arial" font-size="30" font-style="italic" lengthAdjust="spacing" textLength="123.4131" x="2945.4419" y="220.8862">&#171;screen&#187;</text><text fill="#000000" font-family="Arial" font-size="37.5" lengthAdjust="spacing" textLength="441.7969" x="2786.25" y="262.4182">AssignTaskToChildActivity</text><line style="stroke:#2F6FA3;stroke-width:1.25;" x1="2716.25" x2="3233.0469" y1="282.865" y2="282.865"/></g><!--class ParentTaskTemplateActivity--><g class="entity" data-qualified-name="main Firebase users.ParentTaskTemplateActivity" data-source-line="36" id="ent0015"><rect fill="#DCEEFF" height="122.6184" rx="6.25" ry="6.25" style="stroke:#2F6FA3;stroke-width:1.25;" width="546.8274" x="4341.25" y="180.2466"/><ellipse cx="4378.75" cy="231.5558" fill="#ADD1B2" rx="27.5" ry="27.5" style="stroke:#181818;stroke-width:2.5;"/><path d="M4385.6641,221.2433 Q4386.0547,220.6964 4386.5234,220.423 Q4386.9922,220.1495 4387.5391,220.1495 Q4388.4766,220.1495 4389.0625,220.8136 Q4389.6484,221.4386 4389.6484,222.962 L4389.6484,226.5948 Q4389.6484,228.1183 4389.0625,228.7823 Q4388.4766,229.4464 4387.5391,229.4464 Q4386.6797,229.4464 4386.1719,228.9386 Q4385.6641,228.4698 4385.3906,227.1808 Q4385.2734,226.2823 4384.8047,225.8136 Q4383.9844,224.8761 4382.4609,224.3292 Q4380.9375,223.7823 4379.375,223.7823 Q4377.4609,223.7823 4375.8594,224.6027 Q4374.2969,225.423 4373.0469,227.298 Q4371.8359,229.173 4371.8359,231.7511 L4371.8359,234.4855 Q4371.8359,237.5714 4374.0625,239.6417 Q4376.2891,241.673 4380.2734,241.673 Q4382.6172,241.673 4384.2578,241.048 Q4385.2344,240.6573 4386.2891,239.5636 Q4386.9531,238.8995 4387.3047,238.7042 Q4387.6953,238.5089 4388.2031,238.5089 Q4389.0234,238.5089 4389.6484,239.173 Q4390.3125,239.798 4390.3125,240.6573 Q4390.3125,241.5167 4389.4531,242.5323 Q4388.2031,243.9777 4386.2109,244.798 Q4383.5156,245.9308 4380.2734,245.9308 Q4376.4844,245.9308 4373.4766,244.3683 Q4371.0156,243.1183 4369.2969,240.462 Q4367.5781,237.7667 4367.5781,234.5636 L4367.5781,231.673 Q4367.5781,228.3527 4369.1016,225.5011 Q4370.6641,222.6105 4373.3984,221.087 Q4376.1328,219.5245 4379.2188,219.5245 Q4381.0547,219.5245 4382.6563,219.9542 Q4384.2969,220.3448 4385.6641,221.2433 Z " fill="#000000"/><text fill="#000000" font-family="Arial" font-size="30" font-style="italic" lengthAdjust="spacing" textLength="123.4131" x="4585.4572" y="220.8862">&#171;screen&#187;</text><text fill="#000000" font-family="Arial" font-size="37.5" lengthAdjust="spacing" textLength="466.8274" x="4413.75" y="262.4182">ParentTaskTemplateActivity</text><line style="stroke:#2F6FA3;stroke-width:1.25;" x1="4343.75" x2="4885.5774" y1="282.865" y2="282.865"/></g><!--class ChildDashboardActivity--><g class="entity" data-qualified-name="main Firebase users.ChildDashboardActivity" data-source-line="37" id="ent0016"><rect fill="#DCEEFF" height="122.6184" rx="6.25" ry="6.25" style="stroke:#2F6FA3;stroke-width:1.25;" width="467.6709" x="4933.75" y="180.2466"/><ellipse cx="4971.25" cy="231.5558" fill="#ADD1B2" rx="27.5" ry="27.5" style="stroke:#181818;stroke-width:2.5;"/><path d="M4978.1641,221.2433 Q4978.5547,220.6964 4979.0234,220.423 Q4979.4922,220.1495 4980.0391,220.1495 Q4980.9766,220.1495 4981.5625,220.8136 Q4982.1484,221.4386 4982.1484,222.962 L4982.1484,226.5948 Q4982.1484,228.1183 4981.5625,228.7823 Q4980.9766,229.4464 4980.0391,229.4464 Q4979.1797,229.4464 4978.6719,228.9386 Q4978.1641,228.4698 4977.8906,227.1808 Q4977.7734,226.2823 4977.3047,225.8136 Q4976.4844,224.8761 4974.9609,224.3292 Q4973.4375,223.7823 4971.875,223.7823 Q4969.9609,223.7823 4968.3594,224.6027 Q4966.7969,225.423 4965.5469,227.298 Q4964.3359,229.173 4964.3359,231.7511 L4964.3359,234.4855 Q4964.3359,237.5714 4966.5625,239.6417 Q4968.7891,241.673 4972.7734,241.673 Q4975.1172,241.673 4976.7578,241.048 Q4977.7344,240.6573 4978.7891,239.5636 Q4979.4531,238.8995 4979.8047,238.7042 Q4980.1953,238.5089 4980.7031,238.5089 Q4981.5234,238.5089 4982.1484,239.173 Q4982.8125,239.798 4982.8125,240.6573 Q4982.8125,241.5167 4981.9531,242.5323 Q4980.7031,243.9777 4978.7109,244.798 Q4976.0156,245.9308 4972.7734,245.9308 Q4968.9844,245.9308 4965.9766,244.3683 Q4963.5156,243.1183 4961.7969,240.462 Q4960.0781,237.7667 4960.0781,234.5636 L4960.0781,231.673 Q4960.0781,228.3527 4961.6016,225.5011 Q4963.1641,222.6105 4965.8984,221.087 Q4968.6328,219.5245 4971.7188,219.5245 Q4973.5547,219.5245 4975.1563,219.9542 Q4976.7969,220.3448 4978.1641,221.2433 Z " fill="#000000"/><text fill="#000000" font-family="Arial" font-size="30" font-style="italic" lengthAdjust="spacing" textLength="123.4131" x="5138.3789" y="220.8862">&#171;screen&#187;</text><text fill="#000000" font-family="Arial" font-size="37.5" lengthAdjust="spacing" textLength="387.6709" x="5006.25" y="262.4182">ChildDashboardActivity</text><line style="stroke:#2F6FA3;stroke-width:1.25;" x1="4936.25" x2="5398.9209" y1="282.865" y2="282.865"/></g><g class="link" data-entity-1="ent0009" data-entity-2="ent0003" data-link-type="dependency" id="lnk17"><polygon fill="#181818" points="4970.5437,445.877,4994.8507,449.8035,4982.6297,442.6868,4989.7465,430.4658,4970.5437,445.877" style="stroke:#181818;stroke-width:2.5;"/><path d="M5494.7217,302.8333 C5471.248,309.6351 5447.6062,316.4021 5425,322.7466 C5275.2674,364.7692 5122.2808,405.8255 4985.0469,442.0488" fill="none" style="stroke:#181818;stroke-width:2.5;stroke-dasharray:17.5,17.5;"/></g><g class="link" data-entity-1="ent0010" data-entity-2="ent0007" data-link-type="dependency" id="lnk18"><polygon fill="#181818" points="3233.6159,502.766,3212.6426,489.8675,3221.2265,501.1065,3209.9875,509.6905,3233.6159,502.766" style="stroke:#181818;stroke-width:2.5;"/><path d="M2131.3708,302.8037 C2156.81,310.0255 2182.7102,316.906 2207.5,322.7466 C2576.4394,409.6696 3005.5478,472.2181 3218.7486,500.7746" fill="none" style="stroke:#181818;stroke-width:2.5;stroke-dasharray:17.5,17.5;"/></g><g class="link" data-entity-1="ent0011" data-entity-2="ent0007" data-link-type="dependency" id="lnk19"><polygon fill="#181818" points="3233.6818,483.3054,3214.7816,467.5247,3221.6599,479.8815,3209.3032,486.7598,3233.6818,483.3054" style="stroke:#181818;stroke-width:2.5;"/><path d="M2627.3869,302.9101 C2648.4578,309.6982 2669.6878,316.4411 2690,322.7466 C2878.6845,381.3199 3084.29,440.7568 3219.2555,479.1967" fill="none" style="stroke:#181818;stroke-width:2.5;stroke-dasharray:17.5,17.5;"/></g><g class="link" data-entity-1="ent0012" data-entity-2="ent0004" data-link-type="dependency" id="lnk20"><polygon fill="#181818" points="4205.2014,460.0997,4200.1987,435.9912,4197.9097,449.9468,4183.9541,447.6578,4205.2014,460.0997" style="stroke:#181818;stroke-width:2.5;"/><path d="M4092.3687,302.991 C4125.6918,349.3902 4163.1464,401.5422 4196.4514,447.9162" fill="none" style="stroke:#181818;stroke-width:2.5;stroke-dasharray:17.5,17.5;"/></g><g class="link" data-entity-1="ent0012" data-entity-2="ent0005" data-link-type="dependency" id="lnk21"><polygon fill="#181818" points="3728.6017,460.0899,3750.9771,449.8141,3736.8634,450.7093,3735.9682,436.5955,3728.6017,460.0899" style="stroke:#181818;stroke-width:2.5;"/><path d="M3916.816,302.9284 C3894.5829,314.896 3872.3261,328.2941 3852.5,342.7466 C3806.1377,376.5428 3770.9622,411.9921 3738.5157,448.8332" fill="none" style="stroke:#181818;stroke-width:2.5;stroke-dasharray:17.5,17.5;"/></g><g class="link" data-entity-1="ent0012" data-entity-2="ent0007" data-link-type="dependency" id="lnk22"><polygon fill="#181818" points="3393.0315,459.7781,3413.6174,446.2699,3399.7964,449.2669,3396.7994,435.446,3393.0315,459.7781" style="stroke:#181818;stroke-width:2.5;"/><path d="M3867.5085,302.8257 C3838.4743,310.5574 3808.5892,317.5777 3780,322.7466 C3720.7955,333.4507 3563.6458,315.509 3510,342.7466 C3459.4839,368.3951 3427.2284,406.6439 3401.1494,447.1647" fill="none" style="stroke:#181818;stroke-width:2.5;stroke-dasharray:17.5,17.5;"/></g><g class="link" data-entity-1="ent0013" data-entity-2="ent0005" data-link-type="dependency" id="lnk23"><polygon fill="#181818" points="3645.7328,460.0997,3643.0611,435.623,3639.4466,449.2954,3625.7742,445.6808,3645.7328,460.0997" style="stroke:#181818;stroke-width:2.5;"/><path d="M3554.324,302.991 C3581.3199,349.3902 3611.2081,400.7605 3638.1893,447.1345" fill="none" style="stroke:#181818;stroke-width:2.5;stroke-dasharray:17.5,17.5;"/></g><g class="link" data-entity-1="ent0013" data-entity-2="ent0006" data-link-type="dependency" id="lnk24"><polygon fill="#181818" points="3949.4888,459.5409,3946.7198,435.0749,3943.1597,448.7616,3929.473,445.2015,3949.4888,459.5409" style="stroke:#181818;stroke-width:2.5;"/><path d="M3715.6421,302.7691 C3738.1837,309.517 3760.8419,316.2893 3782.5,322.7466 C3812.4848,331.6865 3824.3839,324.7792 3850,342.7466 C3892.6457,372.6587 3919.2833,408.097 3941.8939,446.6058" fill="none" style="stroke:#181818;stroke-width:2.5;stroke-dasharray:17.5,17.5;"/></g><g class="link" data-entity-1="ent0013" data-entity-2="ent0007" data-link-type="dependency" id="lnk25"><polygon fill="#181818" points="3394.2672,460.0997,3414.2258,445.6808,3400.5534,449.2954,3396.9389,435.623,3394.2672,460.0997" style="stroke:#181818;stroke-width:2.5;"/><path d="M3485.676,302.991 C3458.6801,349.3902 3428.7919,400.7605 3401.8107,447.1345" fill="none" style="stroke:#181818;stroke-width:2.5;stroke-dasharray:17.5,17.5;"/></g><g class="link" data-entity-1="ent0014" data-entity-2="ent0005" data-link-type="dependency" id="lnk26"><polygon fill="#181818" points="3640.7122,459.7616,3635.1909,435.7664,3633.2033,449.7682,3619.2015,447.7806,3640.7122,459.7616" style="stroke:#181818;stroke-width:2.5;"/><path d="M3168.5774,302.7735 C3198.9585,310.4613 3230.1744,317.4821 3260,322.7466 C3314.8846,332.4342 3459.6144,318.9251 3510,342.7466 C3564.1921,368.3677 3601.2488,407.2407 3631.7015,447.7695" fill="none" style="stroke:#181818;stroke-width:2.5;stroke-dasharray:17.5,17.5;"/></g><g class="link" data-entity-1="ent0014" data-entity-2="ent0007" data-link-type="dependency" id="lnk27"><polygon fill="#181818" points="3277.5444,460.0997,3265.0478,438.8846,3267.3728,452.8343,3253.423,455.1592,3277.5444,460.0997" style="stroke:#181818;stroke-width:2.5;"/><path d="M3057.5922,302.991 C3122.551,349.3902 3200.4148,405.0071 3265.3384,451.3812" fill="none" style="stroke:#181818;stroke-width:2.5;stroke-dasharray:17.5,17.5;"/></g><g class="link" data-entity-1="ent0015" data-entity-2="ent0005" data-link-type="dependency" id="lnk28"><polygon fill="#181818" points="3719.1221,460.0023,3740.6441,448.0419,3726.6405,450.0161,3724.6662,436.0125,3719.1221,460.0023" style="stroke:#181818;stroke-width:2.5;"/><path d="M4418.7013,302.7581 C4385.9927,310.7103 4352.2254,317.8165 4320,322.7466 C4268.606,330.6092 3899.9849,321.5723 3852.5,342.7466 C3796.9723,367.5073 3758.9932,407.0439 3728.1441,448.0189" fill="none" style="stroke:#181818;stroke-width:2.5;stroke-dasharray:17.5,17.5;"/></g><g class="link" data-entity-1="ent0015" data-entity-2="ent0006" data-link-type="dependency" id="lnk29"><polygon fill="#181818" points="4006.8876,460.2397,4026.3773,445.193,4012.8268,449.2407,4008.779,435.6903,4006.8876,460.2397" style="stroke:#181818;stroke-width:2.5;"/><path d="M4412.071,302.8833 C4381.4043,310.4086 4349.9989,317.3525 4320,322.7466 C4273.8621,331.0426 4150.7947,319.6528 4110,342.7466 C4063.3458,369.1575 4035.7743,406.7436 4014.0146,447.041" fill="none" style="stroke:#181818;stroke-width:2.5;stroke-dasharray:17.5,17.5;"/></g><g class="link" data-entity-1="ent0016" data-entity-2="ent0004" data-link-type="dependency" id="lnk30"><polygon fill="#181818" points="4276.6114,460.1871,4296.5537,445.7457,4282.8854,449.3757,4279.2554,435.7074,4276.6114,460.1871" style="stroke:#181818;stroke-width:2.5;"/><path d="M4998.9147,302.8119 C4970.3775,310.8127 4940.8187,317.9203 4912.5,322.7466 C4854.9541,332.5539 4439.5775,316.3715 4387.5,342.7466 C4337.9966,367.818 4307.8649,406.3303 4284.1401,447.2134" fill="none" style="stroke:#181818;stroke-width:2.5;stroke-dasharray:17.5,17.5;"/></g><g class="caption" data-source-line="16"><text fill="#000000" font-family="Arial" font-size="35" lengthAdjust="spacing" textLength="856.0474" x="2549.4763" y="683.0762">Current helper dependencies and main Firebase users.</text></g><?plantuml-src XLJRRjim37tNLt3PyvAjkw8e2hXfZHNeXYtjiCU1jHbRg2mPahmY2_BlazJuKZToOY2mVGuFnKEQhsgDHOKWSACQ2wOYYnAPUU2oHeqLv3M7amzl1szCYRbwvBA0DGf30qHmINPJ4oXjIpK0Ce769DPgVjzOkiwKlEN_28QgEQsn4JPLqdx7YY3H7CLOmgCXyjt70LHZze05zU2N0PXehHvxw6GiUU622wqQcI-LKFhip6IQI9wVm-lBvTLLchu8K3ed_O9yadvAa_T7rHlBXQTVfVwQr6wfdyEFbJmdeAgs6t1DAbLkcELM4AHOSR61EpGF1jv0oZNTet4EoXn-EGtk8fPUdGpBiBPSILWsMfEqK9AeIJlpQv8voOoJ0NHn5NBPApM6j9apjZSQPkiMMO0_fPcr1S6MXK8WlJ1kGWHPbwmhPSl07R1A6bl2QIVl7v-0IxGOP4-XlLtHcjn9CsAxlR93o9TbEjqzS5svitrzAcW4tN1Z3yRuKHi1kq6T1soOjNFHbVe3lPKhAbmIqgd_dhor_N3iUSkIY_pdwaOLN1vXtPAWp3SgSVz_VGDVy9woNg8fxnNgF4xyvhxdWeAiYuZp4cDu8VqKtQd0FfOxKDr02jUGE3T8JHxJ6HwnS3u_7muIE-YW9tLjP17xdfDYtdbMDrwJhC6iJVBwd94sZCKcQDqGJv7wXF5-ZdDECyUs7MpxOK-YrBwKo7WyxmIJoX9eNfGMr3es-cn5c1l8zhQ4FHOUmFhLoDmITfjXKOTeizWsFD_DcTjxuEN7IQAciD-QMxSc9JqEvI78i-VoY_OmYssuktQl0ZkUD-vSczZktqTIUlq_7QTFz1y0?></g></svg>