<?plantuml 1.2026.2?><svg xmlns="http://www.w3.org/2000/svg" xmlns:xlink="http://www.w3.org/1999/xlink" contentStyleType="text/css" data-diagram-type="CLASS" height="1550px" preserveAspectRatio="none" style="width:2032px;height:1550px;background:#FFFFFF;" version="1.1" viewBox="0 0 2032 1550" width="2032.5px" zoomAndPan="magnify"><title>Family Tasks - Model Classes</title><defs/><g><g class="title" data-source-line="22"><text fill="#000000" font-family="Arial" font-size="35" font-weight="bold" lengthAdjust="spacing" textLength="494.1016" x="749.1992" y="57.8296">Family Tasks - Model Classes</text></g><!--cluster Models--><g class="cluster" data-qualified-name="Models" data-source-line="25" id="ent0002"><path d="M41.25,163.9966 L198.7671,163.9966 A9.375,9.375 0 0 1 205.0171,170.2466 L222.5171,230.7422 L528.75,230.7422 A6.25,6.25 0 0 1 535,236.9922 L535,1136.4966 A6.25,6.25 0 0 1 528.75,1142.7466 L41.25,1142.7466 A6.25,6.25 0 0 1 35,1136.4966 L35,170.2466 A6.25,6.25 0 0 1 41.25,163.9966" fill="#E2F5E6" style="stroke:#000000;stroke-width:3.75;"/><line style="stroke:#000000;stroke-width:3.75;" x1="35" x2="222.5171" y1="230.7422" y2="230.7422"/><text fill="#000000" font-family="Arial" font-size="45" font-weight="bold" lengthAdjust="spacing" textLength="155.0171" x="45" y="211.2061">Models</text></g><!--cluster Unconnected in this diagram--><g class="cluster" data-qualified-name="Unconnected in this diagram" data-source-line="43" id="ent0005"><path d="M561.25,102.7466 L1181.3354,102.7466 A9.375,9.375 0 0 1 1187.5854,108.9966 L1205.0854,169.4922 L2008.75,169.4922 A6.25,6.25 0 0 1 2015,175.7422 L2015,1136.4966 A6.25,6.25 0 0 1 2008.75,1142.7466 L561.25,1142.7466 A6.25,6.25 0 0 1 555,1136.4966 L555,108.9966 A6.25,6.25 0 0 1 561.25,102.7466" fill="#FFFFFF" style="stroke:#000000;stroke-width:3.75;"/><line style="stroke:#000000;stroke-width:3.75;" x1="555" x2="1205.0854" y1="169.4922" y2="169.4922"/><text fill="#000000" font-family="Arial" font-size="45" font-weight="bold" lengthAdjust="spacing" textLength="617.5854" x="565" y="149.9561">Unconnected in this diagram</text></g><!--class com_example_family_tasks_proj_Parents_Dashbord_and_mange_model_AssignedTask--><g class="entity" data-qualified-name="Models.com_example_family_tasks_proj_Parents_Dashbord_and_mange_model_AssignedTask" data-source-line="26" id="ent0003"><rect fill="#E2F5E6" height="404.3445" rx="6.25" ry="6.25" style="stroke:#3B8B4F;stroke-width:1.25;" width="460.9375" x="55" y="717.7466"/><ellipse cx="157.934" cy="769.0558" fill="#ADD1B2" rx="27.5" ry="27.5" style="stroke:#181818;stroke-width:2.5;"/><path d="M164.8481,758.7433 Q165.2387,758.1964 165.7075,757.923 Q166.1762,757.6495 166.7231,757.6495 Q167.6606,757.6495 168.2465,758.3136 Q168.8325,758.9386 168.8325,760.462 L168.8325,764.0948 Q168.8325,765.6183 168.2465,766.2823 Q167.6606,766.9464 166.7231,766.9464 Q165.8637,766.9464 165.3559,766.4386 Q164.8481,765.9698 164.5746,764.6808 Q164.4575,763.7823 163.9887,763.3136 Q163.1684,762.3761 161.645,761.8292 Q160.1215,761.2823 158.559,761.2823 Q156.645,761.2823 155.0434,762.1027 Q153.4809,762.923 152.2309,764.798 Q151.02,766.673 151.02,769.2511 L151.02,771.9855 Q151.02,775.0714 153.2465,777.1417 Q155.4731,779.173 159.4575,779.173 Q161.8012,779.173 163.4418,778.548 Q164.4184,778.1573 165.4731,777.0636 Q166.1371,776.3995 166.4887,776.2042 Q166.8793,776.0089 167.3871,776.0089 Q168.2075,776.0089 168.8325,776.673 Q169.4965,777.298 169.4965,778.1573 Q169.4965,779.0167 168.6371,780.0323 Q167.3871,781.4777 165.395,782.298 Q162.6996,783.4308 159.4575,783.4308 Q155.6684,783.4308 152.6606,781.8683 Q150.1996,780.6183 148.4809,777.962 Q146.7621,775.2667 146.7621,772.0636 L146.7621,769.173 Q146.7621,765.8527 148.2856,763.0011 Q149.8481,760.1105 152.5825,758.587 Q155.3168,757.0245 158.4028,757.0245 Q160.2387,757.0245 161.8403,757.4542 Q163.4809,757.8448 164.8481,758.7433 Z " fill="#000000"/><text fill="#000000" font-family="Arial" font-size="30" font-style="italic" lengthAdjust="spacing" textLength="115.0781" x="267.7001" y="758.3862">&#171;model&#187;</text><text fill="#000000" font-family="Arial" font-size="37.5" lengthAdjust="spacing" textLength="235.5286" x="207.4749" y="799.9182">AssignedTask</text><line style="stroke:#3B8B4F;stroke-width:1.25;" x1="57.5" x2="513.4375" y1="820.365" y2="820.365"/><text fill="#000000" font-family="Arial" font-size="35" lengthAdjust="spacing" textLength="242.2144" x="70" y="863.1946">+childId : String</text><text fill="#000000" font-family="Arial" font-size="35" lengthAdjust="spacing" textLength="306.3867" x="70" y="903.4412">+childName : String</text><text fill="#000000" font-family="Arial" font-size="35" lengthAdjust="spacing" textLength="430.9375" x="70" y="943.6877">+childProfileBase64 : String</text><text fill="#000000" font-family="Arial" font-size="35" lengthAdjust="spacing" textLength="234.4214" x="70" y="983.9343">+taskId : String</text><text fill="#000000" font-family="Arial" font-size="35" lengthAdjust="spacing" textLength="195.5078" x="70" y="1024.1809">+title : String</text><text fill="#000000" font-family="Arial" font-size="35" lengthAdjust="spacing" textLength="232.5073" x="70" y="1064.4275">+dueAt : String</text><text fill="#000000" font-family="Arial" font-size="35" lengthAdjust="spacing" textLength="283.1274" x="70" y="1104.6741">+isDone : boolean</text></g><!--class com_example_family_tasks_proj_Parents_Dashbord_and_mange_model_TaskListItem--><g class="entity" data-qualified-name="Models.com_example_family_tasks_proj_Parents_Dashbord_and_mange_model_TaskListItem" data-source-line="35" id="ent0004"><rect fill="#E2F5E6" height="283.6047" rx="6.25" ry="6.25" style="stroke:#3B8B4F;stroke-width:1.25;" width="363.6279" x="103.75" y="241.4966"/><ellipse cx="173.2356" cy="292.8058" fill="#ADD1B2" rx="27.5" ry="27.5" style="stroke:#181818;stroke-width:2.5;"/><path d="M180.1497,282.4933 Q180.5403,281.9464 181.009,281.673 Q181.4778,281.3995 182.0247,281.3995 Q182.9622,281.3995 183.5481,282.0636 Q184.134,282.6886 184.134,284.212 L184.134,287.8448 Q184.134,289.3683 183.5481,290.0323 Q182.9622,290.6964 182.0247,290.6964 Q181.1653,290.6964 180.6575,290.1886 Q180.1497,289.7198 179.8762,288.4308 Q179.759,287.5323 179.2903,287.0636 Q178.47,286.1261 176.9465,285.5792 Q175.4231,285.0323 173.8606,285.0323 Q171.9465,285.0323 170.345,285.8527 Q168.7825,286.673 167.5325,288.548 Q166.3215,290.423 166.3215,293.0011 L166.3215,295.7355 Q166.3215,298.8214 168.5481,300.8917 Q170.7747,302.923 174.759,302.923 Q177.1028,302.923 178.7434,302.298 Q179.72,301.9073 180.7747,300.8136 Q181.4387,300.1495 181.7903,299.9542 Q182.1809,299.7589 182.6887,299.7589 Q183.509,299.7589 184.134,300.423 Q184.7981,301.048 184.7981,301.9073 Q184.7981,302.7667 183.9387,303.7823 Q182.6887,305.2277 180.6965,306.048 Q178.0012,307.1808 174.759,307.1808 Q170.97,307.1808 167.9622,305.6183 Q165.5012,304.3683 163.7825,301.712 Q162.0637,299.0167 162.0637,295.8136 L162.0637,292.923 Q162.0637,289.6027 163.5872,286.7511 Q165.1497,283.8605 167.884,282.337 Q170.6184,280.7745 173.7043,280.7745 Q175.5403,280.7745 177.1418,281.2042 Q178.7825,281.5948 180.1497,282.4933 Z " fill="#000000"/><text fill="#000000" font-family="Arial" font-size="30" font-style="italic" lengthAdjust="spacing" textLength="115.0781" x="264.0789" y="282.1362">&#171;model&#187;</text><text fill="#000000" font-family="Arial" font-size="37.5" lengthAdjust="spacing" textLength="212.5488" x="215.3435" y="323.6682">TaskListItem</text><line style="stroke:#3B8B4F;stroke-width:1.25;" x1="106.25" x2="464.8779" y1="344.115" y2="344.115"/><text fill="#000000" font-family="Arial" font-size="35" lengthAdjust="spacing" textLength="314.248" x="118.75" y="386.9446">+isHeader : boolean</text><text fill="#000000" font-family="Arial" font-size="35" lengthAdjust="spacing" textLength="316.145" x="118.75" y="427.1912">+headerTitle : String</text><text fill="#000000" font-family="Arial" font-size="35" lengthAdjust="spacing" textLength="288.9551" x="118.75" y="467.4377">+headerCount : int</text><text fill="#000000" font-family="Arial" font-size="35" lengthAdjust="spacing" textLength="333.6279" x="118.75" y="507.6843">+task : AssignedTask</text></g><!--class com_example_family_tasks_proj_child_model_Child--><g class="entity" data-qualified-name="Unconnected in this diagram.com_example_family_tasks_proj_child_model_Child" data-source-line="44" id="ent0006"><rect fill="#E2F5E6" height="243.3582" rx="6.25" ry="6.25" style="stroke:#3B8B4F;stroke-width:1.25;" width="482.3511" x="576.25" y="261.4966"/><ellipse cx="754.2615" cy="312.8058" fill="#ADD1B2" rx="27.5" ry="27.5" style="stroke:#181818;stroke-width:2.5;"/><path d="M761.1755,302.4933 Q761.5662,301.9464 762.0349,301.673 Q762.5037,301.3995 763.0505,301.3995 Q763.988,301.3995 764.574,302.0636 Q765.1599,302.6886 765.1599,304.212 L765.1599,307.8448 Q765.1599,309.3683 764.574,310.0323 Q763.988,310.6964 763.0505,310.6964 Q762.1912,310.6964 761.6833,310.1886 Q761.1755,309.7198 760.9021,308.4308 Q760.7849,307.5323 760.3162,307.0636 Q759.4958,306.1261 757.9724,305.5792 Q756.449,305.0323 754.8865,305.0323 Q752.9724,305.0323 751.3708,305.8527 Q749.8083,306.673 748.5583,308.548 Q747.3474,310.423 747.3474,313.0011 L747.3474,315.7355 Q747.3474,318.8214 749.574,320.8917 Q751.8005,322.923 755.7849,322.923 Q758.1287,322.923 759.7693,322.298 Q760.7458,321.9073 761.8005,320.8136 Q762.4646,320.1495 762.8162,319.9542 Q763.2068,319.7589 763.7146,319.7589 Q764.5349,319.7589 765.1599,320.423 Q765.824,321.048 765.824,321.9073 Q765.824,322.7667 764.9646,323.7823 Q763.7146,325.2277 761.7224,326.048 Q759.0271,327.1808 755.7849,327.1808 Q751.9958,327.1808 748.988,325.6183 Q746.5271,324.3683 744.8083,321.712 Q743.0896,319.0167 743.0896,315.8136 L743.0896,312.923 Q743.0896,309.6027 744.613,306.7511 Q746.1755,303.8605 748.9099,302.337 Q751.6443,300.7745 754.7302,300.7745 Q756.5662,300.7745 758.1677,301.2042 Q759.8083,301.5948 761.1755,302.4933 Z " fill="#000000"/><text fill="#000000" font-family="Arial" font-size="30" font-style="italic" lengthAdjust="spacing" textLength="115.0781" x="800.5115" y="302.1362">&#171;model&#187;</text><text fill="#000000" font-family="Arial" font-size="37.5" lengthAdjust="spacing" textLength="85.4553" x="815.3229" y="343.6682">Child</text><line style="stroke:#3B8B4F;stroke-width:1.25;" x1="578.75" x2="1056.1011" y1="364.115" y2="364.115"/><text fill="#000000" font-family="Arial" font-size="35" lengthAdjust="spacing" textLength="290.7837" x="591.25" y="406.9446">+firstName : String</text><text fill="#000000" font-family="Arial" font-size="35" lengthAdjust="spacing" textLength="288.8696" x="591.25" y="447.1912">+lastName : String</text><text fill="#000000" font-family="Arial" font-size="35" lengthAdjust="spacing" textLength="452.3511" x="591.25" y="487.4377">+profileImageBase64 : String</text></g><!--class com_example_family_tasks_proj_Parents_Dashbord_and_mange_model_ChildSummary--><g class="entity" data-qualified-name="Unconnected in this diagram.com_example_family_tasks_proj_Parents_Dashbord_and_mange_model_ChildSummary" data-source-line="49" id="ent0007"><rect fill="#E2F5E6" height="404.3445" rx="6.25" ry="6.25" style="stroke:#3B8B4F;stroke-width:1.25;" width="460.9375" x="1105" y="180.2466"/><ellipse cx="1203.2703" cy="231.5558" fill="#ADD1B2" rx="27.5" ry="27.5" style="stroke:#181818;stroke-width:2.5;"/><path d="M1210.1844,221.2433 Q1210.575,220.6964 1211.0438,220.423 Q1211.5125,220.1495 1212.0594,220.1495 Q1212.9969,220.1495 1213.5828,220.8136 Q1214.1688,221.4386 1214.1688,222.962 L1214.1688,226.5948 Q1214.1688,228.1183 1213.5828,228.7823 Q1212.9969,229.4464 1212.0594,229.4464 Q1211.2,229.4464 1210.6922,228.9386 Q1210.1844,228.4698 1209.9109,227.1808 Q1209.7938,226.2823 1209.325,225.8136 Q1208.5047,224.8761 1206.9813,224.3292 Q1205.4578,223.7823 1203.8953,223.7823 Q1201.9813,223.7823 1200.3797,224.6027 Q1198.8172,225.423 1197.5672,227.298 Q1196.3563,229.173 1196.3563,231.7511 L1196.3563,234.4855 Q1196.3563,237.5714 1198.5828,239.6417 Q1200.8094,241.673 1204.7938,241.673 Q1207.1375,241.673 1208.7781,241.048 Q1209.7547,240.6573 1210.8094,239.5636 Q1211.4734,238.8995 1211.825,238.7042 Q1212.2156,238.5089 1212.7234,238.5089 Q1213.5438,238.5089 1214.1688,239.173 Q1214.8328,239.798 1214.8328,240.6573 Q1214.8328,241.5167 1213.9734,242.5323 Q1212.7234,243.9777 1210.7313,244.798 Q1208.0359,245.9308 1204.7938,245.9308 Q1201.0047,245.9308 1197.9969,244.3683 Q1195.5359,243.1183 1193.8172,240.462 Q1192.0984,237.7667 1192.0984,234.5636 L1192.0984,231.673 Q1192.0984,228.3527 1193.6219,225.5011 Q1195.1844,222.6105 1197.9188,221.087 Q1200.6531,219.5245 1203.7391,219.5245 Q1205.575,219.5245 1207.1766,219.9542 Q1208.8172,220.3448 1210.1844,221.2433 Z " fill="#000000"/><text fill="#000000" font-family="Arial" font-size="30" font-style="italic" lengthAdjust="spacing" textLength="115.0781" x="1317.1819" y="220.8862">&#171;model&#187;</text><text fill="#000000" font-family="Arial" font-size="37.5" lengthAdjust="spacing" textLength="245.8923" x="1251.7748" y="262.4182">ChildSummary</text><line style="stroke:#3B8B4F;stroke-width:1.25;" x1="1107.5" x2="1563.4375" y1="282.865" y2="282.865"/><text fill="#000000" font-family="Arial" font-size="35" lengthAdjust="spacing" textLength="242.2144" x="1120" y="325.6946">+childId : String</text><text fill="#000000" font-family="Arial" font-size="35" lengthAdjust="spacing" textLength="343.3521" x="1120" y="365.9412">+displayName : String</text><text fill="#000000" font-family="Arial" font-size="35" lengthAdjust="spacing" textLength="430.9375" x="1120" y="406.1877">+childProfileBase64 : String</text><text fill="#000000" font-family="Arial" font-size="35" lengthAdjust="spacing" textLength="246.1279" x="1120" y="446.4343">+totalCount : int</text><text fill="#000000" font-family="Arial" font-size="35" lengthAdjust="spacing" textLength="320.0757" x="1120" y="486.6809">+assignedCount : int</text><text fill="#000000" font-family="Arial" font-size="35" lengthAdjust="spacing" textLength="341.4551" x="1120" y="526.9275">+completedCount : int</text><text fill="#000000" font-family="Arial" font-size="35" lengthAdjust="spacing" textLength="279.2139" x="1120" y="567.1741">+urgentCount : int</text></g><!--class com_example_family_tasks_proj_child_model_ChildTask--><g class="entity" data-qualified-name="Unconnected in this diagram.com_example_family_tasks_proj_child_model_ChildTask" data-source-line="58" id="ent0008"><rect fill="#E2F5E6" height="404.3445" rx="6.25" ry="6.25" style="stroke:#3B8B4F;stroke-width:1.25;" width="385.0757" x="1610" y="180.2466"/><ellipse cx="1709.7612" cy="231.5558" fill="#ADD1B2" rx="27.5" ry="27.5" style="stroke:#181818;stroke-width:2.5;"/><path d="M1716.6752,221.2433 Q1717.0659,220.6964 1717.5346,220.423 Q1718.0034,220.1495 1718.5502,220.1495 Q1719.4877,220.1495 1720.0737,220.8136 Q1720.6596,221.4386 1720.6596,222.962 L1720.6596,226.5948 Q1720.6596,228.1183 1720.0737,228.7823 Q1719.4877,229.4464 1718.5502,229.4464 Q1717.6909,229.4464 1717.183,228.9386 Q1716.6752,228.4698 1716.4018,227.1808 Q1716.2846,226.2823 1715.8159,225.8136 Q1714.9955,224.8761 1713.4721,224.3292 Q1711.9487,223.7823 1710.3862,223.7823 Q1708.4721,223.7823 1706.8705,224.6027 Q1705.308,225.423 1704.058,227.298 Q1702.8471,229.173 1702.8471,231.7511 L1702.8471,234.4855 Q1702.8471,237.5714 1705.0737,239.6417 Q1707.3002,241.673 1711.2846,241.673 Q1713.6284,241.673 1715.269,241.048 Q1716.2455,240.6573 1717.3002,239.5636 Q1717.9643,238.8995 1718.3159,238.7042 Q1718.7065,238.5089 1719.2143,238.5089 Q1720.0346,238.5089 1720.6596,239.173 Q1721.3237,239.798 1721.3237,240.6573 Q1721.3237,241.5167 1720.4643,242.5323 Q1719.2143,243.9777 1717.2221,244.798 Q1714.5268,245.9308 1711.2846,245.9308 Q1707.4955,245.9308 1704.4877,244.3683 Q1702.0268,243.1183 1700.308,240.462 Q1698.5893,237.7667 1698.5893,234.5636 L1698.5893,231.673 Q1698.5893,228.3527 1700.1127,225.5011 Q1701.6752,222.6105 1704.4096,221.087 Q1707.144,219.5245 1710.2299,219.5245 Q1712.0659,219.5245 1713.6674,219.9542 Q1715.308,220.3448 1716.6752,221.2433 Z " fill="#000000"/><text fill="#000000" font-family="Arial" font-size="30" font-style="italic" lengthAdjust="spacing" textLength="115.0781" x="1784.4167" y="220.8862">&#171;model&#187;</text><text fill="#000000" font-family="Arial" font-size="37.5" lengthAdjust="spacing" textLength="166.7175" x="1758.597" y="262.4182">ChildTask</text><line style="stroke:#3B8B4F;stroke-width:1.25;" x1="1612.5" x2="1992.5757" y1="282.865" y2="282.865"/><text fill="#000000" font-family="Arial" font-size="35" lengthAdjust="spacing" textLength="168.2837" x="1625" y="325.6946">+id : String</text><text fill="#000000" font-family="Arial" font-size="35" lengthAdjust="spacing" textLength="195.5078" x="1625" y="365.9412">+title : String</text><text fill="#000000" font-family="Arial" font-size="35" lengthAdjust="spacing" textLength="232.5073" x="1625" y="406.1877">+dueAt : String</text><text fill="#000000" font-family="Arial" font-size="35" lengthAdjust="spacing" textLength="283.1274" x="1625" y="446.4343">+isDone : boolean</text><text fill="#000000" font-family="Arial" font-size="35" lengthAdjust="spacing" textLength="284.9731" x="1625" y="486.6809">+starsWorth : long</text><text fill="#000000" font-family="Arial" font-size="35" lengthAdjust="spacing" textLength="355.0757" x="1625" y="526.9275">+imageBase64 : String</text><text fill="#000000" font-family="Arial" font-size="35" lengthAdjust="spacing" textLength="265.5933" x="1625" y="567.1741">+createdAt : long</text></g><!--class com_example_family_tasks_proj_FireBase_ParentInFb--><g class="entity" data-qualified-name="Unconnected in this diagram.com_example_family_tasks_proj_FireBase_ParentInFb" data-source-line="67" id="ent0009"><rect fill="#E2F5E6" height="404.3445" rx="6.25" ry="6.25" style="stroke:#3B8B4F;stroke-width:1.25;" width="504.6704" x="575" y="717.7466"/><ellipse cx="723.949" cy="769.0558" fill="#ADD1B2" rx="27.5" ry="27.5" style="stroke:#181818;stroke-width:2.5;"/><path d="M730.863,758.7433 Q731.2537,758.1964 731.7224,757.923 Q732.1912,757.6495 732.738,757.6495 Q733.6755,757.6495 734.2615,758.3136 Q734.8474,758.9386 734.8474,760.462 L734.8474,764.0948 Q734.8474,765.6183 734.2615,766.2823 Q733.6755,766.9464 732.738,766.9464 Q731.8787,766.9464 731.3708,766.4386 Q730.863,765.9698 730.5896,764.6808 Q730.4724,763.7823 730.0037,763.3136 Q729.1833,762.3761 727.6599,761.8292 Q726.1365,761.2823 724.574,761.2823 Q722.6599,761.2823 721.0583,762.1027 Q719.4958,762.923 718.2458,764.798 Q717.0349,766.673 717.0349,769.2511 L717.0349,771.9855 Q717.0349,775.0714 719.2615,777.1417 Q721.488,779.173 725.4724,779.173 Q727.8162,779.173 729.4568,778.548 Q730.4333,778.1573 731.488,777.0636 Q732.1521,776.3995 732.5037,776.2042 Q732.8943,776.0089 733.4021,776.0089 Q734.2224,776.0089 734.8474,776.673 Q735.5115,777.298 735.5115,778.1573 Q735.5115,779.0167 734.6521,780.0323 Q733.4021,781.4777 731.4099,782.298 Q728.7146,783.4308 725.4724,783.4308 Q721.6833,783.4308 718.6755,781.8683 Q716.2146,780.6183 714.4958,777.962 Q712.7771,775.2667 712.7771,772.0636 L712.7771,769.173 Q712.7771,765.8527 714.3005,763.0011 Q715.863,760.1105 718.5974,758.587 Q721.3318,757.0245 724.4177,757.0245 Q726.2537,757.0245 727.8552,757.4542 Q729.4958,757.8448 730.863,758.7433 Z " fill="#000000"/><text fill="#000000" font-family="Arial" font-size="30" font-style="italic" lengthAdjust="spacing" textLength="115.0781" x="810.4211" y="758.3862">&#171;model&#187;</text><text fill="#000000" font-family="Arial" font-size="37.5" lengthAdjust="spacing" textLength="185.5225" x="775.199" y="799.9182">ParentInFb</text><line style="stroke:#3B8B4F;stroke-width:1.25;" x1="577.5" x2="1077.1704" y1="820.365" y2="820.365"/><text fill="#000000" font-family="Arial" font-size="35" lengthAdjust="spacing" textLength="178.9648" x="590" y="863.1946">-uid : String</text><text fill="#000000" font-family="Arial" font-size="35" lengthAdjust="spacing" textLength="281.9995" x="590" y="903.4412">-firstName : String</text><text fill="#000000" font-family="Arial" font-size="35" lengthAdjust="spacing" textLength="280.0854" x="590" y="943.6877">-lastName : String</text><text fill="#000000" font-family="Arial" font-size="35" lengthAdjust="spacing" textLength="215.896" x="590" y="983.9343">-email : String</text><text fill="#000000" font-family="Arial" font-size="35" lengthAdjust="spacing" textLength="190.6201" x="590" y="1024.1809">-role : String</text><text fill="#000000" font-family="Arial" font-size="35" lengthAdjust="spacing" textLength="474.6704" x="590" y="1064.4275">-children : Map&lt;String,Object&gt;</text><text fill="#000000" font-family="Arial" font-size="35" lengthAdjust="spacing" textLength="443.5669" x="590" y="1104.6741">-profileImageBase64 : String</text></g><!--class com_example_family_tasks_proj_Parents_Dashbord_and_mange_model_TaskTemplate--><g class="entity" data-qualified-name="Unconnected in this diagram.com_example_family_tasks_proj_Parents_Dashbord_and_mange_model_TaskTemplate" data-source-line="76" id="ent0010"><rect fill="#E2F5E6" height="323.8513" rx="6.25" ry="6.25" style="stroke:#3B8B4F;stroke-width:1.25;" width="563.8525" x="1125" y="757.7466"/><ellipse cx="1277.5116" cy="809.0558" fill="#ADD1B2" rx="27.5" ry="27.5" style="stroke:#181818;stroke-width:2.5;"/><path d="M1284.4257,798.7433 Q1284.8163,798.1964 1285.285,797.923 Q1285.7538,797.6495 1286.3007,797.6495 Q1287.2382,797.6495 1287.8241,798.3136 Q1288.41,798.9386 1288.41,800.462 L1288.41,804.0948 Q1288.41,805.6183 1287.8241,806.2823 Q1287.2382,806.9464 1286.3007,806.9464 Q1285.4413,806.9464 1284.9335,806.4386 Q1284.4257,805.9698 1284.1522,804.6808 Q1284.035,803.7823 1283.5663,803.3136 Q1282.746,802.3761 1281.2225,801.8292 Q1279.6991,801.2823 1278.1366,801.2823 Q1276.2225,801.2823 1274.621,802.1027 Q1273.0585,802.923 1271.8085,804.798 Q1270.5975,806.673 1270.5975,809.2511 L1270.5975,811.9855 Q1270.5975,815.0714 1272.8241,817.1417 Q1275.0507,819.173 1279.035,819.173 Q1281.3788,819.173 1283.0194,818.548 Q1283.996,818.1573 1285.0507,817.0636 Q1285.7147,816.3995 1286.0663,816.2042 Q1286.4569,816.0089 1286.9647,816.0089 Q1287.785,816.0089 1288.41,816.673 Q1289.0741,817.298 1289.0741,818.1573 Q1289.0741,819.0167 1288.2147,820.0323 Q1286.9647,821.4777 1284.9725,822.298 Q1282.2772,823.4308 1279.035,823.4308 Q1275.246,823.4308 1272.2382,821.8683 Q1269.7772,820.6183 1268.0585,817.962 Q1266.3397,815.2667 1266.3397,812.0636 L1266.3397,809.173 Q1266.3397,805.8527 1267.8632,803.0011 Q1269.4257,800.1105 1272.16,798.587 Q1274.8944,797.0245 1277.9803,797.0245 Q1279.8163,797.0245 1281.4178,797.4542 Q1283.0585,797.8448 1284.4257,798.7433 Z " fill="#000000"/><text fill="#000000" font-family="Arial" font-size="30" font-style="italic" lengthAdjust="spacing" textLength="115.0781" x="1390.0122" y="798.3862">&#171;model&#187;</text><text fill="#000000" font-family="Arial" font-size="37.5" lengthAdjust="spacing" textLength="237.5793" x="1328.7616" y="839.9182">TaskTemplate</text><line style="stroke:#3B8B4F;stroke-width:1.25;" x1="1127.5" x2="1686.3525" y1="860.365" y2="860.365"/><text fill="#000000" font-family="Arial" font-size="35" lengthAdjust="spacing" textLength="533.8525" x="1140" y="903.1946">+DEFAULT_STARS_WORTH : int</text><text fill="#000000" font-family="Arial" font-size="35" lengthAdjust="spacing" textLength="168.2837" x="1140" y="943.4412">+id : String</text><text fill="#000000" font-family="Arial" font-size="35" lengthAdjust="spacing" textLength="195.5078" x="1140" y="983.6877">+title : String</text><text fill="#000000" font-family="Arial" font-size="35" lengthAdjust="spacing" textLength="355.0757" x="1140" y="1023.9343">+imageBase64 : String</text><text fill="#000000" font-family="Arial" font-size="35" lengthAdjust="spacing" textLength="255.7666" x="1140" y="1064.1809">+starsWorth : int</text></g><g class="link" data-entity-1="ent0004" data-entity-2="ent0003" data-link-type="dependency" id="lnk11"><polygon fill="#181818" points="285,717.224,295,694.724,285,704.724,275,694.724,285,717.224" style="stroke:#181818;stroke-width:2.5;"/><path d="M285,524.4591 C285,583.3166 285,637.9923 285,702.224" fill="none" style="stroke:#181818;stroke-width:2.5;stroke-dasharray:17.5,17.5;"/><text fill="#000000" font-family="Arial" font-size="30" lengthAdjust="spacing" textLength="63.3691" x="290" y="663.3862">uses</text></g><g class="legend" data-source-line="87"><rect fill="#DDDDDD" height="276.4795" rx="18.75" ry="18.75" style="stroke:#000000;stroke-width:2.5;" width="608.4814" x="1354.0186" y="1177.7466"/><text fill="#000000" font-family="Arial" font-size="35" font-weight="bold" lengthAdjust="spacing" textLength="91.3794" x="1366.5186" y="1228.0762">Color</text><text fill="#000000" font-family="Arial" font-size="35" font-weight="bold" lengthAdjust="spacing" textLength="75.8447" x="1457.8979" y="1228.0762">Role</text><rect fill="#DCEEFF" height="40.2466" style="stroke:none;stroke-width:2.5;" width="91.3794" x="1366.5186" y="1235.4932"/><text fill="#000000" font-family="Arial" font-size="35" lengthAdjust="spacing" textLength="9.7241" x="1366.5186" y="1268.3228">&#160;</text><text fill="#000000" font-family="Arial" font-size="35" lengthAdjust="spacing" textLength="492.1021" x="1457.8979" y="1268.3228">Screens / Activities / Fragments</text><rect fill="#E2F5E6" height="40.2466" style="stroke:none;stroke-width:2.5;" width="91.3794" x="1366.5186" y="1275.7397"/><text fill="#000000" font-family="Arial" font-size="35" lengthAdjust="spacing" textLength="9.7241" x="1366.5186" y="1308.5693">&#160;</text><text fill="#000000" font-family="Arial" font-size="35" lengthAdjust="spacing" textLength="112.8271" x="1457.8979" y="1308.5693">Models</text><rect fill="#FFF3BF" height="40.2466" style="stroke:none;stroke-width:2.5;" width="91.3794" x="1366.5186" y="1315.9863"/><text fill="#000000" font-family="Arial" font-size="35" lengthAdjust="spacing" textLength="9.7241" x="1366.5186" y="1348.8159">&#160;</text><text fill="#000000" font-family="Arial" font-size="35" lengthAdjust="spacing" textLength="140.0854" x="1457.8979" y="1348.8159">Adapters</text><rect fill="#EFEFEF" height="40.2466" style="stroke:none;stroke-width:2.5;" width="91.3794" x="1366.5186" y="1356.2329"/><text fill="#000000" font-family="Arial" font-size="35" lengthAdjust="spacing" textLength="9.7241" x="1366.5186" y="1389.0625">&#160;</text><text fill="#000000" font-family="Arial" font-size="35" lengthAdjust="spacing" textLength="233.396" x="1457.8979" y="1389.0625">Utils / Firebase</text><rect fill="#FFFFFF" height="40.2466" style="stroke:none;stroke-width:2.5;" width="91.3794" x="1366.5186" y="1396.4795"/><text fill="#000000" font-family="Arial" font-size="35" lengthAdjust="spacing" textLength="9.7241" x="1366.5186" y="1429.3091">&#160;</text><text fill="#000000" font-family="Arial" font-size="35" lengthAdjust="spacing" textLength="457.2559" x="1457.8979" y="1429.3091">Inner or unconnected support</text><line style="stroke:#000000;stroke-width:2.5;" x1="1366.5186" x2="1950" y1="1195.2466" y2="1195.2466"/><line style="stroke:#000000;stroke-width:2.5;" x1="1366.5186" x2="1950" y1="1235.4932" y2="1235.4932"/><line style="stroke:#000000;stroke-width:2.5;" x1="1366.5186" x2="1950" y1="1275.7397" y2="1275.7397"/><line style="stroke:#000000;stroke-width:2.5;" x1="1366.5186" x2="1950" y1="1315.9863" y2="1315.9863"/><line style="stroke:#000000;stroke-width:2.5;" x1="1366.5186" x2="1950" y1="1356.2329" y2="1356.2329"/><line style="stroke:#000000;stroke-width:2.5;" x1="1366.5186" x2="1950" y1="1396.4795" y2="1396.4795"/><line style="stroke:#000000;stroke-width:2.5;" x1="1366.5186" x2="1950" y1="1436.7261" y2="1436.7261"/><line style="stroke:#000000;stroke-width:2.5;" x1="1366.5186" x2="1366.5186" y1="1195.2466" y2="1436.7261"/><line style="stroke:#000000;stroke-width:2.5;" x1="1457.8979" x2="1457.8979" y1="1195.2466" y2="1436.7261"/><line style="stroke:#000000;stroke-width:2.5;" x1="1950" x2="1950" y1="1195.2466" y2="1436.7261"/></g><g class="caption" data-source-line="23"><text fill="#000000" font-family="Arial" font-size="35" lengthAdjust="spacing" textLength="1167.2021" x="412.6489" y="1522.0557">Generated from app/src/main/java with JavaParser; rendered by PlantUML.</text></g><?plantuml-src hLPRSzf657xNhpYb3treCQxj44_gC2CmIkZOYSV0v55pa1POUxMhsLt5eS7_lMTNNCIbXkaWdZYtFPVlN7w3iB2gFc6IQRGiXR5M6VoDtn6CAdJ2O3I3L2McKMIYOPKIfl5f8HnXniLiWERP33DnzaHAmI-vnac6872c2WicOnOb1kQPonmrPf3c72wkpYiKCyLKlN0vWJ4AmoeSmIMpivo1qdQgAen4e36XjPgF2ijwYP9z_W-3gjMKZR4GDbBIVi6CGQWvYcqJZkir_tnNOUMOFEE4hPdN5MQejNfPiowsJRP9UQ9L8TEE4ahVt9X4CoPRBVZrjjFjHj6EWj8fqpl25r4p2YyFMizKoeIJxrv4xxhDDuslP2_Rr-shwA1jJ36tJ3kDA8ekss-xNf5kDw_3y_E3zWlBIzSZztlJ-5BqlVyEMkPIhloE3gHy9TlqNp3bAGEMvNO61DwfIarWkHKCIhY3nplKuTvb4phE7ZD1Gi5p9U7JPYDXdZUCJXePSjbm3G8lt4vzVpsWDap_1Pf9SeOKgD4U14exlByx2u852A7ctp6rPONXP-1ZW5fe39z8bZg7Qe064fN5x0TckM3ns3iRM-Tid6lr5DDxJ5eJtwAPZYW1CSeqpb1EMEo14LVjmHejFmE0to6PSf7sKlW0VUewELaJVNVjaX-q6dF1scXOysgJxvpQDbMcU8EK5YoqcoHkRfLqOYCQH0nbyBfCXdFwZXlRiomxHJAgzdQImSrdXbIqYYEEFFN4mMua9QD307NnS6bNQQ2_rRHJFA-LqWybJJR94WSdBi5EkO6KuuI0N5jYUus7Zalx4R7xyYp2z3exyOsvDdQthlJC7cfU5hgNaSlRrNxTyArVP1dgsIdAKxLt75PJRd9QIly3hSgYsAuTBegsJQUmA2AxooWqhLXRfMxcviWctgdTtcRbfsakHpIMnjGtjt-98THIT5-nVVoQkU7dJNlfLPHbINio6XqHPiIrDn-ljRQ2h4En6MLzFshhUr5Rfm6FN6oIj19RGZxRv01Hxp6_AJb_V1qzKKkslCHHu7Sr6j164PIQKyscfRsTsjzset1uDuZxW_2n7t_x-ZZuN87X4SZupzfkGA54C0shKyxPixFMIPVO1oZSRWu4e-PBGVF9r0RpZtxnppy-KhtdmVncSPUrvdr_V1beG9XO_frRpjoVo5sqxbKlN6xXrhnSovvK7aUjULXUG0ivVzIqvaEwNBmLWlI8ihhKYDoBFNTxq7KBHMNIcoBFASlpW7mkFVyN?></g></svg>