<svg xmlns="http://www.w3.org/2000/svg" xmlns:xlink="http://www.w3.org/1999/xlink" contentStyleType="text/css" height="1045px" preserveAspectRatio="none" style="width:4277px;height:1045px;background:#FFFFFF;" version="1.1" viewBox="0 0 4277 1045" width="4277.5px" zoomAndPan="magnify"><title>Family Tasks - Screen Classes</title><defs/><g><text fill="#000000" font-family="Arial" font-size="35" font-weight="bold" lengthAdjust="spacing" textLength="509.7388" x="1863.8806" y="57.8296">Family Tasks - Screen Classes</text><!--cluster auth--><g id="cluster_auth"><path d="M41.25,102.7466 L138.7378,102.7466 A9.375,9.375 0 0 1 144.9878,108.9966 L162.4878,169.4922 L1568.75,169.4922 A6.25,6.25 0 0 1 1575,175.7422 L1575,968.9966 A6.25,6.25 0 0 1 1568.75,975.2466 L41.25,975.2466 A6.25,6.25 0 0 1 35,968.9966 L35,108.9966 A6.25,6.25 0 0 1 41.25,102.7466 " fill="#DCEEFF" style="stroke:#000000;stroke-width:3.75;"/><line style="stroke:#000000;stroke-width:3.75;" x1="35" x2="162.4878" y1="169.4922" y2="169.4922"/><text fill="#000000" font-family="Arial" font-size="45" font-weight="bold" lengthAdjust="spacing" textLength="94.9878" x="45" y="149.9561">auth</text></g><!--cluster parent--><g id="cluster_parent"><path d="M2131.25,535.2466 L2271.2769,535.2466 A9.375,9.375 0 0 1 2277.5269,541.4966 L2295.0269,601.9922 L4253.75,601.9922 A6.25,6.25 0 0 1 4260,608.2422 L4260,968.9966 A6.25,6.25 0 0 1 4253.75,975.2466 L2131.25,975.2466 A6.25,6.25 0 0 1 2125,968.9966 L2125,541.4966 A6.25,6.25 0 0 1 2131.25,535.2466 " fill="#DCEEFF" style="stroke:#000000;stroke-width:3.75;"/><line style="stroke:#000000;stroke-width:3.75;" x1="2125" x2="2295.0269" y1="601.9922" y2="601.9922"/><text fill="#000000" font-family="Arial" font-size="45" font-weight="bold" lengthAdjust="spacing" textLength="137.5269" x="2135" y="582.4561">parent</text></g><!--cluster child--><g id="cluster_child"><path d="M1601.25,755.2466 L1708.7573,755.2466 A9.375,9.375 0 0 1 1715.0073,761.4966 L1732.5073,821.9922 L2098.75,821.9922 A6.25,6.25 0 0 1 2105,828.2422 L2105,968.9966 A6.25,6.25 0 0 1 2098.75,975.2466 L1601.25,975.2466 A6.25,6.25 0 0 1 1595,968.9966 L1595,761.4966 A6.25,6.25 0 0 1 1601.25,755.2466 " fill="#DCEEFF" style="stroke:#000000;stroke-width:3.75;"/><line style="stroke:#000000;stroke-width:3.75;" x1="1595" x2="1732.5073" y1="821.9922" y2="821.9922"/><text fill="#000000" font-family="Arial" font-size="45" font-weight="bold" lengthAdjust="spacing" textLength="105.0073" x="1605" y="802.4561">child</text></g><!--class MainActivity--><g id="elem_MainActivity"><rect codeLine="19" fill="#DCEEFF" height="122.6184" id="MainActivity" rx="6.25" ry="6.25" style="stroke:#2F6FA3;stroke-width:1.25;" width="280.0427" x="657.5" y="180.2466"/><ellipse cx="695" cy="231.5558" fill="#ADD1B2" rx="27.5" ry="27.5" style="stroke:#181818;stroke-width:2.5;"/><path d="M701.9141,221.2433 Q702.3047,220.6964 702.7734,220.423 Q703.2422,220.1495 703.7891,220.1495 Q704.7266,220.1495 705.3125,220.8136 Q705.8984,221.4386 705.8984,222.962 L705.8984,226.5948 Q705.8984,228.1183 705.3125,228.7823 Q704.7266,229.4464 703.7891,229.4464 Q702.9297,229.4464 702.4219,228.9386 Q701.9141,228.4698 701.6406,227.1808 Q701.5234,226.2823 701.0547,225.8136 Q700.2344,224.8761 698.7109,224.3292 Q697.1875,223.7823 695.625,223.7823 Q693.7109,223.7823 692.1094,224.6027 Q690.5469,225.423 689.2969,227.298 Q688.0859,229.173 688.0859,231.7511 L688.0859,234.4855 Q688.0859,237.5714 690.3125,239.6417 Q692.5391,241.673 696.5234,241.673 Q698.8672,241.673 700.5078,241.048 Q701.4844,240.6573 702.5391,239.5636 Q703.2031,238.8995 703.5547,238.7042 Q703.9453,238.5089 704.4531,238.5089 Q705.2734,238.5089 705.8984,239.173 Q706.5625,239.798 706.5625,240.6573 Q706.5625,241.5167 705.7031,242.5323 Q704.4531,243.9777 702.4609,244.798 Q699.7656,245.9308 696.5234,245.9308 Q692.7344,245.9308 689.7266,244.3683 Q687.2656,243.1183 685.5469,240.462 Q683.8281,237.7667 683.8281,234.5636 L683.8281,231.673 Q683.8281,228.3527 685.3516,225.5011 Q686.9141,222.6105 689.6484,221.087 Q692.3828,219.5245 695.4688,219.5245 Q697.3047,219.5245 698.9063,219.9542 Q700.5469,220.3448 701.9141,221.2433 Z " fill="#000000"/><text fill="#000000" font-family="Arial" font-size="30" font-style="italic" lengthAdjust="spacing" textLength="123.4131" x="768.3148" y="220.8862">&#171;screen&#187;</text><text fill="#000000" font-family="Arial" font-size="37.5" lengthAdjust="spacing" textLength="200.0427" x="730" y="262.4182">MainActivity</text><line style="stroke:#2F6FA3;stroke-width:1.25;" x1="660" x2="935.0427" y1="282.865" y2="282.865"/></g><!--class ParentLoginFragment--><g id="elem_ParentLoginFragment"><rect codeLine="20" fill="#DCEEFF" height="122.6184" id="ParentLoginFragment" rx="6.25" ry="6.25" style="stroke:#2F6FA3;stroke-width:1.25;" width="442.7136" x="576.25" y="392.7466"/><ellipse cx="613.75" cy="444.0558" fill="#ADD1B2" rx="27.5" ry="27.5" style="stroke:#181818;stroke-width:2.5;"/><path d="M620.6641,433.7433 Q621.0547,433.1964 621.5234,432.923 Q621.9922,432.6495 622.5391,432.6495 Q623.4766,432.6495 624.0625,433.3136 Q624.6484,433.9386 624.6484,435.462 L624.6484,439.0948 Q624.6484,440.6183 624.0625,441.2823 Q623.4766,441.9464 622.5391,441.9464 Q621.6797,441.9464 621.1719,441.4386 Q620.6641,440.9698 620.3906,439.6808 Q620.2734,438.7823 619.8047,438.3136 Q618.9844,437.3761 617.4609,436.8292 Q615.9375,436.2823 614.375,436.2823 Q612.4609,436.2823 610.8594,437.1027 Q609.2969,437.923 608.0469,439.798 Q606.8359,441.673 606.8359,444.2511 L606.8359,446.9855 Q606.8359,450.0714 609.0625,452.1417 Q611.2891,454.173 615.2734,454.173 Q617.6172,454.173 619.2578,453.548 Q620.2344,453.1573 621.2891,452.0636 Q621.9531,451.3995 622.3047,451.2042 Q622.6953,451.0089 623.2031,451.0089 Q624.0234,451.0089 624.6484,451.673 Q625.3125,452.298 625.3125,453.1573 Q625.3125,454.0167 624.4531,455.0323 Q623.2031,456.4777 621.2109,457.298 Q618.5156,458.4308 615.2734,458.4308 Q611.4844,458.4308 608.4766,456.8683 Q606.0156,455.6183 604.2969,452.962 Q602.5781,450.2667 602.5781,447.0636 L602.5781,444.173 Q602.5781,440.8527 604.1016,438.0011 Q605.6641,435.1105 608.3984,433.587 Q611.1328,432.0245 614.2188,432.0245 Q616.0547,432.0245 617.6563,432.4542 Q619.2969,432.8448 620.6641,433.7433 Z " fill="#000000"/><text fill="#000000" font-family="Arial" font-size="30" font-style="italic" lengthAdjust="spacing" textLength="123.4131" x="768.4003" y="433.3862">&#171;screen&#187;</text><text fill="#000000" font-family="Arial" font-size="37.5" lengthAdjust="spacing" textLength="362.7136" x="648.75" y="474.9182">ParentLoginFragment</text><line style="stroke:#2F6FA3;stroke-width:1.25;" x1="578.75" x2="1016.4636" y1="495.365" y2="495.365"/></g><!--class ParentRegisterFragment--><g id="elem_ParentRegisterFragment"><rect codeLine="21" fill="#DCEEFF" height="122.6184" id="ParentRegisterFragment" rx="6.25" ry="6.25" style="stroke:#2F6FA3;stroke-width:1.25;" width="490.5957" x="1065" y="392.7466"/><ellipse cx="1102.5" cy="444.0558" fill="#ADD1B2" rx="27.5" ry="27.5" style="stroke:#181818;stroke-width:2.5;"/><path d="M1109.4141,433.7433 Q1109.8047,433.1964 1110.2734,432.923 Q1110.7422,432.6495 1111.2891,432.6495 Q1112.2266,432.6495 1112.8125,433.3136 Q1113.3984,433.9386 1113.3984,435.462 L1113.3984,439.0948 Q1113.3984,440.6183 1112.8125,441.2823 Q1112.2266,441.9464 1111.2891,441.9464 Q1110.4297,441.9464 1109.9219,441.4386 Q1109.4141,440.9698 1109.1406,439.6808 Q1109.0234,438.7823 1108.5547,438.3136 Q1107.7344,437.3761 1106.2109,436.8292 Q1104.6875,436.2823 1103.125,436.2823 Q1101.2109,436.2823 1099.6094,437.1027 Q1098.0469,437.923 1096.7969,439.798 Q1095.5859,441.673 1095.5859,444.2511 L1095.5859,446.9855 Q1095.5859,450.0714 1097.8125,452.1417 Q1100.0391,454.173 1104.0234,454.173 Q1106.3672,454.173 1108.0078,453.548 Q1108.9844,453.1573 1110.0391,452.0636 Q1110.7031,451.3995 1111.0547,451.2042 Q1111.4453,451.0089 1111.9531,451.0089 Q1112.7734,451.0089 1113.3984,451.673 Q1114.0625,452.298 1114.0625,453.1573 Q1114.0625,454.0167 1113.2031,455.0323 Q1111.9531,456.4777 1109.9609,457.298 Q1107.2656,458.4308 1104.0234,458.4308 Q1100.2344,458.4308 1097.2266,456.8683 Q1094.7656,455.6183 1093.0469,452.962 Q1091.3281,450.2667 1091.3281,447.0636 L1091.3281,444.173 Q1091.3281,440.8527 1092.8516,438.0011 Q1094.4141,435.1105 1097.1484,433.587 Q1099.8828,432.0245 1102.9688,432.0245 Q1104.8047,432.0245 1106.4063,432.4542 Q1108.0469,432.8448 1109.4141,433.7433 Z " fill="#000000"/><text fill="#000000" font-family="Arial" font-size="30" font-style="italic" lengthAdjust="spacing" textLength="123.4131" x="1281.0913" y="433.3862">&#171;screen&#187;</text><text fill="#000000" font-family="Arial" font-size="37.5" lengthAdjust="spacing" textLength="410.5957" x="1137.5" y="474.9182">ParentRegisterFragment</text><line style="stroke:#2F6FA3;stroke-width:1.25;" x1="1067.5" x2="1553.0957" y1="495.365" y2="495.365"/></g><!--class ChildQRLoginFragment--><g id="elem_ChildQRLoginFragment"><rect codeLine="22" fill="#DCEEFF" height="122.6184" id="ChildQRLoginFragment" rx="6.25" ry="6.25" style="stroke:#2F6FA3;stroke-width:1.25;" width="473.9331" x="55" y="392.7466"/><ellipse cx="92.5" cy="444.0558" fill="#ADD1B2" rx="27.5" ry="27.5" style="stroke:#181818;stroke-width:2.5;"/><path d="M99.4141,433.7433 Q99.8047,433.1964 100.2734,432.923 Q100.7422,432.6495 101.2891,432.6495 Q102.2266,432.6495 102.8125,433.3136 Q103.3984,433.9386 103.3984,435.462 L103.3984,439.0948 Q103.3984,440.6183 102.8125,441.2823 Q102.2266,441.9464 101.2891,441.9464 Q100.4297,441.9464 99.9219,441.4386 Q99.4141,440.9698 99.1406,439.6808 Q99.0234,438.7823 98.5547,438.3136 Q97.7344,437.3761 96.2109,436.8292 Q94.6875,436.2823 93.125,436.2823 Q91.2109,436.2823 89.6094,437.1027 Q88.0469,437.923 86.7969,439.798 Q85.5859,441.673 85.5859,444.2511 L85.5859,446.9855 Q85.5859,450.0714 87.8125,452.1417 Q90.0391,454.173 94.0234,454.173 Q96.3672,454.173 98.0078,453.548 Q98.9844,453.1573 100.0391,452.0636 Q100.7031,451.3995 101.0547,451.2042 Q101.4453,451.0089 101.9531,451.0089 Q102.7734,451.0089 103.3984,451.673 Q104.0625,452.298 104.0625,453.1573 Q104.0625,454.0167 103.2031,455.0323 Q101.9531,456.4777 99.9609,457.298 Q97.2656,458.4308 94.0234,458.4308 Q90.2344,458.4308 87.2266,456.8683 Q84.7656,455.6183 83.0469,452.962 Q81.3281,450.2667 81.3281,447.0636 L81.3281,444.173 Q81.3281,440.8527 82.8516,438.0011 Q84.4141,435.1105 87.1484,433.587 Q89.8828,432.0245 92.9688,432.0245 Q94.8047,432.0245 96.4063,432.4542 Q98.0469,432.8448 99.4141,433.7433 Z " fill="#000000"/><text fill="#000000" font-family="Arial" font-size="30" font-style="italic" lengthAdjust="spacing" textLength="123.4131" x="262.76" y="433.3862">&#171;screen&#187;</text><text fill="#000000" font-family="Arial" font-size="37.5" lengthAdjust="spacing" textLength="393.9331" x="127.5" y="474.9182">ChildQRLoginFragment</text><line style="stroke:#2F6FA3;stroke-width:1.25;" x1="57.5" x2="526.4331" y1="495.365" y2="495.365"/></g><!--class ChildSelectionActivity--><g id="elem_ChildSelectionActivity"><rect codeLine="23" fill="#DCEEFF" height="122.6184" id="ChildSelectionActivity" rx="6.25" ry="6.25" style="stroke:#2F6FA3;stroke-width:1.25;" width="438.4839" x="586.25" y="612.7466"/><ellipse cx="623.75" cy="664.0558" fill="#ADD1B2" rx="27.5" ry="27.5" style="stroke:#181818;stroke-width:2.5;"/><path d="M630.6641,653.7433 Q631.0547,653.1964 631.5234,652.923 Q631.9922,652.6495 632.5391,652.6495 Q633.4766,652.6495 634.0625,653.3136 Q634.6484,653.9386 634.6484,655.462 L634.6484,659.0948 Q634.6484,660.6183 634.0625,661.2823 Q633.4766,661.9464 632.5391,661.9464 Q631.6797,661.9464 631.1719,661.4386 Q630.6641,660.9698 630.3906,659.6808 Q630.2734,658.7823 629.8047,658.3136 Q628.9844,657.3761 627.4609,656.8292 Q625.9375,656.2823 624.375,656.2823 Q622.4609,656.2823 620.8594,657.1027 Q619.2969,657.923 618.0469,659.798 Q616.8359,661.673 616.8359,664.2511 L616.8359,666.9855 Q616.8359,670.0714 619.0625,672.1417 Q621.2891,674.173 625.2734,674.173 Q627.6172,674.173 629.2578,673.548 Q630.2344,673.1573 631.2891,672.0636 Q631.9531,671.3995 632.3047,671.2042 Q632.6953,671.0089 633.2031,671.0089 Q634.0234,671.0089 634.6484,671.673 Q635.3125,672.298 635.3125,673.1573 Q635.3125,674.0167 634.4531,675.0323 Q633.2031,676.4777 631.2109,677.298 Q628.5156,678.4308 625.2734,678.4308 Q621.4844,678.4308 618.4766,676.8683 Q616.0156,675.6183 614.2969,672.962 Q612.5781,670.2667 612.5781,667.0636 L612.5781,664.173 Q612.5781,660.8527 614.1016,658.0011 Q615.6641,655.1105 618.3984,653.587 Q621.1328,652.0245 624.2188,652.0245 Q626.0547,652.0245 627.6563,652.4542 Q629.2969,652.8448 630.6641,653.7433 Z " fill="#000000"/><text fill="#000000" font-family="Arial" font-size="30" font-style="italic" lengthAdjust="spacing" textLength="123.4131" x="776.2854" y="653.3862">&#171;screen&#187;</text><text fill="#000000" font-family="Arial" font-size="37.5" lengthAdjust="spacing" textLength="358.4839" x="658.75" y="694.9182">ChildSelectionActivity</text><line style="stroke:#2F6FA3;stroke-width:1.25;" x1="588.75" x2="1022.2339" y1="715.365" y2="715.365"/></g><!--class SelectionChildItem--><g id="elem_SelectionChildItem"><rect codeLine="24" fill="#FFFFFF" height="122.6184" id="SelectionChildItem" rx="6.25" ry="6.25" style="stroke:#666666;stroke-width:1.25;" width="607.2888" x="501.25" y="832.7466"/><ellipse cx="538.75" cy="884.0558" fill="#ADD1B2" rx="27.5" ry="27.5" style="stroke:#181818;stroke-width:2.5;"/><path d="M545.6641,873.7433 Q546.0547,873.1964 546.5234,872.923 Q546.9922,872.6495 547.5391,872.6495 Q548.4766,872.6495 549.0625,873.3136 Q549.6484,873.9386 549.6484,875.462 L549.6484,879.0948 Q549.6484,880.6183 549.0625,881.2823 Q548.4766,881.9464 547.5391,881.9464 Q546.6797,881.9464 546.1719,881.4386 Q545.6641,880.9698 545.3906,879.6808 Q545.2734,878.7823 544.8047,878.3136 Q543.9844,877.3761 542.4609,876.8292 Q540.9375,876.2823 539.375,876.2823 Q537.4609,876.2823 535.8594,877.1027 Q534.2969,877.923 533.0469,879.798 Q531.8359,881.673 531.8359,884.2511 L531.8359,886.9855 Q531.8359,890.0714 534.0625,892.1417 Q536.2891,894.173 540.2734,894.173 Q542.6172,894.173 544.2578,893.548 Q545.2344,893.1573 546.2891,892.0636 Q546.9531,891.3995 547.3047,891.2042 Q547.6953,891.0089 548.2031,891.0089 Q549.0234,891.0089 549.6484,891.673 Q550.3125,892.298 550.3125,893.1573 Q550.3125,894.0167 549.4531,895.0323 Q548.2031,896.4777 546.2109,897.298 Q543.5156,898.4308 540.2734,898.4308 Q536.4844,898.4308 533.4766,896.8683 Q531.0156,895.6183 529.2969,892.962 Q527.5781,890.2667 527.5781,887.0636 L527.5781,884.173 Q527.5781,880.8527 529.1016,878.0011 Q530.6641,875.1105 533.3984,873.587 Q536.1328,872.0245 539.2188,872.0245 Q541.0547,872.0245 542.6563,872.4542 Q544.2969,872.8448 545.6641,873.7433 Z " fill="#000000"/><text fill="#000000" font-family="Arial" font-size="30" font-style="italic" lengthAdjust="spacing" textLength="100.0781" x="787.3553" y="873.3862">&#171;inner&#187;</text><text fill="#000000" font-family="Arial" font-size="37.5" lengthAdjust="spacing" textLength="527.2888" x="573.75" y="914.9182">ChildSelectionActivity.ChildItem</text><line style="stroke:#666666;stroke-width:1.25;" x1="503.75" x2="1106.0388" y1="935.365" y2="935.365"/></g><!--class ParentDashboardActivity--><g id="elem_ParentDashboardActivity"><rect codeLine="28" fill="#DCEEFF" height="122.6184" id="ParentDashboardActivity" rx="6.25" ry="6.25" style="stroke:#2F6FA3;stroke-width:1.25;" width="492.7014" x="2386.25" y="612.7466"/><ellipse cx="2423.75" cy="664.0558" fill="#ADD1B2" rx="27.5" ry="27.5" style="stroke:#181818;stroke-width:2.5;"/><path d="M2430.6641,653.7433 Q2431.0547,653.1964 2431.5234,652.923 Q2431.9922,652.6495 2432.5391,652.6495 Q2433.4766,652.6495 2434.0625,653.3136 Q2434.6484,653.9386 2434.6484,655.462 L2434.6484,659.0948 Q2434.6484,660.6183 2434.0625,661.2823 Q2433.4766,661.9464 2432.5391,661.9464 Q2431.6797,661.9464 2431.1719,661.4386 Q2430.6641,660.9698 2430.3906,659.6808 Q2430.2734,658.7823 2429.8047,658.3136 Q2428.9844,657.3761 2427.4609,656.8292 Q2425.9375,656.2823 2424.375,656.2823 Q2422.4609,656.2823 2420.8594,657.1027 Q2419.2969,657.923 2418.0469,659.798 Q2416.8359,661.673 2416.8359,664.2511 L2416.8359,666.9855 Q2416.8359,670.0714 2419.0625,672.1417 Q2421.2891,674.173 2425.2734,674.173 Q2427.6172,674.173 2429.2578,673.548 Q2430.2344,673.1573 2431.2891,672.0636 Q2431.9531,671.3995 2432.3047,671.2042 Q2432.6953,671.0089 2433.2031,671.0089 Q2434.0234,671.0089 2434.6484,671.673 Q2435.3125,672.298 2435.3125,673.1573 Q2435.3125,674.0167 2434.4531,675.0323 Q2433.2031,676.4777 2431.2109,677.298 Q2428.5156,678.4308 2425.2734,678.4308 Q2421.4844,678.4308 2418.4766,676.8683 Q2416.0156,675.6183 2414.2969,672.962 Q2412.5781,670.2667 2412.5781,667.0636 L2412.5781,664.173 Q2412.5781,660.8527 2414.1016,658.0011 Q2415.6641,655.1105 2418.3984,653.587 Q2421.1328,652.0245 2424.2188,652.0245 Q2426.0547,652.0245 2427.6563,652.4542 Q2429.2969,652.8448 2430.6641,653.7433 Z " fill="#000000"/><text fill="#000000" font-family="Arial" font-size="30" font-style="italic" lengthAdjust="spacing" textLength="123.4131" x="2603.3942" y="653.3862">&#171;screen&#187;</text><text fill="#000000" font-family="Arial" font-size="37.5" lengthAdjust="spacing" textLength="412.7014" x="2458.75" y="694.9182">ParentDashboardActivity</text><line style="stroke:#2F6FA3;stroke-width:1.25;" x1="2388.75" x2="2876.4514" y1="715.365" y2="715.365"/></g><!--class ManageChildrenActivity--><g id="elem_ManageChildrenActivity"><rect codeLine="29" fill="#DCEEFF" height="122.6184" id="ManageChildrenActivity" rx="6.25" ry="6.25" style="stroke:#2F6FA3;stroke-width:1.25;" width="473.9331" x="2145" y="832.7466"/><ellipse cx="2182.5" cy="884.0558" fill="#ADD1B2" rx="27.5" ry="27.5" style="stroke:#181818;stroke-width:2.5;"/><path d="M2189.4141,873.7433 Q2189.8047,873.1964 2190.2734,872.923 Q2190.7422,872.6495 2191.2891,872.6495 Q2192.2266,872.6495 2192.8125,873.3136 Q2193.3984,873.9386 2193.3984,875.462 L2193.3984,879.0948 Q2193.3984,880.6183 2192.8125,881.2823 Q2192.2266,881.9464 2191.2891,881.9464 Q2190.4297,881.9464 2189.9219,881.4386 Q2189.4141,880.9698 2189.1406,879.6808 Q2189.0234,878.7823 2188.5547,878.3136 Q2187.7344,877.3761 2186.2109,876.8292 Q2184.6875,876.2823 2183.125,876.2823 Q2181.2109,876.2823 2179.6094,877.1027 Q2178.0469,877.923 2176.7969,879.798 Q2175.5859,881.673 2175.5859,884.2511 L2175.5859,886.9855 Q2175.5859,890.0714 2177.8125,892.1417 Q2180.0391,894.173 2184.0234,894.173 Q2186.3672,894.173 2188.0078,893.548 Q2188.9844,893.1573 2190.0391,892.0636 Q2190.7031,891.3995 2191.0547,891.2042 Q2191.4453,891.0089 2191.9531,891.0089 Q2192.7734,891.0089 2193.3984,891.673 Q2194.0625,892.298 2194.0625,893.1573 Q2194.0625,894.0167 2193.2031,895.0323 Q2191.9531,896.4777 2189.9609,897.298 Q2187.2656,898.4308 2184.0234,898.4308 Q2180.2344,898.4308 2177.2266,896.8683 Q2174.7656,895.6183 2173.0469,892.962 Q2171.3281,890.2667 2171.3281,887.0636 L2171.3281,884.173 Q2171.3281,880.8527 2172.8516,878.0011 Q2174.4141,875.1105 2177.1484,873.587 Q2179.8828,872.0245 2182.9688,872.0245 Q2184.8047,872.0245 2186.4063,872.4542 Q2188.0469,872.8448 2189.4141,873.7433 Z " fill="#000000"/><text fill="#000000" font-family="Arial" font-size="30" font-style="italic" lengthAdjust="spacing" textLength="123.4131" x="2352.76" y="873.3862">&#171;screen&#187;</text><text fill="#000000" font-family="Arial" font-size="37.5" lengthAdjust="spacing" textLength="393.9331" x="2217.5" y="914.9182">ManageChildrenActivity</text><line style="stroke:#2F6FA3;stroke-width:1.25;" x1="2147.5" x2="2616.4331" y1="935.365" y2="935.365"/></g><!--class GenerateQRActivity--><g id="elem_GenerateQRActivity"><rect codeLine="30" fill="#DCEEFF" height="122.6184" id="GenerateQRActivity" rx="6.25" ry="6.25" style="stroke:#2F6FA3;stroke-width:1.25;" width="411.366" x="2666.25" y="832.7466"/><ellipse cx="2703.75" cy="884.0558" fill="#ADD1B2" rx="27.5" ry="27.5" style="stroke:#181818;stroke-width:2.5;"/><path d="M2710.6641,873.7433 Q2711.0547,873.1964 2711.5234,872.923 Q2711.9922,872.6495 2712.5391,872.6495 Q2713.4766,872.6495 2714.0625,873.3136 Q2714.6484,873.9386 2714.6484,875.462 L2714.6484,879.0948 Q2714.6484,880.6183 2714.0625,881.2823 Q2713.4766,881.9464 2712.5391,881.9464 Q2711.6797,881.9464 2711.1719,881.4386 Q2710.6641,880.9698 2710.3906,879.6808 Q2710.2734,878.7823 2709.8047,878.3136 Q2708.9844,877.3761 2707.4609,876.8292 Q2705.9375,876.2823 2704.375,876.2823 Q2702.4609,876.2823 2700.8594,877.1027 Q2699.2969,877.923 2698.0469,879.798 Q2696.8359,881.673 2696.8359,884.2511 L2696.8359,886.9855 Q2696.8359,890.0714 2699.0625,892.1417 Q2701.2891,894.173 2705.2734,894.173 Q2707.6172,894.173 2709.2578,893.548 Q2710.2344,893.1573 2711.2891,892.0636 Q2711.9531,891.3995 2712.3047,891.2042 Q2712.6953,891.0089 2713.2031,891.0089 Q2714.0234,891.0089 2714.6484,891.673 Q2715.3125,892.298 2715.3125,893.1573 Q2715.3125,894.0167 2714.4531,895.0323 Q2713.2031,896.4777 2711.2109,897.298 Q2708.5156,898.4308 2705.2734,898.4308 Q2701.4844,898.4308 2698.4766,896.8683 Q2696.0156,895.6183 2694.2969,892.962 Q2692.5781,890.2667 2692.5781,887.0636 L2692.5781,884.173 Q2692.5781,880.8527 2694.1016,878.0011 Q2695.6641,875.1105 2698.3984,873.587 Q2701.1328,872.0245 2704.2188,872.0245 Q2706.0547,872.0245 2707.6563,872.4542 Q2709.2969,872.8448 2710.6641,873.7433 Z " fill="#000000"/><text fill="#000000" font-family="Arial" font-size="30" font-style="italic" lengthAdjust="spacing" textLength="123.4131" x="2842.7264" y="873.3862">&#171;screen&#187;</text><text fill="#000000" font-family="Arial" font-size="37.5" lengthAdjust="spacing" textLength="331.366" x="2738.75" y="914.9182">GenerateQRActivity</text><line style="stroke:#2F6FA3;stroke-width:1.25;" x1="2668.75" x2="3075.116" y1="935.365" y2="935.365"/></g><!--class AssignTaskToChildActivity--><g id="elem_AssignTaskToChildActivity"><rect codeLine="31" fill="#DCEEFF" height="122.6184" id="AssignTaskToChildActivity" rx="6.25" ry="6.25" style="stroke:#2F6FA3;stroke-width:1.25;" width="521.7969" x="3123.75" y="832.7466"/><ellipse cx="3161.25" cy="884.0558" fill="#ADD1B2" rx="27.5" ry="27.5" style="stroke:#181818;stroke-width:2.5;"/><path d="M3168.1641,873.7433 Q3168.5547,873.1964 3169.0234,872.923 Q3169.4922,872.6495 3170.0391,872.6495 Q3170.9766,872.6495 3171.5625,873.3136 Q3172.1484,873.9386 3172.1484,875.462 L3172.1484,879.0948 Q3172.1484,880.6183 3171.5625,881.2823 Q3170.9766,881.9464 3170.0391,881.9464 Q3169.1797,881.9464 3168.6719,881.4386 Q3168.1641,880.9698 3167.8906,879.6808 Q3167.7734,878.7823 3167.3047,878.3136 Q3166.4844,877.3761 3164.9609,876.8292 Q3163.4375,876.2823 3161.875,876.2823 Q3159.9609,876.2823 3158.3594,877.1027 Q3156.7969,877.923 3155.5469,879.798 Q3154.3359,881.673 3154.3359,884.2511 L3154.3359,886.9855 Q3154.3359,890.0714 3156.5625,892.1417 Q3158.7891,894.173 3162.7734,894.173 Q3165.1172,894.173 3166.7578,893.548 Q3167.7344,893.1573 3168.7891,892.0636 Q3169.4531,891.3995 3169.8047,891.2042 Q3170.1953,891.0089 3170.7031,891.0089 Q3171.5234,891.0089 3172.1484,891.673 Q3172.8125,892.298 3172.8125,893.1573 Q3172.8125,894.0167 3171.9531,895.0323 Q3170.7031,896.4777 3168.7109,897.298 Q3166.0156,898.4308 3162.7734,898.4308 Q3158.9844,898.4308 3155.9766,896.8683 Q3153.5156,895.6183 3151.7969,892.962 Q3150.0781,890.2667 3150.0781,887.0636 L3150.0781,884.173 Q3150.0781,880.8527 3151.6016,878.0011 Q3153.1641,875.1105 3155.8984,873.587 Q3158.6328,872.0245 3161.7188,872.0245 Q3163.5547,872.0245 3165.1563,872.4542 Q3166.7969,872.8448 3168.1641,873.7433 Z " fill="#000000"/><text fill="#000000" font-family="Arial" font-size="30" font-style="italic" lengthAdjust="spacing" textLength="123.4131" x="3355.4419" y="873.3862">&#171;screen&#187;</text><text fill="#000000" font-family="Arial" font-size="37.5" lengthAdjust="spacing" textLength="441.7969" x="3196.25" y="914.9182">AssignTaskToChildActivity</text><line style="stroke:#2F6FA3;stroke-width:1.25;" x1="3126.25" x2="3643.0469" y1="935.365" y2="935.365"/></g><!--class ParentTaskTemplateActivity--><g id="elem_ParentTaskTemplateActivity"><rect codeLine="32" fill="#DCEEFF" height="122.6184" id="ParentTaskTemplateActivity" rx="6.25" ry="6.25" style="stroke:#2F6FA3;stroke-width:1.25;" width="546.8274" x="3691.25" y="832.7466"/><ellipse cx="3728.75" cy="884.0558" fill="#ADD1B2" rx="27.5" ry="27.5" style="stroke:#181818;stroke-width:2.5;"/><path d="M3735.6641,873.7433 Q3736.0547,873.1964 3736.5234,872.923 Q3736.9922,872.6495 3737.5391,872.6495 Q3738.4766,872.6495 3739.0625,873.3136 Q3739.6484,873.9386 3739.6484,875.462 L3739.6484,879.0948 Q3739.6484,880.6183 3739.0625,881.2823 Q3738.4766,881.9464 3737.5391,881.9464 Q3736.6797,881.9464 3736.1719,881.4386 Q3735.6641,880.9698 3735.3906,879.6808 Q3735.2734,878.7823 3734.8047,878.3136 Q3733.9844,877.3761 3732.4609,876.8292 Q3730.9375,876.2823 3729.375,876.2823 Q3727.4609,876.2823 3725.8594,877.1027 Q3724.2969,877.923 3723.0469,879.798 Q3721.8359,881.673 3721.8359,884.2511 L3721.8359,886.9855 Q3721.8359,890.0714 3724.0625,892.1417 Q3726.2891,894.173 3730.2734,894.173 Q3732.6172,894.173 3734.2578,893.548 Q3735.2344,893.1573 3736.2891,892.0636 Q3736.9531,891.3995 3737.3047,891.2042 Q3737.6953,891.0089 3738.2031,891.0089 Q3739.0234,891.0089 3739.6484,891.673 Q3740.3125,892.298 3740.3125,893.1573 Q3740.3125,894.0167 3739.4531,895.0323 Q3738.2031,896.4777 3736.2109,897.298 Q3733.5156,898.4308 3730.2734,898.4308 Q3726.4844,898.4308 3723.4766,896.8683 Q3721.0156,895.6183 3719.2969,892.962 Q3717.5781,890.2667 3717.5781,887.0636 L3717.5781,884.173 Q3717.5781,880.8527 3719.1016,878.0011 Q3720.6641,875.1105 3723.3984,873.587 Q3726.1328,872.0245 3729.2188,872.0245 Q3731.0547,872.0245 3732.6563,872.4542 Q3734.2969,872.8448 3735.6641,873.7433 Z " fill="#000000"/><text fill="#000000" font-family="Arial" font-size="30" font-style="italic" lengthAdjust="spacing" textLength="123.4131" x="3935.4572" y="873.3862">&#171;screen&#187;</text><text fill="#000000" font-family="Arial" font-size="37.5" lengthAdjust="spacing" textLength="466.8274" x="3763.75" y="914.9182">ParentTaskTemplateActivity</text><line style="stroke:#2F6FA3;stroke-width:1.25;" x1="3693.75" x2="4235.5774" y1="935.365" y2="935.365"/></g><!--class ChildDashboardActivity--><g id="elem_ChildDashboardActivity"><rect codeLine="36" fill="#DCEEFF" height="122.6184" id="ChildDashboardActivity" rx="6.25" ry="6.25" style="stroke:#2F6FA3;stroke-width:1.25;" width="467.6709" x="1616.25" y="832.7466"/><ellipse cx="1653.75" cy="884.0558" fill="#ADD1B2" rx="27.5" ry="27.5" style="stroke:#181818;stroke-width:2.5;"/><path d="M1660.6641,873.7433 Q1661.0547,873.1964 1661.5234,872.923 Q1661.9922,872.6495 1662.5391,872.6495 Q1663.4766,872.6495 1664.0625,873.3136 Q1664.6484,873.9386 1664.6484,875.462 L1664.6484,879.0948 Q1664.6484,880.6183 1664.0625,881.2823 Q1663.4766,881.9464 1662.5391,881.9464 Q1661.6797,881.9464 1661.1719,881.4386 Q1660.6641,880.9698 1660.3906,879.6808 Q1660.2734,878.7823 1659.8047,878.3136 Q1658.9844,877.3761 1657.4609,876.8292 Q1655.9375,876.2823 1654.375,876.2823 Q1652.4609,876.2823 1650.8594,877.1027 Q1649.2969,877.923 1648.0469,879.798 Q1646.8359,881.673 1646.8359,884.2511 L1646.8359,886.9855 Q1646.8359,890.0714 1649.0625,892.1417 Q1651.2891,894.173 1655.2734,894.173 Q1657.6172,894.173 1659.2578,893.548 Q1660.2344,893.1573 1661.2891,892.0636 Q1661.9531,891.3995 1662.3047,891.2042 Q1662.6953,891.0089 1663.2031,891.0089 Q1664.0234,891.0089 1664.6484,891.673 Q1665.3125,892.298 1665.3125,893.1573 Q1665.3125,894.0167 1664.4531,895.0323 Q1663.2031,896.4777 1661.2109,897.298 Q1658.5156,898.4308 1655.2734,898.4308 Q1651.4844,898.4308 1648.4766,896.8683 Q1646.0156,895.6183 1644.2969,892.962 Q1642.5781,890.2667 1642.5781,887.0636 L1642.5781,884.173 Q1642.5781,880.8527 1644.1016,878.0011 Q1645.6641,875.1105 1648.3984,873.587 Q1651.1328,872.0245 1654.2188,872.0245 Q1656.0547,872.0245 1657.6563,872.4542 Q1659.2969,872.8448 1660.6641,873.7433 Z " fill="#000000"/><text fill="#000000" font-family="Arial" font-size="30" font-style="italic" lengthAdjust="spacing" textLength="123.4131" x="1820.8789" y="873.3862">&#171;screen&#187;</text><text fill="#000000" font-family="Arial" font-size="37.5" lengthAdjust="spacing" textLength="387.6709" x="1688.75" y="914.9182">ChildDashboardActivity</text><line style="stroke:#2F6FA3;stroke-width:1.25;" x1="1618.75" x2="2081.4209" y1="935.365" y2="935.365"/></g><polygon fill="#181818" points="797.5,392.4431,807.5,369.9431,797.5,379.9431,787.5,369.9431,797.5,392.4431" style="stroke:#181818;stroke-width:2.5;"/><path d="M797.5,302.9027 C797.5,330.9398 797.5,349.3872 797.5,377.4431 " fill="none" style="stroke:#181818;stroke-width:2.5;stroke-dasharray:7.0,7.0;"/><polygon fill="#181818" points="1164.7656,392.6944,1147.663,374.9813,1153.1792,388.0033,1140.1573,393.5195,1164.7656,392.6944" style="stroke:#181818;stroke-width:2.5;"/><path d="M937.5429,300.6969 C1008.0791,329.2554 1079.6155,358.2189 1150.8619,387.0651 " fill="none" style="stroke:#181818;stroke-width:2.5;stroke-dasharray:7.0,7.0;"/><polygon fill="#181818" points="436.289,392.415,460.9012,393.1133,447.851,387.6642,453.3,374.614,436.289,392.415" style="stroke:#181818;stroke-width:2.5;"/><path d="M657.5,301.5213 C588.6119,329.8268 519.5553,358.2016 450.1634,386.7141 " fill="none" style="stroke:#181818;stroke-width:2.5;stroke-dasharray:7.0,7.0;"/><polygon fill="#181818" points="2385.5639,632.8212,2364.7857,619.6107,2373.2007,630.9768,2361.8346,639.3918,2385.5639,632.8212" style="stroke:#181818;stroke-width:2.5;"/><path d="M1018.8103,511.6461 C1026.7847,512.9698 1034.6995,514.1783 1042.5,515.2466 C1281.5437,547.983 1344.5576,515.2203 1585,535.2466 C1860.0489,558.1552 2158.8968,599.0051 2370.7281,630.6079 " fill="none" style="stroke:#181818;stroke-width:2.5;stroke-dasharray:7.0,7.0;"/><polygon fill="#181818" points="2385.9225,631.4103,2365.3187,617.9294,2373.5845,629.4045,2362.1094,637.6702,2385.9225,631.4103" style="stroke:#181818;stroke-width:2.5;"/><path d="M1555.6527,496.4326 C1792.4474,534.9285 2134.0114,590.4569 2371.1169,629.0033 " fill="none" style="stroke:#181818;stroke-width:2.5;stroke-dasharray:7.0,7.0;"/><polygon fill="#181818" points="664.5931,612.5942,647.7134,594.6686,653.0664,607.7586,639.9764,613.1115,664.5931,612.5942" style="stroke:#181818;stroke-width:2.5;"/><path d="M433.2208,515.5307 C505.2286,545.7388 578.7979,576.6021 650.761,606.7914 " fill="none" style="stroke:#181818;stroke-width:2.5;stroke-dasharray:7.0,7.0;"/><polygon fill="#181818" points="1756.7162,832.6097,1742.1627,812.749,1745.8696,826.3967,1732.2219,830.1036,1756.7162,832.6097" style="stroke:#181818;stroke-width:2.5;"/><path d="M1024.3876,676.921 C1183.0513,682.4236 1400.9828,700.7816 1585,755.2466 C1645.0216,773.0116 1694.4901,796.9664 1743.7002,825.1541 " fill="none" style="stroke:#181818;stroke-width:2.5;stroke-dasharray:7.0,7.0;"/><ellipse cx="805" cy="756.3861" fill="#FFFFFF" rx="20" ry="20" style="stroke:#181818;stroke-width:2.5;"/><line style="stroke:#181818;stroke-width:2.5;" x1="805" x2="805" y1="776.3861" y2="736.3861"/><line style="stroke:#181818;stroke-width:2.5;" x1="785" x2="825" y1="756.3861" y2="756.3861"/><path d="M805,776.3861 C805,806.4549 805,802.7516 805,832.6714 " fill="none" style="stroke:#181818;stroke-width:2.5;"/><polygon fill="#181818" points="2451.2503,832.3713,2474.8298,825.2823,2460.7276,824.2208,2461.7891,810.1186,2451.2503,832.3713" style="stroke:#181818;stroke-width:2.5;"/><path d="M2563.5246,735.8154 C2528.5488,765.8947 2497.5672,792.5388 2462.6231,822.5908 " fill="none" style="stroke:#181818;stroke-width:2.5;stroke-dasharray:7.0,7.0;"/><polygon fill="#181818" points="3861.2109,832.4615,3845.8026,813.2565,3850.1029,826.729,3836.6305,831.0293,3861.2109,832.4615" style="stroke:#181818;stroke-width:2.5;"/><path d="M2879.0872,685.1164 C3137.6361,695.9536 3525.9805,717.8247 3670,755.2466 C3736.3401,772.4843 3792.8293,797.1715 3847.8813,825.5824 " fill="none" style="stroke:#181818;stroke-width:2.5;stroke-dasharray:7.0,7.0;"/><polygon fill="#181818" points="3281.2747,832.7145,3265.9678,813.4285,3270.1971,826.9235,3256.7021,831.1527,3281.2747,832.7145" style="stroke:#181818;stroke-width:2.5;"/><path d="M2879.5591,704.4434 C2952.3784,716.2664 3031.536,732.6947 3102.5,755.2466 C3163.9944,774.7891 3215.7959,798.4842 3267.9816,825.7653 " fill="none" style="stroke:#181818;stroke-width:2.5;stroke-dasharray:7.0,7.0;"/><polygon fill="#181818" points="2806.4997,832.3713,2796.4134,809.9099,2797.1893,824.0307,2783.0685,824.8066,2806.4997,832.3713" style="stroke:#181818;stroke-width:2.5;"/><path d="M2698.7164,735.8154 C2732.2932,765.8947 2761.7808,792.3107 2795.3272,822.3626 " fill="none" style="stroke:#181818;stroke-width:2.5;stroke-dasharray:7.0,7.0;"/><text fill="#000000" font-family="Arial" font-size="35" lengthAdjust="spacing" textLength="1379.3384" x="1429.0808" y="1015.5762">Current screens. Child flow uses QR scan, then child selection, then the child dashboard.</text><!--SRC=[XLFTRjCm5BxtKnpA9RJQ2anSJ9L2jw193D5sBt0MdoPM7Jko7Qg2U7SSqwQXYTDSH8g_d_FZBsygWtc98F6WQmUs98SAcTq9LQ714dWbOFxnfdDY2-HwBrGEMvIMEeWKYjoX8j365Re3P1AjJPmpuhLsz9HfjH6_2BgkdBPOIvTgvRvZIP0OWVBIea63ylPJ1wemss5EP_1p1qoCqVipDB-q_EB5kT6ruaijjRc_jvaXKei5l7rOFZwcQK-W3IVJ8y_JkpJvSDLTA4McuQVX6JLlkNVXOONW15HMxW3-cWhDBNF2IO8KIo4Fy89sPs4Acz0KB1j3iYp3oWdjlsjZIFax3h2TmR8GaiDMwZtKdWYhjSTGlGTNU7aMK4kIiaP-FFMl8yBH5gyQ3PynThm1c63jYibfS_2RXQ7W6OLAlCjFuLi_B-s8_i2chMyw5ofjmjZq626jAHVMaOdpmaohzHMtmDgSHektDXacpiBnawDo0cYXnTjZQ2-F_Ubifmf3zFVpRxY7qqBZ_JpxVpEdKCOhuholv8kZezKwpaci5RbgClEYW-Er6mfK7p_fZOUutKb3HFg3XZgZStgJ_z8ocos60X8ZNGQapniA21kAuDcqrp2Bf75CmWQJsNRKonYBPBHLz4j45E-cqu68CXPBNLDXE6YZadX8HcNH68wg-W7_2m00]--></g></svg>