<svg xmlns="http://www.w3.org/2000/svg" xmlns:xlink="http://www.w3.org/1999/xlink" contentStyleType="text/css" height="1525px" preserveAspectRatio="none" style="width:6360px;height:1525px;background:#FFFFFF;" version="1.1" viewBox="0 0 6360 1525" width="6360px" zoomAndPan="magnify"><title>Family Tasks - Current Class Overview</title><defs/><g><text fill="#000000" font-family="Arial" font-size="35" font-weight="bold" lengthAdjust="spacing" textLength="645.8423" x="2763.3289" y="57.8296">Family Tasks - Current Class Overview</text><!--cluster auth--><g id="cluster_auth"><path d="M41.25,102.7466 L138.7378,102.7466 A9.375,9.375 0 0 1 144.9878,108.9966 L162.4878,169.4922 L1568.75,169.4922 A6.25,6.25 0 0 1 1575,175.7422 L1575,968.9966 A6.25,6.25 0 0 1 1568.75,975.2466 L41.25,975.2466 A6.25,6.25 0 0 1 35,968.9966 L35,108.9966 A6.25,6.25 0 0 1 41.25,102.7466 " fill="#DCEEFF" style="stroke:#000000;stroke-width:3.75;"/><line style="stroke:#000000;stroke-width:3.75;" x1="35" x2="162.4878" y1="169.4922" y2="169.4922"/><text fill="#000000" font-family="Arial" font-size="45" font-weight="bold" lengthAdjust="spacing" textLength="94.9878" x="45" y="149.9561">auth</text></g><!--cluster parent--><g id="cluster_parent"><path d="M3341.25,535.2466 L3481.2769,535.2466 A9.375,9.375 0 0 1 3487.5269,541.4966 L3505.0269,601.9922 L6188.75,601.9922 A6.25,6.25 0 0 1 6195,608.2422 L6195,1208.9966 A6.25,6.25 0 0 1 6188.75,1215.2466 L3341.25,1215.2466 A6.25,6.25 0 0 1 3335,1208.9966 L3335,541.4966 A6.25,6.25 0 0 1 3341.25,535.2466 " fill="#DCEEFF" style="stroke:#000000;stroke-width:3.75;"/><line style="stroke:#000000;stroke-width:3.75;" x1="3335" x2="3505.0269" y1="601.9922" y2="601.9922"/><text fill="#000000" font-family="Arial" font-size="45" font-weight="bold" lengthAdjust="spacing" textLength="137.5269" x="3345" y="582.4561">parent</text></g><!--cluster child--><g id="cluster_child"><path d="M2558.75,755.2466 L2666.2573,755.2466 A9.375,9.375 0 0 1 2672.5073,761.4966 L2690.0073,821.9922 L3056.25,821.9922 A6.25,6.25 0 0 1 3062.5,828.2422 L3062.5,968.9966 A6.25,6.25 0 0 1 3056.25,975.2466 L2558.75,975.2466 A6.25,6.25 0 0 1 2552.5,968.9966 L2552.5,761.4966 A6.25,6.25 0 0 1 2558.75,755.2466 " fill="#DCEEFF" style="stroke:#000000;stroke-width:3.75;"/><line style="stroke:#000000;stroke-width:3.75;" x1="2552.5" x2="2690.0073" y1="821.9922" y2="821.9922"/><text fill="#000000" font-family="Arial" font-size="45" font-weight="bold" lengthAdjust="spacing" textLength="105.0073" x="2562.5" y="802.4561">child</text></g><!--cluster adapters--><g id="cluster_adapters"><path d="M1601.25,755.2466 L1791.3306,755.2466 A9.375,9.375 0 0 1 1797.5806,761.4966 L1815.0806,821.9922 L2498.75,821.9922 A6.25,6.25 0 0 1 2505,828.2422 L2505,1208.9966 A6.25,6.25 0 0 1 2498.75,1215.2466 L1601.25,1215.2466 A6.25,6.25 0 0 1 1595,1208.9966 L1595,761.4966 A6.25,6.25 0 0 1 1601.25,755.2466 " fill="#FFF3BF" style="stroke:#000000;stroke-width:3.75;"/><line style="stroke:#000000;stroke-width:3.75;" x1="1595" x2="1815.0806" y1="821.9922" y2="821.9922"/><text fill="#000000" font-family="Arial" font-size="45" font-weight="bold" lengthAdjust="spacing" textLength="187.5806" x="1605" y="802.4561">adapters</text></g><!--cluster models--><g id="cluster_models"><path d="M3436.25,1235.2466 L3596.2939,1235.2466 A9.375,9.375 0 0 1 3602.5439,1241.4966 L3620.0439,1301.9922 L4438.75,1301.9922 A6.25,6.25 0 0 1 4445,1308.2422 L4445,1448.9966 A6.25,6.25 0 0 1 4438.75,1455.2466 L3436.25,1455.2466 A6.25,6.25 0 0 1 3430,1448.9966 L3430,1241.4966 A6.25,6.25 0 0 1 3436.25,1235.2466 " fill="#E2F5E6" style="stroke:#000000;stroke-width:3.75;"/><line style="stroke:#000000;stroke-width:3.75;" x1="3430" x2="3620.0439" y1="1301.9922" y2="1301.9922"/><text fill="#000000" font-family="Arial" font-size="45" font-weight="bold" lengthAdjust="spacing" textLength="157.5439" x="3440" y="1282.4561">models</text></g><!--cluster utils--><g id="cluster_utils"><path d="M2706.25,995.2466 L2801.2549,995.2466 A9.375,9.375 0 0 1 2807.5049,1001.4966 L2825.0049,1061.9922 L3308.75,1061.9922 A6.25,6.25 0 0 1 3315,1068.2422 L3315,1208.9966 A6.25,6.25 0 0 1 3308.75,1215.2466 L2706.25,1215.2466 A6.25,6.25 0 0 1 2700,1208.9966 L2700,1001.4966 A6.25,6.25 0 0 1 2706.25,995.2466 " fill="#EFEFEF" style="stroke:#000000;stroke-width:3.75;"/><line style="stroke:#000000;stroke-width:3.75;" x1="2700" x2="2825.0049" y1="1061.9922" y2="1061.9922"/><text fill="#000000" font-family="Arial" font-size="45" font-weight="bold" lengthAdjust="spacing" textLength="92.5049" x="2710" y="1042.4561">utils</text></g><!--class MainActivity--><g id="elem_MainActivity"><rect codeLine="25" fill="#DCEEFF" height="122.6184" id="MainActivity" rx="6.25" ry="6.25" style="stroke:#2F6FA3;stroke-width:1.25;" width="280.0427" x="657.5" y="180.2466"/><ellipse cx="695" cy="231.5558" fill="#ADD1B2" rx="27.5" ry="27.5" style="stroke:#181818;stroke-width:2.5;"/><path d="M701.9141,221.2433 Q702.3047,220.6964 702.7734,220.423 Q703.2422,220.1495 703.7891,220.1495 Q704.7266,220.1495 705.3125,220.8136 Q705.8984,221.4386 705.8984,222.962 L705.8984,226.5948 Q705.8984,228.1183 705.3125,228.7823 Q704.7266,229.4464 703.7891,229.4464 Q702.9297,229.4464 702.4219,228.9386 Q701.9141,228.4698 701.6406,227.1808 Q701.5234,226.2823 701.0547,225.8136 Q700.2344,224.8761 698.7109,224.3292 Q697.1875,223.7823 695.625,223.7823 Q693.7109,223.7823 692.1094,224.6027 Q690.5469,225.423 689.2969,227.298 Q688.0859,229.173 688.0859,231.7511 L688.0859,234.4855 Q688.0859,237.5714 690.3125,239.6417 Q692.5391,241.673 696.5234,241.673 Q698.8672,241.673 700.5078,241.048 Q701.4844,240.6573 702.5391,239.5636 Q703.2031,238.8995 703.5547,238.7042 Q703.9453,238.5089 704.4531,238.5089 Q705.2734,238.5089 705.8984,239.173 Q706.5625,239.798 706.5625,240.6573 Q706.5625,241.5167 705.7031,242.5323 Q704.4531,243.9777 702.4609,244.798 Q699.7656,245.9308 696.5234,245.9308 Q692.7344,245.9308 689.7266,244.3683 Q687.2656,243.1183 685.5469,240.462 Q683.8281,237.7667 683.8281,234.5636 L683.8281,231.673 Q683.8281,228.3527 685.3516,225.5011 Q686.9141,222.6105 689.6484,221.087 Q692.3828,219.5245 695.4688,219.5245 Q697.3047,219.5245 698.9063,219.9542 Q700.5469,220.3448 701.9141,221.2433 Z " fill="#000000"/><text fill="#000000" font-family="Arial" font-size="30" font-style="italic" lengthAdjust="spacing" textLength="123.4131" x="768.3148" y="220.8862">&#171;screen&#187;</text><text fill="#000000" font-family="Arial" font-size="37.5" lengthAdjust="spacing" textLength="200.0427" x="730" y="262.4182">MainActivity</text><line style="stroke:#2F6FA3;stroke-width:1.25;" x1="660" x2="935.0427" y1="282.865" y2="282.865"/></g><!--class ParentLoginFragment--><g id="elem_ParentLoginFragment"><rect codeLine="26" fill="#DCEEFF" height="122.6184" id="ParentLoginFragment" rx="6.25" ry="6.25" style="stroke:#2F6FA3;stroke-width:1.25;" width="442.7136" x="576.25" y="392.7466"/><ellipse cx="613.75" cy="444.0558" fill="#ADD1B2" rx="27.5" ry="27.5" style="stroke:#181818;stroke-width:2.5;"/><path d="M620.6641,433.7433 Q621.0547,433.1964 621.5234,432.923 Q621.9922,432.6495 622.5391,432.6495 Q623.4766,432.6495 624.0625,433.3136 Q624.6484,433.9386 624.6484,435.462 L624.6484,439.0948 Q624.6484,440.6183 624.0625,441.2823 Q623.4766,441.9464 622.5391,441.9464 Q621.6797,441.9464 621.1719,441.4386 Q620.6641,440.9698 620.3906,439.6808 Q620.2734,438.7823 619.8047,438.3136 Q618.9844,437.3761 617.4609,436.8292 Q615.9375,436.2823 614.375,436.2823 Q612.4609,436.2823 610.8594,437.1027 Q609.2969,437.923 608.0469,439.798 Q606.8359,441.673 606.8359,444.2511 L606.8359,446.9855 Q606.8359,450.0714 609.0625,452.1417 Q611.2891,454.173 615.2734,454.173 Q617.6172,454.173 619.2578,453.548 Q620.2344,453.1573 621.2891,452.0636 Q621.9531,451.3995 622.3047,451.2042 Q622.6953,451.0089 623.2031,451.0089 Q624.0234,451.0089 624.6484,451.673 Q625.3125,452.298 625.3125,453.1573 Q625.3125,454.0167 624.4531,455.0323 Q623.2031,456.4777 621.2109,457.298 Q618.5156,458.4308 615.2734,458.4308 Q611.4844,458.4308 608.4766,456.8683 Q606.0156,455.6183 604.2969,452.962 Q602.5781,450.2667 602.5781,447.0636 L602.5781,444.173 Q602.5781,440.8527 604.1016,438.0011 Q605.6641,435.1105 608.3984,433.587 Q611.1328,432.0245 614.2188,432.0245 Q616.0547,432.0245 617.6563,432.4542 Q619.2969,432.8448 620.6641,433.7433 Z " fill="#000000"/><text fill="#000000" font-family="Arial" font-size="30" font-style="italic" lengthAdjust="spacing" textLength="123.4131" x="768.4003" y="433.3862">&#171;screen&#187;</text><text fill="#000000" font-family="Arial" font-size="37.5" lengthAdjust="spacing" textLength="362.7136" x="648.75" y="474.9182">ParentLoginFragment</text><line style="stroke:#2F6FA3;stroke-width:1.25;" x1="578.75" x2="1016.4636" y1="495.365" y2="495.365"/></g><!--class ParentRegisterFragment--><g id="elem_ParentRegisterFragment"><rect codeLine="27" fill="#DCEEFF" height="122.6184" id="ParentRegisterFragment" rx="6.25" ry="6.25" style="stroke:#2F6FA3;stroke-width:1.25;" width="490.5957" x="1065" y="392.7466"/><ellipse cx="1102.5" cy="444.0558" fill="#ADD1B2" rx="27.5" ry="27.5" style="stroke:#181818;stroke-width:2.5;"/><path d="M1109.4141,433.7433 Q1109.8047,433.1964 1110.2734,432.923 Q1110.7422,432.6495 1111.2891,432.6495 Q1112.2266,432.6495 1112.8125,433.3136 Q1113.3984,433.9386 1113.3984,435.462 L1113.3984,439.0948 Q1113.3984,440.6183 1112.8125,441.2823 Q1112.2266,441.9464 1111.2891,441.9464 Q1110.4297,441.9464 1109.9219,441.4386 Q1109.4141,440.9698 1109.1406,439.6808 Q1109.0234,438.7823 1108.5547,438.3136 Q1107.7344,437.3761 1106.2109,436.8292 Q1104.6875,436.2823 1103.125,436.2823 Q1101.2109,436.2823 1099.6094,437.1027 Q1098.0469,437.923 1096.7969,439.798 Q1095.5859,441.673 1095.5859,444.2511 L1095.5859,446.9855 Q1095.5859,450.0714 1097.8125,452.1417 Q1100.0391,454.173 1104.0234,454.173 Q1106.3672,454.173 1108.0078,453.548 Q1108.9844,453.1573 1110.0391,452.0636 Q1110.7031,451.3995 1111.0547,451.2042 Q1111.4453,451.0089 1111.9531,451.0089 Q1112.7734,451.0089 1113.3984,451.673 Q1114.0625,452.298 1114.0625,453.1573 Q1114.0625,454.0167 1113.2031,455.0323 Q1111.9531,456.4777 1109.9609,457.298 Q1107.2656,458.4308 1104.0234,458.4308 Q1100.2344,458.4308 1097.2266,456.8683 Q1094.7656,455.6183 1093.0469,452.962 Q1091.3281,450.2667 1091.3281,447.0636 L1091.3281,444.173 Q1091.3281,440.8527 1092.8516,438.0011 Q1094.4141,435.1105 1097.1484,433.587 Q1099.8828,432.0245 1102.9688,432.0245 Q1104.8047,432.0245 1106.4063,432.4542 Q1108.0469,432.8448 1109.4141,433.7433 Z " fill="#000000"/><text fill="#000000" font-family="Arial" font-size="30" font-style="italic" lengthAdjust="spacing" textLength="123.4131" x="1281.0913" y="433.3862">&#171;screen&#187;</text><text fill="#000000" font-family="Arial" font-size="37.5" lengthAdjust="spacing" textLength="410.5957" x="1137.5" y="474.9182">ParentRegisterFragment</text><line style="stroke:#2F6FA3;stroke-width:1.25;" x1="1067.5" x2="1553.0957" y1="495.365" y2="495.365"/></g><!--class ChildQRLoginFragment--><g id="elem_ChildQRLoginFragment"><rect codeLine="28" fill="#DCEEFF" height="122.6184" id="ChildQRLoginFragment" rx="6.25" ry="6.25" style="stroke:#2F6FA3;stroke-width:1.25;" width="473.9331" x="55" y="392.7466"/><ellipse cx="92.5" cy="444.0558" fill="#ADD1B2" rx="27.5" ry="27.5" style="stroke:#181818;stroke-width:2.5;"/><path d="M99.4141,433.7433 Q99.8047,433.1964 100.2734,432.923 Q100.7422,432.6495 101.2891,432.6495 Q102.2266,432.6495 102.8125,433.3136 Q103.3984,433.9386 103.3984,435.462 L103.3984,439.0948 Q103.3984,440.6183 102.8125,441.2823 Q102.2266,441.9464 101.2891,441.9464 Q100.4297,441.9464 99.9219,441.4386 Q99.4141,440.9698 99.1406,439.6808 Q99.0234,438.7823 98.5547,438.3136 Q97.7344,437.3761 96.2109,436.8292 Q94.6875,436.2823 93.125,436.2823 Q91.2109,436.2823 89.6094,437.1027 Q88.0469,437.923 86.7969,439.798 Q85.5859,441.673 85.5859,444.2511 L85.5859,446.9855 Q85.5859,450.0714 87.8125,452.1417 Q90.0391,454.173 94.0234,454.173 Q96.3672,454.173 98.0078,453.548 Q98.9844,453.1573 100.0391,452.0636 Q100.7031,451.3995 101.0547,451.2042 Q101.4453,451.0089 101.9531,451.0089 Q102.7734,451.0089 103.3984,451.673 Q104.0625,452.298 104.0625,453.1573 Q104.0625,454.0167 103.2031,455.0323 Q101.9531,456.4777 99.9609,457.298 Q97.2656,458.4308 94.0234,458.4308 Q90.2344,458.4308 87.2266,456.8683 Q84.7656,455.6183 83.0469,452.962 Q81.3281,450.2667 81.3281,447.0636 L81.3281,444.173 Q81.3281,440.8527 82.8516,438.0011 Q84.4141,435.1105 87.1484,433.587 Q89.8828,432.0245 92.9688,432.0245 Q94.8047,432.0245 96.4063,432.4542 Q98.0469,432.8448 99.4141,433.7433 Z " fill="#000000"/><text fill="#000000" font-family="Arial" font-size="30" font-style="italic" lengthAdjust="spacing" textLength="123.4131" x="262.76" y="433.3862">&#171;screen&#187;</text><text fill="#000000" font-family="Arial" font-size="37.5" lengthAdjust="spacing" textLength="393.9331" x="127.5" y="474.9182">ChildQRLoginFragment</text><line style="stroke:#2F6FA3;stroke-width:1.25;" x1="57.5" x2="526.4331" y1="495.365" y2="495.365"/></g><!--class ChildSelectionActivity--><g id="elem_ChildSelectionActivity"><rect codeLine="29" fill="#DCEEFF" height="122.6184" id="ChildSelectionActivity" rx="6.25" ry="6.25" style="stroke:#2F6FA3;stroke-width:1.25;" width="438.4839" x="586.25" y="612.7466"/><ellipse cx="623.75" cy="664.0558" fill="#ADD1B2" rx="27.5" ry="27.5" style="stroke:#181818;stroke-width:2.5;"/><path d="M630.6641,653.7433 Q631.0547,653.1964 631.5234,652.923 Q631.9922,652.6495 632.5391,652.6495 Q633.4766,652.6495 634.0625,653.3136 Q634.6484,653.9386 634.6484,655.462 L634.6484,659.0948 Q634.6484,660.6183 634.0625,661.2823 Q633.4766,661.9464 632.5391,661.9464 Q631.6797,661.9464 631.1719,661.4386 Q630.6641,660.9698 630.3906,659.6808 Q630.2734,658.7823 629.8047,658.3136 Q628.9844,657.3761 627.4609,656.8292 Q625.9375,656.2823 624.375,656.2823 Q622.4609,656.2823 620.8594,657.1027 Q619.2969,657.923 618.0469,659.798 Q616.8359,661.673 616.8359,664.2511 L616.8359,666.9855 Q616.8359,670.0714 619.0625,672.1417 Q621.2891,674.173 625.2734,674.173 Q627.6172,674.173 629.2578,673.548 Q630.2344,673.1573 631.2891,672.0636 Q631.9531,671.3995 632.3047,671.2042 Q632.6953,671.0089 633.2031,671.0089 Q634.0234,671.0089 634.6484,671.673 Q635.3125,672.298 635.3125,673.1573 Q635.3125,674.0167 634.4531,675.0323 Q633.2031,676.4777 631.2109,677.298 Q628.5156,678.4308 625.2734,678.4308 Q621.4844,678.4308 618.4766,676.8683 Q616.0156,675.6183 614.2969,672.962 Q612.5781,670.2667 612.5781,667.0636 L612.5781,664.173 Q612.5781,660.8527 614.1016,658.0011 Q615.6641,655.1105 618.3984,653.587 Q621.1328,652.0245 624.2188,652.0245 Q626.0547,652.0245 627.6563,652.4542 Q629.2969,652.8448 630.6641,653.7433 Z " fill="#000000"/><text fill="#000000" font-family="Arial" font-size="30" font-style="italic" lengthAdjust="spacing" textLength="123.4131" x="776.2854" y="653.3862">&#171;screen&#187;</text><text fill="#000000" font-family="Arial" font-size="37.5" lengthAdjust="spacing" textLength="358.4839" x="658.75" y="694.9182">ChildSelectionActivity</text><line style="stroke:#2F6FA3;stroke-width:1.25;" x1="588.75" x2="1022.2339" y1="715.365" y2="715.365"/></g><!--class SelectionChildItem--><g id="elem_SelectionChildItem"><rect codeLine="30" fill="#FFFFFF" height="122.6184" id="SelectionChildItem" rx="6.25" ry="6.25" style="stroke:#666666;stroke-width:1.25;" width="607.2888" x="501.25" y="832.7466"/><ellipse cx="538.75" cy="884.0558" fill="#ADD1B2" rx="27.5" ry="27.5" style="stroke:#181818;stroke-width:2.5;"/><path d="M545.6641,873.7433 Q546.0547,873.1964 546.5234,872.923 Q546.9922,872.6495 547.5391,872.6495 Q548.4766,872.6495 549.0625,873.3136 Q549.6484,873.9386 549.6484,875.462 L549.6484,879.0948 Q549.6484,880.6183 549.0625,881.2823 Q548.4766,881.9464 547.5391,881.9464 Q546.6797,881.9464 546.1719,881.4386 Q545.6641,880.9698 545.3906,879.6808 Q545.2734,878.7823 544.8047,878.3136 Q543.9844,877.3761 542.4609,876.8292 Q540.9375,876.2823 539.375,876.2823 Q537.4609,876.2823 535.8594,877.1027 Q534.2969,877.923 533.0469,879.798 Q531.8359,881.673 531.8359,884.2511 L531.8359,886.9855 Q531.8359,890.0714 534.0625,892.1417 Q536.2891,894.173 540.2734,894.173 Q542.6172,894.173 544.2578,893.548 Q545.2344,893.1573 546.2891,892.0636 Q546.9531,891.3995 547.3047,891.2042 Q547.6953,891.0089 548.2031,891.0089 Q549.0234,891.0089 549.6484,891.673 Q550.3125,892.298 550.3125,893.1573 Q550.3125,894.0167 549.4531,895.0323 Q548.2031,896.4777 546.2109,897.298 Q543.5156,898.4308 540.2734,898.4308 Q536.4844,898.4308 533.4766,896.8683 Q531.0156,895.6183 529.2969,892.962 Q527.5781,890.2667 527.5781,887.0636 L527.5781,884.173 Q527.5781,880.8527 529.1016,878.0011 Q530.6641,875.1105 533.3984,873.587 Q536.1328,872.0245 539.2188,872.0245 Q541.0547,872.0245 542.6563,872.4542 Q544.2969,872.8448 545.6641,873.7433 Z " fill="#000000"/><text fill="#000000" font-family="Arial" font-size="30" font-style="italic" lengthAdjust="spacing" textLength="100.0781" x="787.3553" y="873.3862">&#171;inner&#187;</text><text fill="#000000" font-family="Arial" font-size="37.5" lengthAdjust="spacing" textLength="527.2888" x="573.75" y="914.9182">ChildSelectionActivity.ChildItem</text><line style="stroke:#666666;stroke-width:1.25;" x1="503.75" x2="1106.0388" y1="935.365" y2="935.365"/></g><!--class ParentDashboardActivity--><g id="elem_ParentDashboardActivity"><rect codeLine="34" fill="#DCEEFF" height="122.6184" id="ParentDashboardActivity" rx="6.25" ry="6.25" style="stroke:#2F6FA3;stroke-width:1.25;" width="492.7014" x="3626.25" y="612.7466"/><ellipse cx="3663.75" cy="664.0558" fill="#ADD1B2" rx="27.5" ry="27.5" style="stroke:#181818;stroke-width:2.5;"/><path d="M3670.6641,653.7433 Q3671.0547,653.1964 3671.5234,652.923 Q3671.9922,652.6495 3672.5391,652.6495 Q3673.4766,652.6495 3674.0625,653.3136 Q3674.6484,653.9386 3674.6484,655.462 L3674.6484,659.0948 Q3674.6484,660.6183 3674.0625,661.2823 Q3673.4766,661.9464 3672.5391,661.9464 Q3671.6797,661.9464 3671.1719,661.4386 Q3670.6641,660.9698 3670.3906,659.6808 Q3670.2734,658.7823 3669.8047,658.3136 Q3668.9844,657.3761 3667.4609,656.8292 Q3665.9375,656.2823 3664.375,656.2823 Q3662.4609,656.2823 3660.8594,657.1027 Q3659.2969,657.923 3658.0469,659.798 Q3656.8359,661.673 3656.8359,664.2511 L3656.8359,666.9855 Q3656.8359,670.0714 3659.0625,672.1417 Q3661.2891,674.173 3665.2734,674.173 Q3667.6172,674.173 3669.2578,673.548 Q3670.2344,673.1573 3671.2891,672.0636 Q3671.9531,671.3995 3672.3047,671.2042 Q3672.6953,671.0089 3673.2031,671.0089 Q3674.0234,671.0089 3674.6484,671.673 Q3675.3125,672.298 3675.3125,673.1573 Q3675.3125,674.0167 3674.4531,675.0323 Q3673.2031,676.4777 3671.2109,677.298 Q3668.5156,678.4308 3665.2734,678.4308 Q3661.4844,678.4308 3658.4766,676.8683 Q3656.0156,675.6183 3654.2969,672.962 Q3652.5781,670.2667 3652.5781,667.0636 L3652.5781,664.173 Q3652.5781,660.8527 3654.1016,658.0011 Q3655.6641,655.1105 3658.3984,653.587 Q3661.1328,652.0245 3664.2188,652.0245 Q3666.0547,652.0245 3667.6563,652.4542 Q3669.2969,652.8448 3670.6641,653.7433 Z " fill="#000000"/><text fill="#000000" font-family="Arial" font-size="30" font-style="italic" lengthAdjust="spacing" textLength="123.4131" x="3843.3942" y="653.3862">&#171;screen&#187;</text><text fill="#000000" font-family="Arial" font-size="37.5" lengthAdjust="spacing" textLength="412.7014" x="3698.75" y="694.9182">ParentDashboardActivity</text><line style="stroke:#2F6FA3;stroke-width:1.25;" x1="3628.75" x2="4116.4514" y1="715.365" y2="715.365"/></g><!--class ManageChildrenActivity--><g id="elem_ManageChildrenActivity"><rect codeLine="35" fill="#DCEEFF" height="122.6184" id="ManageChildrenActivity" rx="6.25" ry="6.25" style="stroke:#2F6FA3;stroke-width:1.25;" width="473.9331" x="4975" y="832.7466"/><ellipse cx="5012.5" cy="884.0558" fill="#ADD1B2" rx="27.5" ry="27.5" style="stroke:#181818;stroke-width:2.5;"/><path d="M5019.4141,873.7433 Q5019.8047,873.1964 5020.2734,872.923 Q5020.7422,872.6495 5021.2891,872.6495 Q5022.2266,872.6495 5022.8125,873.3136 Q5023.3984,873.9386 5023.3984,875.462 L5023.3984,879.0948 Q5023.3984,880.6183 5022.8125,881.2823 Q5022.2266,881.9464 5021.2891,881.9464 Q5020.4297,881.9464 5019.9219,881.4386 Q5019.4141,880.9698 5019.1406,879.6808 Q5019.0234,878.7823 5018.5547,878.3136 Q5017.7344,877.3761 5016.2109,876.8292 Q5014.6875,876.2823 5013.125,876.2823 Q5011.2109,876.2823 5009.6094,877.1027 Q5008.0469,877.923 5006.7969,879.798 Q5005.5859,881.673 5005.5859,884.2511 L5005.5859,886.9855 Q5005.5859,890.0714 5007.8125,892.1417 Q5010.0391,894.173 5014.0234,894.173 Q5016.3672,894.173 5018.0078,893.548 Q5018.9844,893.1573 5020.0391,892.0636 Q5020.7031,891.3995 5021.0547,891.2042 Q5021.4453,891.0089 5021.9531,891.0089 Q5022.7734,891.0089 5023.3984,891.673 Q5024.0625,892.298 5024.0625,893.1573 Q5024.0625,894.0167 5023.2031,895.0323 Q5021.9531,896.4777 5019.9609,897.298 Q5017.2656,898.4308 5014.0234,898.4308 Q5010.2344,898.4308 5007.2266,896.8683 Q5004.7656,895.6183 5003.0469,892.962 Q5001.3281,890.2667 5001.3281,887.0636 L5001.3281,884.173 Q5001.3281,880.8527 5002.8516,878.0011 Q5004.4141,875.1105 5007.1484,873.587 Q5009.8828,872.0245 5012.9688,872.0245 Q5014.8047,872.0245 5016.4063,872.4542 Q5018.0469,872.8448 5019.4141,873.7433 Z " fill="#000000"/><text fill="#000000" font-family="Arial" font-size="30" font-style="italic" lengthAdjust="spacing" textLength="123.4131" x="5182.76" y="873.3862">&#171;screen&#187;</text><text fill="#000000" font-family="Arial" font-size="37.5" lengthAdjust="spacing" textLength="393.9331" x="5047.5" y="914.9182">ManageChildrenActivity</text><line style="stroke:#2F6FA3;stroke-width:1.25;" x1="4977.5" x2="5446.4331" y1="935.365" y2="935.365"/></g><!--class GenerateQRActivity--><g id="elem_GenerateQRActivity"><rect codeLine="36" fill="#DCEEFF" height="122.6184" id="GenerateQRActivity" rx="6.25" ry="6.25" style="stroke:#2F6FA3;stroke-width:1.25;" width="411.366" x="3923.75" y="832.7466"/><ellipse cx="3961.25" cy="884.0558" fill="#ADD1B2" rx="27.5" ry="27.5" style="stroke:#181818;stroke-width:2.5;"/><path d="M3968.1641,873.7433 Q3968.5547,873.1964 3969.0234,872.923 Q3969.4922,872.6495 3970.0391,872.6495 Q3970.9766,872.6495 3971.5625,873.3136 Q3972.1484,873.9386 3972.1484,875.462 L3972.1484,879.0948 Q3972.1484,880.6183 3971.5625,881.2823 Q3970.9766,881.9464 3970.0391,881.9464 Q3969.1797,881.9464 3968.6719,881.4386 Q3968.1641,880.9698 3967.8906,879.6808 Q3967.7734,878.7823 3967.3047,878.3136 Q3966.4844,877.3761 3964.9609,876.8292 Q3963.4375,876.2823 3961.875,876.2823 Q3959.9609,876.2823 3958.3594,877.1027 Q3956.7969,877.923 3955.5469,879.798 Q3954.3359,881.673 3954.3359,884.2511 L3954.3359,886.9855 Q3954.3359,890.0714 3956.5625,892.1417 Q3958.7891,894.173 3962.7734,894.173 Q3965.1172,894.173 3966.7578,893.548 Q3967.7344,893.1573 3968.7891,892.0636 Q3969.4531,891.3995 3969.8047,891.2042 Q3970.1953,891.0089 3970.7031,891.0089 Q3971.5234,891.0089 3972.1484,891.673 Q3972.8125,892.298 3972.8125,893.1573 Q3972.8125,894.0167 3971.9531,895.0323 Q3970.7031,896.4777 3968.7109,897.298 Q3966.0156,898.4308 3962.7734,898.4308 Q3958.9844,898.4308 3955.9766,896.8683 Q3953.5156,895.6183 3951.7969,892.962 Q3950.0781,890.2667 3950.0781,887.0636 L3950.0781,884.173 Q3950.0781,880.8527 3951.6016,878.0011 Q3953.1641,875.1105 3955.8984,873.587 Q3958.6328,872.0245 3961.7188,872.0245 Q3963.5547,872.0245 3965.1563,872.4542 Q3966.7969,872.8448 3968.1641,873.7433 Z " fill="#000000"/><text fill="#000000" font-family="Arial" font-size="30" font-style="italic" lengthAdjust="spacing" textLength="123.4131" x="4100.2264" y="873.3862">&#171;screen&#187;</text><text fill="#000000" font-family="Arial" font-size="37.5" lengthAdjust="spacing" textLength="331.366" x="3996.25" y="914.9182">GenerateQRActivity</text><line style="stroke:#2F6FA3;stroke-width:1.25;" x1="3926.25" x2="4332.616" y1="935.365" y2="935.365"/></g><!--class AssignTaskToChildActivity--><g id="elem_AssignTaskToChildActivity"><rect codeLine="37" fill="#DCEEFF" height="122.6184" id="AssignTaskToChildActivity" rx="6.25" ry="6.25" style="stroke:#2F6FA3;stroke-width:1.25;" width="521.7969" x="3356.25" y="832.7466"/><ellipse cx="3393.75" cy="884.0558" fill="#ADD1B2" rx="27.5" ry="27.5" style="stroke:#181818;stroke-width:2.5;"/><path d="M3400.6641,873.7433 Q3401.0547,873.1964 3401.5234,872.923 Q3401.9922,872.6495 3402.5391,872.6495 Q3403.4766,872.6495 3404.0625,873.3136 Q3404.6484,873.9386 3404.6484,875.462 L3404.6484,879.0948 Q3404.6484,880.6183 3404.0625,881.2823 Q3403.4766,881.9464 3402.5391,881.9464 Q3401.6797,881.9464 3401.1719,881.4386 Q3400.6641,880.9698 3400.3906,879.6808 Q3400.2734,878.7823 3399.8047,878.3136 Q3398.9844,877.3761 3397.4609,876.8292 Q3395.9375,876.2823 3394.375,876.2823 Q3392.4609,876.2823 3390.8594,877.1027 Q3389.2969,877.923 3388.0469,879.798 Q3386.8359,881.673 3386.8359,884.2511 L3386.8359,886.9855 Q3386.8359,890.0714 3389.0625,892.1417 Q3391.2891,894.173 3395.2734,894.173 Q3397.6172,894.173 3399.2578,893.548 Q3400.2344,893.1573 3401.2891,892.0636 Q3401.9531,891.3995 3402.3047,891.2042 Q3402.6953,891.0089 3403.2031,891.0089 Q3404.0234,891.0089 3404.6484,891.673 Q3405.3125,892.298 3405.3125,893.1573 Q3405.3125,894.0167 3404.4531,895.0323 Q3403.2031,896.4777 3401.2109,897.298 Q3398.5156,898.4308 3395.2734,898.4308 Q3391.4844,898.4308 3388.4766,896.8683 Q3386.0156,895.6183 3384.2969,892.962 Q3382.5781,890.2667 3382.5781,887.0636 L3382.5781,884.173 Q3382.5781,880.8527 3384.1016,878.0011 Q3385.6641,875.1105 3388.3984,873.587 Q3391.1328,872.0245 3394.2188,872.0245 Q3396.0547,872.0245 3397.6563,872.4542 Q3399.2969,872.8448 3400.6641,873.7433 Z " fill="#000000"/><text fill="#000000" font-family="Arial" font-size="30" font-style="italic" lengthAdjust="spacing" textLength="123.4131" x="3587.9419" y="873.3862">&#171;screen&#187;</text><text fill="#000000" font-family="Arial" font-size="37.5" lengthAdjust="spacing" textLength="441.7969" x="3428.75" y="914.9182">AssignTaskToChildActivity</text><line style="stroke:#2F6FA3;stroke-width:1.25;" x1="3358.75" x2="3875.5469" y1="935.365" y2="935.365"/></g><!--class ParentTaskTemplateActivity--><g id="elem_ParentTaskTemplateActivity"><rect codeLine="38" fill="#DCEEFF" height="122.6184" id="ParentTaskTemplateActivity" rx="6.25" ry="6.25" style="stroke:#2F6FA3;stroke-width:1.25;" width="546.8274" x="4381.25" y="832.7466"/><ellipse cx="4418.75" cy="884.0558" fill="#ADD1B2" rx="27.5" ry="27.5" style="stroke:#181818;stroke-width:2.5;"/><path d="M4425.6641,873.7433 Q4426.0547,873.1964 4426.5234,872.923 Q4426.9922,872.6495 4427.5391,872.6495 Q4428.4766,872.6495 4429.0625,873.3136 Q4429.6484,873.9386 4429.6484,875.462 L4429.6484,879.0948 Q4429.6484,880.6183 4429.0625,881.2823 Q4428.4766,881.9464 4427.5391,881.9464 Q4426.6797,881.9464 4426.1719,881.4386 Q4425.6641,880.9698 4425.3906,879.6808 Q4425.2734,878.7823 4424.8047,878.3136 Q4423.9844,877.3761 4422.4609,876.8292 Q4420.9375,876.2823 4419.375,876.2823 Q4417.4609,876.2823 4415.8594,877.1027 Q4414.2969,877.923 4413.0469,879.798 Q4411.8359,881.673 4411.8359,884.2511 L4411.8359,886.9855 Q4411.8359,890.0714 4414.0625,892.1417 Q4416.2891,894.173 4420.2734,894.173 Q4422.6172,894.173 4424.2578,893.548 Q4425.2344,893.1573 4426.2891,892.0636 Q4426.9531,891.3995 4427.3047,891.2042 Q4427.6953,891.0089 4428.2031,891.0089 Q4429.0234,891.0089 4429.6484,891.673 Q4430.3125,892.298 4430.3125,893.1573 Q4430.3125,894.0167 4429.4531,895.0323 Q4428.2031,896.4777 4426.2109,897.298 Q4423.5156,898.4308 4420.2734,898.4308 Q4416.4844,898.4308 4413.4766,896.8683 Q4411.0156,895.6183 4409.2969,892.962 Q4407.5781,890.2667 4407.5781,887.0636 L4407.5781,884.173 Q4407.5781,880.8527 4409.1016,878.0011 Q4410.6641,875.1105 4413.3984,873.587 Q4416.1328,872.0245 4419.2188,872.0245 Q4421.0547,872.0245 4422.6563,872.4542 Q4424.2969,872.8448 4425.6641,873.7433 Z " fill="#000000"/><text fill="#000000" font-family="Arial" font-size="30" font-style="italic" lengthAdjust="spacing" textLength="123.4131" x="4625.4572" y="873.3862">&#171;screen&#187;</text><text fill="#000000" font-family="Arial" font-size="37.5" lengthAdjust="spacing" textLength="466.8274" x="4453.75" y="914.9182">ParentTaskTemplateActivity</text><line style="stroke:#2F6FA3;stroke-width:1.25;" x1="4383.75" x2="4925.5774" y1="935.365" y2="935.365"/></g><!--class ParentFilterMode--><g id="elem_ParentFilterMode"><rect codeLine="39" fill="#FFFFFF" height="122.6184" id="ParentFilterMode" rx="6.25" ry="6.25" style="stroke:#666666;stroke-width:1.25;" width="680.2563" x="5495" y="832.7466"/><ellipse cx="5532.5" cy="884.0558" fill="#EB937F" rx="27.5" ry="27.5" style="stroke:#181818;stroke-width:2.5;"/><path d="M5529.6484,886.048 L5529.6484,892.298 L5540.4688,892.298 L5540.4688,889.9933 Q5540.4688,888.4698 5541.0547,887.8058 Q5541.6797,887.1417 5542.6172,887.1417 Q5543.5547,887.1417 5544.1406,887.8058 Q5544.7266,888.4698 5544.7266,889.9933 L5544.7266,896.5558 L5524.7266,896.5558 Q5523.1641,896.5558 5522.5,895.9698 Q5521.875,895.3839 5521.875,894.4073 Q5521.875,893.4698 5522.5391,892.8839 Q5523.2031,892.298 5524.7266,892.298 L5525.3906,892.298 L5525.3906,875.6573 L5524.7266,875.6573 Q5523.1641,875.6573 5522.5,875.0714 Q5521.875,874.4855 5521.875,873.5089 Q5521.875,872.5714 5522.5,871.9855 Q5523.1641,871.3995 5524.7266,871.3995 L5543.7891,871.3995 L5543.7891,877.8839 Q5543.7891,879.4073 5543.2031,880.0714 Q5542.6563,880.6964 5541.6797,880.6964 Q5540.7422,880.6964 5540.1563,880.0714 Q5539.5703,879.4073 5539.5703,877.8839 L5539.5703,875.6573 L5529.6484,875.6573 L5529.6484,881.7902 L5533.3594,881.7902 Q5533.3594,880.1495 5533.6719,879.6808 Q5534.3359,878.6652 5535.5078,878.6652 Q5536.4453,878.6652 5537.0313,879.3292 Q5537.6172,879.9542 5537.6172,881.4777 L5537.6172,886.3995 Q5537.6172,887.7667 5537.3047,888.2355 Q5536.6406,889.212 5535.5078,889.212 Q5534.3359,889.212 5533.6719,888.1964 Q5533.3594,887.7277 5533.3594,886.048 L5529.6484,886.048 Z " fill="#000000"/><text fill="#000000" font-family="Arial" font-size="30" font-style="italic" lengthAdjust="spacing" textLength="100.0781" x="5817.5891" y="873.3862">&#171;inner&#187;</text><text fill="#000000" font-family="Arial" font-size="37.5" lengthAdjust="spacing" textLength="600.2563" x="5567.5" y="914.9182">ParentDashboardActivity.FilterMode</text><line style="stroke:#666666;stroke-width:1.25;" x1="5497.5" x2="6172.7563" y1="935.365" y2="935.365"/></g><!--class ManageChildItem--><g id="elem_ManageChildItem"><rect codeLine="40" fill="#FFFFFF" height="122.6184" id="ManageChildItem" rx="6.25" ry="6.25" style="stroke:#666666;stroke-width:1.25;" width="642.738" x="5436.25" y="1072.7466"/><ellipse cx="5473.75" cy="1124.0558" fill="#ADD1B2" rx="27.5" ry="27.5" style="stroke:#181818;stroke-width:2.5;"/><path d="M5480.6641,1113.7433 Q5481.0547,1113.1964 5481.5234,1112.923 Q5481.9922,1112.6495 5482.5391,1112.6495 Q5483.4766,1112.6495 5484.0625,1113.3136 Q5484.6484,1113.9386 5484.6484,1115.462 L5484.6484,1119.0948 Q5484.6484,1120.6183 5484.0625,1121.2823 Q5483.4766,1121.9464 5482.5391,1121.9464 Q5481.6797,1121.9464 5481.1719,1121.4386 Q5480.6641,1120.9698 5480.3906,1119.6808 Q5480.2734,1118.7823 5479.8047,1118.3136 Q5478.9844,1117.3761 5477.4609,1116.8292 Q5475.9375,1116.2823 5474.375,1116.2823 Q5472.4609,1116.2823 5470.8594,1117.1027 Q5469.2969,1117.923 5468.0469,1119.798 Q5466.8359,1121.673 5466.8359,1124.2511 L5466.8359,1126.9855 Q5466.8359,1130.0714 5469.0625,1132.1417 Q5471.2891,1134.173 5475.2734,1134.173 Q5477.6172,1134.173 5479.2578,1133.548 Q5480.2344,1133.1573 5481.2891,1132.0636 Q5481.9531,1131.3995 5482.3047,1131.2042 Q5482.6953,1131.0089 5483.2031,1131.0089 Q5484.0234,1131.0089 5484.6484,1131.673 Q5485.3125,1132.298 5485.3125,1133.1573 Q5485.3125,1134.0167 5484.4531,1135.0323 Q5483.2031,1136.4777 5481.2109,1137.298 Q5478.5156,1138.4308 5475.2734,1138.4308 Q5471.4844,1138.4308 5468.4766,1136.8683 Q5466.0156,1135.6183 5464.2969,1132.962 Q5462.5781,1130.2667 5462.5781,1127.0636 L5462.5781,1124.173 Q5462.5781,1120.8527 5464.1016,1118.0011 Q5465.6641,1115.1105 5468.3984,1113.587 Q5471.1328,1112.0245 5474.2188,1112.0245 Q5476.0547,1112.0245 5477.6563,1112.4542 Q5479.2969,1112.8448 5480.6641,1113.7433 Z " fill="#000000"/><text fill="#000000" font-family="Arial" font-size="30" font-style="italic" lengthAdjust="spacing" textLength="100.0781" x="5740.08" y="1113.3862">&#171;inner&#187;</text><text fill="#000000" font-family="Arial" font-size="37.5" lengthAdjust="spacing" textLength="562.738" x="5508.75" y="1154.9182">ManageChildrenActivity.ChildItem</text><line style="stroke:#666666;stroke-width:1.25;" x1="5438.75" x2="6076.488" y1="1175.365" y2="1175.365"/></g><!--class ChildListAdapter--><g id="elem_ChildListAdapter"><rect codeLine="41" fill="#FFF3BF" height="122.6184" id="ChildListAdapter" rx="6.25" ry="6.25" style="stroke:#B68A00;stroke-width:1.25;" width="759.5044" x="4630" y="1072.7466"/><ellipse cx="4667.5" cy="1124.0558" fill="#ADD1B2" rx="27.5" ry="27.5" style="stroke:#181818;stroke-width:2.5;"/><path d="M4674.4141,1113.7433 Q4674.8047,1113.1964 4675.2734,1112.923 Q4675.7422,1112.6495 4676.2891,1112.6495 Q4677.2266,1112.6495 4677.8125,1113.3136 Q4678.3984,1113.9386 4678.3984,1115.462 L4678.3984,1119.0948 Q4678.3984,1120.6183 4677.8125,1121.2823 Q4677.2266,1121.9464 4676.2891,1121.9464 Q4675.4297,1121.9464 4674.9219,1121.4386 Q4674.4141,1120.9698 4674.1406,1119.6808 Q4674.0234,1118.7823 4673.5547,1118.3136 Q4672.7344,1117.3761 4671.2109,1116.8292 Q4669.6875,1116.2823 4668.125,1116.2823 Q4666.2109,1116.2823 4664.6094,1117.1027 Q4663.0469,1117.923 4661.7969,1119.798 Q4660.5859,1121.673 4660.5859,1124.2511 L4660.5859,1126.9855 Q4660.5859,1130.0714 4662.8125,1132.1417 Q4665.0391,1134.173 4669.0234,1134.173 Q4671.3672,1134.173 4673.0078,1133.548 Q4673.9844,1133.1573 4675.0391,1132.0636 Q4675.7031,1131.3995 4676.0547,1131.2042 Q4676.4453,1131.0089 4676.9531,1131.0089 Q4677.7734,1131.0089 4678.3984,1131.673 Q4679.0625,1132.298 4679.0625,1133.1573 Q4679.0625,1134.0167 4678.2031,1135.0323 Q4676.9531,1136.4777 4674.9609,1137.298 Q4672.2656,1138.4308 4669.0234,1138.4308 Q4665.2344,1138.4308 4662.2266,1136.8683 Q4659.7656,1135.6183 4658.0469,1132.962 Q4656.3281,1130.2667 4656.3281,1127.0636 L4656.3281,1124.173 Q4656.3281,1120.8527 4657.8516,1118.0011 Q4659.4141,1115.1105 4662.1484,1113.587 Q4664.8828,1112.0245 4667.9688,1112.0245 Q4669.8047,1112.0245 4671.4063,1112.4542 Q4673.0469,1112.8448 4674.4141,1113.7433 Z " fill="#000000"/><text fill="#000000" font-family="Arial" font-size="30" font-style="italic" lengthAdjust="spacing" textLength="135.1172" x="4974.6936" y="1113.3862">&#171;adapter&#187;</text><text fill="#000000" font-family="Arial" font-size="37.5" lengthAdjust="spacing" textLength="679.5044" x="4702.5" y="1154.9182">ManageChildrenActivity.ChildListAdapter</text><line style="stroke:#B68A00;stroke-width:1.25;" x1="4632.5" x2="5387.0044" y1="1175.365" y2="1175.365"/></g><!--class TemplateListAdapter--><g id="elem_TemplateListAdapter"><rect codeLine="42" fill="#FFF3BF" height="122.6184" id="TemplateListAdapter" rx="6.25" ry="6.25" style="stroke:#B68A00;stroke-width:1.25;" width="903.2605" x="3681.25" y="1072.7466"/><ellipse cx="3718.75" cy="1124.0558" fill="#ADD1B2" rx="27.5" ry="27.5" style="stroke:#181818;stroke-width:2.5;"/><path d="M3725.6641,1113.7433 Q3726.0547,1113.1964 3726.5234,1112.923 Q3726.9922,1112.6495 3727.5391,1112.6495 Q3728.4766,1112.6495 3729.0625,1113.3136 Q3729.6484,1113.9386 3729.6484,1115.462 L3729.6484,1119.0948 Q3729.6484,1120.6183 3729.0625,1121.2823 Q3728.4766,1121.9464 3727.5391,1121.9464 Q3726.6797,1121.9464 3726.1719,1121.4386 Q3725.6641,1120.9698 3725.3906,1119.6808 Q3725.2734,1118.7823 3724.8047,1118.3136 Q3723.9844,1117.3761 3722.4609,1116.8292 Q3720.9375,1116.2823 3719.375,1116.2823 Q3717.4609,1116.2823 3715.8594,1117.1027 Q3714.2969,1117.923 3713.0469,1119.798 Q3711.8359,1121.673 3711.8359,1124.2511 L3711.8359,1126.9855 Q3711.8359,1130.0714 3714.0625,1132.1417 Q3716.2891,1134.173 3720.2734,1134.173 Q3722.6172,1134.173 3724.2578,1133.548 Q3725.2344,1133.1573 3726.2891,1132.0636 Q3726.9531,1131.3995 3727.3047,1131.2042 Q3727.6953,1131.0089 3728.2031,1131.0089 Q3729.0234,1131.0089 3729.6484,1131.673 Q3730.3125,1132.298 3730.3125,1133.1573 Q3730.3125,1134.0167 3729.4531,1135.0323 Q3728.2031,1136.4777 3726.2109,1137.298 Q3723.5156,1138.4308 3720.2734,1138.4308 Q3716.4844,1138.4308 3713.4766,1136.8683 Q3711.0156,1135.6183 3709.2969,1132.962 Q3707.5781,1130.2667 3707.5781,1127.0636 L3707.5781,1124.173 Q3707.5781,1120.8527 3709.1016,1118.0011 Q3710.6641,1115.1105 3713.3984,1113.587 Q3716.1328,1112.0245 3719.2188,1112.0245 Q3721.0547,1112.0245 3722.6563,1112.4542 Q3724.2969,1112.8448 3725.6641,1113.7433 Z " fill="#000000"/><text fill="#000000" font-family="Arial" font-size="30" font-style="italic" lengthAdjust="spacing" textLength="135.1172" x="4097.8217" y="1113.3862">&#171;adapter&#187;</text><text fill="#000000" font-family="Arial" font-size="37.5" lengthAdjust="spacing" textLength="823.2605" x="3753.75" y="1154.9182">ParentTaskTemplateActivity.TemplateListAdapter</text><line style="stroke:#B68A00;stroke-width:1.25;" x1="3683.75" x2="4582.0105" y1="1175.365" y2="1175.365"/></g><!--class ChildDashboardActivity--><g id="elem_ChildDashboardActivity"><rect codeLine="46" fill="#DCEEFF" height="122.6184" id="ChildDashboardActivity" rx="6.25" ry="6.25" style="stroke:#2F6FA3;stroke-width:1.25;" width="467.6709" x="2573.75" y="832.7466"/><ellipse cx="2611.25" cy="884.0558" fill="#ADD1B2" rx="27.5" ry="27.5" style="stroke:#181818;stroke-width:2.5;"/><path d="M2618.1641,873.7433 Q2618.5547,873.1964 2619.0234,872.923 Q2619.4922,872.6495 2620.0391,872.6495 Q2620.9766,872.6495 2621.5625,873.3136 Q2622.1484,873.9386 2622.1484,875.462 L2622.1484,879.0948 Q2622.1484,880.6183 2621.5625,881.2823 Q2620.9766,881.9464 2620.0391,881.9464 Q2619.1797,881.9464 2618.6719,881.4386 Q2618.1641,880.9698 2617.8906,879.6808 Q2617.7734,878.7823 2617.3047,878.3136 Q2616.4844,877.3761 2614.9609,876.8292 Q2613.4375,876.2823 2611.875,876.2823 Q2609.9609,876.2823 2608.3594,877.1027 Q2606.7969,877.923 2605.5469,879.798 Q2604.3359,881.673 2604.3359,884.2511 L2604.3359,886.9855 Q2604.3359,890.0714 2606.5625,892.1417 Q2608.7891,894.173 2612.7734,894.173 Q2615.1172,894.173 2616.7578,893.548 Q2617.7344,893.1573 2618.7891,892.0636 Q2619.4531,891.3995 2619.8047,891.2042 Q2620.1953,891.0089 2620.7031,891.0089 Q2621.5234,891.0089 2622.1484,891.673 Q2622.8125,892.298 2622.8125,893.1573 Q2622.8125,894.0167 2621.9531,895.0323 Q2620.7031,896.4777 2618.7109,897.298 Q2616.0156,898.4308 2612.7734,898.4308 Q2608.9844,898.4308 2605.9766,896.8683 Q2603.5156,895.6183 2601.7969,892.962 Q2600.0781,890.2667 2600.0781,887.0636 L2600.0781,884.173 Q2600.0781,880.8527 2601.6016,878.0011 Q2603.1641,875.1105 2605.8984,873.587 Q2608.6328,872.0245 2611.7188,872.0245 Q2613.5547,872.0245 2615.1563,872.4542 Q2616.7969,872.8448 2618.1641,873.7433 Z " fill="#000000"/><text fill="#000000" font-family="Arial" font-size="30" font-style="italic" lengthAdjust="spacing" textLength="123.4131" x="2778.3789" y="873.3862">&#171;screen&#187;</text><text fill="#000000" font-family="Arial" font-size="37.5" lengthAdjust="spacing" textLength="387.6709" x="2646.25" y="914.9182">ChildDashboardActivity</text><line style="stroke:#2F6FA3;stroke-width:1.25;" x1="2576.25" x2="3038.9209" y1="935.365" y2="935.365"/></g><!--class ParentDashboardTaskAdapter--><g id="elem_ParentDashboardTaskAdapter"><rect codeLine="50" fill="#FFF3BF" height="122.6184" id="ParentDashboardTaskAdapter" rx="6.25" ry="6.25" style="stroke:#B68A00;stroke-width:1.25;" width="586.543" x="1896.25" y="832.7466"/><ellipse cx="1933.75" cy="884.0558" fill="#ADD1B2" rx="27.5" ry="27.5" style="stroke:#181818;stroke-width:2.5;"/><path d="M1940.6641,873.7433 Q1941.0547,873.1964 1941.5234,872.923 Q1941.9922,872.6495 1942.5391,872.6495 Q1943.4766,872.6495 1944.0625,873.3136 Q1944.6484,873.9386 1944.6484,875.462 L1944.6484,879.0948 Q1944.6484,880.6183 1944.0625,881.2823 Q1943.4766,881.9464 1942.5391,881.9464 Q1941.6797,881.9464 1941.1719,881.4386 Q1940.6641,880.9698 1940.3906,879.6808 Q1940.2734,878.7823 1939.8047,878.3136 Q1938.9844,877.3761 1937.4609,876.8292 Q1935.9375,876.2823 1934.375,876.2823 Q1932.4609,876.2823 1930.8594,877.1027 Q1929.2969,877.923 1928.0469,879.798 Q1926.8359,881.673 1926.8359,884.2511 L1926.8359,886.9855 Q1926.8359,890.0714 1929.0625,892.1417 Q1931.2891,894.173 1935.2734,894.173 Q1937.6172,894.173 1939.2578,893.548 Q1940.2344,893.1573 1941.2891,892.0636 Q1941.9531,891.3995 1942.3047,891.2042 Q1942.6953,891.0089 1943.2031,891.0089 Q1944.0234,891.0089 1944.6484,891.673 Q1945.3125,892.298 1945.3125,893.1573 Q1945.3125,894.0167 1944.4531,895.0323 Q1943.2031,896.4777 1941.2109,897.298 Q1938.5156,898.4308 1935.2734,898.4308 Q1931.4844,898.4308 1928.4766,896.8683 Q1926.0156,895.6183 1924.2969,892.962 Q1922.5781,890.2667 1922.5781,887.0636 L1922.5781,884.173 Q1922.5781,880.8527 1924.1016,878.0011 Q1925.6641,875.1105 1928.3984,873.587 Q1931.1328,872.0245 1934.2188,872.0245 Q1936.0547,872.0245 1937.6563,872.4542 Q1939.2969,872.8448 1940.6641,873.7433 Z " fill="#000000"/><text fill="#000000" font-family="Arial" font-size="30" font-style="italic" lengthAdjust="spacing" textLength="135.1172" x="2154.4629" y="873.3862">&#171;adapter&#187;</text><text fill="#000000" font-family="Arial" font-size="37.5" lengthAdjust="spacing" textLength="506.543" x="1968.75" y="914.9182">ParentDashboardTaskAdapter</text><line style="stroke:#B68A00;stroke-width:1.25;" x1="1898.75" x2="2480.293" y1="935.365" y2="935.365"/></g><!--class ParentTaskViewHolder--><g id="elem_ParentTaskViewHolder"><rect codeLine="51" fill="#FFF3BF" height="122.6184" id="ParentTaskViewHolder" rx="6.25" ry="6.25" style="stroke:#B68A00;stroke-width:1.25;" width="869.9719" x="1615" y="1072.7466"/><ellipse cx="1652.5" cy="1124.0558" fill="#ADD1B2" rx="27.5" ry="27.5" style="stroke:#181818;stroke-width:2.5;"/><path d="M1659.4141,1113.7433 Q1659.8047,1113.1964 1660.2734,1112.923 Q1660.7422,1112.6495 1661.2891,1112.6495 Q1662.2266,1112.6495 1662.8125,1113.3136 Q1663.3984,1113.9386 1663.3984,1115.462 L1663.3984,1119.0948 Q1663.3984,1120.6183 1662.8125,1121.2823 Q1662.2266,1121.9464 1661.2891,1121.9464 Q1660.4297,1121.9464 1659.9219,1121.4386 Q1659.4141,1120.9698 1659.1406,1119.6808 Q1659.0234,1118.7823 1658.5547,1118.3136 Q1657.7344,1117.3761 1656.2109,1116.8292 Q1654.6875,1116.2823 1653.125,1116.2823 Q1651.2109,1116.2823 1649.6094,1117.1027 Q1648.0469,1117.923 1646.7969,1119.798 Q1645.5859,1121.673 1645.5859,1124.2511 L1645.5859,1126.9855 Q1645.5859,1130.0714 1647.8125,1132.1417 Q1650.0391,1134.173 1654.0234,1134.173 Q1656.3672,1134.173 1658.0078,1133.548 Q1658.9844,1133.1573 1660.0391,1132.0636 Q1660.7031,1131.3995 1661.0547,1131.2042 Q1661.4453,1131.0089 1661.9531,1131.0089 Q1662.7734,1131.0089 1663.3984,1131.673 Q1664.0625,1132.298 1664.0625,1133.1573 Q1664.0625,1134.0167 1663.2031,1135.0323 Q1661.9531,1136.4777 1659.9609,1137.298 Q1657.2656,1138.4308 1654.0234,1138.4308 Q1650.2344,1138.4308 1647.2266,1136.8683 Q1644.7656,1135.6183 1643.0469,1132.962 Q1641.3281,1130.2667 1641.3281,1127.0636 L1641.3281,1124.173 Q1641.3281,1120.8527 1642.8516,1118.0011 Q1644.4141,1115.1105 1647.1484,1113.587 Q1649.8828,1112.0245 1652.9688,1112.0245 Q1654.8047,1112.0245 1656.4063,1112.4542 Q1658.0469,1112.8448 1659.4141,1113.7433 Z " fill="#000000"/><text fill="#000000" font-family="Arial" font-size="30" font-style="italic" lengthAdjust="spacing" textLength="135.1172" x="2014.9274" y="1113.3862">&#171;adapter&#187;</text><text fill="#000000" font-family="Arial" font-size="37.5" lengthAdjust="spacing" textLength="789.9719" x="1687.5" y="1154.9182">ParentDashboardTaskAdapter.TaskViewHolder</text><line style="stroke:#B68A00;stroke-width:1.25;" x1="1617.5" x2="2482.4719" y1="1175.365" y2="1175.365"/></g><!--class AssignedTask--><g id="elem_AssignedTask"><rect codeLine="55" fill="#E2F5E6" height="122.6184" id="AssignedTask" rx="6.25" ry="6.25" style="stroke:#3B8B4F;stroke-width:1.25;" width="315.5286" x="3815" y="1312.7466"/><ellipse cx="3852.5" cy="1364.0558" fill="#ADD1B2" rx="27.5" ry="27.5" style="stroke:#181818;stroke-width:2.5;"/><path d="M3859.4141,1353.7433 Q3859.8047,1353.1964 3860.2734,1352.923 Q3860.7422,1352.6495 3861.2891,1352.6495 Q3862.2266,1352.6495 3862.8125,1353.3136 Q3863.3984,1353.9386 3863.3984,1355.462 L3863.3984,1359.0948 Q3863.3984,1360.6183 3862.8125,1361.2823 Q3862.2266,1361.9464 3861.2891,1361.9464 Q3860.4297,1361.9464 3859.9219,1361.4386 Q3859.4141,1360.9698 3859.1406,1359.6808 Q3859.0234,1358.7823 3858.5547,1358.3136 Q3857.7344,1357.3761 3856.2109,1356.8292 Q3854.6875,1356.2823 3853.125,1356.2823 Q3851.2109,1356.2823 3849.6094,1357.1027 Q3848.0469,1357.923 3846.7969,1359.798 Q3845.5859,1361.673 3845.5859,1364.2511 L3845.5859,1366.9855 Q3845.5859,1370.0714 3847.8125,1372.1417 Q3850.0391,1374.173 3854.0234,1374.173 Q3856.3672,1374.173 3858.0078,1373.548 Q3858.9844,1373.1573 3860.0391,1372.0636 Q3860.7031,1371.3995 3861.0547,1371.2042 Q3861.4453,1371.0089 3861.9531,1371.0089 Q3862.7734,1371.0089 3863.3984,1371.673 Q3864.0625,1372.298 3864.0625,1373.1573 Q3864.0625,1374.0167 3863.2031,1375.0323 Q3861.9531,1376.4777 3859.9609,1377.298 Q3857.2656,1378.4308 3854.0234,1378.4308 Q3850.2344,1378.4308 3847.2266,1376.8683 Q3844.7656,1375.6183 3843.0469,1372.962 Q3841.3281,1370.2667 3841.3281,1367.0636 L3841.3281,1364.173 Q3841.3281,1360.8527 3842.8516,1358.0011 Q3844.4141,1355.1105 3847.1484,1353.587 Q3849.8828,1352.0245 3852.9688,1352.0245 Q3854.8047,1352.0245 3856.4063,1352.4542 Q3858.0469,1352.8448 3859.4141,1353.7433 Z " fill="#000000"/><text fill="#000000" font-family="Arial" font-size="30" font-style="italic" lengthAdjust="spacing" textLength="115.0781" x="3947.7252" y="1353.3862">&#171;model&#187;</text><text fill="#000000" font-family="Arial" font-size="37.5" lengthAdjust="spacing" textLength="235.5286" x="3887.5" y="1394.9182">AssignedTask</text><line style="stroke:#3B8B4F;stroke-width:1.25;" x1="3817.5" x2="4128.0286" y1="1415.365" y2="1415.365"/></g><!--class ChildTask--><g id="elem_ChildTask"><rect codeLine="56" fill="#E2F5E6" height="122.6184" id="ChildTask" rx="6.25" ry="6.25" style="stroke:#3B8B4F;stroke-width:1.25;" width="246.7175" x="4176.25" y="1312.7466"/><ellipse cx="4213.75" cy="1364.0558" fill="#ADD1B2" rx="27.5" ry="27.5" style="stroke:#181818;stroke-width:2.5;"/><path d="M4220.6641,1353.7433 Q4221.0547,1353.1964 4221.5234,1352.923 Q4221.9922,1352.6495 4222.5391,1352.6495 Q4223.4766,1352.6495 4224.0625,1353.3136 Q4224.6484,1353.9386 4224.6484,1355.462 L4224.6484,1359.0948 Q4224.6484,1360.6183 4224.0625,1361.2823 Q4223.4766,1361.9464 4222.5391,1361.9464 Q4221.6797,1361.9464 4221.1719,1361.4386 Q4220.6641,1360.9698 4220.3906,1359.6808 Q4220.2734,1358.7823 4219.8047,1358.3136 Q4218.9844,1357.3761 4217.4609,1356.8292 Q4215.9375,1356.2823 4214.375,1356.2823 Q4212.4609,1356.2823 4210.8594,1357.1027 Q4209.2969,1357.923 4208.0469,1359.798 Q4206.8359,1361.673 4206.8359,1364.2511 L4206.8359,1366.9855 Q4206.8359,1370.0714 4209.0625,1372.1417 Q4211.2891,1374.173 4215.2734,1374.173 Q4217.6172,1374.173 4219.2578,1373.548 Q4220.2344,1373.1573 4221.2891,1372.0636 Q4221.9531,1371.3995 4222.3047,1371.2042 Q4222.6953,1371.0089 4223.2031,1371.0089 Q4224.0234,1371.0089 4224.6484,1371.673 Q4225.3125,1372.298 4225.3125,1373.1573 Q4225.3125,1374.0167 4224.4531,1375.0323 Q4223.2031,1376.4777 4221.2109,1377.298 Q4218.5156,1378.4308 4215.2734,1378.4308 Q4211.4844,1378.4308 4208.4766,1376.8683 Q4206.0156,1375.6183 4204.2969,1372.962 Q4202.5781,1370.2667 4202.5781,1367.0636 L4202.5781,1364.173 Q4202.5781,1360.8527 4204.1016,1358.0011 Q4205.6641,1355.1105 4208.3984,1353.587 Q4211.1328,1352.0245 4214.2188,1352.0245 Q4216.0547,1352.0245 4217.6563,1352.4542 Q4219.2969,1352.8448 4220.6641,1353.7433 Z " fill="#000000"/><text fill="#000000" font-family="Arial" font-size="30" font-style="italic" lengthAdjust="spacing" textLength="115.0781" x="4274.5697" y="1353.3862">&#171;model&#187;</text><text fill="#000000" font-family="Arial" font-size="37.5" lengthAdjust="spacing" textLength="166.7175" x="4248.75" y="1394.9182">ChildTask</text><line style="stroke:#3B8B4F;stroke-width:1.25;" x1="4178.75" x2="4420.4675" y1="1415.365" y2="1415.365"/></g><!--class TaskTemplate--><g id="elem_TaskTemplate"><rect codeLine="57" fill="#E2F5E6" height="122.6184" id="TaskTemplate" rx="6.25" ry="6.25" style="stroke:#3B8B4F;stroke-width:1.25;" width="317.5793" x="3451.25" y="1312.7466"/><ellipse cx="3488.75" cy="1364.0558" fill="#ADD1B2" rx="27.5" ry="27.5" style="stroke:#181818;stroke-width:2.5;"/><path d="M3495.6641,1353.7433 Q3496.0547,1353.1964 3496.5234,1352.923 Q3496.9922,1352.6495 3497.5391,1352.6495 Q3498.4766,1352.6495 3499.0625,1353.3136 Q3499.6484,1353.9386 3499.6484,1355.462 L3499.6484,1359.0948 Q3499.6484,1360.6183 3499.0625,1361.2823 Q3498.4766,1361.9464 3497.5391,1361.9464 Q3496.6797,1361.9464 3496.1719,1361.4386 Q3495.6641,1360.9698 3495.3906,1359.6808 Q3495.2734,1358.7823 3494.8047,1358.3136 Q3493.9844,1357.3761 3492.4609,1356.8292 Q3490.9375,1356.2823 3489.375,1356.2823 Q3487.4609,1356.2823 3485.8594,1357.1027 Q3484.2969,1357.923 3483.0469,1359.798 Q3481.8359,1361.673 3481.8359,1364.2511 L3481.8359,1366.9855 Q3481.8359,1370.0714 3484.0625,1372.1417 Q3486.2891,1374.173 3490.2734,1374.173 Q3492.6172,1374.173 3494.2578,1373.548 Q3495.2344,1373.1573 3496.2891,1372.0636 Q3496.9531,1371.3995 3497.3047,1371.2042 Q3497.6953,1371.0089 3498.2031,1371.0089 Q3499.0234,1371.0089 3499.6484,1371.673 Q3500.3125,1372.298 3500.3125,1373.1573 Q3500.3125,1374.0167 3499.4531,1375.0323 Q3498.2031,1376.4777 3496.2109,1377.298 Q3493.5156,1378.4308 3490.2734,1378.4308 Q3486.4844,1378.4308 3483.4766,1376.8683 Q3481.0156,1375.6183 3479.2969,1372.962 Q3477.5781,1370.2667 3477.5781,1367.0636 L3477.5781,1364.173 Q3477.5781,1360.8527 3479.1016,1358.0011 Q3480.6641,1355.1105 3483.3984,1353.587 Q3486.1328,1352.0245 3489.2188,1352.0245 Q3491.0547,1352.0245 3492.6563,1352.4542 Q3494.2969,1352.8448 3495.6641,1353.7433 Z " fill="#000000"/><text fill="#000000" font-family="Arial" font-size="30" font-style="italic" lengthAdjust="spacing" textLength="115.0781" x="3585.0006" y="1353.3862">&#171;model&#187;</text><text fill="#000000" font-family="Arial" font-size="37.5" lengthAdjust="spacing" textLength="237.5793" x="3523.75" y="1394.9182">TaskTemplate</text><line style="stroke:#3B8B4F;stroke-width:1.25;" x1="3453.75" x2="3766.3293" y1="1415.365" y2="1415.365"/></g><!--class DateUtils--><g id="elem_DateUtils"><rect codeLine="61" fill="#EFEFEF" height="122.6184" id="DateUtils" rx="6.25" ry="6.25" style="stroke:#777777;stroke-width:1.25;" width="232.124" x="2721.25" y="1072.7466"/><ellipse cx="2758.75" cy="1124.0558" fill="#ADD1B2" rx="27.5" ry="27.5" style="stroke:#181818;stroke-width:2.5;"/><path d="M2765.6641,1113.7433 Q2766.0547,1113.1964 2766.5234,1112.923 Q2766.9922,1112.6495 2767.5391,1112.6495 Q2768.4766,1112.6495 2769.0625,1113.3136 Q2769.6484,1113.9386 2769.6484,1115.462 L2769.6484,1119.0948 Q2769.6484,1120.6183 2769.0625,1121.2823 Q2768.4766,1121.9464 2767.5391,1121.9464 Q2766.6797,1121.9464 2766.1719,1121.4386 Q2765.6641,1120.9698 2765.3906,1119.6808 Q2765.2734,1118.7823 2764.8047,1118.3136 Q2763.9844,1117.3761 2762.4609,1116.8292 Q2760.9375,1116.2823 2759.375,1116.2823 Q2757.4609,1116.2823 2755.8594,1117.1027 Q2754.2969,1117.923 2753.0469,1119.798 Q2751.8359,1121.673 2751.8359,1124.2511 L2751.8359,1126.9855 Q2751.8359,1130.0714 2754.0625,1132.1417 Q2756.2891,1134.173 2760.2734,1134.173 Q2762.6172,1134.173 2764.2578,1133.548 Q2765.2344,1133.1573 2766.2891,1132.0636 Q2766.9531,1131.3995 2767.3047,1131.2042 Q2767.6953,1131.0089 2768.2031,1131.0089 Q2769.0234,1131.0089 2769.6484,1131.673 Q2770.3125,1132.298 2770.3125,1133.1573 Q2770.3125,1134.0167 2769.4531,1135.0323 Q2768.2031,1136.4777 2766.2109,1137.298 Q2763.5156,1138.4308 2760.2734,1138.4308 Q2756.4844,1138.4308 2753.4766,1136.8683 Q2751.0156,1135.6183 2749.2969,1132.962 Q2747.5781,1130.2667 2747.5781,1127.0636 L2747.5781,1124.173 Q2747.5781,1120.8527 2749.1016,1118.0011 Q2750.6641,1115.1105 2753.3984,1113.587 Q2756.1328,1112.0245 2759.2188,1112.0245 Q2761.0547,1112.0245 2762.6563,1112.4542 Q2764.2969,1112.8448 2765.6641,1113.7433 Z " fill="#000000"/><text fill="#000000" font-family="Arial" font-size="30" font-style="italic" lengthAdjust="spacing" textLength="71.7188" x="2833.9526" y="1113.3862">&#171;util&#187;</text><text fill="#000000" font-family="Arial" font-size="37.5" lengthAdjust="spacing" textLength="152.124" x="2793.75" y="1154.9182">DateUtils</text><line style="stroke:#777777;stroke-width:1.25;" x1="2723.75" x2="2950.874" y1="1175.365" y2="1175.365"/></g><!--class ImageHelper--><g id="elem_ImageHelper"><rect codeLine="62" fill="#EFEFEF" height="122.6184" id="ImageHelper" rx="6.25" ry="6.25" style="stroke:#777777;stroke-width:1.25;" width="294.6912" x="3000" y="1072.7466"/><ellipse cx="3037.5" cy="1124.0558" fill="#ADD1B2" rx="27.5" ry="27.5" style="stroke:#181818;stroke-width:2.5;"/><path d="M3044.4141,1113.7433 Q3044.8047,1113.1964 3045.2734,1112.923 Q3045.7422,1112.6495 3046.2891,1112.6495 Q3047.2266,1112.6495 3047.8125,1113.3136 Q3048.3984,1113.9386 3048.3984,1115.462 L3048.3984,1119.0948 Q3048.3984,1120.6183 3047.8125,1121.2823 Q3047.2266,1121.9464 3046.2891,1121.9464 Q3045.4297,1121.9464 3044.9219,1121.4386 Q3044.4141,1120.9698 3044.1406,1119.6808 Q3044.0234,1118.7823 3043.5547,1118.3136 Q3042.7344,1117.3761 3041.2109,1116.8292 Q3039.6875,1116.2823 3038.125,1116.2823 Q3036.2109,1116.2823 3034.6094,1117.1027 Q3033.0469,1117.923 3031.7969,1119.798 Q3030.5859,1121.673 3030.5859,1124.2511 L3030.5859,1126.9855 Q3030.5859,1130.0714 3032.8125,1132.1417 Q3035.0391,1134.173 3039.0234,1134.173 Q3041.3672,1134.173 3043.0078,1133.548 Q3043.9844,1133.1573 3045.0391,1132.0636 Q3045.7031,1131.3995 3046.0547,1131.2042 Q3046.4453,1131.0089 3046.9531,1131.0089 Q3047.7734,1131.0089 3048.3984,1131.673 Q3049.0625,1132.298 3049.0625,1133.1573 Q3049.0625,1134.0167 3048.2031,1135.0323 Q3046.9531,1136.4777 3044.9609,1137.298 Q3042.2656,1138.4308 3039.0234,1138.4308 Q3035.2344,1138.4308 3032.2266,1136.8683 Q3029.7656,1135.6183 3028.0469,1132.962 Q3026.3281,1130.2667 3026.3281,1127.0636 L3026.3281,1124.173 Q3026.3281,1120.8527 3027.8516,1118.0011 Q3029.4141,1115.1105 3032.1484,1113.587 Q3034.8828,1112.0245 3037.9688,1112.0245 Q3039.8047,1112.0245 3041.4063,1112.4542 Q3043.0469,1112.8448 3044.4141,1113.7433 Z " fill="#000000"/><text fill="#000000" font-family="Arial" font-size="30" font-style="italic" lengthAdjust="spacing" textLength="71.7188" x="3143.9862" y="1113.3862">&#171;util&#187;</text><text fill="#000000" font-family="Arial" font-size="37.5" lengthAdjust="spacing" textLength="214.6912" x="3072.5" y="1154.9182">ImageHelper</text><line style="stroke:#777777;stroke-width:1.25;" x1="3002.5" x2="3292.1912" y1="1175.365" y2="1175.365"/></g><polygon fill="#181818" points="797.5,392.4431,807.5,369.9431,797.5,379.9431,787.5,369.9431,797.5,392.4431" style="stroke:#181818;stroke-width:2.5;"/><path d="M797.5,302.9027 C797.5,330.9398 797.5,349.3872 797.5,377.4431 " fill="none" style="stroke:#181818;stroke-width:2.5;stroke-dasharray:7.0,7.0;"/><polygon fill="#181818" points="1164.7656,392.6944,1147.663,374.9813,1153.1792,388.0033,1140.1573,393.5195,1164.7656,392.6944" style="stroke:#181818;stroke-width:2.5;"/><path d="M937.5429,300.6969 C1008.0791,329.2554 1079.6155,358.2189 1150.8619,387.0651 " fill="none" style="stroke:#181818;stroke-width:2.5;stroke-dasharray:7.0,7.0;"/><polygon fill="#181818" points="436.289,392.415,460.9012,393.1133,447.851,387.6642,453.3,374.614,436.289,392.415" style="stroke:#181818;stroke-width:2.5;"/><path d="M657.5,301.5213 C588.6119,329.8268 519.5553,358.2016 450.1634,386.7141 " fill="none" style="stroke:#181818;stroke-width:2.5;stroke-dasharray:7.0,7.0;"/><polygon fill="#181818" points="3625.4922,654.9452,3603.6999,643.4846,3613.0194,654.1217,3602.3823,663.4412,3625.4922,654.9452" style="stroke:#181818;stroke-width:2.5;"/><path d="M1018.8103,511.6461 C1026.7847,512.9698 1034.6995,514.1783 1042.5,515.2466 C1281.5437,547.983 1344.005,523.6286 1585,535.2466 C2328.0964,571.0701 3191.1828,626.2704 3610.5248,653.957 " fill="none" style="stroke:#181818;stroke-width:2.5;stroke-dasharray:7.0,7.0;"/><polygon fill="#181818" points="3625.661,650.7862,3604.0758,638.94,3613.2047,649.7411,3602.4037,658.87,3625.661,650.7862" style="stroke:#181818;stroke-width:2.5;"/><path d="M1555.7033,477.1117 C2044.8755,518.1544 3120.6118,608.4113 3610.7135,649.5321 " fill="none" style="stroke:#181818;stroke-width:2.5;stroke-dasharray:7.0,7.0;"/><polygon fill="#181818" points="664.5931,612.5942,647.7134,594.6686,653.0664,607.7586,639.9764,613.1115,664.5931,612.5942" style="stroke:#181818;stroke-width:2.5;"/><path d="M433.2208,515.5307 C505.2286,545.7388 578.7979,576.6021 650.761,606.7914 " fill="none" style="stroke:#181818;stroke-width:2.5;stroke-dasharray:7.0,7.0;"/><polygon fill="#181818" points="2706.8679,832.6972,2691.6313,813.3556,2695.8114,826.8659,2682.3011,831.046,2706.8679,832.6972" style="stroke:#181818;stroke-width:2.5;"/><path d="M1024.1037,676.0439 C1419.9502,676.9738 2238.8432,687.3817 2515,755.2466 C2581.914,771.6906 2638.7838,796.7886 2693.6001,825.6996 " fill="none" style="stroke:#181818;stroke-width:2.5;stroke-dasharray:7.0,7.0;"/><ellipse cx="805" cy="756.3861" fill="#FFFFFF" rx="20" ry="20" style="stroke:#181818;stroke-width:2.5;"/><line style="stroke:#181818;stroke-width:2.5;" x1="805" x2="805" y1="776.3861" y2="736.3861"/><line style="stroke:#181818;stroke-width:2.5;" x1="785" x2="825" y1="756.3861" y2="756.3861"/><path d="M805,776.3861 C805,806.4549 805,802.7516 805,832.6714 " fill="none" style="stroke:#181818;stroke-width:2.5;"/><polygon fill="#181818" points="4030.0343,1312.707,4053.4774,1305.1789,4039.3578,1304.3809,4040.1557,1290.2613,4030.0343,1312.707" style="stroke:#181818;stroke-width:2.5;"/><path d="M4118.8823,675.7525 C4702.5475,675.2036 6126.1824,681.4724 6197.5,755.2466 C6342.5948,905.3391 6274.5515,1097.0158 6102.5,1215.2466 C6057.8554,1245.9255 4203.7625,1217.7398 4152.5,1235.2466 C4106.5086,1250.9532 4074.0281,1273.4196 4041.2225,1302.7157 " fill="none" style="stroke:#181818;stroke-width:2.5;stroke-dasharray:7.0,7.0;"/><polygon fill="#181818" points="2314.3406,832.5569,2338.9613,832.8248,2325.8178,827.6047,2331.0378,814.4612,2314.3406,832.5569" style="stroke:#181818;stroke-width:2.5;"/><path d="M3625.7755,682.0031 C3299.3895,690.8598 2742.114,711.8673 2542.5,755.2466 C2464.281,772.2448 2394.3302,798.043 2328.1132,826.6143 " fill="none" style="stroke:#181818;stroke-width:2.5;stroke-dasharray:7.0,7.0;"/><polygon fill="#181818" points="5121.5709,832.6096,5107.1924,812.6219,5110.7793,826.3016,5097.0996,829.8886,5121.5709,832.6096" style="stroke:#181818;stroke-width:2.5;"/><path d="M4119.2102,683.006 C4387.9219,692.1346 4799.5305,712.6516 4950,755.2466 C5010.2738,772.3089 5059.7661,796.4831 5108.621,825.04 " fill="none" style="stroke:#181818;stroke-width:2.5;stroke-dasharray:7.0,7.0;"/><polygon fill="#181818" points="4544.7635,832.4069,4529.036,813.4623,4533.5611,826.8609,4520.1625,831.3861,4544.7635,832.4069" style="stroke:#181818;stroke-width:2.5;"/><path d="M4119.671,703.546 C4196.8381,715.4603 4281.5992,732.1647 4357.5,755.2466 C4421.6338,774.7501 4476.4093,798.5668 4531.3207,825.7518 " fill="none" style="stroke:#181818;stroke-width:2.5;stroke-dasharray:7.0,7.0;"/><polygon fill="#181818" points="3687.6253,832.3713,3711.273,825.5131,3697.1818,824.3139,3698.3811,810.2227,3687.6253,832.3713" style="stroke:#181818;stroke-width:2.5;"/><path d="M3802.1451,735.8154 C3766.4697,765.8947 3734.7361,792.6504 3699.0931,822.7024 " fill="none" style="stroke:#181818;stroke-width:2.5;stroke-dasharray:7.0,7.0;"/><polygon fill="#181818" points="4059.1872,832.3713,4048.3252,810.2746,4049.5921,824.3599,4035.5068,825.6268,4059.1872,832.3713" style="stroke:#181818;stroke-width:2.5;"/><path d="M3943.5446,735.8154 C3979.5698,765.8947 4011.6806,792.7056 4047.6731,822.7576 " fill="none" style="stroke:#181818;stroke-width:2.5;stroke-dasharray:7.0,7.0;"/><polygon fill="#181818" points="2884.269,1072.5076,2906.7747,1062.5206,2892.6506,1063.2341,2891.9372,1049.11,2884.269,1072.5076" style="stroke:#181818;stroke-width:2.5;"/><path d="M3625.8434,683.6255 C3530.8382,693.6699 3423.4049,714.2649 3332.5,755.2466 C3194.5026,817.4584 3208.4801,908.7409 3072.5,975.2466 C3033.7397,994.2036 3015.5776,974.9531 2977.5,995.2466 C2941.8825,1014.229 2919.185,1033.8763 2894.327,1061.3794 " fill="none" style="stroke:#181818;stroke-width:2.5;stroke-dasharray:7.0,7.0;"/><ellipse cx="4139.1987" cy="679.6335" fill="#FFFFFF" rx="20" ry="20" style="stroke:#181818;stroke-width:2.5;"/><line style="stroke:#181818;stroke-width:2.5;" x1="4159.1963" x2="4119.2011" y1="679.9449" y2="679.3222"/><line style="stroke:#181818;stroke-width:2.5;" x1="4138.8873" x2="4139.5101" y1="699.6311" y2="659.636"/><path d="M4159.1963,679.9449 C4542.079,685.9069 5221.4484,703.2172 5472.5,755.2466 C5553.1463,771.9602 5639.6158,803.8765 5707.8694,832.619 " fill="none" style="stroke:#181818;stroke-width:2.5;"/><ellipse cx="5148.3451" cy="970.948" fill="#FFFFFF" rx="20" ry="20" style="stroke:#181818;stroke-width:2.5;"/><line style="stroke:#181818;stroke-width:2.5;" x1="5135.2895" x2="5161.4007" y1="986.0989" y2="955.797"/><line style="stroke:#181818;stroke-width:2.5;" x1="5133.1941" x2="5163.496" y1="957.8923" y2="984.0036"/><path d="M5135.2895,986.0989 C5104.592,1021.7231 5091.7775,1036.5943 5061.083,1072.2151 " fill="none" style="stroke:#181818;stroke-width:2.5;"/><ellipse cx="5367.6885" cy="963.4127" fill="#FFFFFF" rx="20" ry="20" style="stroke:#181818;stroke-width:2.5;"/><line style="stroke:#181818;stroke-width:2.5;" x1="5386.0539" x2="5349.323" y1="971.3317" y2="955.4937"/><line style="stroke:#181818;stroke-width:2.5;" x1="5359.7694" x2="5375.6075" y1="981.7781" y2="945.0473"/><path d="M5386.0539,971.3317 C5468.9808,1007.0892 5537.6835,1036.7133 5620.6207,1072.4752 " fill="none" style="stroke:#181818;stroke-width:2.5;"/><polygon fill="#181818" points="3593.8127,1312.2492,3598.2716,1288.0342,3590.8885,1300.096,3578.8266,1292.7129,3593.8127,1312.2492" style="stroke:#181818;stroke-width:2.5;"/><path d="M3587.3976,955.8082 C3582.2604,968.5151 3577.7121,982.0847 3575,995.2466 C3552.2279,1105.7623 3572.3463,1223.034 3590.3036,1297.6654 " fill="none" style="stroke:#181818;stroke-width:2.5;stroke-dasharray:7.0,7.0;"/><polygon fill="#181818" points="4423.8551,1370.2145,4446.4893,1379.9071,4436.354,1370.0442,4446.2168,1359.9089,4423.8551,1370.2145" style="stroke:#181818;stroke-width:2.5;"/><path d="M3802.1754,955.436 C3834.4746,963.5937 3867.9874,970.72 3900,975.2466 C3930.2902,979.5297 6080.9669,973.5171 6102.5,995.2466 C6171.3247,1064.6991 6168.5864,1143.1836 6102.5,1215.2466 C5989.251,1338.7372 4827.5607,1364.7149 4438.8538,1370.0102 " fill="none" style="stroke:#181818;stroke-width:2.5;stroke-dasharray:7.0,7.0;"/><polygon fill="#181818" points="3213.8528,1072.1683,3237.5805,1065.5922,3223.5046,1064.2252,3224.8715,1050.1493,3213.8528,1072.1683" style="stroke:#181818;stroke-width:2.5;"/><path d="M3414.0122,955.4832 C3383.4754,967.0909 3352.8994,980.3606 3325,995.2466 C3285.5845,1016.2771 3257.3445,1036.3762 3225.4349,1062.6366 " fill="none" style="stroke:#181818;stroke-width:2.5;stroke-dasharray:7.0,7.0;"/><polygon fill="#181818" points="3596.7434,1312.0569,3602.6767,1288.1603,3594.5689,1299.7475,3582.9817,1291.6397,3596.7434,1312.0569" style="stroke:#181818;stroke-width:2.5;"/><path d="M4458.6831,955.2625 C4425.1926,963.3253 4390.5486,970.4656 4357.5,975.2466 C4318.9961,980.8167 3686.3114,969.1031 3657.5,995.2466 C3569.9787,1074.6635 3579.2299,1212.9197 3594.1339,1297.2856 " fill="none" style="stroke:#181818;stroke-width:2.5;stroke-dasharray:7.0,7.0;"/><polygon fill="#181818" points="3204.9325,1072.1764,3228.3402,1064.5388,3214.217,1063.8069,3214.949,1049.6837,3204.9325,1072.1764" style="stroke:#181818;stroke-width:2.5;"/><path d="M4459.5238,955.3301 C4425.7798,963.4419 4390.8348,970.5806 4357.5,975.2466 C4243.8641,991.1525 3433.2887,957.3035 3325,995.2466 C3279.9051,1011.0473 3248.3091,1033.0745 3216.0739,1062.1329 " fill="none" style="stroke:#181818;stroke-width:2.5;stroke-dasharray:7.0,7.0;"/><ellipse cx="4505.5856" cy="963.6973" fill="#FFFFFF" rx="20" ry="20" style="stroke:#181818;stroke-width:2.5;"/><line style="stroke:#181818;stroke-width:2.5;" x1="4487.3455" x2="4523.8256" y1="971.901" y2="955.4937"/><line style="stroke:#181818;stroke-width:2.5;" x1="4497.3819" x2="4513.7892" y1="945.4573" y2="981.9374"/><path d="M4487.3455,971.901 C4407.8421,1007.6585 4343.2415,1036.7133 4263.7284,1072.4752 " fill="none" style="stroke:#181818;stroke-width:2.5;"/><polygon fill="#181818" points="4254.1784,1312.2516,4246.5089,1288.8544,4245.7962,1302.9786,4231.672,1302.266,4254.1784,1312.2516" style="stroke:#181818;stroke-width:2.5;"/><path d="M2718.2102,956.0297 C2706.7923,967.6301 2696.7512,980.7538 2690,995.2466 C2648.7118,1083.8794 2621.335,1145.6362 2690,1215.2466 C2718.5318,1244.1712 4114.7653,1220.187 4152.5,1235.2466 C4192.3246,1251.1402 4217.872,1272.0868 4244.1198,1301.124 " fill="none" style="stroke:#181818;stroke-width:2.5;stroke-dasharray:7.0,7.0;"/><polygon fill="#181818" points="2829.9322,1072.2151,2837.0024,1048.6299,2828.3493,1059.8158,2817.1634,1051.1626,2829.9322,1072.2151" style="stroke:#181818;stroke-width:2.5;"/><path d="M2815.0703,955.797 C2819.618,991.4212 2823.4853,1021.715 2828.0327,1057.3359 " fill="none" style="stroke:#181818;stroke-width:2.5;stroke-dasharray:7.0,7.0;"/><polygon fill="#181818" points="3076.9699,1072.2458,3065.7722,1050.3173,3067.2537,1064.3816,3053.1894,1065.8631,3076.9699,1072.2458" style="stroke:#181818;stroke-width:2.5;"/><path d="M2912.5161,955.4511 C2933.5377,968.0736 2955.2269,981.7013 2975,995.2466 C3009.6325,1018.9711 3034.6922,1038.0263 3065.3105,1062.8087 " fill="none" style="stroke:#181818;stroke-width:2.5;stroke-dasharray:7.0,7.0;"/><polygon fill="#181818" points="3913.1704,1312.1187,3902.8245,1289.7757,3903.764,1303.8866,3889.6531,1304.826,3913.1704,1312.1187" style="stroke:#181818;stroke-width:2.5;"/><path d="M2441.469,955.2476 C2465.02,966.3669 2487.5147,979.5711 2507.5,995.2466 C2597.3116,1065.69 2541.1187,1158.23 2640,1215.2466 C2695.3553,1247.1654 3729.5358,1214.5801 3790,1235.2466 C3836.0203,1250.9761 3868.6604,1273.1653 3901.8827,1302.2402 " fill="none" style="stroke:#181818;stroke-width:2.5;stroke-dasharray:7.0,7.0;"/><polygon fill="#181818" points="2743.9445,1072.405,2729.6074,1052.3876,2733.166,1066.0747,2719.4789,1069.6333,2743.9445,1072.405" style="stroke:#181818;stroke-width:2.5;"/><path d="M2469.4323,955.5305 C2510.4148,967.0434 2551.6932,980.2726 2590,995.2466 C2642.9926,1015.9612 2685.8437,1038.2819 2731.0103,1064.8086 " fill="none" style="stroke:#181818;stroke-width:2.5;stroke-dasharray:7.0,7.0;"/><polygon fill="#181818" points="3091.807,1072.678,3082.0687,1050.0634,3082.6264,1064.1946,3068.4953,1064.7523,3091.807,1072.678" style="stroke:#181818;stroke-width:2.5;"/><path d="M2426.9545,955.3287 C2465.3808,963.1644 2504.8976,970.2157 2542.5,975.2466 C2637.8641,988.0056 2884.8649,961.5901 2975,995.2466 C3018.9748,1011.6668 3049.4976,1033.5815 3080.7903,1062.4979 " fill="none" style="stroke:#181818;stroke-width:2.5;stroke-dasharray:7.0,7.0;"/><ellipse cx="2144.436" cy="972.979" fill="#FFFFFF" rx="20" ry="20" style="stroke:#181818;stroke-width:2.5;"/><line style="stroke:#181818;stroke-width:2.5;" x1="2134.1999" x2="2154.6721" y1="990.1611" y2="955.797"/><line style="stroke:#181818;stroke-width:2.5;" x1="2127.254" x2="2161.618" y1="962.7429" y2="983.2151"/><path d="M2134.1999,990.1611 C2112.9769,1025.7853 2106.5375,1036.5943 2085.3166,1072.2151 " fill="none" style="stroke:#181818;stroke-width:2.5;"/><polygon fill="#181818" points="3677.2063,1312.1621,3700.994,1305.8062,3686.9313,1304.3089,3688.4287,1290.2462,3677.2063,1312.1621" style="stroke:#181818;stroke-width:2.5;"/><path d="M3889.7086,1195.3534 C3856.3152,1206.7871 3823.038,1220.041 3792.5,1235.2466 C3751.4418,1255.6904 3721.7913,1276.1583 3688.8763,1302.7382 " fill="none" style="stroke:#181818;stroke-width:2.5;stroke-dasharray:7.0,7.0;"/><text fill="#000000" font-family="Arial" font-size="35" lengthAdjust="spacing" textLength="1445.4932" x="2363.5034" y="1495.5762">Current Java source. Child flow uses QR scan, then child selection, then the child dashboard.</text><!--SRC=[ZLLTJniv57tthxZDFhP4BBGi3nLI4fY5gcmBTFVTp5mI2uyziZqWMlM_h-tCXvcnPqYaAF8zz_ZUw-FZTvMYsv82fo-oDg1BD5HGeX-PgAYY9HGLWwEFXy6Atj52FZEnXGVADGOHpWIQbmf1AhEJGI3dLEkLCOhTrmQlSYdks4-4aBN01rfpaqbX_g4bmaenoeSKBkep__mKX2gQFz8jzi7J8BXIIZxteQCXvTecRvMiHR6HNAhFdtMk4CNP6VnnlhcuoB9HWbG5gX7uA3l9LiUpxAKia3lynL7swU9aahp37gzFrn-pMMvQqCgWSXbPbXslfqiFqEkJqzNXuIn_RTY-zCnz9ybRw5_-CylCXEZgpcP6tc5F_8ViM860PMLUm8ft9mjD33CS8QCbuo_mW-f73GUmgPL2OM3Z6E7R4wedXiyajrDWKdJXB_I9WfQrod49cntZ1Jnm-GorHWqtjw1pAZw0sQ60t4SrSimTHRDgVvf8GVNkNb9LB0bfD0eBMflTejKM_2A-GRYcJAmionEpRVIoQgBVgIljgzmoaRdhwkfCW6vnoxGzrZJEztHpEyFcKNTjQ-dI5d7WqYzV6ImNG3LqyMuPkeCaluFfLBw9yNpspPst0qtNSstTQuj-6vkHnlsDTdDgyEOsZLbfpRR2wUU7z8np9-IXLehS4iUmAEeI5ebUbXdZzk2kxQNtCzl3-iLWOiteuxqEHX-01dD_0yjNgwNLtYSysN0H0Xjf-TAZMBOBGzh8-YlcK27-Qeq5uYkRr4T8qb3hHUkKAQ6vDcPxZQ6Nxlz_rc0k9I-QDll9z85adzxyNO7xXw8hS2zAz7j1zqQ4KuX6mlC8Wk6EphFzXjxUkmtFRSQ_BWIjhJU1gzAcNIAlV1TDo1A-yhBbyYncNodGqBx6k9XzaPX1zgGZMP24LqwbaAXlTXMD790a7BJB66-Ho7X_S10nK49IdkXs25Ko2KmhU38jRXfls2dc2s_e96B2arbZUv-4TnfFejmX31tPIJtwsZZmq2gdi0EF9YJzyhXgmndEG3j3cC45TxaLLlGn6sq_Wmrv9w1k2957eBbqyJFhMvi0zGSx0Oeq7tq0vYxM49jKrH0udb8KsclmzHj2IEm17HxL_m00]--></g></svg>