<?plantuml 1.2026.2?><svg xmlns="http://www.w3.org/2000/svg" xmlns:xlink="http://www.w3.org/1999/xlink" contentStyleType="text/css" data-diagram-type="CLASS" height="692.5px" preserveAspectRatio="none" style="width:4472px;height:692px;background:#FFFFFF;" version="1.1" viewBox="0 0 4472 692" width="4472.5px" zoomAndPan="magnify"><title>Family Tasks - Adapter Classes</title><defs/><g><g class="title" data-source-line="15"><text fill="#000000" font-family="Arial" font-size="35" font-weight="bold" lengthAdjust="spacing" textLength="525.2393" x="1953.6304" y="57.8296">Family Tasks - Adapter Classes</text></g><!--cluster adapters--><g class="cluster" data-qualified-name="adapters" data-source-line="18" id="ent0002"><path d="M41.25,102.7466 L231.3306,102.7466 A9.375,9.375 0 0 1 237.5806,108.9966 L255.0806,169.4922 L3416.25,169.4922 A6.25,6.25 0 0 1 3422.5,175.7422 L3422.5,616.4966 A6.25,6.25 0 0 1 3416.25,622.7466 L41.25,622.7466 A6.25,6.25 0 0 1 35,616.4966 L35,108.9966 A6.25,6.25 0 0 1 41.25,102.7466" fill="#FFF3BF" style="stroke:#000000;stroke-width:3.75;"/><line style="stroke:#000000;stroke-width:3.75;" x1="35" x2="255.0806" y1="169.4922" y2="169.4922"/><text fill="#000000" font-family="Arial" font-size="45" font-weight="bold" lengthAdjust="spacing" textLength="187.5806" x="45" y="149.9561">adapters</text></g><!--cluster models--><g class="cluster" data-qualified-name="models" data-source-line="35" id="ent0011"><path d="M3448.75,402.7466 L3608.7939,402.7466 A9.375,9.375 0 0 1 3615.0439,408.9966 L3632.5439,469.4922 L4448.75,469.4922 A6.25,6.25 0 0 1 4455,475.7422 L4455,616.4966 A6.25,6.25 0 0 1 4448.75,622.7466 L3448.75,622.7466 A6.25,6.25 0 0 1 3442.5,616.4966 L3442.5,408.9966 A6.25,6.25 0 0 1 3448.75,402.7466" fill="#E2F5E6" style="stroke:#000000;stroke-width:3.75;"/><line style="stroke:#000000;stroke-width:3.75;" x1="3442.5" x2="3632.5439" y1="469.4922" y2="469.4922"/><text fill="#000000" font-family="Arial" font-size="45" font-weight="bold" lengthAdjust="spacing" textLength="157.5439" x="3452.5" y="449.9561">models</text></g><!--class ChildTaskAdapter--><g class="entity" data-qualified-name="adapters.ChildTaskAdapter" data-source-line="19" id="ent0003"><rect fill="#FFF3BF" height="203.1116" rx="6.25" ry="6.25" style="stroke:#B68A00;stroke-width:1.25;" width="603.9282" x="1847.5" y="180.2466"/><ellipse cx="1989.8096" cy="231.5558" fill="#ADD1B2" rx="27.5" ry="27.5" style="stroke:#181818;stroke-width:2.5;"/><path d="M1996.7236,221.2433 Q1997.1143,220.6964 1997.583,220.423 Q1998.0518,220.1495 1998.5986,220.1495 Q1999.5361,220.1495 2000.1221,220.8136 Q2000.708,221.4386 2000.708,222.962 L2000.708,226.5948 Q2000.708,228.1183 2000.1221,228.7823 Q1999.5361,229.4464 1998.5986,229.4464 Q1997.7393,229.4464 1997.2314,228.9386 Q1996.7236,228.4698 1996.4502,227.1808 Q1996.333,226.2823 1995.8643,225.8136 Q1995.0439,224.8761 1993.5205,224.3292 Q1991.9971,223.7823 1990.4346,223.7823 Q1988.5205,223.7823 1986.9189,224.6027 Q1985.3564,225.423 1984.1064,227.298 Q1982.8955,229.173 1982.8955,231.7511 L1982.8955,234.4855 Q1982.8955,237.5714 1985.1221,239.6417 Q1987.3486,241.673 1991.333,241.673 Q1993.6768,241.673 1995.3174,241.048 Q1996.2939,240.6573 1997.3486,239.5636 Q1998.0127,238.8995 1998.3643,238.7042 Q1998.7549,238.5089 1999.2627,238.5089 Q2000.083,238.5089 2000.708,239.173 Q2001.3721,239.798 2001.3721,240.6573 Q2001.3721,241.5167 2000.5127,242.5323 Q1999.2627,243.9777 1997.2705,244.798 Q1994.5752,245.9308 1991.333,245.9308 Q1987.5439,245.9308 1984.5361,244.3683 Q1982.0752,243.1183 1980.3564,240.462 Q1978.6377,237.7667 1978.6377,234.5636 L1978.6377,231.673 Q1978.6377,228.3527 1980.1611,225.5011 Q1981.7236,222.6105 1984.458,221.087 Q1987.1924,219.5245 1990.2783,219.5245 Q1992.1143,219.5245 1993.7158,219.9542 Q1995.3564,220.3448 1996.7236,221.2433 Z " fill="#000000"/><text fill="#000000" font-family="Arial" font-size="30" font-style="italic" lengthAdjust="spacing" textLength="135.1172" x="2122.5305" y="220.8862">&#171;adapter&#187;</text><text fill="#000000" font-family="Arial" font-size="37.5" lengthAdjust="spacing" textLength="298.0591" x="2041.0596" y="262.4182">ChildTaskAdapter</text><line style="stroke:#B68A00;stroke-width:1.25;" x1="1850" x2="2448.9282" y1="282.865" y2="282.865"/><text fill="#000000" font-family="Arial" font-size="35" lengthAdjust="spacing" textLength="373.4644" x="1862.5" y="325.6946">-tasks : List&lt;ChildTask&gt;</text><text fill="#000000" font-family="Arial" font-size="35" lengthAdjust="spacing" textLength="573.9282" x="1862.5" y="365.9412">-doneListener : OnTaskDoneListener</text></g><!--class OnTaskDoneListener--><g class="entity" data-qualified-name="adapters.OnTaskDoneListener" data-source-line="23" id="ent0004"><rect fill="#FFF3BF" height="122.6184" rx="6.25" ry="6.25" style="stroke:#B68A00;stroke-width:1.25;" width="742.8235" x="1951.25" y="480.2466"/><ellipse cx="1988.75" cy="531.5558" fill="#B4A7E5" rx="27.5" ry="27.5" style="stroke:#181818;stroke-width:2.5;"/><path d="M1991.1328,523.1573 L1991.1328,539.798 L1995.4297,539.798 Q1996.9531,539.798 1997.6172,540.3839 Q1998.2813,540.9698 1998.2813,541.9464 Q1998.2813,542.8839 1997.6172,543.4698 Q1996.9531,544.0558 1995.4297,544.0558 L1982.5781,544.0558 Q1981.0547,544.0558 1980.3906,543.4698 Q1979.7266,542.8839 1979.7266,541.9073 Q1979.7266,540.9698 1980.3906,540.3839 Q1981.0547,539.798 1982.5781,539.798 L1986.875,539.798 L1986.875,523.1573 L1982.5781,523.1573 Q1981.0547,523.1573 1980.3906,522.5714 Q1979.7266,521.9855 1979.7266,521.0089 Q1979.7266,520.0714 1980.3906,519.4855 Q1981.0547,518.8995 1982.5781,518.8995 L1995.4297,518.8995 Q1996.9531,518.8995 1997.6172,519.4855 Q1998.2813,520.0714 1998.2813,521.0089 Q1998.2813,521.9855 1997.6172,522.5714 Q1996.9531,523.1573 1995.4297,523.1573 L1991.1328,523.1573 Z " fill="#000000"/><text fill="#000000" font-family="Arial" font-size="30" font-style="italic" lengthAdjust="spacing" textLength="135.1172" x="2287.6031" y="520.8862">&#171;adapter&#187;</text><text fill="#000000" font-family="Arial" font-size="37.5" font-style="italic" lengthAdjust="spacing" textLength="662.8235" x="2023.75" y="562.4182">ChildTaskAdapter.OnTaskDoneListener</text><line style="stroke:#B68A00;stroke-width:1.25;" x1="1953.75" x2="2691.5735" y1="582.865" y2="582.865"/></g><!--class ChildTaskViewHolder--><g class="entity" data-qualified-name="adapters.ChildTaskViewHolder" data-source-line="24" id="ent0005"><rect fill="#FFF3BF" height="122.6184" rx="6.25" ry="6.25" style="stroke:#B68A00;stroke-width:1.25;" width="661.488" x="2738.75" y="480.2466"/><ellipse cx="2776.25" cy="531.5558" fill="#ADD1B2" rx="27.5" ry="27.5" style="stroke:#181818;stroke-width:2.5;"/><path d="M2783.1641,521.2433 Q2783.5547,520.6964 2784.0234,520.423 Q2784.4922,520.1495 2785.0391,520.1495 Q2785.9766,520.1495 2786.5625,520.8136 Q2787.1484,521.4386 2787.1484,522.962 L2787.1484,526.5948 Q2787.1484,528.1183 2786.5625,528.7823 Q2785.9766,529.4464 2785.0391,529.4464 Q2784.1797,529.4464 2783.6719,528.9386 Q2783.1641,528.4698 2782.8906,527.1808 Q2782.7734,526.2823 2782.3047,525.8136 Q2781.4844,524.8761 2779.9609,524.3292 Q2778.4375,523.7823 2776.875,523.7823 Q2774.9609,523.7823 2773.3594,524.6027 Q2771.7969,525.423 2770.5469,527.298 Q2769.3359,529.173 2769.3359,531.7511 L2769.3359,534.4855 Q2769.3359,537.5714 2771.5625,539.6417 Q2773.7891,541.673 2777.7734,541.673 Q2780.1172,541.673 2781.7578,541.048 Q2782.7344,540.6573 2783.7891,539.5636 Q2784.4531,538.8995 2784.8047,538.7042 Q2785.1953,538.5089 2785.7031,538.5089 Q2786.5234,538.5089 2787.1484,539.173 Q2787.8125,539.798 2787.8125,540.6573 Q2787.8125,541.5167 2786.9531,542.5323 Q2785.7031,543.9777 2783.7109,544.798 Q2781.0156,545.9308 2777.7734,545.9308 Q2773.9844,545.9308 2770.9766,544.3683 Q2768.5156,543.1183 2766.7969,540.462 Q2765.0781,537.7667 2765.0781,534.5636 L2765.0781,531.673 Q2765.0781,528.3527 2766.6016,525.5011 Q2768.1641,522.6105 2770.8984,521.087 Q2773.6328,519.5245 2776.7188,519.5245 Q2778.5547,519.5245 2780.1563,519.9542 Q2781.7969,520.3448 2783.1641,521.2433 Z " fill="#000000"/><text fill="#000000" font-family="Arial" font-size="30" font-style="italic" lengthAdjust="spacing" textLength="135.1172" x="3034.4354" y="520.8862">&#171;adapter&#187;</text><text fill="#000000" font-family="Arial" font-size="37.5" lengthAdjust="spacing" textLength="581.488" x="2811.25" y="562.4182">ChildTaskAdapter.TaskViewHolder</text><line style="stroke:#B68A00;stroke-width:1.25;" x1="2741.25" x2="3397.738" y1="582.865" y2="582.865"/></g><!--class ParentDashboardTaskAdapter--><g class="entity" data-qualified-name="adapters.ParentDashboardTaskAdapter" data-source-line="25" id="ent0006"><rect fill="#FFF3BF" height="203.1116" rx="6.25" ry="6.25" style="stroke:#B68A00;stroke-width:1.25;" width="586.543" x="408.75" y="180.2466"/><ellipse cx="446.25" cy="231.5558" fill="#ADD1B2" rx="27.5" ry="27.5" style="stroke:#181818;stroke-width:2.5;"/><path d="M453.1641,221.2433 Q453.5547,220.6964 454.0234,220.423 Q454.4922,220.1495 455.0391,220.1495 Q455.9766,220.1495 456.5625,220.8136 Q457.1484,221.4386 457.1484,222.962 L457.1484,226.5948 Q457.1484,228.1183 456.5625,228.7823 Q455.9766,229.4464 455.0391,229.4464 Q454.1797,229.4464 453.6719,228.9386 Q453.1641,228.4698 452.8906,227.1808 Q452.7734,226.2823 452.3047,225.8136 Q451.4844,224.8761 449.9609,224.3292 Q448.4375,223.7823 446.875,223.7823 Q444.9609,223.7823 443.3594,224.6027 Q441.7969,225.423 440.5469,227.298 Q439.3359,229.173 439.3359,231.7511 L439.3359,234.4855 Q439.3359,237.5714 441.5625,239.6417 Q443.7891,241.673 447.7734,241.673 Q450.1172,241.673 451.7578,241.048 Q452.7344,240.6573 453.7891,239.5636 Q454.4531,238.8995 454.8047,238.7042 Q455.1953,238.5089 455.7031,238.5089 Q456.5234,238.5089 457.1484,239.173 Q457.8125,239.798 457.8125,240.6573 Q457.8125,241.5167 456.9531,242.5323 Q455.7031,243.9777 453.7109,244.798 Q451.0156,245.9308 447.7734,245.9308 Q443.9844,245.9308 440.9766,244.3683 Q438.5156,243.1183 436.7969,240.462 Q435.0781,237.7667 435.0781,234.5636 L435.0781,231.673 Q435.0781,228.3527 436.6016,225.5011 Q438.1641,222.6105 440.8984,221.087 Q443.6328,219.5245 446.7188,219.5245 Q448.5547,219.5245 450.1563,219.9542 Q451.7969,220.3448 453.1641,221.2433 Z " fill="#000000"/><text fill="#000000" font-family="Arial" font-size="30" font-style="italic" lengthAdjust="spacing" textLength="135.1172" x="666.9629" y="220.8862">&#171;adapter&#187;</text><text fill="#000000" font-family="Arial" font-size="37.5" lengthAdjust="spacing" textLength="506.543" x="481.25" y="262.4182">ParentDashboardTaskAdapter</text><line style="stroke:#B68A00;stroke-width:1.25;" x1="411.25" x2="992.793" y1="282.865" y2="282.865"/><text fill="#000000" font-family="Arial" font-size="35" lengthAdjust="spacing" textLength="439.6191" x="423.75" y="325.6946">-items : List&lt;AssignedTask&gt;</text><text fill="#000000" font-family="Arial" font-size="35" lengthAdjust="spacing" textLength="420.2222" x="423.75" y="365.9412">-showChildName : boolean</text></g><!--class OnItemClickListener--><g class="entity" data-qualified-name="adapters.OnItemClickListener" data-source-line="29" id="ent0007"><rect fill="#FFF3BF" height="122.6184" rx="6.25" ry="6.25" style="stroke:#B68A00;stroke-width:1.25;" width="934.5715" x="55" y="480.2466"/><ellipse cx="92.5" cy="531.5558" fill="#B4A7E5" rx="27.5" ry="27.5" style="stroke:#181818;stroke-width:2.5;"/><path d="M94.8828,523.1573 L94.8828,539.798 L99.1797,539.798 Q100.7031,539.798 101.3672,540.3839 Q102.0313,540.9698 102.0313,541.9464 Q102.0313,542.8839 101.3672,543.4698 Q100.7031,544.0558 99.1797,544.0558 L86.3281,544.0558 Q84.8047,544.0558 84.1406,543.4698 Q83.4766,542.8839 83.4766,541.9073 Q83.4766,540.9698 84.1406,540.3839 Q84.8047,539.798 86.3281,539.798 L90.625,539.798 L90.625,523.1573 L86.3281,523.1573 Q84.8047,523.1573 84.1406,522.5714 Q83.4766,521.9855 83.4766,521.0089 Q83.4766,520.0714 84.1406,519.4855 Q84.8047,518.8995 86.3281,518.8995 L99.1797,518.8995 Q100.7031,518.8995 101.3672,519.4855 Q102.0313,520.0714 102.0313,521.0089 Q102.0313,521.9855 101.3672,522.5714 Q100.7031,523.1573 99.1797,523.1573 L94.8828,523.1573 Z " fill="#000000"/><text fill="#000000" font-family="Arial" font-size="30" font-style="italic" lengthAdjust="spacing" textLength="135.1172" x="487.2272" y="520.8862">&#171;adapter&#187;</text><text fill="#000000" font-family="Arial" font-size="37.5" font-style="italic" lengthAdjust="spacing" textLength="854.5715" x="127.5" y="562.4182">ParentDashboardTaskAdapter.OnItemClickListener</text><line style="stroke:#B68A00;stroke-width:1.25;" x1="57.5" x2="987.0715" y1="582.865" y2="582.865"/></g><!--class ParentTaskViewHolder--><g class="entity" data-qualified-name="adapters.ParentTaskViewHolder" data-source-line="30" id="ent0008"><rect fill="#FFF3BF" height="122.6184" rx="6.25" ry="6.25" style="stroke:#B68A00;stroke-width:1.25;" width="869.9719" x="1035" y="480.2466"/><ellipse cx="1072.5" cy="531.5558" fill="#ADD1B2" rx="27.5" ry="27.5" style="stroke:#181818;stroke-width:2.5;"/><path d="M1079.4141,521.2433 Q1079.8047,520.6964 1080.2734,520.423 Q1080.7422,520.1495 1081.2891,520.1495 Q1082.2266,520.1495 1082.8125,520.8136 Q1083.3984,521.4386 1083.3984,522.962 L1083.3984,526.5948 Q1083.3984,528.1183 1082.8125,528.7823 Q1082.2266,529.4464 1081.2891,529.4464 Q1080.4297,529.4464 1079.9219,528.9386 Q1079.4141,528.4698 1079.1406,527.1808 Q1079.0234,526.2823 1078.5547,525.8136 Q1077.7344,524.8761 1076.2109,524.3292 Q1074.6875,523.7823 1073.125,523.7823 Q1071.2109,523.7823 1069.6094,524.6027 Q1068.0469,525.423 1066.7969,527.298 Q1065.5859,529.173 1065.5859,531.7511 L1065.5859,534.4855 Q1065.5859,537.5714 1067.8125,539.6417 Q1070.0391,541.673 1074.0234,541.673 Q1076.3672,541.673 1078.0078,541.048 Q1078.9844,540.6573 1080.0391,539.5636 Q1080.7031,538.8995 1081.0547,538.7042 Q1081.4453,538.5089 1081.9531,538.5089 Q1082.7734,538.5089 1083.3984,539.173 Q1084.0625,539.798 1084.0625,540.6573 Q1084.0625,541.5167 1083.2031,542.5323 Q1081.9531,543.9777 1079.9609,544.798 Q1077.2656,545.9308 1074.0234,545.9308 Q1070.2344,545.9308 1067.2266,544.3683 Q1064.7656,543.1183 1063.0469,540.462 Q1061.3281,537.7667 1061.3281,534.5636 L1061.3281,531.673 Q1061.3281,528.3527 1062.8516,525.5011 Q1064.4141,522.6105 1067.1484,521.087 Q1069.8828,519.5245 1072.9688,519.5245 Q1074.8047,519.5245 1076.4063,519.9542 Q1078.0469,520.3448 1079.4141,521.2433 Z " fill="#000000"/><text fill="#000000" font-family="Arial" font-size="30" font-style="italic" lengthAdjust="spacing" textLength="135.1172" x="1434.9274" y="520.8862">&#171;adapter&#187;</text><text fill="#000000" font-family="Arial" font-size="37.5" lengthAdjust="spacing" textLength="789.9719" x="1107.5" y="562.4182">ParentDashboardTaskAdapter.TaskViewHolder</text><line style="stroke:#B68A00;stroke-width:1.25;" x1="1037.5" x2="1902.4719" y1="582.865" y2="582.865"/></g><!--class ChildListAdapter--><g class="entity" data-qualified-name="adapters.ChildListAdapter" data-source-line="31" id="ent0009"><rect fill="#FFF3BF" height="122.6184" rx="6.25" ry="6.25" style="stroke:#B68A00;stroke-width:1.25;" width="759.5044" x="1042.5" y="220.2466"/><ellipse cx="1080" cy="271.5558" fill="#ADD1B2" rx="27.5" ry="27.5" style="stroke:#181818;stroke-width:2.5;"/><path d="M1086.9141,261.2433 Q1087.3047,260.6964 1087.7734,260.423 Q1088.2422,260.1495 1088.7891,260.1495 Q1089.7266,260.1495 1090.3125,260.8136 Q1090.8984,261.4386 1090.8984,262.962 L1090.8984,266.5948 Q1090.8984,268.1183 1090.3125,268.7823 Q1089.7266,269.4464 1088.7891,269.4464 Q1087.9297,269.4464 1087.4219,268.9386 Q1086.9141,268.4698 1086.6406,267.1808 Q1086.5234,266.2823 1086.0547,265.8136 Q1085.2344,264.8761 1083.7109,264.3292 Q1082.1875,263.7823 1080.625,263.7823 Q1078.7109,263.7823 1077.1094,264.6027 Q1075.5469,265.423 1074.2969,267.298 Q1073.0859,269.173 1073.0859,271.7511 L1073.0859,274.4855 Q1073.0859,277.5714 1075.3125,279.6417 Q1077.5391,281.673 1081.5234,281.673 Q1083.8672,281.673 1085.5078,281.048 Q1086.4844,280.6573 1087.5391,279.5636 Q1088.2031,278.8995 1088.5547,278.7042 Q1088.9453,278.5089 1089.4531,278.5089 Q1090.2734,278.5089 1090.8984,279.173 Q1091.5625,279.798 1091.5625,280.6573 Q1091.5625,281.5167 1090.7031,282.5323 Q1089.4531,283.9777 1087.4609,284.798 Q1084.7656,285.9308 1081.5234,285.9308 Q1077.7344,285.9308 1074.7266,284.3683 Q1072.2656,283.1183 1070.5469,280.462 Q1068.8281,277.7667 1068.8281,274.5636 L1068.8281,271.673 Q1068.8281,268.3527 1070.3516,265.5011 Q1071.9141,262.6105 1074.6484,261.087 Q1077.3828,259.5245 1080.4688,259.5245 Q1082.3047,259.5245 1083.9063,259.9542 Q1085.5469,260.3448 1086.9141,261.2433 Z " fill="#000000"/><text fill="#000000" font-family="Arial" font-size="30" font-style="italic" lengthAdjust="spacing" textLength="135.1172" x="1387.1936" y="260.8862">&#171;adapter&#187;</text><text fill="#000000" font-family="Arial" font-size="37.5" lengthAdjust="spacing" textLength="679.5044" x="1115" y="302.4182">ManageChildrenActivity.ChildListAdapter</text><line style="stroke:#B68A00;stroke-width:1.25;" x1="1045" x2="1799.5044" y1="322.865" y2="322.865"/></g><!--class TemplateListAdapter--><g class="entity" data-qualified-name="adapters.TemplateListAdapter" data-source-line="32" id="ent0010"><rect fill="#FFF3BF" height="122.6184" rx="6.25" ry="6.25" style="stroke:#B68A00;stroke-width:1.25;" width="903.2605" x="2498.75" y="220.2466"/><ellipse cx="2536.25" cy="271.5558" fill="#ADD1B2" rx="27.5" ry="27.5" style="stroke:#181818;stroke-width:2.5;"/><path d="M2543.1641,261.2433 Q2543.5547,260.6964 2544.0234,260.423 Q2544.4922,260.1495 2545.0391,260.1495 Q2545.9766,260.1495 2546.5625,260.8136 Q2547.1484,261.4386 2547.1484,262.962 L2547.1484,266.5948 Q2547.1484,268.1183 2546.5625,268.7823 Q2545.9766,269.4464 2545.0391,269.4464 Q2544.1797,269.4464 2543.6719,268.9386 Q2543.1641,268.4698 2542.8906,267.1808 Q2542.7734,266.2823 2542.3047,265.8136 Q2541.4844,264.8761 2539.9609,264.3292 Q2538.4375,263.7823 2536.875,263.7823 Q2534.9609,263.7823 2533.3594,264.6027 Q2531.7969,265.423 2530.5469,267.298 Q2529.3359,269.173 2529.3359,271.7511 L2529.3359,274.4855 Q2529.3359,277.5714 2531.5625,279.6417 Q2533.7891,281.673 2537.7734,281.673 Q2540.1172,281.673 2541.7578,281.048 Q2542.7344,280.6573 2543.7891,279.5636 Q2544.4531,278.8995 2544.8047,278.7042 Q2545.1953,278.5089 2545.7031,278.5089 Q2546.5234,278.5089 2547.1484,279.173 Q2547.8125,279.798 2547.8125,280.6573 Q2547.8125,281.5167 2546.9531,282.5323 Q2545.7031,283.9777 2543.7109,284.798 Q2541.0156,285.9308 2537.7734,285.9308 Q2533.9844,285.9308 2530.9766,284.3683 Q2528.5156,283.1183 2526.7969,280.462 Q2525.0781,277.7667 2525.0781,274.5636 L2525.0781,271.673 Q2525.0781,268.3527 2526.6016,265.5011 Q2528.1641,262.6105 2530.8984,261.087 Q2533.6328,259.5245 2536.7188,259.5245 Q2538.5547,259.5245 2540.1563,259.9542 Q2541.7969,260.3448 2543.1641,261.2433 Z " fill="#000000"/><text fill="#000000" font-family="Arial" font-size="30" font-style="italic" lengthAdjust="spacing" textLength="135.1172" x="2915.3217" y="260.8862">&#171;adapter&#187;</text><text fill="#000000" font-family="Arial" font-size="37.5" lengthAdjust="spacing" textLength="823.2605" x="2571.25" y="302.4182">ParentTaskTemplateActivity.TemplateListAdapter</text><line style="stroke:#B68A00;stroke-width:1.25;" x1="2501.25" x2="3399.5105" y1="322.865" y2="322.865"/></g><!--class ChildTask--><g class="entity" data-qualified-name="models.ChildTask" data-source-line="36" id="ent0012"><rect fill="#E2F5E6" height="122.6184" rx="6.25" ry="6.25" style="stroke:#3B8B4F;stroke-width:1.25;" width="246.7175" x="3823.75" y="480.2466"/><ellipse cx="3861.25" cy="531.5558" fill="#ADD1B2" rx="27.5" ry="27.5" style="stroke:#181818;stroke-width:2.5;"/><path d="M3868.1641,521.2433 Q3868.5547,520.6964 3869.0234,520.423 Q3869.4922,520.1495 3870.0391,520.1495 Q3870.9766,520.1495 3871.5625,520.8136 Q3872.1484,521.4386 3872.1484,522.962 L3872.1484,526.5948 Q3872.1484,528.1183 3871.5625,528.7823 Q3870.9766,529.4464 3870.0391,529.4464 Q3869.1797,529.4464 3868.6719,528.9386 Q3868.1641,528.4698 3867.8906,527.1808 Q3867.7734,526.2823 3867.3047,525.8136 Q3866.4844,524.8761 3864.9609,524.3292 Q3863.4375,523.7823 3861.875,523.7823 Q3859.9609,523.7823 3858.3594,524.6027 Q3856.7969,525.423 3855.5469,527.298 Q3854.3359,529.173 3854.3359,531.7511 L3854.3359,534.4855 Q3854.3359,537.5714 3856.5625,539.6417 Q3858.7891,541.673 3862.7734,541.673 Q3865.1172,541.673 3866.7578,541.048 Q3867.7344,540.6573 3868.7891,539.5636 Q3869.4531,538.8995 3869.8047,538.7042 Q3870.1953,538.5089 3870.7031,538.5089 Q3871.5234,538.5089 3872.1484,539.173 Q3872.8125,539.798 3872.8125,540.6573 Q3872.8125,541.5167 3871.9531,542.5323 Q3870.7031,543.9777 3868.7109,544.798 Q3866.0156,545.9308 3862.7734,545.9308 Q3858.9844,545.9308 3855.9766,544.3683 Q3853.5156,543.1183 3851.7969,540.462 Q3850.0781,537.7667 3850.0781,534.5636 L3850.0781,531.673 Q3850.0781,528.3527 3851.6016,525.5011 Q3853.1641,522.6105 3855.8984,521.087 Q3858.6328,519.5245 3861.7188,519.5245 Q3863.5547,519.5245 3865.1563,519.9542 Q3866.7969,520.3448 3868.1641,521.2433 Z " fill="#000000"/><text fill="#000000" font-family="Arial" font-size="30" font-style="italic" lengthAdjust="spacing" textLength="115.0781" x="3922.0697" y="520.8862">&#171;model&#187;</text><text fill="#000000" font-family="Arial" font-size="37.5" lengthAdjust="spacing" textLength="166.7175" x="3896.25" y="562.4182">ChildTask</text><line style="stroke:#3B8B4F;stroke-width:1.25;" x1="3826.25" x2="4067.9675" y1="582.865" y2="582.865"/></g><!--class AssignedTask--><g class="entity" data-qualified-name="models.AssignedTask" data-source-line="37" id="ent0013"><rect fill="#E2F5E6" height="122.6184" rx="6.25" ry="6.25" style="stroke:#3B8B4F;stroke-width:1.25;" width="315.5286" x="3462.5" y="480.2466"/><ellipse cx="3500" cy="531.5558" fill="#ADD1B2" rx="27.5" ry="27.5" style="stroke:#181818;stroke-width:2.5;"/><path d="M3506.9141,521.2433 Q3507.3047,520.6964 3507.7734,520.423 Q3508.2422,520.1495 3508.7891,520.1495 Q3509.7266,520.1495 3510.3125,520.8136 Q3510.8984,521.4386 3510.8984,522.962 L3510.8984,526.5948 Q3510.8984,528.1183 3510.3125,528.7823 Q3509.7266,529.4464 3508.7891,529.4464 Q3507.9297,529.4464 3507.4219,528.9386 Q3506.9141,528.4698 3506.6406,527.1808 Q3506.5234,526.2823 3506.0547,525.8136 Q3505.2344,524.8761 3503.7109,524.3292 Q3502.1875,523.7823 3500.625,523.7823 Q3498.7109,523.7823 3497.1094,524.6027 Q3495.5469,525.423 3494.2969,527.298 Q3493.0859,529.173 3493.0859,531.7511 L3493.0859,534.4855 Q3493.0859,537.5714 3495.3125,539.6417 Q3497.5391,541.673 3501.5234,541.673 Q3503.8672,541.673 3505.5078,541.048 Q3506.4844,540.6573 3507.5391,539.5636 Q3508.2031,538.8995 3508.5547,538.7042 Q3508.9453,538.5089 3509.4531,538.5089 Q3510.2734,538.5089 3510.8984,539.173 Q3511.5625,539.798 3511.5625,540.6573 Q3511.5625,541.5167 3510.7031,542.5323 Q3509.4531,543.9777 3507.4609,544.798 Q3504.7656,545.9308 3501.5234,545.9308 Q3497.7344,545.9308 3494.7266,544.3683 Q3492.2656,543.1183 3490.5469,540.462 Q3488.8281,537.7667 3488.8281,534.5636 L3488.8281,531.673 Q3488.8281,528.3527 3490.3516,525.5011 Q3491.9141,522.6105 3494.6484,521.087 Q3497.3828,519.5245 3500.4688,519.5245 Q3502.3047,519.5245 3503.9063,519.9542 Q3505.5469,520.3448 3506.9141,521.2433 Z " fill="#000000"/><text fill="#000000" font-family="Arial" font-size="30" font-style="italic" lengthAdjust="spacing" textLength="115.0781" x="3595.2252" y="520.8862">&#171;model&#187;</text><text fill="#000000" font-family="Arial" font-size="37.5" lengthAdjust="spacing" textLength="235.5286" x="3535" y="562.4182">AssignedTask</text><line style="stroke:#3B8B4F;stroke-width:1.25;" x1="3465" x2="3775.5286" y1="582.865" y2="582.865"/></g><!--class TaskTemplate--><g class="entity" data-qualified-name="models.TaskTemplate" data-source-line="38" id="ent0014"><rect fill="#E2F5E6" height="122.6184" rx="6.25" ry="6.25" style="stroke:#3B8B4F;stroke-width:1.25;" width="317.5793" x="4116.25" y="480.2466"/><ellipse cx="4153.75" cy="531.5558" fill="#ADD1B2" rx="27.5" ry="27.5" style="stroke:#181818;stroke-width:2.5;"/><path d="M4160.6641,521.2433 Q4161.0547,520.6964 4161.5234,520.423 Q4161.9922,520.1495 4162.5391,520.1495 Q4163.4766,520.1495 4164.0625,520.8136 Q4164.6484,521.4386 4164.6484,522.962 L4164.6484,526.5948 Q4164.6484,528.1183 4164.0625,528.7823 Q4163.4766,529.4464 4162.5391,529.4464 Q4161.6797,529.4464 4161.1719,528.9386 Q4160.6641,528.4698 4160.3906,527.1808 Q4160.2734,526.2823 4159.8047,525.8136 Q4158.9844,524.8761 4157.4609,524.3292 Q4155.9375,523.7823 4154.375,523.7823 Q4152.4609,523.7823 4150.8594,524.6027 Q4149.2969,525.423 4148.0469,527.298 Q4146.8359,529.173 4146.8359,531.7511 L4146.8359,534.4855 Q4146.8359,537.5714 4149.0625,539.6417 Q4151.2891,541.673 4155.2734,541.673 Q4157.6172,541.673 4159.2578,541.048 Q4160.2344,540.6573 4161.2891,539.5636 Q4161.9531,538.8995 4162.3047,538.7042 Q4162.6953,538.5089 4163.2031,538.5089 Q4164.0234,538.5089 4164.6484,539.173 Q4165.3125,539.798 4165.3125,540.6573 Q4165.3125,541.5167 4164.4531,542.5323 Q4163.2031,543.9777 4161.2109,544.798 Q4158.5156,545.9308 4155.2734,545.9308 Q4151.4844,545.9308 4148.4766,544.3683 Q4146.0156,543.1183 4144.2969,540.462 Q4142.5781,537.7667 4142.5781,534.5636 L4142.5781,531.673 Q4142.5781,528.3527 4144.1016,525.5011 Q4145.6641,522.6105 4148.3984,521.087 Q4151.1328,519.5245 4154.2188,519.5245 Q4156.0547,519.5245 4157.6563,519.9542 Q4159.2969,520.3448 4160.6641,521.2433 Z " fill="#000000"/><text fill="#000000" font-family="Arial" font-size="30" font-style="italic" lengthAdjust="spacing" textLength="115.0781" x="4250.0006" y="520.8862">&#171;model&#187;</text><text fill="#000000" font-family="Arial" font-size="37.5" lengthAdjust="spacing" textLength="237.5793" x="4188.75" y="562.4182">TaskTemplate</text><line style="stroke:#3B8B4F;stroke-width:1.25;" x1="4118.75" x2="4431.3293" y1="582.865" y2="582.865"/></g><g class="link" data-entity-1="ent0003" data-entity-2="ent0012" data-link-type="dependency" id="lnk15"><polygon fill="#181818" points="3901.6693,479.7745,3893.996,456.3785,3893.2856,470.5028,3879.1613,469.7924,3901.6693,479.7745" style="stroke:#181818;stroke-width:2.5;"/><path d="M2452.9839,378.9738 C2460.3705,380.3458 2467.7171,381.6083 2475,382.7466 C2547.7365,394.1147 3731.644,375.4101 3800,402.7466 C3839.8133,418.6685 3865.3585,439.6178 3891.6089,468.6485" fill="none" style="stroke:#181818;stroke-width:2.5;stroke-dasharray:17.5,17.5;"/></g><g class="link" data-entity-1="ent0003" data-entity-2="ent0004" data-link-type="nested" id="lnk16"><ellipse cx="2228.3931" cy="399.8821" fill="#FFFFFF" rx="20" ry="20" style="stroke:#181818;stroke-width:2.5;"/><line style="stroke:#181818;stroke-width:2.5;" x1="2239.5993" x2="2217.1869" y1="416.4477" y2="383.3164"/><line style="stroke:#181818;stroke-width:2.5;" x1="2211.8275" x2="2244.9588" y1="411.0883" y2="388.6759"/><path d="M2239.5993,416.4477 C2261.7357,449.1711 2263.2232,451.37 2282.6508,480.0891" fill="none" style="stroke:#181818;stroke-width:2.5;"/></g><g class="link" data-entity-1="ent0003" data-entity-2="ent0005" data-link-type="nested" id="lnk17"><ellipse cx="2472.6578" cy="382.4883" fill="#FFFFFF" rx="20" ry="20" style="stroke:#181818;stroke-width:2.5;"/><line style="stroke:#181818;stroke-width:2.5;" x1="2492.2168" x2="2453.0988" y1="386.6651" y2="378.3116"/><line style="stroke:#181818;stroke-width:2.5;" x1="2468.481" x2="2476.8346" y1="402.0473" y2="362.9293"/><path d="M2492.2168,386.6651 C2598.4422,406.944 2612.0957,378.5598 2717.5,402.7466 C2794.8775,420.5022 2877.859,451.912 2943.8605,480.1018" fill="none" style="stroke:#181818;stroke-width:2.5;"/></g><g class="link" data-entity-1="ent0006" data-entity-2="ent0013" data-link-type="dependency" id="lnk18"><polygon fill="#181818" points="3559.6549,480.1357,3549.0505,457.9142,3550.1536,472.0132,3536.0546,473.1163,3559.6549,480.1357" style="stroke:#181818;stroke-width:2.5;"/><path d="M996.7172,378.7148 C1004.5297,380.1939 1012.3003,381.5442 1020,382.7466 C1152.4273,403.4272 3305.2021,360.7951 3432.5,402.7466 C3479.8893,418.3639 3513.9597,441.0718 3548.2533,470.3887" fill="none" style="stroke:#181818;stroke-width:2.5;stroke-dasharray:17.5,17.5;"/></g><g class="link" data-entity-1="ent0006" data-entity-2="ent0007" data-link-type="nested" id="lnk19"><ellipse cx="620.8582" cy="399.6558" fill="#FFFFFF" rx="20" ry="20" style="stroke:#181818;stroke-width:2.5;"/><line style="stroke:#181818;stroke-width:2.5;" x1="609.3246" x2="632.3919" y1="415.9951" y2="383.3164"/><line style="stroke:#181818;stroke-width:2.5;" x1="604.5189" x2="637.1976" y1="388.1221" y2="411.1894"/><path d="M609.3246,415.9951 C586.2257,448.7184 584.3541,451.37 564.0817,480.0891" fill="none" style="stroke:#181818;stroke-width:2.5;"/></g><g class="link" data-entity-1="ent0006" data-entity-2="ent0008" data-link-type="nested" id="lnk20"><ellipse cx="1016.0204" cy="388.163" fill="#FFFFFF" rx="20" ry="20" style="stroke:#181818;stroke-width:2.5;"/><line style="stroke:#181818;stroke-width:2.5;" x1="1035.0002" x2="997.0405" y1="394.469" y2="381.857"/><line style="stroke:#181818;stroke-width:2.5;" x1="1009.7144" x2="1022.3264" y1="407.1428" y2="369.1831"/><path d="M1035.0002,394.469 C1134.7651,427.6156 1205.0861,450.9796 1292.8357,480.1342" fill="none" style="stroke:#181818;stroke-width:2.5;"/></g><g class="link" data-entity-1="ent0010" data-entity-2="ent0014" data-link-type="dependency" id="lnk21"><polygon fill="#181818" points="4214.4302,479.8035,4203.9528,457.5218,4204.9754,471.627,4190.8703,472.6495,4214.4302,479.8035" style="stroke:#181818;stroke-width:2.5;"/><path d="M3401.862,306.0281 C3666.0008,323.7291 3971.1333,353.8983 4095,402.7466 C4139.117,420.1446 4170.3966,441.723 4203.0844,469.9916" fill="none" style="stroke:#181818;stroke-width:2.5;stroke-dasharray:17.5,17.5;"/></g><g class="caption" data-source-line="16"><text fill="#000000" font-family="Arial" font-size="35" lengthAdjust="spacing" textLength="859.9609" x="1786.2695" y="663.0762">Current adapter classes and their model dependencies.</text></g><?plantuml-src XLHTZzem47pthzZInmf4kGyXX902Tr5FwiT9FVLzYPV4mh4ZsnJHq_ttsY60Z-JW3NPsPuRnBfygWtc9876dDmviIGuLChiMgaA39V1AmEXs65LiWLnlXSfXXT9IX4YXoEqg0crSeICWasXjufmHousZfqoht-8VGSpAQOKRwLAjt4yi2H8ZK9vJ1BIU_7eNGHLcQypf18uZC356Rq_Gw9noxeTpepUABxJKPZf5ZfKZCvl1vpHDR-PfQq8RJgRTFRyV9yFXLVvISvAX_t6KtZtUNsG_zjxCn_FRb1M24r1PkHtuXoeqjym99mbIB8NSmGlQjOK-97jNi0YCP5dclmgjOB4nXfI3nlLUaIoWuk0A4WPgHVyO5IbEAXDa1umr0KElcREzGpRmoceEM1H2yY1_a8wZUMNWJRdQt0I-2-kcn_vPZN6jADH9-T49_581UeYAx8q9vTbMc7aVvsg3za0Fq7RmnBuQwsssyFcFeEqtBNd3TEmvrJkedZ74-u2sM6eqL_8GZifZ7ecr8bSKHM8BlQrLwtEOm59hIQZU1_6ne8_aoGiifCZMPvcqwbsXN63kY6VVVJMVtW__vv9J_RFyG98vyLUutQ0k13UDn2dogFYnow3xuiz2egCZvw5mJjjHVyVy5krxVGrXs_UtsjvsEDveWyJls09Zdn7e5LldCnZCJYfj-4k_ttKadNqTgyikB6fGZd_5fTwzZTO-NHlfsXRMzIx1InpQVm00?></g></svg>