<svg xmlns="http://www.w3.org/2000/svg" xmlns:xlink="http://www.w3.org/1999/xlink" contentStyleType="text/css" height="652.5px" preserveAspectRatio="none" style="width:3177px;height:652px;background:#FFFFFF;" version="1.1" viewBox="0 0 3177 652" width="3177.5px" zoomAndPan="magnify"><title>Family Tasks - Adapter Classes</title><defs/><g><text fill="#000000" font-family="Arial" font-size="35" font-weight="bold" lengthAdjust="spacing" textLength="525.2393" x="1306.1304" y="57.8296">Family Tasks - Adapter Classes</text><!--cluster adapters--><g id="cluster_adapters"><path d="M41.25,102.7466 L231.3306,102.7466 A9.375,9.375 0 0 1 237.5806,108.9966 L255.0806,169.4922 L2413.75,169.4922 A6.25,6.25 0 0 1 2420,175.7422 L2420,576.4966 A6.25,6.25 0 0 1 2413.75,582.7466 L41.25,582.7466 A6.25,6.25 0 0 1 35,576.4966 L35,108.9966 A6.25,6.25 0 0 1 41.25,102.7466 " fill="#FFF3BF" style="stroke:#000000;stroke-width:3.75;"/><line style="stroke:#000000;stroke-width:3.75;" x1="35" x2="255.0806" y1="169.4922" y2="169.4922"/><text fill="#000000" font-family="Arial" font-size="45" font-weight="bold" lengthAdjust="spacing" textLength="187.5806" x="45" y="149.9561">adapters</text></g><!--cluster models--><g id="cluster_models"><path d="M2446.25,362.7466 L2606.2939,362.7466 A9.375,9.375 0 0 1 2612.5439,368.9966 L2630.0439,429.4922 L3153.75,429.4922 A6.25,6.25 0 0 1 3160,435.7422 L3160,576.4966 A6.25,6.25 0 0 1 3153.75,582.7466 L2446.25,582.7466 A6.25,6.25 0 0 1 2440,576.4966 L2440,368.9966 A6.25,6.25 0 0 1 2446.25,362.7466 " fill="#E2F5E6" style="stroke:#000000;stroke-width:3.75;"/><line style="stroke:#000000;stroke-width:3.75;" x1="2440" x2="2630.0439" y1="429.4922" y2="429.4922"/><text fill="#000000" font-family="Arial" font-size="45" font-weight="bold" lengthAdjust="spacing" textLength="157.5439" x="2450" y="409.9561">models</text></g><!--class ParentDashboardTaskAdapter--><g id="elem_ParentDashboardTaskAdapter"><rect codeLine="19" fill="#FFF3BF" height="162.865" id="ParentDashboardTaskAdapter" rx="6.25" ry="6.25" style="stroke:#B68A00;stroke-width:1.25;" width="586.543" x="56.25" y="180.2466"/><ellipse cx="93.75" cy="231.5558" fill="#ADD1B2" rx="27.5" ry="27.5" style="stroke:#181818;stroke-width:2.5;"/><path d="M100.6641,221.2433 Q101.0547,220.6964 101.5234,220.423 Q101.9922,220.1495 102.5391,220.1495 Q103.4766,220.1495 104.0625,220.8136 Q104.6484,221.4386 104.6484,222.962 L104.6484,226.5948 Q104.6484,228.1183 104.0625,228.7823 Q103.4766,229.4464 102.5391,229.4464 Q101.6797,229.4464 101.1719,228.9386 Q100.6641,228.4698 100.3906,227.1808 Q100.2734,226.2823 99.8047,225.8136 Q98.9844,224.8761 97.4609,224.3292 Q95.9375,223.7823 94.375,223.7823 Q92.4609,223.7823 90.8594,224.6027 Q89.2969,225.423 88.0469,227.298 Q86.8359,229.173 86.8359,231.7511 L86.8359,234.4855 Q86.8359,237.5714 89.0625,239.6417 Q91.2891,241.673 95.2734,241.673 Q97.6172,241.673 99.2578,241.048 Q100.2344,240.6573 101.2891,239.5636 Q101.9531,238.8995 102.3047,238.7042 Q102.6953,238.5089 103.2031,238.5089 Q104.0234,238.5089 104.6484,239.173 Q105.3125,239.798 105.3125,240.6573 Q105.3125,241.5167 104.4531,242.5323 Q103.2031,243.9777 101.2109,244.798 Q98.5156,245.9308 95.2734,245.9308 Q91.4844,245.9308 88.4766,244.3683 Q86.0156,243.1183 84.2969,240.462 Q82.5781,237.7667 82.5781,234.5636 L82.5781,231.673 Q82.5781,228.3527 84.1016,225.5011 Q85.6641,222.6105 88.3984,221.087 Q91.1328,219.5245 94.2188,219.5245 Q96.0547,219.5245 97.6563,219.9542 Q99.2969,220.3448 100.6641,221.2433 Z " fill="#000000"/><text fill="#000000" font-family="Arial" font-size="30" font-style="italic" lengthAdjust="spacing" textLength="135.1172" x="314.4629" y="220.8862">&#171;adapter&#187;</text><text fill="#000000" font-family="Arial" font-size="37.5" lengthAdjust="spacing" textLength="506.543" x="128.75" y="262.4182">ParentDashboardTaskAdapter</text><line style="stroke:#B68A00;stroke-width:1.25;" x1="58.75" x2="640.293" y1="282.865" y2="282.865"/><text fill="#000000" font-family="Arial" font-size="35" lengthAdjust="spacing" textLength="439.6191" x="71.25" y="325.6946">-items : List&lt;AssignedTask&gt;</text></g><!--class ParentTaskViewHolder--><g id="elem_ParentTaskViewHolder"><rect codeLine="22" fill="#FFF3BF" height="122.6184" id="ParentTaskViewHolder" rx="6.25" ry="6.25" style="stroke:#B68A00;stroke-width:1.25;" width="869.9719" x="55" y="440.2466"/><ellipse cx="92.5" cy="491.5558" fill="#ADD1B2" rx="27.5" ry="27.5" style="stroke:#181818;stroke-width:2.5;"/><path d="M99.4141,481.2433 Q99.8047,480.6964 100.2734,480.423 Q100.7422,480.1495 101.2891,480.1495 Q102.2266,480.1495 102.8125,480.8136 Q103.3984,481.4386 103.3984,482.962 L103.3984,486.5948 Q103.3984,488.1183 102.8125,488.7823 Q102.2266,489.4464 101.2891,489.4464 Q100.4297,489.4464 99.9219,488.9386 Q99.4141,488.4698 99.1406,487.1808 Q99.0234,486.2823 98.5547,485.8136 Q97.7344,484.8761 96.2109,484.3292 Q94.6875,483.7823 93.125,483.7823 Q91.2109,483.7823 89.6094,484.6027 Q88.0469,485.423 86.7969,487.298 Q85.5859,489.173 85.5859,491.7511 L85.5859,494.4855 Q85.5859,497.5714 87.8125,499.6417 Q90.0391,501.673 94.0234,501.673 Q96.3672,501.673 98.0078,501.048 Q98.9844,500.6573 100.0391,499.5636 Q100.7031,498.8995 101.0547,498.7042 Q101.4453,498.5089 101.9531,498.5089 Q102.7734,498.5089 103.3984,499.173 Q104.0625,499.798 104.0625,500.6573 Q104.0625,501.5167 103.2031,502.5323 Q101.9531,503.9777 99.9609,504.798 Q97.2656,505.9308 94.0234,505.9308 Q90.2344,505.9308 87.2266,504.3683 Q84.7656,503.1183 83.0469,500.462 Q81.3281,497.7667 81.3281,494.5636 L81.3281,491.673 Q81.3281,488.3527 82.8516,485.5011 Q84.4141,482.6105 87.1484,481.087 Q89.8828,479.5245 92.9688,479.5245 Q94.8047,479.5245 96.4063,479.9542 Q98.0469,480.3448 99.4141,481.2433 Z " fill="#000000"/><text fill="#000000" font-family="Arial" font-size="30" font-style="italic" lengthAdjust="spacing" textLength="135.1172" x="454.9274" y="480.8862">&#171;adapter&#187;</text><text fill="#000000" font-family="Arial" font-size="37.5" lengthAdjust="spacing" textLength="789.9719" x="127.5" y="522.4182">ParentDashboardTaskAdapter.TaskViewHolder</text><line style="stroke:#B68A00;stroke-width:1.25;" x1="57.5" x2="922.4719" y1="542.865" y2="542.865"/></g><!--class ChildListAdapter--><g id="elem_ChildListAdapter"><rect codeLine="23" fill="#FFF3BF" height="122.6184" id="ChildListAdapter" rx="6.25" ry="6.25" style="stroke:#B68A00;stroke-width:1.25;" width="759.5044" x="690" y="200.2466"/><ellipse cx="727.5" cy="251.5558" fill="#ADD1B2" rx="27.5" ry="27.5" style="stroke:#181818;stroke-width:2.5;"/><path d="M734.4141,241.2433 Q734.8047,240.6964 735.2734,240.423 Q735.7422,240.1495 736.2891,240.1495 Q737.2266,240.1495 737.8125,240.8136 Q738.3984,241.4386 738.3984,242.962 L738.3984,246.5948 Q738.3984,248.1183 737.8125,248.7823 Q737.2266,249.4464 736.2891,249.4464 Q735.4297,249.4464 734.9219,248.9386 Q734.4141,248.4698 734.1406,247.1808 Q734.0234,246.2823 733.5547,245.8136 Q732.7344,244.8761 731.2109,244.3292 Q729.6875,243.7823 728.125,243.7823 Q726.2109,243.7823 724.6094,244.6027 Q723.0469,245.423 721.7969,247.298 Q720.5859,249.173 720.5859,251.7511 L720.5859,254.4855 Q720.5859,257.5714 722.8125,259.6417 Q725.0391,261.673 729.0234,261.673 Q731.3672,261.673 733.0078,261.048 Q733.9844,260.6573 735.0391,259.5636 Q735.7031,258.8995 736.0547,258.7042 Q736.4453,258.5089 736.9531,258.5089 Q737.7734,258.5089 738.3984,259.173 Q739.0625,259.798 739.0625,260.6573 Q739.0625,261.5167 738.2031,262.5323 Q736.9531,263.9777 734.9609,264.798 Q732.2656,265.9308 729.0234,265.9308 Q725.2344,265.9308 722.2266,264.3683 Q719.7656,263.1183 718.0469,260.462 Q716.3281,257.7667 716.3281,254.5636 L716.3281,251.673 Q716.3281,248.3527 717.8516,245.5011 Q719.4141,242.6105 722.1484,241.087 Q724.8828,239.5245 727.9688,239.5245 Q729.8047,239.5245 731.4063,239.9542 Q733.0469,240.3448 734.4141,241.2433 Z " fill="#000000"/><text fill="#000000" font-family="Arial" font-size="30" font-style="italic" lengthAdjust="spacing" textLength="135.1172" x="1034.6936" y="240.8862">&#171;adapter&#187;</text><text fill="#000000" font-family="Arial" font-size="37.5" lengthAdjust="spacing" textLength="679.5044" x="762.5" y="282.4182">ManageChildrenActivity.ChildListAdapter</text><line style="stroke:#B68A00;stroke-width:1.25;" x1="692.5" x2="1447.0044" y1="302.865" y2="302.865"/></g><!--class TemplateListAdapter--><g id="elem_TemplateListAdapter"><rect codeLine="24" fill="#FFF3BF" height="122.6184" id="TemplateListAdapter" rx="6.25" ry="6.25" style="stroke:#B68A00;stroke-width:1.25;" width="903.2605" x="1496.25" y="200.2466"/><ellipse cx="1533.75" cy="251.5558" fill="#ADD1B2" rx="27.5" ry="27.5" style="stroke:#181818;stroke-width:2.5;"/><path d="M1540.6641,241.2433 Q1541.0547,240.6964 1541.5234,240.423 Q1541.9922,240.1495 1542.5391,240.1495 Q1543.4766,240.1495 1544.0625,240.8136 Q1544.6484,241.4386 1544.6484,242.962 L1544.6484,246.5948 Q1544.6484,248.1183 1544.0625,248.7823 Q1543.4766,249.4464 1542.5391,249.4464 Q1541.6797,249.4464 1541.1719,248.9386 Q1540.6641,248.4698 1540.3906,247.1808 Q1540.2734,246.2823 1539.8047,245.8136 Q1538.9844,244.8761 1537.4609,244.3292 Q1535.9375,243.7823 1534.375,243.7823 Q1532.4609,243.7823 1530.8594,244.6027 Q1529.2969,245.423 1528.0469,247.298 Q1526.8359,249.173 1526.8359,251.7511 L1526.8359,254.4855 Q1526.8359,257.5714 1529.0625,259.6417 Q1531.2891,261.673 1535.2734,261.673 Q1537.6172,261.673 1539.2578,261.048 Q1540.2344,260.6573 1541.2891,259.5636 Q1541.9531,258.8995 1542.3047,258.7042 Q1542.6953,258.5089 1543.2031,258.5089 Q1544.0234,258.5089 1544.6484,259.173 Q1545.3125,259.798 1545.3125,260.6573 Q1545.3125,261.5167 1544.4531,262.5323 Q1543.2031,263.9777 1541.2109,264.798 Q1538.5156,265.9308 1535.2734,265.9308 Q1531.4844,265.9308 1528.4766,264.3683 Q1526.0156,263.1183 1524.2969,260.462 Q1522.5781,257.7667 1522.5781,254.5636 L1522.5781,251.673 Q1522.5781,248.3527 1524.1016,245.5011 Q1525.6641,242.6105 1528.3984,241.087 Q1531.1328,239.5245 1534.2188,239.5245 Q1536.0547,239.5245 1537.6563,239.9542 Q1539.2969,240.3448 1540.6641,241.2433 Z " fill="#000000"/><text fill="#000000" font-family="Arial" font-size="30" font-style="italic" lengthAdjust="spacing" textLength="135.1172" x="1912.8217" y="240.8862">&#171;adapter&#187;</text><text fill="#000000" font-family="Arial" font-size="37.5" lengthAdjust="spacing" textLength="823.2605" x="1568.75" y="282.4182">ParentTaskTemplateActivity.TemplateListAdapter</text><line style="stroke:#B68A00;stroke-width:1.25;" x1="1498.75" x2="2397.0105" y1="302.865" y2="302.865"/></g><!--class AssignedTask--><g id="elem_AssignedTask"><rect codeLine="28" fill="#E2F5E6" height="122.6184" id="AssignedTask" rx="6.25" ry="6.25" style="stroke:#3B8B4F;stroke-width:1.25;" width="315.5286" x="2460" y="440.2466"/><ellipse cx="2497.5" cy="491.5558" fill="#ADD1B2" rx="27.5" ry="27.5" style="stroke:#181818;stroke-width:2.5;"/><path d="M2504.4141,481.2433 Q2504.8047,480.6964 2505.2734,480.423 Q2505.7422,480.1495 2506.2891,480.1495 Q2507.2266,480.1495 2507.8125,480.8136 Q2508.3984,481.4386 2508.3984,482.962 L2508.3984,486.5948 Q2508.3984,488.1183 2507.8125,488.7823 Q2507.2266,489.4464 2506.2891,489.4464 Q2505.4297,489.4464 2504.9219,488.9386 Q2504.4141,488.4698 2504.1406,487.1808 Q2504.0234,486.2823 2503.5547,485.8136 Q2502.7344,484.8761 2501.2109,484.3292 Q2499.6875,483.7823 2498.125,483.7823 Q2496.2109,483.7823 2494.6094,484.6027 Q2493.0469,485.423 2491.7969,487.298 Q2490.5859,489.173 2490.5859,491.7511 L2490.5859,494.4855 Q2490.5859,497.5714 2492.8125,499.6417 Q2495.0391,501.673 2499.0234,501.673 Q2501.3672,501.673 2503.0078,501.048 Q2503.9844,500.6573 2505.0391,499.5636 Q2505.7031,498.8995 2506.0547,498.7042 Q2506.4453,498.5089 2506.9531,498.5089 Q2507.7734,498.5089 2508.3984,499.173 Q2509.0625,499.798 2509.0625,500.6573 Q2509.0625,501.5167 2508.2031,502.5323 Q2506.9531,503.9777 2504.9609,504.798 Q2502.2656,505.9308 2499.0234,505.9308 Q2495.2344,505.9308 2492.2266,504.3683 Q2489.7656,503.1183 2488.0469,500.462 Q2486.3281,497.7667 2486.3281,494.5636 L2486.3281,491.673 Q2486.3281,488.3527 2487.8516,485.5011 Q2489.4141,482.6105 2492.1484,481.087 Q2494.8828,479.5245 2497.9688,479.5245 Q2499.8047,479.5245 2501.4063,479.9542 Q2503.0469,480.3448 2504.4141,481.2433 Z " fill="#000000"/><text fill="#000000" font-family="Arial" font-size="30" font-style="italic" lengthAdjust="spacing" textLength="115.0781" x="2592.7252" y="480.8862">&#171;model&#187;</text><text fill="#000000" font-family="Arial" font-size="37.5" lengthAdjust="spacing" textLength="235.5286" x="2532.5" y="522.4182">AssignedTask</text><line style="stroke:#3B8B4F;stroke-width:1.25;" x1="2462.5" x2="2773.0286" y1="542.865" y2="542.865"/></g><!--class TaskTemplate--><g id="elem_TaskTemplate"><rect codeLine="29" fill="#E2F5E6" height="122.6184" id="TaskTemplate" rx="6.25" ry="6.25" style="stroke:#3B8B4F;stroke-width:1.25;" width="317.5793" x="2821.25" y="440.2466"/><ellipse cx="2858.75" cy="491.5558" fill="#ADD1B2" rx="27.5" ry="27.5" style="stroke:#181818;stroke-width:2.5;"/><path d="M2865.6641,481.2433 Q2866.0547,480.6964 2866.5234,480.423 Q2866.9922,480.1495 2867.5391,480.1495 Q2868.4766,480.1495 2869.0625,480.8136 Q2869.6484,481.4386 2869.6484,482.962 L2869.6484,486.5948 Q2869.6484,488.1183 2869.0625,488.7823 Q2868.4766,489.4464 2867.5391,489.4464 Q2866.6797,489.4464 2866.1719,488.9386 Q2865.6641,488.4698 2865.3906,487.1808 Q2865.2734,486.2823 2864.8047,485.8136 Q2863.9844,484.8761 2862.4609,484.3292 Q2860.9375,483.7823 2859.375,483.7823 Q2857.4609,483.7823 2855.8594,484.6027 Q2854.2969,485.423 2853.0469,487.298 Q2851.8359,489.173 2851.8359,491.7511 L2851.8359,494.4855 Q2851.8359,497.5714 2854.0625,499.6417 Q2856.2891,501.673 2860.2734,501.673 Q2862.6172,501.673 2864.2578,501.048 Q2865.2344,500.6573 2866.2891,499.5636 Q2866.9531,498.8995 2867.3047,498.7042 Q2867.6953,498.5089 2868.2031,498.5089 Q2869.0234,498.5089 2869.6484,499.173 Q2870.3125,499.798 2870.3125,500.6573 Q2870.3125,501.5167 2869.4531,502.5323 Q2868.2031,503.9777 2866.2109,504.798 Q2863.5156,505.9308 2860.2734,505.9308 Q2856.4844,505.9308 2853.4766,504.3683 Q2851.0156,503.1183 2849.2969,500.462 Q2847.5781,497.7667 2847.5781,494.5636 L2847.5781,491.673 Q2847.5781,488.3527 2849.1016,485.5011 Q2850.6641,482.6105 2853.3984,481.087 Q2856.1328,479.5245 2859.2188,479.5245 Q2861.0547,479.5245 2862.6563,479.9542 Q2864.2969,480.3448 2865.6641,481.2433 Z " fill="#000000"/><text fill="#000000" font-family="Arial" font-size="30" font-style="italic" lengthAdjust="spacing" textLength="115.0781" x="2955.0006" y="480.8862">&#171;model&#187;</text><text fill="#000000" font-family="Arial" font-size="37.5" lengthAdjust="spacing" textLength="237.5793" x="2893.75" y="522.4182">TaskTemplate</text><line style="stroke:#3B8B4F;stroke-width:1.25;" x1="2823.75" x2="3136.3293" y1="542.865" y2="542.865"/></g><polygon fill="#181818" points="2557.1358,440.1935,2546.5233,417.9758,2547.6315,432.0745,2533.5329,433.1827,2557.1358,440.1935" style="stroke:#181818;stroke-width:2.5;"/><path d="M644.4724,339.4938 C652.2093,340.6844 659.8951,341.7737 667.5,342.7466 C764.6314,355.1723 2337.0441,331.9551 2430,362.7466 C2477.3653,378.4363 2511.4314,401.1506 2545.7307,430.4507 " fill="none" style="stroke:#181818;stroke-width:2.5;stroke-dasharray:7.0,7.0;"/><ellipse cx="407.2435" cy="360.084" fill="#FFFFFF" rx="20" ry="20" style="stroke:#181818;stroke-width:2.5;"/><line style="stroke:#181818;stroke-width:2.5;" x1="417.4796" x2="397.0074" y1="377.266" y2="342.9019"/><line style="stroke:#181818;stroke-width:2.5;" x1="390.0615" x2="424.4256" y1="370.3201" y2="349.8478"/><path d="M417.4796,377.266 C436.3855,409.0009 437.3364,410.597 454.8514,439.9971 " fill="none" style="stroke:#181818;stroke-width:2.5;"/><polygon fill="#181818" points="2918.3618,440.0376,2907.6889,417.8489,2908.8354,431.9445,2894.7399,433.091,2918.3618,440.0376" style="stroke:#181818;stroke-width:2.5;"/><path d="M2398.8232,295.3461 C2561.5314,311.1018 2723.2993,333.2404 2797.5,362.7466 C2841.9574,380.4252 2873.7283,402.119 2906.9302,430.3258 " fill="none" style="stroke:#181818;stroke-width:2.5;stroke-dasharray:7.0,7.0;"/><text fill="#000000" font-family="Arial" font-size="35" lengthAdjust="spacing" textLength="859.9609" x="1138.7695" y="623.0762">Current adapter classes and their model dependencies.</text><!--SRC=[XPBTRjim38NlzHHSTZd4oD8V14CGmCvgRC0s36YnUzPYRIAoP4Zo0g_ekyzsx4H9q_GkuI4_7X_gGsKnBn4KDgRsu4hog56u3UiABPOWAuRvzIoek0AbsRBEuGcLeq1HhCat5O6nlZ21a2bqBlRUycFjwNjcz3t_8mYfafwmLZursl_2aY2sZEeKqQdzvEURGAemss1E1t4HYB6rPdkGvgV8f1tEhQcrN1jbx7A94YjFThM2ZscQNYNfgmbZ9TdNtSdj8fxDtkMNHfBg-k_cwStTxKNwllSgMIJNgIXO4b1P-GRQGnL6Ek7PAu8KIrODFA3RE9X2l7C5wuv8JcJjNpOQrhMrf3qChdSRoG5g2RuWjj1lR8zHaPQaCoON2J4439DXpat6RE1Pz0puZHtuAxhYqQ2LdP7HH1ZIiu3M7dig7No17-pyCdQESqtzo4gy3Bp9sy2e-_s7QVlDg3Qg2U2u_bW85u_Kd-tZpcbTi9BjG9nv_ik-YVf2vsPOqJDFY-TuXxqFxLaKUjepny8fzapzYFmIvDrVeqjxzrRsQOUPmVwP36Be9X1RxeKZHT7gY7gfzzDqUZPmSUxJEd3ew3y0]--></g></svg>