<?plantuml 1.2026.2?><svg xmlns="http://www.w3.org/2000/svg" xmlns:xlink="http://www.w3.org/1999/xlink" contentStyleType="text/css" data-diagram-type="CLASS" height="1257.5px" preserveAspectRatio="none" style="width:5237px;height:1257px;background:#FFFFFF;" version="1.1" viewBox="0 0 5237 1257" width="5237.5px" zoomAndPan="magnify"><title>Family Tasks - Screen Classes</title><defs/><g><g class="title" data-source-line="15"><text fill="#000000" font-family="Arial" font-size="35" font-weight="bold" lengthAdjust="spacing" textLength="509.7388" x="2343.8806" y="57.8296">Family Tasks - Screen Classes</text></g><!--cluster auth--><g class="cluster" data-qualified-name="auth" data-source-line="18" id="ent0002"><path d="M41.25,102.7466 L138.7378,102.7466 A9.375,9.375 0 0 1 144.9878,108.9966 L162.4878,169.4922 L1618.75,169.4922 A6.25,6.25 0 0 1 1625,175.7422 L1625,968.9966 A6.25,6.25 0 0 1 1618.75,975.2466 L41.25,975.2466 A6.25,6.25 0 0 1 35,968.9966 L35,108.9966 A6.25,6.25 0 0 1 41.25,102.7466" fill="#DCEEFF" style="stroke:#000000;stroke-width:3.75;"/><line style="stroke:#000000;stroke-width:3.75;" x1="35" x2="162.4878" y1="169.4922" y2="169.4922"/><text fill="#000000" font-family="Arial" font-size="45" font-weight="bold" lengthAdjust="spacing" textLength="94.9878" x="45" y="149.9561">auth</text></g><!--cluster parent--><g class="cluster" data-qualified-name="parent" data-source-line="29" id="ent0011"><path d="M2366.25,535.2466 L2506.2769,535.2466 A9.375,9.375 0 0 1 2512.5269,541.4966 L2530.0269,601.9922 L5213.75,601.9922 A6.25,6.25 0 0 1 5220,608.2422 L5220,968.9966 A6.25,6.25 0 0 1 5213.75,975.2466 L2366.25,975.2466 A6.25,6.25 0 0 1 2360,968.9966 L2360,541.4966 A6.25,6.25 0 0 1 2366.25,535.2466" fill="#DCEEFF" style="stroke:#000000;stroke-width:3.75;"/><line style="stroke:#000000;stroke-width:3.75;" x1="2360" x2="2530.0269" y1="601.9922" y2="601.9922"/><text fill="#000000" font-family="Arial" font-size="45" font-weight="bold" lengthAdjust="spacing" textLength="137.5269" x="2370" y="582.4561">parent</text></g><!--cluster child--><g class="cluster" data-qualified-name="child" data-source-line="38" id="ent0018"><path d="M1651.25,755.2466 L1758.7573,755.2466 A9.375,9.375 0 0 1 1765.0073,761.4966 L1782.5073,821.9922 L2333.75,821.9922 A6.25,6.25 0 0 1 2340,828.2422 L2340,1181.4966 A6.25,6.25 0 0 1 2333.75,1187.7466 L1651.25,1187.7466 A6.25,6.25 0 0 1 1645,1181.4966 L1645,761.4966 A6.25,6.25 0 0 1 1651.25,755.2466" fill="#DCEEFF" style="stroke:#000000;stroke-width:3.75;"/><line style="stroke:#000000;stroke-width:3.75;" x1="1645" x2="1782.5073" y1="821.9922" y2="821.9922"/><text fill="#000000" font-family="Arial" font-size="45" font-weight="bold" lengthAdjust="spacing" textLength="105.0073" x="1655" y="802.4561">child</text></g><!--class MainActivity--><g class="entity" data-qualified-name="auth.MainActivity" data-source-line="19" id="ent0003"><rect fill="#DCEEFF" height="122.6184" rx="6.25" ry="6.25" style="stroke:#2F6FA3;stroke-width:1.25;" width="280.0427" x="455" y="180.2466"/><ellipse cx="492.5" cy="231.5558" fill="#ADD1B2" rx="27.5" ry="27.5" style="stroke:#181818;stroke-width:2.5;"/><path d="M499.4141,221.2433 Q499.8047,220.6964 500.2734,220.423 Q500.7422,220.1495 501.2891,220.1495 Q502.2266,220.1495 502.8125,220.8136 Q503.3984,221.4386 503.3984,222.962 L503.3984,226.5948 Q503.3984,228.1183 502.8125,228.7823 Q502.2266,229.4464 501.2891,229.4464 Q500.4297,229.4464 499.9219,228.9386 Q499.4141,228.4698 499.1406,227.1808 Q499.0234,226.2823 498.5547,225.8136 Q497.7344,224.8761 496.2109,224.3292 Q494.6875,223.7823 493.125,223.7823 Q491.2109,223.7823 489.6094,224.6027 Q488.0469,225.423 486.7969,227.298 Q485.5859,229.173 485.5859,231.7511 L485.5859,234.4855 Q485.5859,237.5714 487.8125,239.6417 Q490.0391,241.673 494.0234,241.673 Q496.3672,241.673 498.0078,241.048 Q498.9844,240.6573 500.0391,239.5636 Q500.7031,238.8995 501.0547,238.7042 Q501.4453,238.5089 501.9531,238.5089 Q502.7734,238.5089 503.3984,239.173 Q504.0625,239.798 504.0625,240.6573 Q504.0625,241.5167 503.2031,242.5323 Q501.9531,243.9777 499.9609,244.798 Q497.2656,245.9308 494.0234,245.9308 Q490.2344,245.9308 487.2266,244.3683 Q484.7656,243.1183 483.0469,240.462 Q481.3281,237.7667 481.3281,234.5636 L481.3281,231.673 Q481.3281,228.3527 482.8516,225.5011 Q484.4141,222.6105 487.1484,221.087 Q489.8828,219.5245 492.9688,219.5245 Q494.8047,219.5245 496.4063,219.9542 Q498.0469,220.3448 499.4141,221.2433 Z " fill="#000000"/><text fill="#000000" font-family="Arial" font-size="30" font-style="italic" lengthAdjust="spacing" textLength="123.4131" x="565.8148" y="220.8862">&#171;screen&#187;</text><text fill="#000000" font-family="Arial" font-size="37.5" lengthAdjust="spacing" textLength="200.0427" x="527.5" y="262.4182">MainActivity</text><line style="stroke:#2F6FA3;stroke-width:1.25;" x1="457.5" x2="732.5427" y1="282.865" y2="282.865"/></g><!--class ParentLoginFragment--><g class="entity" data-qualified-name="auth.ParentLoginFragment" data-source-line="20" id="ent0004"><rect fill="#DCEEFF" height="122.6184" rx="6.25" ry="6.25" style="stroke:#2F6FA3;stroke-width:1.25;" width="442.7136" x="626.25" y="392.7466"/><ellipse cx="663.75" cy="444.0558" fill="#ADD1B2" rx="27.5" ry="27.5" style="stroke:#181818;stroke-width:2.5;"/><path d="M670.6641,433.7433 Q671.0547,433.1964 671.5234,432.923 Q671.9922,432.6495 672.5391,432.6495 Q673.4766,432.6495 674.0625,433.3136 Q674.6484,433.9386 674.6484,435.462 L674.6484,439.0948 Q674.6484,440.6183 674.0625,441.2823 Q673.4766,441.9464 672.5391,441.9464 Q671.6797,441.9464 671.1719,441.4386 Q670.6641,440.9698 670.3906,439.6808 Q670.2734,438.7823 669.8047,438.3136 Q668.9844,437.3761 667.4609,436.8292 Q665.9375,436.2823 664.375,436.2823 Q662.4609,436.2823 660.8594,437.1027 Q659.2969,437.923 658.0469,439.798 Q656.8359,441.673 656.8359,444.2511 L656.8359,446.9855 Q656.8359,450.0714 659.0625,452.1417 Q661.2891,454.173 665.2734,454.173 Q667.6172,454.173 669.2578,453.548 Q670.2344,453.1573 671.2891,452.0636 Q671.9531,451.3995 672.3047,451.2042 Q672.6953,451.0089 673.2031,451.0089 Q674.0234,451.0089 674.6484,451.673 Q675.3125,452.298 675.3125,453.1573 Q675.3125,454.0167 674.4531,455.0323 Q673.2031,456.4777 671.2109,457.298 Q668.5156,458.4308 665.2734,458.4308 Q661.4844,458.4308 658.4766,456.8683 Q656.0156,455.6183 654.2969,452.962 Q652.5781,450.2667 652.5781,447.0636 L652.5781,444.173 Q652.5781,440.8527 654.1016,438.0011 Q655.6641,435.1105 658.3984,433.587 Q661.1328,432.0245 664.2188,432.0245 Q666.0547,432.0245 667.6563,432.4542 Q669.2969,432.8448 670.6641,433.7433 Z " fill="#000000"/><text fill="#000000" font-family="Arial" font-size="30" font-style="italic" lengthAdjust="spacing" textLength="123.4131" x="818.4003" y="433.3862">&#171;screen&#187;</text><text fill="#000000" font-family="Arial" font-size="37.5" lengthAdjust="spacing" textLength="362.7136" x="698.75" y="474.9182">ParentLoginFragment</text><line style="stroke:#2F6FA3;stroke-width:1.25;" x1="628.75" x2="1066.4636" y1="495.365" y2="495.365"/></g><!--class ParentRegisterFragment--><g class="entity" data-qualified-name="auth.ParentRegisterFragment" data-source-line="21" id="ent0005"><rect fill="#DCEEFF" height="122.6184" rx="6.25" ry="6.25" style="stroke:#2F6FA3;stroke-width:1.25;" width="490.5957" x="1115" y="392.7466"/><ellipse cx="1152.5" cy="444.0558" fill="#ADD1B2" rx="27.5" ry="27.5" style="stroke:#181818;stroke-width:2.5;"/><path d="M1159.4141,433.7433 Q1159.8047,433.1964 1160.2734,432.923 Q1160.7422,432.6495 1161.2891,432.6495 Q1162.2266,432.6495 1162.8125,433.3136 Q1163.3984,433.9386 1163.3984,435.462 L1163.3984,439.0948 Q1163.3984,440.6183 1162.8125,441.2823 Q1162.2266,441.9464 1161.2891,441.9464 Q1160.4297,441.9464 1159.9219,441.4386 Q1159.4141,440.9698 1159.1406,439.6808 Q1159.0234,438.7823 1158.5547,438.3136 Q1157.7344,437.3761 1156.2109,436.8292 Q1154.6875,436.2823 1153.125,436.2823 Q1151.2109,436.2823 1149.6094,437.1027 Q1148.0469,437.923 1146.7969,439.798 Q1145.5859,441.673 1145.5859,444.2511 L1145.5859,446.9855 Q1145.5859,450.0714 1147.8125,452.1417 Q1150.0391,454.173 1154.0234,454.173 Q1156.3672,454.173 1158.0078,453.548 Q1158.9844,453.1573 1160.0391,452.0636 Q1160.7031,451.3995 1161.0547,451.2042 Q1161.4453,451.0089 1161.9531,451.0089 Q1162.7734,451.0089 1163.3984,451.673 Q1164.0625,452.298 1164.0625,453.1573 Q1164.0625,454.0167 1163.2031,455.0323 Q1161.9531,456.4777 1159.9609,457.298 Q1157.2656,458.4308 1154.0234,458.4308 Q1150.2344,458.4308 1147.2266,456.8683 Q1144.7656,455.6183 1143.0469,452.962 Q1141.3281,450.2667 1141.3281,447.0636 L1141.3281,444.173 Q1141.3281,440.8527 1142.8516,438.0011 Q1144.4141,435.1105 1147.1484,433.587 Q1149.8828,432.0245 1152.9688,432.0245 Q1154.8047,432.0245 1156.4063,432.4542 Q1158.0469,432.8448 1159.4141,433.7433 Z " fill="#000000"/><text fill="#000000" font-family="Arial" font-size="30" font-style="italic" lengthAdjust="spacing" textLength="123.4131" x="1331.0913" y="433.3862">&#171;screen&#187;</text><text fill="#000000" font-family="Arial" font-size="37.5" lengthAdjust="spacing" textLength="410.5957" x="1187.5" y="474.9182">ParentRegisterFragment</text><line style="stroke:#2F6FA3;stroke-width:1.25;" x1="1117.5" x2="1603.0957" y1="495.365" y2="495.365"/></g><!--class ChildQRLoginFragment--><g class="entity" data-qualified-name="auth.ChildQRLoginFragment" data-source-line="22" id="ent0006"><rect fill="#DCEEFF" height="122.6184" rx="6.25" ry="6.25" style="stroke:#2F6FA3;stroke-width:1.25;" width="473.9331" x="105" y="392.7466"/><ellipse cx="142.5" cy="444.0558" fill="#ADD1B2" rx="27.5" ry="27.5" style="stroke:#181818;stroke-width:2.5;"/><path d="M149.4141,433.7433 Q149.8047,433.1964 150.2734,432.923 Q150.7422,432.6495 151.2891,432.6495 Q152.2266,432.6495 152.8125,433.3136 Q153.3984,433.9386 153.3984,435.462 L153.3984,439.0948 Q153.3984,440.6183 152.8125,441.2823 Q152.2266,441.9464 151.2891,441.9464 Q150.4297,441.9464 149.9219,441.4386 Q149.4141,440.9698 149.1406,439.6808 Q149.0234,438.7823 148.5547,438.3136 Q147.7344,437.3761 146.2109,436.8292 Q144.6875,436.2823 143.125,436.2823 Q141.2109,436.2823 139.6094,437.1027 Q138.0469,437.923 136.7969,439.798 Q135.5859,441.673 135.5859,444.2511 L135.5859,446.9855 Q135.5859,450.0714 137.8125,452.1417 Q140.0391,454.173 144.0234,454.173 Q146.3672,454.173 148.0078,453.548 Q148.9844,453.1573 150.0391,452.0636 Q150.7031,451.3995 151.0547,451.2042 Q151.4453,451.0089 151.9531,451.0089 Q152.7734,451.0089 153.3984,451.673 Q154.0625,452.298 154.0625,453.1573 Q154.0625,454.0167 153.2031,455.0323 Q151.9531,456.4777 149.9609,457.298 Q147.2656,458.4308 144.0234,458.4308 Q140.2344,458.4308 137.2266,456.8683 Q134.7656,455.6183 133.0469,452.962 Q131.3281,450.2667 131.3281,447.0636 L131.3281,444.173 Q131.3281,440.8527 132.8516,438.0011 Q134.4141,435.1105 137.1484,433.587 Q139.8828,432.0245 142.9688,432.0245 Q144.8047,432.0245 146.4063,432.4542 Q148.0469,432.8448 149.4141,433.7433 Z " fill="#000000"/><text fill="#000000" font-family="Arial" font-size="30" font-style="italic" lengthAdjust="spacing" textLength="123.4131" x="312.76" y="433.3862">&#171;screen&#187;</text><text fill="#000000" font-family="Arial" font-size="37.5" lengthAdjust="spacing" textLength="393.9331" x="177.5" y="474.9182">ChildQRLoginFragment</text><line style="stroke:#2F6FA3;stroke-width:1.25;" x1="107.5" x2="576.4331" y1="495.365" y2="495.365"/></g><!--class ChildSelectionActivity--><g class="entity" data-qualified-name="auth.ChildSelectionActivity" data-source-line="23" id="ent0007"><rect fill="#DCEEFF" height="122.6184" rx="6.25" ry="6.25" style="stroke:#2F6FA3;stroke-width:1.25;" width="438.4839" x="138.75" y="612.7466"/><ellipse cx="176.25" cy="664.0558" fill="#ADD1B2" rx="27.5" ry="27.5" style="stroke:#181818;stroke-width:2.5;"/><path d="M183.1641,653.7433 Q183.5547,653.1964 184.0234,652.923 Q184.4922,652.6495 185.0391,652.6495 Q185.9766,652.6495 186.5625,653.3136 Q187.1484,653.9386 187.1484,655.462 L187.1484,659.0948 Q187.1484,660.6183 186.5625,661.2823 Q185.9766,661.9464 185.0391,661.9464 Q184.1797,661.9464 183.6719,661.4386 Q183.1641,660.9698 182.8906,659.6808 Q182.7734,658.7823 182.3047,658.3136 Q181.4844,657.3761 179.9609,656.8292 Q178.4375,656.2823 176.875,656.2823 Q174.9609,656.2823 173.3594,657.1027 Q171.7969,657.923 170.5469,659.798 Q169.3359,661.673 169.3359,664.2511 L169.3359,666.9855 Q169.3359,670.0714 171.5625,672.1417 Q173.7891,674.173 177.7734,674.173 Q180.1172,674.173 181.7578,673.548 Q182.7344,673.1573 183.7891,672.0636 Q184.4531,671.3995 184.8047,671.2042 Q185.1953,671.0089 185.7031,671.0089 Q186.5234,671.0089 187.1484,671.673 Q187.8125,672.298 187.8125,673.1573 Q187.8125,674.0167 186.9531,675.0323 Q185.7031,676.4777 183.7109,677.298 Q181.0156,678.4308 177.7734,678.4308 Q173.9844,678.4308 170.9766,676.8683 Q168.5156,675.6183 166.7969,672.962 Q165.0781,670.2667 165.0781,667.0636 L165.0781,664.173 Q165.0781,660.8527 166.6016,658.0011 Q168.1641,655.1105 170.8984,653.587 Q173.6328,652.0245 176.7188,652.0245 Q178.5547,652.0245 180.1563,652.4542 Q181.7969,652.8448 183.1641,653.7433 Z " fill="#000000"/><text fill="#000000" font-family="Arial" font-size="30" font-style="italic" lengthAdjust="spacing" textLength="123.4131" x="328.7854" y="653.3862">&#171;screen&#187;</text><text fill="#000000" font-family="Arial" font-size="37.5" lengthAdjust="spacing" textLength="358.4839" x="211.25" y="694.9182">ChildSelectionActivity</text><line style="stroke:#2F6FA3;stroke-width:1.25;" x1="141.25" x2="574.7339" y1="715.365" y2="715.365"/></g><!--class ParsedQr--><g class="entity" data-qualified-name="auth.ParsedQr" data-source-line="24" id="ent0008"><rect fill="#FFFFFF" height="122.6184" rx="6.25" ry="6.25" style="stroke:#666666;stroke-width:1.25;" width="644.8254" x="622.5" y="612.7466"/><ellipse cx="660" cy="664.0558" fill="#ADD1B2" rx="27.5" ry="27.5" style="stroke:#181818;stroke-width:2.5;"/><path d="M666.9141,653.7433 Q667.3047,653.1964 667.7734,652.923 Q668.2422,652.6495 668.7891,652.6495 Q669.7266,652.6495 670.3125,653.3136 Q670.8984,653.9386 670.8984,655.462 L670.8984,659.0948 Q670.8984,660.6183 670.3125,661.2823 Q669.7266,661.9464 668.7891,661.9464 Q667.9297,661.9464 667.4219,661.4386 Q666.9141,660.9698 666.6406,659.6808 Q666.5234,658.7823 666.0547,658.3136 Q665.2344,657.3761 663.7109,656.8292 Q662.1875,656.2823 660.625,656.2823 Q658.7109,656.2823 657.1094,657.1027 Q655.5469,657.923 654.2969,659.798 Q653.0859,661.673 653.0859,664.2511 L653.0859,666.9855 Q653.0859,670.0714 655.3125,672.1417 Q657.5391,674.173 661.5234,674.173 Q663.8672,674.173 665.5078,673.548 Q666.4844,673.1573 667.5391,672.0636 Q668.2031,671.3995 668.5547,671.2042 Q668.9453,671.0089 669.4531,671.0089 Q670.2734,671.0089 670.8984,671.673 Q671.5625,672.298 671.5625,673.1573 Q671.5625,674.0167 670.7031,675.0323 Q669.4531,676.4777 667.4609,677.298 Q664.7656,678.4308 661.5234,678.4308 Q657.7344,678.4308 654.7266,676.8683 Q652.2656,675.6183 650.5469,672.962 Q648.8281,670.2667 648.8281,667.0636 L648.8281,664.173 Q648.8281,660.8527 650.3516,658.0011 Q651.9141,655.1105 654.6484,653.587 Q657.3828,652.0245 660.4688,652.0245 Q662.3047,652.0245 663.9063,652.4542 Q665.5469,652.8448 666.9141,653.7433 Z " fill="#000000"/><text fill="#000000" font-family="Arial" font-size="30" font-style="italic" lengthAdjust="spacing" textLength="100.0781" x="927.3737" y="653.3862">&#171;inner&#187;</text><text fill="#000000" font-family="Arial" font-size="37.5" lengthAdjust="spacing" textLength="564.8254" x="695" y="694.9182">ChildQRLoginFragment.ParsedQr</text><line style="stroke:#666666;stroke-width:1.25;" x1="625" x2="1264.8254" y1="715.365" y2="715.365"/></g><!--class ParentItem--><g class="entity" data-qualified-name="auth.ParentItem" data-source-line="25" id="ent0009"><rect fill="#FFFFFF" height="122.6184" rx="6.25" ry="6.25" style="stroke:#666666;stroke-width:1.25;" width="632.3193" x="56.25" y="832.7466"/><ellipse cx="93.75" cy="884.0558" fill="#ADD1B2" rx="27.5" ry="27.5" style="stroke:#181818;stroke-width:2.5;"/><path d="M100.6641,873.7433 Q101.0547,873.1964 101.5234,872.923 Q101.9922,872.6495 102.5391,872.6495 Q103.4766,872.6495 104.0625,873.3136 Q104.6484,873.9386 104.6484,875.462 L104.6484,879.0948 Q104.6484,880.6183 104.0625,881.2823 Q103.4766,881.9464 102.5391,881.9464 Q101.6797,881.9464 101.1719,881.4386 Q100.6641,880.9698 100.3906,879.6808 Q100.2734,878.7823 99.8047,878.3136 Q98.9844,877.3761 97.4609,876.8292 Q95.9375,876.2823 94.375,876.2823 Q92.4609,876.2823 90.8594,877.1027 Q89.2969,877.923 88.0469,879.798 Q86.8359,881.673 86.8359,884.2511 L86.8359,886.9855 Q86.8359,890.0714 89.0625,892.1417 Q91.2891,894.173 95.2734,894.173 Q97.6172,894.173 99.2578,893.548 Q100.2344,893.1573 101.2891,892.0636 Q101.9531,891.3995 102.3047,891.2042 Q102.6953,891.0089 103.2031,891.0089 Q104.0234,891.0089 104.6484,891.673 Q105.3125,892.298 105.3125,893.1573 Q105.3125,894.0167 104.4531,895.0323 Q103.2031,896.4777 101.2109,897.298 Q98.5156,898.4308 95.2734,898.4308 Q91.4844,898.4308 88.4766,896.8683 Q86.0156,895.6183 84.2969,892.962 Q82.5781,890.2667 82.5781,887.0636 L82.5781,884.173 Q82.5781,880.8527 84.1016,878.0011 Q85.6641,875.1105 88.3984,873.587 Q91.1328,872.0245 94.2188,872.0245 Q96.0547,872.0245 97.6563,872.4542 Q99.2969,872.8448 100.6641,873.7433 Z " fill="#000000"/><text fill="#000000" font-family="Arial" font-size="30" font-style="italic" lengthAdjust="spacing" textLength="100.0781" x="354.8706" y="873.3862">&#171;inner&#187;</text><text fill="#000000" font-family="Arial" font-size="37.5" lengthAdjust="spacing" textLength="552.3193" x="128.75" y="914.9182">ChildSelectionActivity.ParentItem</text><line style="stroke:#666666;stroke-width:1.25;" x1="58.75" x2="686.0693" y1="935.365" y2="935.365"/></g><!--class SelectionChildItem--><g class="entity" data-qualified-name="auth.SelectionChildItem" data-source-line="26" id="ent0010"><rect fill="#FFFFFF" height="122.6184" rx="6.25" ry="6.25" style="stroke:#666666;stroke-width:1.25;" width="607.2888" x="733.75" y="832.7466"/><ellipse cx="771.25" cy="884.0558" fill="#ADD1B2" rx="27.5" ry="27.5" style="stroke:#181818;stroke-width:2.5;"/><path d="M778.1641,873.7433 Q778.5547,873.1964 779.0234,872.923 Q779.4922,872.6495 780.0391,872.6495 Q780.9766,872.6495 781.5625,873.3136 Q782.1484,873.9386 782.1484,875.462 L782.1484,879.0948 Q782.1484,880.6183 781.5625,881.2823 Q780.9766,881.9464 780.0391,881.9464 Q779.1797,881.9464 778.6719,881.4386 Q778.1641,880.9698 777.8906,879.6808 Q777.7734,878.7823 777.3047,878.3136 Q776.4844,877.3761 774.9609,876.8292 Q773.4375,876.2823 771.875,876.2823 Q769.9609,876.2823 768.3594,877.1027 Q766.7969,877.923 765.5469,879.798 Q764.3359,881.673 764.3359,884.2511 L764.3359,886.9855 Q764.3359,890.0714 766.5625,892.1417 Q768.7891,894.173 772.7734,894.173 Q775.1172,894.173 776.7578,893.548 Q777.7344,893.1573 778.7891,892.0636 Q779.4531,891.3995 779.8047,891.2042 Q780.1953,891.0089 780.7031,891.0089 Q781.5234,891.0089 782.1484,891.673 Q782.8125,892.298 782.8125,893.1573 Q782.8125,894.0167 781.9531,895.0323 Q780.7031,896.4777 778.7109,897.298 Q776.0156,898.4308 772.7734,898.4308 Q768.9844,898.4308 765.9766,896.8683 Q763.5156,895.6183 761.7969,892.962 Q760.0781,890.2667 760.0781,887.0636 L760.0781,884.173 Q760.0781,880.8527 761.6016,878.0011 Q763.1641,875.1105 765.8984,873.587 Q768.6328,872.0245 771.7188,872.0245 Q773.5547,872.0245 775.1563,872.4542 Q776.7969,872.8448 778.1641,873.7433 Z " fill="#000000"/><text fill="#000000" font-family="Arial" font-size="30" font-style="italic" lengthAdjust="spacing" textLength="100.0781" x="1019.8553" y="873.3862">&#171;inner&#187;</text><text fill="#000000" font-family="Arial" font-size="37.5" lengthAdjust="spacing" textLength="527.2888" x="806.25" y="914.9182">ChildSelectionActivity.ChildItem</text><line style="stroke:#666666;stroke-width:1.25;" x1="736.25" x2="1338.5388" y1="935.365" y2="935.365"/></g><!--class ParentDashboardActivity--><g class="entity" data-qualified-name="parent.ParentDashboardActivity" data-source-line="30" id="ent0012"><rect fill="#DCEEFF" height="122.6184" rx="6.25" ry="6.25" style="stroke:#2F6FA3;stroke-width:1.25;" width="492.7014" x="2861.25" y="612.7466"/><ellipse cx="2898.75" cy="664.0558" fill="#ADD1B2" rx="27.5" ry="27.5" style="stroke:#181818;stroke-width:2.5;"/><path d="M2905.6641,653.7433 Q2906.0547,653.1964 2906.5234,652.923 Q2906.9922,652.6495 2907.5391,652.6495 Q2908.4766,652.6495 2909.0625,653.3136 Q2909.6484,653.9386 2909.6484,655.462 L2909.6484,659.0948 Q2909.6484,660.6183 2909.0625,661.2823 Q2908.4766,661.9464 2907.5391,661.9464 Q2906.6797,661.9464 2906.1719,661.4386 Q2905.6641,660.9698 2905.3906,659.6808 Q2905.2734,658.7823 2904.8047,658.3136 Q2903.9844,657.3761 2902.4609,656.8292 Q2900.9375,656.2823 2899.375,656.2823 Q2897.4609,656.2823 2895.8594,657.1027 Q2894.2969,657.923 2893.0469,659.798 Q2891.8359,661.673 2891.8359,664.2511 L2891.8359,666.9855 Q2891.8359,670.0714 2894.0625,672.1417 Q2896.2891,674.173 2900.2734,674.173 Q2902.6172,674.173 2904.2578,673.548 Q2905.2344,673.1573 2906.2891,672.0636 Q2906.9531,671.3995 2907.3047,671.2042 Q2907.6953,671.0089 2908.2031,671.0089 Q2909.0234,671.0089 2909.6484,671.673 Q2910.3125,672.298 2910.3125,673.1573 Q2910.3125,674.0167 2909.4531,675.0323 Q2908.2031,676.4777 2906.2109,677.298 Q2903.5156,678.4308 2900.2734,678.4308 Q2896.4844,678.4308 2893.4766,676.8683 Q2891.0156,675.6183 2889.2969,672.962 Q2887.5781,670.2667 2887.5781,667.0636 L2887.5781,664.173 Q2887.5781,660.8527 2889.1016,658.0011 Q2890.6641,655.1105 2893.3984,653.587 Q2896.1328,652.0245 2899.2188,652.0245 Q2901.0547,652.0245 2902.6563,652.4542 Q2904.2969,652.8448 2905.6641,653.7433 Z " fill="#000000"/><text fill="#000000" font-family="Arial" font-size="30" font-style="italic" lengthAdjust="spacing" textLength="123.4131" x="3078.3942" y="653.3862">&#171;screen&#187;</text><text fill="#000000" font-family="Arial" font-size="37.5" lengthAdjust="spacing" textLength="412.7014" x="2933.75" y="694.9182">ParentDashboardActivity</text><line style="stroke:#2F6FA3;stroke-width:1.25;" x1="2863.75" x2="3351.4514" y1="715.365" y2="715.365"/></g><!--class ManageChildrenActivity--><g class="entity" data-qualified-name="parent.ManageChildrenActivity" data-source-line="31" id="ent0013"><rect fill="#DCEEFF" height="122.6184" rx="6.25" ry="6.25" style="stroke:#2F6FA3;stroke-width:1.25;" width="473.9331" x="2380" y="832.7466"/><ellipse cx="2417.5" cy="884.0558" fill="#ADD1B2" rx="27.5" ry="27.5" style="stroke:#181818;stroke-width:2.5;"/><path d="M2424.4141,873.7433 Q2424.8047,873.1964 2425.2734,872.923 Q2425.7422,872.6495 2426.2891,872.6495 Q2427.2266,872.6495 2427.8125,873.3136 Q2428.3984,873.9386 2428.3984,875.462 L2428.3984,879.0948 Q2428.3984,880.6183 2427.8125,881.2823 Q2427.2266,881.9464 2426.2891,881.9464 Q2425.4297,881.9464 2424.9219,881.4386 Q2424.4141,880.9698 2424.1406,879.6808 Q2424.0234,878.7823 2423.5547,878.3136 Q2422.7344,877.3761 2421.2109,876.8292 Q2419.6875,876.2823 2418.125,876.2823 Q2416.2109,876.2823 2414.6094,877.1027 Q2413.0469,877.923 2411.7969,879.798 Q2410.5859,881.673 2410.5859,884.2511 L2410.5859,886.9855 Q2410.5859,890.0714 2412.8125,892.1417 Q2415.0391,894.173 2419.0234,894.173 Q2421.3672,894.173 2423.0078,893.548 Q2423.9844,893.1573 2425.0391,892.0636 Q2425.7031,891.3995 2426.0547,891.2042 Q2426.4453,891.0089 2426.9531,891.0089 Q2427.7734,891.0089 2428.3984,891.673 Q2429.0625,892.298 2429.0625,893.1573 Q2429.0625,894.0167 2428.2031,895.0323 Q2426.9531,896.4777 2424.9609,897.298 Q2422.2656,898.4308 2419.0234,898.4308 Q2415.2344,898.4308 2412.2266,896.8683 Q2409.7656,895.6183 2408.0469,892.962 Q2406.3281,890.2667 2406.3281,887.0636 L2406.3281,884.173 Q2406.3281,880.8527 2407.8516,878.0011 Q2409.4141,875.1105 2412.1484,873.587 Q2414.8828,872.0245 2417.9688,872.0245 Q2419.8047,872.0245 2421.4063,872.4542 Q2423.0469,872.8448 2424.4141,873.7433 Z " fill="#000000"/><text fill="#000000" font-family="Arial" font-size="30" font-style="italic" lengthAdjust="spacing" textLength="123.4131" x="2587.76" y="873.3862">&#171;screen&#187;</text><text fill="#000000" font-family="Arial" font-size="37.5" lengthAdjust="spacing" textLength="393.9331" x="2452.5" y="914.9182">ManageChildrenActivity</text><line style="stroke:#2F6FA3;stroke-width:1.25;" x1="2382.5" x2="2851.4331" y1="935.365" y2="935.365"/></g><!--class GenerateQRActivity--><g class="entity" data-qualified-name="parent.GenerateQRActivity" data-source-line="32" id="ent0014"><rect fill="#DCEEFF" height="122.6184" rx="6.25" ry="6.25" style="stroke:#2F6FA3;stroke-width:1.25;" width="411.366" x="2901.25" y="832.7466"/><ellipse cx="2938.75" cy="884.0558" fill="#ADD1B2" rx="27.5" ry="27.5" style="stroke:#181818;stroke-width:2.5;"/><path d="M2945.6641,873.7433 Q2946.0547,873.1964 2946.5234,872.923 Q2946.9922,872.6495 2947.5391,872.6495 Q2948.4766,872.6495 2949.0625,873.3136 Q2949.6484,873.9386 2949.6484,875.462 L2949.6484,879.0948 Q2949.6484,880.6183 2949.0625,881.2823 Q2948.4766,881.9464 2947.5391,881.9464 Q2946.6797,881.9464 2946.1719,881.4386 Q2945.6641,880.9698 2945.3906,879.6808 Q2945.2734,878.7823 2944.8047,878.3136 Q2943.9844,877.3761 2942.4609,876.8292 Q2940.9375,876.2823 2939.375,876.2823 Q2937.4609,876.2823 2935.8594,877.1027 Q2934.2969,877.923 2933.0469,879.798 Q2931.8359,881.673 2931.8359,884.2511 L2931.8359,886.9855 Q2931.8359,890.0714 2934.0625,892.1417 Q2936.2891,894.173 2940.2734,894.173 Q2942.6172,894.173 2944.2578,893.548 Q2945.2344,893.1573 2946.2891,892.0636 Q2946.9531,891.3995 2947.3047,891.2042 Q2947.6953,891.0089 2948.2031,891.0089 Q2949.0234,891.0089 2949.6484,891.673 Q2950.3125,892.298 2950.3125,893.1573 Q2950.3125,894.0167 2949.4531,895.0323 Q2948.2031,896.4777 2946.2109,897.298 Q2943.5156,898.4308 2940.2734,898.4308 Q2936.4844,898.4308 2933.4766,896.8683 Q2931.0156,895.6183 2929.2969,892.962 Q2927.5781,890.2667 2927.5781,887.0636 L2927.5781,884.173 Q2927.5781,880.8527 2929.1016,878.0011 Q2930.6641,875.1105 2933.3984,873.587 Q2936.1328,872.0245 2939.2188,872.0245 Q2941.0547,872.0245 2942.6563,872.4542 Q2944.2969,872.8448 2945.6641,873.7433 Z " fill="#000000"/><text fill="#000000" font-family="Arial" font-size="30" font-style="italic" lengthAdjust="spacing" textLength="123.4131" x="3077.7264" y="873.3862">&#171;screen&#187;</text><text fill="#000000" font-family="Arial" font-size="37.5" lengthAdjust="spacing" textLength="331.366" x="2973.75" y="914.9182">GenerateQRActivity</text><line style="stroke:#2F6FA3;stroke-width:1.25;" x1="2903.75" x2="3310.116" y1="935.365" y2="935.365"/></g><!--class AssignTaskToChildActivity--><g class="entity" data-qualified-name="parent.AssignTaskToChildActivity" data-source-line="33" id="ent0015"><rect fill="#DCEEFF" height="122.6184" rx="6.25" ry="6.25" style="stroke:#2F6FA3;stroke-width:1.25;" width="521.7969" x="3358.75" y="832.7466"/><ellipse cx="3396.25" cy="884.0558" fill="#ADD1B2" rx="27.5" ry="27.5" style="stroke:#181818;stroke-width:2.5;"/><path d="M3403.1641,873.7433 Q3403.5547,873.1964 3404.0234,872.923 Q3404.4922,872.6495 3405.0391,872.6495 Q3405.9766,872.6495 3406.5625,873.3136 Q3407.1484,873.9386 3407.1484,875.462 L3407.1484,879.0948 Q3407.1484,880.6183 3406.5625,881.2823 Q3405.9766,881.9464 3405.0391,881.9464 Q3404.1797,881.9464 3403.6719,881.4386 Q3403.1641,880.9698 3402.8906,879.6808 Q3402.7734,878.7823 3402.3047,878.3136 Q3401.4844,877.3761 3399.9609,876.8292 Q3398.4375,876.2823 3396.875,876.2823 Q3394.9609,876.2823 3393.3594,877.1027 Q3391.7969,877.923 3390.5469,879.798 Q3389.3359,881.673 3389.3359,884.2511 L3389.3359,886.9855 Q3389.3359,890.0714 3391.5625,892.1417 Q3393.7891,894.173 3397.7734,894.173 Q3400.1172,894.173 3401.7578,893.548 Q3402.7344,893.1573 3403.7891,892.0636 Q3404.4531,891.3995 3404.8047,891.2042 Q3405.1953,891.0089 3405.7031,891.0089 Q3406.5234,891.0089 3407.1484,891.673 Q3407.8125,892.298 3407.8125,893.1573 Q3407.8125,894.0167 3406.9531,895.0323 Q3405.7031,896.4777 3403.7109,897.298 Q3401.0156,898.4308 3397.7734,898.4308 Q3393.9844,898.4308 3390.9766,896.8683 Q3388.5156,895.6183 3386.7969,892.962 Q3385.0781,890.2667 3385.0781,887.0636 L3385.0781,884.173 Q3385.0781,880.8527 3386.6016,878.0011 Q3388.1641,875.1105 3390.8984,873.587 Q3393.6328,872.0245 3396.7188,872.0245 Q3398.5547,872.0245 3400.1563,872.4542 Q3401.7969,872.8448 3403.1641,873.7433 Z " fill="#000000"/><text fill="#000000" font-family="Arial" font-size="30" font-style="italic" lengthAdjust="spacing" textLength="123.4131" x="3590.4419" y="873.3862">&#171;screen&#187;</text><text fill="#000000" font-family="Arial" font-size="37.5" lengthAdjust="spacing" textLength="441.7969" x="3431.25" y="914.9182">AssignTaskToChildActivity</text><line style="stroke:#2F6FA3;stroke-width:1.25;" x1="3361.25" x2="3878.0469" y1="935.365" y2="935.365"/></g><!--class ParentTaskTemplateActivity--><g class="entity" data-qualified-name="parent.ParentTaskTemplateActivity" data-source-line="34" id="ent0016"><rect fill="#DCEEFF" height="122.6184" rx="6.25" ry="6.25" style="stroke:#2F6FA3;stroke-width:1.25;" width="546.8274" x="3926.25" y="832.7466"/><ellipse cx="3963.75" cy="884.0558" fill="#ADD1B2" rx="27.5" ry="27.5" style="stroke:#181818;stroke-width:2.5;"/><path d="M3970.6641,873.7433 Q3971.0547,873.1964 3971.5234,872.923 Q3971.9922,872.6495 3972.5391,872.6495 Q3973.4766,872.6495 3974.0625,873.3136 Q3974.6484,873.9386 3974.6484,875.462 L3974.6484,879.0948 Q3974.6484,880.6183 3974.0625,881.2823 Q3973.4766,881.9464 3972.5391,881.9464 Q3971.6797,881.9464 3971.1719,881.4386 Q3970.6641,880.9698 3970.3906,879.6808 Q3970.2734,878.7823 3969.8047,878.3136 Q3968.9844,877.3761 3967.4609,876.8292 Q3965.9375,876.2823 3964.375,876.2823 Q3962.4609,876.2823 3960.8594,877.1027 Q3959.2969,877.923 3958.0469,879.798 Q3956.8359,881.673 3956.8359,884.2511 L3956.8359,886.9855 Q3956.8359,890.0714 3959.0625,892.1417 Q3961.2891,894.173 3965.2734,894.173 Q3967.6172,894.173 3969.2578,893.548 Q3970.2344,893.1573 3971.2891,892.0636 Q3971.9531,891.3995 3972.3047,891.2042 Q3972.6953,891.0089 3973.2031,891.0089 Q3974.0234,891.0089 3974.6484,891.673 Q3975.3125,892.298 3975.3125,893.1573 Q3975.3125,894.0167 3974.4531,895.0323 Q3973.2031,896.4777 3971.2109,897.298 Q3968.5156,898.4308 3965.2734,898.4308 Q3961.4844,898.4308 3958.4766,896.8683 Q3956.0156,895.6183 3954.2969,892.962 Q3952.5781,890.2667 3952.5781,887.0636 L3952.5781,884.173 Q3952.5781,880.8527 3954.1016,878.0011 Q3955.6641,875.1105 3958.3984,873.587 Q3961.1328,872.0245 3964.2188,872.0245 Q3966.0547,872.0245 3967.6563,872.4542 Q3969.2969,872.8448 3970.6641,873.7433 Z " fill="#000000"/><text fill="#000000" font-family="Arial" font-size="30" font-style="italic" lengthAdjust="spacing" textLength="123.4131" x="4170.4572" y="873.3862">&#171;screen&#187;</text><text fill="#000000" font-family="Arial" font-size="37.5" lengthAdjust="spacing" textLength="466.8274" x="3998.75" y="914.9182">ParentTaskTemplateActivity</text><line style="stroke:#2F6FA3;stroke-width:1.25;" x1="3928.75" x2="4470.5774" y1="935.365" y2="935.365"/></g><!--class ParentFilterMode--><g class="entity" data-qualified-name="parent.ParentFilterMode" data-source-line="35" id="ent0017"><rect fill="#FFFFFF" height="122.6184" rx="6.25" ry="6.25" style="stroke:#666666;stroke-width:1.25;" width="680.2563" x="4520" y="832.7466"/><ellipse cx="4557.5" cy="884.0558" fill="#EB937F" rx="27.5" ry="27.5" style="stroke:#181818;stroke-width:2.5;"/><path d="M4554.6484,886.048 L4554.6484,892.298 L4565.4688,892.298 L4565.4688,889.9933 Q4565.4688,888.4698 4566.0547,887.8058 Q4566.6797,887.1417 4567.6172,887.1417 Q4568.5547,887.1417 4569.1406,887.8058 Q4569.7266,888.4698 4569.7266,889.9933 L4569.7266,896.5558 L4549.7266,896.5558 Q4548.1641,896.5558 4547.5,895.9698 Q4546.875,895.3839 4546.875,894.4073 Q4546.875,893.4698 4547.5391,892.8839 Q4548.2031,892.298 4549.7266,892.298 L4550.3906,892.298 L4550.3906,875.6573 L4549.7266,875.6573 Q4548.1641,875.6573 4547.5,875.0714 Q4546.875,874.4855 4546.875,873.5089 Q4546.875,872.5714 4547.5,871.9855 Q4548.1641,871.3995 4549.7266,871.3995 L4568.7891,871.3995 L4568.7891,877.8839 Q4568.7891,879.4073 4568.2031,880.0714 Q4567.6563,880.6964 4566.6797,880.6964 Q4565.7422,880.6964 4565.1563,880.0714 Q4564.5703,879.4073 4564.5703,877.8839 L4564.5703,875.6573 L4554.6484,875.6573 L4554.6484,881.7902 L4558.3594,881.7902 Q4558.3594,880.1495 4558.6719,879.6808 Q4559.3359,878.6652 4560.5078,878.6652 Q4561.4453,878.6652 4562.0313,879.3292 Q4562.6172,879.9542 4562.6172,881.4777 L4562.6172,886.3995 Q4562.6172,887.7667 4562.3047,888.2355 Q4561.6406,889.212 4560.5078,889.212 Q4559.3359,889.212 4558.6719,888.1964 Q4558.3594,887.7277 4558.3594,886.048 L4554.6484,886.048 Z " fill="#000000"/><text fill="#000000" font-family="Arial" font-size="30" font-style="italic" lengthAdjust="spacing" textLength="100.0781" x="4842.5891" y="873.3862">&#171;inner&#187;</text><text fill="#000000" font-family="Arial" font-size="37.5" lengthAdjust="spacing" textLength="600.2563" x="4592.5" y="914.9182">ParentDashboardActivity.FilterMode</text><line style="stroke:#666666;stroke-width:1.25;" x1="4522.5" x2="5197.7563" y1="935.365" y2="935.365"/></g><!--class ChildDashboardActivity--><g class="entity" data-qualified-name="child.ChildDashboardActivity" data-source-line="39" id="ent0019"><rect fill="#DCEEFF" height="122.6184" rx="6.25" ry="6.25" style="stroke:#2F6FA3;stroke-width:1.25;" width="467.6709" x="1666.25" y="832.7466"/><ellipse cx="1703.75" cy="884.0558" fill="#ADD1B2" rx="27.5" ry="27.5" style="stroke:#181818;stroke-width:2.5;"/><path d="M1710.6641,873.7433 Q1711.0547,873.1964 1711.5234,872.923 Q1711.9922,872.6495 1712.5391,872.6495 Q1713.4766,872.6495 1714.0625,873.3136 Q1714.6484,873.9386 1714.6484,875.462 L1714.6484,879.0948 Q1714.6484,880.6183 1714.0625,881.2823 Q1713.4766,881.9464 1712.5391,881.9464 Q1711.6797,881.9464 1711.1719,881.4386 Q1710.6641,880.9698 1710.3906,879.6808 Q1710.2734,878.7823 1709.8047,878.3136 Q1708.9844,877.3761 1707.4609,876.8292 Q1705.9375,876.2823 1704.375,876.2823 Q1702.4609,876.2823 1700.8594,877.1027 Q1699.2969,877.923 1698.0469,879.798 Q1696.8359,881.673 1696.8359,884.2511 L1696.8359,886.9855 Q1696.8359,890.0714 1699.0625,892.1417 Q1701.2891,894.173 1705.2734,894.173 Q1707.6172,894.173 1709.2578,893.548 Q1710.2344,893.1573 1711.2891,892.0636 Q1711.9531,891.3995 1712.3047,891.2042 Q1712.6953,891.0089 1713.2031,891.0089 Q1714.0234,891.0089 1714.6484,891.673 Q1715.3125,892.298 1715.3125,893.1573 Q1715.3125,894.0167 1714.4531,895.0323 Q1713.2031,896.4777 1711.2109,897.298 Q1708.5156,898.4308 1705.2734,898.4308 Q1701.4844,898.4308 1698.4766,896.8683 Q1696.0156,895.6183 1694.2969,892.962 Q1692.5781,890.2667 1692.5781,887.0636 L1692.5781,884.173 Q1692.5781,880.8527 1694.1016,878.0011 Q1695.6641,875.1105 1698.3984,873.587 Q1701.1328,872.0245 1704.2188,872.0245 Q1706.0547,872.0245 1707.6563,872.4542 Q1709.2969,872.8448 1710.6641,873.7433 Z " fill="#000000"/><text fill="#000000" font-family="Arial" font-size="30" font-style="italic" lengthAdjust="spacing" textLength="123.4131" x="1870.8789" y="873.3862">&#171;screen&#187;</text><text fill="#000000" font-family="Arial" font-size="37.5" lengthAdjust="spacing" textLength="387.6709" x="1738.75" y="914.9182">ChildDashboardActivity</text><line style="stroke:#2F6FA3;stroke-width:1.25;" x1="1668.75" x2="2131.4209" y1="935.365" y2="935.365"/></g><!--class ChildFilterMode--><g class="entity" data-qualified-name="child.ChildFilterMode" data-source-line="40" id="ent0020"><rect fill="#FFFFFF" height="122.6184" rx="6.25" ry="6.25" style="stroke:#666666;stroke-width:1.25;" width="655.2258" x="1665" y="1045.2466"/><ellipse cx="1702.5" cy="1096.5558" fill="#EB937F" rx="27.5" ry="27.5" style="stroke:#181818;stroke-width:2.5;"/><path d="M1699.6484,1098.548 L1699.6484,1104.798 L1710.4688,1104.798 L1710.4688,1102.4933 Q1710.4688,1100.9698 1711.0547,1100.3058 Q1711.6797,1099.6417 1712.6172,1099.6417 Q1713.5547,1099.6417 1714.1406,1100.3058 Q1714.7266,1100.9698 1714.7266,1102.4933 L1714.7266,1109.0558 L1694.7266,1109.0558 Q1693.1641,1109.0558 1692.5,1108.4698 Q1691.875,1107.8839 1691.875,1106.9073 Q1691.875,1105.9698 1692.5391,1105.3839 Q1693.2031,1104.798 1694.7266,1104.798 L1695.3906,1104.798 L1695.3906,1088.1573 L1694.7266,1088.1573 Q1693.1641,1088.1573 1692.5,1087.5714 Q1691.875,1086.9855 1691.875,1086.0089 Q1691.875,1085.0714 1692.5,1084.4855 Q1693.1641,1083.8995 1694.7266,1083.8995 L1713.7891,1083.8995 L1713.7891,1090.3839 Q1713.7891,1091.9073 1713.2031,1092.5714 Q1712.6563,1093.1964 1711.6797,1093.1964 Q1710.7422,1093.1964 1710.1563,1092.5714 Q1709.5703,1091.9073 1709.5703,1090.3839 L1709.5703,1088.1573 L1699.6484,1088.1573 L1699.6484,1094.2902 L1703.3594,1094.2902 Q1703.3594,1092.6495 1703.6719,1092.1808 Q1704.3359,1091.1652 1705.5078,1091.1652 Q1706.4453,1091.1652 1707.0313,1091.8292 Q1707.6172,1092.4542 1707.6172,1093.9777 L1707.6172,1098.8995 Q1707.6172,1100.2667 1707.3047,1100.7355 Q1706.6406,1101.712 1705.5078,1101.712 Q1704.3359,1101.712 1703.6719,1100.6964 Q1703.3594,1100.2277 1703.3594,1098.548 L1699.6484,1098.548 Z " fill="#000000"/><text fill="#000000" font-family="Arial" font-size="30" font-style="italic" lengthAdjust="spacing" textLength="100.0781" x="1975.0739" y="1085.8862">&#171;inner&#187;</text><text fill="#000000" font-family="Arial" font-size="37.5" lengthAdjust="spacing" textLength="575.2258" x="1737.5" y="1127.4182">ChildDashboardActivity.FilterMode</text><line style="stroke:#666666;stroke-width:1.25;" x1="1667.5" x2="2317.7258" y1="1147.865" y2="1147.865"/></g><g class="link" data-entity-1="ent0003" data-entity-2="ent0004" data-link-type="dependency" id="lnk21"><polygon fill="#181818" points="775.6398,392.4431,764.6055,370.4319,765.9824,384.5069,751.9074,385.8838,775.6398,392.4431" style="stroke:#181818;stroke-width:2.5;"/><path d="M666.681,302.9027 C700.7984,330.9398 729.9105,354.8636 764.0509,382.9196" fill="none" style="stroke:#181818;stroke-width:2.5;stroke-dasharray:17.5,17.5;"/></g><g class="link" data-entity-1="ent0003" data-entity-2="ent0005" data-link-type="dependency" id="lnk22"><polygon fill="#181818" points="1143.1871,392.6879,1124.0896,377.1465,1131.123,389.4156,1118.854,396.449,1143.1871,392.6879" style="stroke:#181818;stroke-width:2.5;"/><path d="M735.3128,282.0553 C849.4037,313.0015 997.8534,353.2673 1128.7102,388.7611" fill="none" style="stroke:#181818;stroke-width:2.5;stroke-dasharray:17.5,17.5;"/></g><g class="link" data-entity-1="ent0003" data-entity-2="ent0006" data-link-type="dependency" id="lnk23"><polygon fill="#181818" points="414.3602,392.4431,438.0926,385.8838,424.0176,384.5069,425.3945,370.4319,414.3602,392.4431" style="stroke:#181818;stroke-width:2.5;"/><path d="M523.319,302.9027 C489.2016,330.9398 460.0895,354.8636 425.9491,382.9196" fill="none" style="stroke:#181818;stroke-width:2.5;stroke-dasharray:17.5,17.5;"/></g><g class="link" data-entity-1="ent0003" data-entity-2="ent0007" data-link-type="dependency" id="lnk24"><polygon fill="#181818" points="190.485,612.6957,175.5835,593.0948,179.5305,606.675,165.9503,610.622,190.485,612.6957" style="stroke:#181818;stroke-width:2.5;"/><path d="M454.7862,265.4974 C319.0406,289.5167 127.3575,333.0183 82.5,392.7466 C49.8048,436.2807 55.1152,468.1906 82.5,515.2466 C107.0815,557.4856 134.6636,582.0156 177.3396,605.4708" fill="none" style="stroke:#181818;stroke-width:2.5;stroke-dasharray:17.5,17.5;"/></g><g class="link" data-entity-1="ent0004" data-entity-2="ent0012" data-link-type="dependency" id="lnk25"><polygon fill="#181818" points="2860.9693,644.4756,2839.652,632.1541,2848.5393,643.1548,2837.5386,652.0421,2860.9693,644.4756" style="stroke:#181818;stroke-width:2.5;"/><path d="M1068.8103,511.6461 C1076.7847,512.9698 1084.6995,514.1783 1092.5,515.2466 C1331.5437,547.983 1394.2277,519.6811 1635,535.2466 C2067.0165,563.1757 2553.8659,611.8418 2846.0533,642.8906" fill="none" style="stroke:#181818;stroke-width:2.5;stroke-dasharray:17.5,17.5;"/></g><g class="link" data-entity-1="ent0005" data-entity-2="ent0012" data-link-type="dependency" id="lnk26"><polygon fill="#181818" points="2861.0971,641.1809,2839.9866,628.5082,2848.6906,639.6545,2837.5443,648.3586,2861.0971,641.1809" style="stroke:#181818;stroke-width:2.5;"/><path d="M1605.7444,486.7312 C1938.2964,527.6461 2513.3179,598.3926 2846.2093,639.3492" fill="none" style="stroke:#181818;stroke-width:2.5;stroke-dasharray:17.5,17.5;"/></g><g class="link" data-entity-1="ent0006" data-entity-2="ent0007" data-link-type="dependency" id="lnk27"><polygon fill="#181818" points="353.3959,612.6714,361.8057,589.53,352.5259,600.2017,341.8542,590.9219,353.3959,612.6714" style="stroke:#181818;stroke-width:2.5;"/><path d="M346.6783,516.3861 C348.7762,546.4549 350.2645,567.788 352.3519,597.7078" fill="none" style="stroke:#181818;stroke-width:2.5;stroke-dasharray:17.5,17.5;"/></g><g class="link" data-entity-1="ent0006" data-entity-2="ent0019" data-link-type="dependency" id="lnk28"><polygon fill="#181818" points="1827.6556,832.7131,1816.0028,811.023,1817.7775,825.0534,1803.7471,826.8281,1827.6556,832.7131" style="stroke:#181818;stroke-width:2.5;"/><path d="M580.2109,512.1401 C587.7108,513.2772 595.1541,514.3186 602.5,515.2466 C754.1373,534.4017 1143.0608,493.1791 1290,535.2466 C1502.8163,596.1741 1706.9271,739.097 1815.8018,823.5214" fill="none" style="stroke:#181818;stroke-width:2.5;stroke-dasharray:17.5,17.5;"/></g><g class="link" data-entity-1="ent0006" data-entity-2="ent0008" data-link-type="nested" id="lnk29"><ellipse cx="557.6113" cy="521.6152" fill="#FFFFFF" rx="20" ry="20" style="stroke:#181818;stroke-width:2.5;"/><line style="stroke:#181818;stroke-width:2.5;" x1="576.6334" x2="538.5893" y1="527.7928" y2="515.4377"/><line style="stroke:#181818;stroke-width:2.5;" x1="551.4338" x2="563.7889" y1="540.6373" y2="502.5932"/><path d="M576.6334,527.7928 C596.5982,534.2765 578.4758,528.5897 597.5,535.2466 C665.3932,559.0034 739.7415,587.7741 802.1829,612.7443" fill="none" style="stroke:#181818;stroke-width:2.5;"/></g><g class="link" data-entity-1="ent0007" data-entity-2="ent0019" data-link-type="dependency" id="lnk30"><polygon fill="#181818" points="1810.9013,832.6944,1796.6176,812.6387,1800.1397,826.3353,1786.4431,829.8573,1810.9013,832.6944" style="stroke:#181818;stroke-width:2.5;"/><path d="M576.5205,731.8251 C584.4225,733.0982 592.2669,734.2473 600,735.2466 C714.0731,749.9867 1523.4726,727.1117 1635,755.2466 C1697.1988,770.9374 1748.4026,795.7637 1797.9873,825.0635" fill="none" style="stroke:#181818;stroke-width:2.5;stroke-dasharray:17.5,17.5;"/></g><g class="link" data-entity-1="ent0007" data-entity-2="ent0009" data-link-type="nested" id="lnk31"><ellipse cx="363.0703" cy="756.3376" fill="#FFFFFF" rx="20" ry="20" style="stroke:#181818;stroke-width:2.5;"/><line style="stroke:#181818;stroke-width:2.5;" x1="364.4623" x2="361.6783" y1="776.2891" y2="736.3861"/><line style="stroke:#181818;stroke-width:2.5;" x1="343.1188" x2="383.0218" y1="757.7295" y2="754.9456"/><path d="M364.4623,776.2891 C366.5601,806.3579 366.3085,802.7516 368.3959,832.6714" fill="none" style="stroke:#181818;stroke-width:2.5;"/></g><g class="link" data-entity-1="ent0007" data-entity-2="ent0010" data-link-type="nested" id="lnk32"><ellipse cx="596.3235" cy="734.5326" fill="#FFFFFF" rx="20" ry="20" style="stroke:#181818;stroke-width:2.5;"/><line style="stroke:#181818;stroke-width:2.5;" x1="615.8543" x2="576.7928" y1="738.8396" y2="730.2257"/><line style="stroke:#181818;stroke-width:2.5;" x1="592.0166" x2="600.6305" y1="754.0634" y2="715.0019"/><path d="M615.8543,738.8396 C664.4657,749.1383 662.3428,741.178 710,755.2466 C779.1027,775.646 853.4486,805.8586 913.8111,832.6536" fill="none" style="stroke:#181818;stroke-width:2.5;"/></g><g class="link" data-entity-1="ent0012" data-entity-2="ent0013" data-link-type="dependency" id="lnk33"><polygon fill="#181818" points="2722.4494,832.5629,2747.0033,830.7306,2733.4626,826.6502,2737.543,813.1095,2722.4494,832.5629" style="stroke:#181818;stroke-width:2.5;"/><path d="M2928.9498,735.5129 C2912.2791,741.8587 2895.7432,748.4787 2880,755.2466 C2826.9315,778.0603 2783.0273,800.0401 2735.6652,825.4676" fill="none" style="stroke:#181818;stroke-width:2.5;stroke-dasharray:17.5,17.5;"/></g><g class="link" data-entity-1="ent0012" data-entity-2="ent0016" data-link-type="dependency" id="lnk34"><polygon fill="#181818" points="4095.3646,832.7344,4079.8944,813.5792,4084.2382,827.0377,4070.7797,831.3815,4095.3646,832.7344" style="stroke:#181818;stroke-width:2.5;"/><path d="M3353.8814,679.6882 C3513.4631,686.8926 3724.4317,706.1365 3905,755.2466 C3970.8683,773.1611 4027.0229,797.7435 4082.0129,825.8983" fill="none" style="stroke:#181818;stroke-width:2.5;stroke-dasharray:17.5,17.5;"/></g><g class="link" data-entity-1="ent0012" data-entity-2="ent0015" data-link-type="dependency" id="lnk35"><polygon fill="#181818" points="3505.9534,832.6537,3490.2441,813.6941,3494.7564,827.0971,3481.3534,831.6094,3505.9534,832.6537" style="stroke:#181818;stroke-width:2.5;"/><path d="M3286.5826,735.4672 C3303.8938,741.8694 3321.102,748.5131 3337.5,755.2466 C3393.9146,778.412 3441.6023,800.7188 3492.517,825.9857" fill="none" style="stroke:#181818;stroke-width:2.5;stroke-dasharray:17.5,17.5;"/></g><g class="link" data-entity-1="ent0012" data-entity-2="ent0014" data-link-type="dependency" id="lnk36"><polygon fill="#181818" points="3107.5,832.6714,3117.5,810.1714,3107.5,820.1714,3097.5,810.1714,3107.5,832.6714" style="stroke:#181818;stroke-width:2.5;"/><path d="M3107.5,736.3861 C3107.5,766.4549 3107.5,787.7516 3107.5,817.6714" fill="none" style="stroke:#181818;stroke-width:2.5;stroke-dasharray:17.5,17.5;"/></g><g class="link" data-entity-1="ent0012" data-entity-2="ent0017" data-link-type="nested" id="lnk37"><ellipse cx="3373.7899" cy="682.0067" fill="#FFFFFF" rx="20" ry="20" style="stroke:#181818;stroke-width:2.5;"/><line style="stroke:#181818;stroke-width:2.5;" x1="3393.7837" x2="3353.7961" y1="682.5042" y2="681.5093"/><line style="stroke:#181818;stroke-width:2.5;" x1="3373.2924" x2="3374.2874" y1="702.0006" y2="662.0129"/><path d="M3393.7837,682.5042 C3733.0716,690.9461 4286.2816,710.6551 4497.5,755.2466 C4577.7548,772.1896 4663.8448,803.9278 4731.9815,832.5116" fill="none" style="stroke:#181818;stroke-width:2.5;"/></g><g class="link" data-entity-1="ent0019" data-entity-2="ent0020" data-link-type="nested" id="lnk38"><ellipse cx="1934.4025" cy="973.6699" fill="#FFFFFF" rx="20" ry="20" style="stroke:#181818;stroke-width:2.5;"/><line style="stroke:#181818;stroke-width:2.5;" x1="1942.5457" x2="1926.2594" y1="991.937" y2="955.4027"/><line style="stroke:#181818;stroke-width:2.5;" x1="1916.1354" x2="1952.6697" y1="981.813" y2="965.5267"/><path d="M1942.5457,991.937 C1955.0442,1019.9741 1953.6681,1016.8872 1966.175,1044.9431" fill="none" style="stroke:#181818;stroke-width:2.5;"/></g><g class="caption" data-source-line="16"><text fill="#000000" font-family="Arial" font-size="35" lengthAdjust="spacing" textLength="612.8418" x="2292.3291" y="1228.0762">Current screens and navigation targets.</text></g><?plantuml-src ZLJ1Rjim3BthAxZiECJOigtOeGZWfVLGO1cMf3_0sgmjH9OCIMwH3VltoKfgkx7bL3U9ZuzF59_ULHhp4a7WGTKMJ4aM9JApvx92ZILa5OV5bu-z4rDWffwvpE4HXQ5UH719zb0HA6qBrGka0es9hTNyeRPqbogvuty8-gmPFM8jRAAa_OKbGQmvYdEA9kepFttjXIfCzvXJ5_pM2yPQg-Skj3Yd_EwISwrgcQsKKFhwsgIQI2wNyFvcTNkR98C4fJFI0_0YkKhYpnVPkPIa6tpYroHvYxtoYnKy8w2oiWTmprIep33BhI18iEJY0FTezWRciFEYODKGac4fLfOhjw-r9kdUs8SDeCn0uXFFqOSjwfoiYHWxzHDcMDjYzj87-CkyH5WZbt5g-HDtGheMdAA_iIdoK-LS9ireDHK3e2tbt5ZIOTogu2BRR2-mUTIE1ANDHSBIPcDqaTDYADle6Q0NvZVGTlzLxg18TBp9dQNo9V-qVJE3Fsu9sdXxt2FwrtkRobSQlivHmGsQua6XpiBTM3kVv-JBk8mmxWUvucXfimrZOcDuBflvkrUUyT9yUAWRPU68nx0awn9cWRj42HTkRDOgerxJkyD0nz96sB1XNkzaluvYnd7dMZmg9EMLSw9eEMQM4EZSB4FSs7G7K8CfP6EsxOeFhiq23fvA6JNpXAHf_1lvFypdhQbPuAEun3dCEB6Uh3w56lgPXHpQo1WtvMHAs52JQK7BJcODFuCWlEjHPmSMC5k3FNFEVm00?></g></svg>