<?plantuml 1.2026.2?><svg xmlns="http://www.w3.org/2000/svg" xmlns:xlink="http://www.w3.org/1999/xlink" contentStyleType="text/css" data-diagram-type="CLASS" height="1907.5px" preserveAspectRatio="none" style="width:5932px;height:1907px;background:#FFFFFF;" version="1.1" viewBox="0 0 5932 1907" width="5932.5px" zoomAndPan="magnify"><title>Family Tasks - Adapter Classes</title><defs/><g><g class="title" data-source-line="22"><text fill="#000000" font-family="Arial" font-size="35" font-weight="bold" lengthAdjust="spacing" textLength="525.2393" x="2469.8804" y="57.8296">Family Tasks - Adapter Classes</text></g><!--cluster Screens / Activities / Fragments--><g class="cluster" data-qualified-name="Screens . Activities . Fragments" data-source-line="25" id="ent0002"><path d="M161.25,102.7466 L844.0234,102.7466 A9.375,9.375 0 0 1 850.2734,108.9966 L867.7734,169.4922 L1258.75,169.4922 A6.25,6.25 0 0 1 1265,175.7422 L1265,316.4966 A6.25,6.25 0 0 1 1258.75,322.7466 L161.25,322.7466 A6.25,6.25 0 0 1 155,316.4966 L155,108.9966 A6.25,6.25 0 0 1 161.25,102.7466" fill="#DCEEFF" style="stroke:#000000;stroke-width:3.75;"/><line style="stroke:#000000;stroke-width:3.75;" x1="155" x2="867.7734" y1="169.4922" y2="169.4922"/><text fill="#000000" font-family="Arial" font-size="45" font-weight="bold" lengthAdjust="spacing" textLength="680.2734" x="165" y="149.9561">Screens / Activities / Fragments</text></g><!--cluster Models--><g class="cluster" data-qualified-name="Models" data-source-line="30" id="ent0005"><path d="M3901.25,1025.2466 L4058.7671,1025.2466 A9.375,9.375 0 0 1 4065.0171,1031.4966 L4082.5171,1091.9922 L5481.25,1091.9922 A6.25,6.25 0 0 1 5487.5,1098.2422 L5487.5,1493.9966 A6.25,6.25 0 0 1 5481.25,1500.2466 L3901.25,1500.2466 A6.25,6.25 0 0 1 3895,1493.9966 L3895,1031.4966 A6.25,6.25 0 0 1 3901.25,1025.2466" fill="#E2F5E6" style="stroke:#000000;stroke-width:3.75;"/><line style="stroke:#000000;stroke-width:3.75;" x1="3895" x2="4082.5171" y1="1091.9922" y2="1091.9922"/><text fill="#000000" font-family="Arial" font-size="45" font-weight="bold" lengthAdjust="spacing" textLength="155.0171" x="3905" y="1072.4561">Models</text></g><!--cluster Adapters--><g class="cluster" data-qualified-name="Adapters" data-source-line="39" id="ent0012"><path d="M1448.75,410.2466 L1646.3013,410.2466 A9.375,9.375 0 0 1 1652.5513,416.4966 L1670.0513,476.9922 L5398.75,476.9922 A6.25,6.25 0 0 1 5405,483.2422 L5405,931.4966 A6.25,6.25 0 0 1 5398.75,937.7466 L1448.75,937.7466 A6.25,6.25 0 0 1 1442.5,931.4966 L1442.5,416.4966 A6.25,6.25 0 0 1 1448.75,410.2466" fill="#FFF3BF" style="stroke:#000000;stroke-width:3.75;"/><line style="stroke:#000000;stroke-width:3.75;" x1="1442.5" x2="1670.0513" y1="476.9922" y2="476.9922"/><text fill="#000000" font-family="Arial" font-size="45" font-weight="bold" lengthAdjust="spacing" textLength="195.0513" x="1452.5" y="457.4561">Adapters</text></g><!--cluster Utils / Firebase--><g class="cluster" data-qualified-name="Utils . Firebase" data-source-line="51" id="ent0022"><path d="M41.25,717.7466 L363.8696,717.7466 A9.375,9.375 0 0 1 370.1196,723.9966 L387.6196,784.4922 L943.75,784.4922 A6.25,6.25 0 0 1 950,790.7422 L950,931.4966 A6.25,6.25 0 0 1 943.75,937.7466 L41.25,937.7466 A6.25,6.25 0 0 1 35,931.4966 L35,723.9966 A6.25,6.25 0 0 1 41.25,717.7466" fill="#EFEFEF" style="stroke:#000000;stroke-width:3.75;"/><line style="stroke:#000000;stroke-width:3.75;" x1="35" x2="387.6196" y1="784.4922" y2="784.4922"/><text fill="#000000" font-family="Arial" font-size="45" font-weight="bold" lengthAdjust="spacing" textLength="320.1196" x="45" y="764.9561">Utils / Firebase</text></g><!--class com_example_family_tasks_proj_Parents_Dashbord_and_mange_ManageChildrenActivity--><g class="entity" data-qualified-name="Screens . Activities . Fragments.com_example_family_tasks_proj_Parents_Dashbord_and_mange_ManageChildrenActivity" data-source-line="26" id="ent0003"><rect fill="#DCEEFF" height="122.6184" rx="6.25" ry="6.25" style="stroke:#2F6FA3;stroke-width:1.25;" width="473.9331" x="175" y="180.2466"/><ellipse cx="212.5" cy="231.5558" fill="#ADD1B2" rx="27.5" ry="27.5" style="stroke:#181818;stroke-width:2.5;"/><path d="M219.4141,221.2433 Q219.8047,220.6964 220.2734,220.423 Q220.7422,220.1495 221.2891,220.1495 Q222.2266,220.1495 222.8125,220.8136 Q223.3984,221.4386 223.3984,222.962 L223.3984,226.5948 Q223.3984,228.1183 222.8125,228.7823 Q222.2266,229.4464 221.2891,229.4464 Q220.4297,229.4464 219.9219,228.9386 Q219.4141,228.4698 219.1406,227.1808 Q219.0234,226.2823 218.5547,225.8136 Q217.7344,224.8761 216.2109,224.3292 Q214.6875,223.7823 213.125,223.7823 Q211.2109,223.7823 209.6094,224.6027 Q208.0469,225.423 206.7969,227.298 Q205.5859,229.173 205.5859,231.7511 L205.5859,234.4855 Q205.5859,237.5714 207.8125,239.6417 Q210.0391,241.673 214.0234,241.673 Q216.3672,241.673 218.0078,241.048 Q218.9844,240.6573 220.0391,239.5636 Q220.7031,238.8995 221.0547,238.7042 Q221.4453,238.5089 221.9531,238.5089 Q222.7734,238.5089 223.3984,239.173 Q224.0625,239.798 224.0625,240.6573 Q224.0625,241.5167 223.2031,242.5323 Q221.9531,243.9777 219.9609,244.798 Q217.2656,245.9308 214.0234,245.9308 Q210.2344,245.9308 207.2266,244.3683 Q204.7656,243.1183 203.0469,240.462 Q201.3281,237.7667 201.3281,234.5636 L201.3281,231.673 Q201.3281,228.3527 202.8516,225.5011 Q204.4141,222.6105 207.1484,221.087 Q209.8828,219.5245 212.9688,219.5245 Q214.8047,219.5245 216.4063,219.9542 Q218.0469,220.3448 219.4141,221.2433 Z " fill="#000000"/><text fill="#000000" font-family="Arial" font-size="30" font-style="italic" lengthAdjust="spacing" textLength="123.4131" x="382.76" y="220.8862">&#171;screen&#187;</text><text fill="#000000" font-family="Arial" font-size="37.5" lengthAdjust="spacing" textLength="393.9331" x="247.5" y="262.4182">ManageChildrenActivity</text><line style="stroke:#2F6FA3;stroke-width:1.25;" x1="177.5" x2="646.4331" y1="282.865" y2="282.865"/></g><!--class com_example_family_tasks_proj_Parents_Dashbord_and_mange_ParentTaskTemplateActivity--><g class="entity" data-qualified-name="Screens . Activities . Fragments.com_example_family_tasks_proj_Parents_Dashbord_and_mange_ParentTaskTemplateActivity" data-source-line="27" id="ent0004"><rect fill="#DCEEFF" height="122.6184" rx="6.25" ry="6.25" style="stroke:#2F6FA3;stroke-width:1.25;" width="546.8274" x="696.25" y="180.2466"/><ellipse cx="733.75" cy="231.5558" fill="#ADD1B2" rx="27.5" ry="27.5" style="stroke:#181818;stroke-width:2.5;"/><path d="M740.6641,221.2433 Q741.0547,220.6964 741.5234,220.423 Q741.9922,220.1495 742.5391,220.1495 Q743.4766,220.1495 744.0625,220.8136 Q744.6484,221.4386 744.6484,222.962 L744.6484,226.5948 Q744.6484,228.1183 744.0625,228.7823 Q743.4766,229.4464 742.5391,229.4464 Q741.6797,229.4464 741.1719,228.9386 Q740.6641,228.4698 740.3906,227.1808 Q740.2734,226.2823 739.8047,225.8136 Q738.9844,224.8761 737.4609,224.3292 Q735.9375,223.7823 734.375,223.7823 Q732.4609,223.7823 730.8594,224.6027 Q729.2969,225.423 728.0469,227.298 Q726.8359,229.173 726.8359,231.7511 L726.8359,234.4855 Q726.8359,237.5714 729.0625,239.6417 Q731.2891,241.673 735.2734,241.673 Q737.6172,241.673 739.2578,241.048 Q740.2344,240.6573 741.2891,239.5636 Q741.9531,238.8995 742.3047,238.7042 Q742.6953,238.5089 743.2031,238.5089 Q744.0234,238.5089 744.6484,239.173 Q745.3125,239.798 745.3125,240.6573 Q745.3125,241.5167 744.4531,242.5323 Q743.2031,243.9777 741.2109,244.798 Q738.5156,245.9308 735.2734,245.9308 Q731.4844,245.9308 728.4766,244.3683 Q726.0156,243.1183 724.2969,240.462 Q722.5781,237.7667 722.5781,234.5636 L722.5781,231.673 Q722.5781,228.3527 724.1016,225.5011 Q725.6641,222.6105 728.3984,221.087 Q731.1328,219.5245 734.2188,219.5245 Q736.0547,219.5245 737.6563,219.9542 Q739.2969,220.3448 740.6641,221.2433 Z " fill="#000000"/><text fill="#000000" font-family="Arial" font-size="30" font-style="italic" lengthAdjust="spacing" textLength="123.4131" x="940.4572" y="220.8862">&#171;screen&#187;</text><text fill="#000000" font-family="Arial" font-size="37.5" lengthAdjust="spacing" textLength="466.8274" x="768.75" y="262.4182">ParentTaskTemplateActivity</text><line style="stroke:#2F6FA3;stroke-width:1.25;" x1="698.75" x2="1240.5774" y1="282.865" y2="282.865"/></g><!--class com_example_family_tasks_proj_Parents_Dashbord_and_mange_model_AssignedTask--><g class="entity" data-qualified-name="Models.com_example_family_tasks_proj_Parents_Dashbord_and_mange_model_AssignedTask" data-source-line="31" id="ent0006"><rect fill="#E2F5E6" height="122.6184" rx="6.25" ry="6.25" style="stroke:#3B8B4F;stroke-width:1.25;" width="315.5286" x="5005" y="1357.7466"/><ellipse cx="5042.5" cy="1409.0558" fill="#ADD1B2" rx="27.5" ry="27.5" style="stroke:#181818;stroke-width:2.5;"/><path d="M5049.4141,1398.7433 Q5049.8047,1398.1964 5050.2734,1397.923 Q5050.7422,1397.6495 5051.2891,1397.6495 Q5052.2266,1397.6495 5052.8125,1398.3136 Q5053.3984,1398.9386 5053.3984,1400.462 L5053.3984,1404.0948 Q5053.3984,1405.6183 5052.8125,1406.2823 Q5052.2266,1406.9464 5051.2891,1406.9464 Q5050.4297,1406.9464 5049.9219,1406.4386 Q5049.4141,1405.9698 5049.1406,1404.6808 Q5049.0234,1403.7823 5048.5547,1403.3136 Q5047.7344,1402.3761 5046.2109,1401.8292 Q5044.6875,1401.2823 5043.125,1401.2823 Q5041.2109,1401.2823 5039.6094,1402.1027 Q5038.0469,1402.923 5036.7969,1404.798 Q5035.5859,1406.673 5035.5859,1409.2511 L5035.5859,1411.9855 Q5035.5859,1415.0714 5037.8125,1417.1417 Q5040.0391,1419.173 5044.0234,1419.173 Q5046.3672,1419.173 5048.0078,1418.548 Q5048.9844,1418.1573 5050.0391,1417.0636 Q5050.7031,1416.3995 5051.0547,1416.2042 Q5051.4453,1416.0089 5051.9531,1416.0089 Q5052.7734,1416.0089 5053.3984,1416.673 Q5054.0625,1417.298 5054.0625,1418.1573 Q5054.0625,1419.0167 5053.2031,1420.0323 Q5051.9531,1421.4777 5049.9609,1422.298 Q5047.2656,1423.4308 5044.0234,1423.4308 Q5040.2344,1423.4308 5037.2266,1421.8683 Q5034.7656,1420.6183 5033.0469,1417.962 Q5031.3281,1415.2667 5031.3281,1412.0636 L5031.3281,1409.173 Q5031.3281,1405.8527 5032.8516,1403.0011 Q5034.4141,1400.1105 5037.1484,1398.587 Q5039.8828,1397.0245 5042.9688,1397.0245 Q5044.8047,1397.0245 5046.4063,1397.4542 Q5048.0469,1397.8448 5049.4141,1398.7433 Z " fill="#000000"/><text fill="#000000" font-family="Arial" font-size="30" font-style="italic" lengthAdjust="spacing" textLength="115.0781" x="5137.7252" y="1398.3862">&#171;model&#187;</text><text fill="#000000" font-family="Arial" font-size="37.5" lengthAdjust="spacing" textLength="235.5286" x="5077.5" y="1439.9182">AssignedTask</text><line style="stroke:#3B8B4F;stroke-width:1.25;" x1="5007.5" x2="5318.0286" y1="1460.365" y2="1460.365"/></g><!--class com_example_family_tasks_proj_child_model_Child--><g class="entity" data-qualified-name="Models.com_example_family_tasks_proj_child_model_Child" data-source-line="32" id="ent0007"><rect fill="#E2F5E6" height="122.6184" rx="6.25" ry="6.25" style="stroke:#3B8B4F;stroke-width:1.25;" width="185.0781" x="5282.5" y="1102.7466"/><ellipse cx="5320" cy="1154.0558" fill="#ADD1B2" rx="27.5" ry="27.5" style="stroke:#181818;stroke-width:2.5;"/><path d="M5326.9141,1143.7433 Q5327.3047,1143.1964 5327.7734,1142.923 Q5328.2422,1142.6495 5328.7891,1142.6495 Q5329.7266,1142.6495 5330.3125,1143.3136 Q5330.8984,1143.9386 5330.8984,1145.462 L5330.8984,1149.0948 Q5330.8984,1150.6183 5330.3125,1151.2823 Q5329.7266,1151.9464 5328.7891,1151.9464 Q5327.9297,1151.9464 5327.4219,1151.4386 Q5326.9141,1150.9698 5326.6406,1149.6808 Q5326.5234,1148.7823 5326.0547,1148.3136 Q5325.2344,1147.3761 5323.7109,1146.8292 Q5322.1875,1146.2823 5320.625,1146.2823 Q5318.7109,1146.2823 5317.1094,1147.1027 Q5315.5469,1147.923 5314.2969,1149.798 Q5313.0859,1151.673 5313.0859,1154.2511 L5313.0859,1156.9855 Q5313.0859,1160.0714 5315.3125,1162.1417 Q5317.5391,1164.173 5321.5234,1164.173 Q5323.8672,1164.173 5325.5078,1163.548 Q5326.4844,1163.1573 5327.5391,1162.0636 Q5328.2031,1161.3995 5328.5547,1161.2042 Q5328.9453,1161.0089 5329.4531,1161.0089 Q5330.2734,1161.0089 5330.8984,1161.673 Q5331.5625,1162.298 5331.5625,1163.1573 Q5331.5625,1164.0167 5330.7031,1165.0323 Q5329.4531,1166.4777 5327.4609,1167.298 Q5324.7656,1168.4308 5321.5234,1168.4308 Q5317.7344,1168.4308 5314.7266,1166.8683 Q5312.2656,1165.6183 5310.5469,1162.962 Q5308.8281,1160.2667 5308.8281,1157.0636 L5308.8281,1154.173 Q5308.8281,1150.8527 5310.3516,1148.0011 Q5311.9141,1145.1105 5314.6484,1143.587 Q5317.3828,1142.0245 5320.4688,1142.0245 Q5322.3047,1142.0245 5323.9063,1142.4542 Q5325.5469,1142.8448 5326.9141,1143.7433 Z " fill="#000000"/><text fill="#000000" font-family="Arial" font-size="30" font-style="italic" lengthAdjust="spacing" textLength="115.0781" x="5350" y="1143.3862">&#171;model&#187;</text><text fill="#000000" font-family="Arial" font-size="37.5" lengthAdjust="spacing" textLength="85.4553" x="5364.8114" y="1184.9182">Child</text><line style="stroke:#3B8B4F;stroke-width:1.25;" x1="5285" x2="5465.0781" y1="1205.365" y2="1205.365"/></g><!--class com_example_family_tasks_proj_Parents_Dashbord_and_mange_model_ChildSummary--><g class="entity" data-qualified-name="Models.com_example_family_tasks_proj_Parents_Dashbord_and_mange_model_ChildSummary" data-source-line="33" id="ent0008"><rect fill="#E2F5E6" height="122.6184" rx="6.25" ry="6.25" style="stroke:#3B8B4F;stroke-width:1.25;" width="325.8923" x="4210" y="1102.7466"/><ellipse cx="4247.5" cy="1154.0558" fill="#ADD1B2" rx="27.5" ry="27.5" style="stroke:#181818;stroke-width:2.5;"/><path d="M4254.4141,1143.7433 Q4254.8047,1143.1964 4255.2734,1142.923 Q4255.7422,1142.6495 4256.2891,1142.6495 Q4257.2266,1142.6495 4257.8125,1143.3136 Q4258.3984,1143.9386 4258.3984,1145.462 L4258.3984,1149.0948 Q4258.3984,1150.6183 4257.8125,1151.2823 Q4257.2266,1151.9464 4256.2891,1151.9464 Q4255.4297,1151.9464 4254.9219,1151.4386 Q4254.4141,1150.9698 4254.1406,1149.6808 Q4254.0234,1148.7823 4253.5547,1148.3136 Q4252.7344,1147.3761 4251.2109,1146.8292 Q4249.6875,1146.2823 4248.125,1146.2823 Q4246.2109,1146.2823 4244.6094,1147.1027 Q4243.0469,1147.923 4241.7969,1149.798 Q4240.5859,1151.673 4240.5859,1154.2511 L4240.5859,1156.9855 Q4240.5859,1160.0714 4242.8125,1162.1417 Q4245.0391,1164.173 4249.0234,1164.173 Q4251.3672,1164.173 4253.0078,1163.548 Q4253.9844,1163.1573 4255.0391,1162.0636 Q4255.7031,1161.3995 4256.0547,1161.2042 Q4256.4453,1161.0089 4256.9531,1161.0089 Q4257.7734,1161.0089 4258.3984,1161.673 Q4259.0625,1162.298 4259.0625,1163.1573 Q4259.0625,1164.0167 4258.2031,1165.0323 Q4256.9531,1166.4777 4254.9609,1167.298 Q4252.2656,1168.4308 4249.0234,1168.4308 Q4245.2344,1168.4308 4242.2266,1166.8683 Q4239.7656,1165.6183 4238.0469,1162.962 Q4236.3281,1160.2667 4236.3281,1157.0636 L4236.3281,1154.173 Q4236.3281,1150.8527 4237.8516,1148.0011 Q4239.4141,1145.1105 4242.1484,1143.587 Q4244.8828,1142.0245 4247.9688,1142.0245 Q4249.8047,1142.0245 4251.4063,1142.4542 Q4253.0469,1142.8448 4254.4141,1143.7433 Z " fill="#000000"/><text fill="#000000" font-family="Arial" font-size="30" font-style="italic" lengthAdjust="spacing" textLength="115.0781" x="4347.9071" y="1143.3862">&#171;model&#187;</text><text fill="#000000" font-family="Arial" font-size="37.5" lengthAdjust="spacing" textLength="245.8923" x="4282.5" y="1184.9182">ChildSummary</text><line style="stroke:#3B8B4F;stroke-width:1.25;" x1="4212.5" x2="4533.3923" y1="1205.365" y2="1205.365"/></g><!--class com_example_family_tasks_proj_child_model_ChildTask--><g class="entity" data-qualified-name="Models.com_example_family_tasks_proj_child_model_ChildTask" data-source-line="34" id="ent0009"><rect fill="#E2F5E6" height="122.6184" rx="6.25" ry="6.25" style="stroke:#3B8B4F;stroke-width:1.25;" width="246.7175" x="3916.25" y="1102.7466"/><ellipse cx="3953.75" cy="1154.0558" fill="#ADD1B2" rx="27.5" ry="27.5" style="stroke:#181818;stroke-width:2.5;"/><path d="M3960.6641,1143.7433 Q3961.0547,1143.1964 3961.5234,1142.923 Q3961.9922,1142.6495 3962.5391,1142.6495 Q3963.4766,1142.6495 3964.0625,1143.3136 Q3964.6484,1143.9386 3964.6484,1145.462 L3964.6484,1149.0948 Q3964.6484,1150.6183 3964.0625,1151.2823 Q3963.4766,1151.9464 3962.5391,1151.9464 Q3961.6797,1151.9464 3961.1719,1151.4386 Q3960.6641,1150.9698 3960.3906,1149.6808 Q3960.2734,1148.7823 3959.8047,1148.3136 Q3958.9844,1147.3761 3957.4609,1146.8292 Q3955.9375,1146.2823 3954.375,1146.2823 Q3952.4609,1146.2823 3950.8594,1147.1027 Q3949.2969,1147.923 3948.0469,1149.798 Q3946.8359,1151.673 3946.8359,1154.2511 L3946.8359,1156.9855 Q3946.8359,1160.0714 3949.0625,1162.1417 Q3951.2891,1164.173 3955.2734,1164.173 Q3957.6172,1164.173 3959.2578,1163.548 Q3960.2344,1163.1573 3961.2891,1162.0636 Q3961.9531,1161.3995 3962.3047,1161.2042 Q3962.6953,1161.0089 3963.2031,1161.0089 Q3964.0234,1161.0089 3964.6484,1161.673 Q3965.3125,1162.298 3965.3125,1163.1573 Q3965.3125,1164.0167 3964.4531,1165.0323 Q3963.2031,1166.4777 3961.2109,1167.298 Q3958.5156,1168.4308 3955.2734,1168.4308 Q3951.4844,1168.4308 3948.4766,1166.8683 Q3946.0156,1165.6183 3944.2969,1162.962 Q3942.5781,1160.2667 3942.5781,1157.0636 L3942.5781,1154.173 Q3942.5781,1150.8527 3944.1016,1148.0011 Q3945.6641,1145.1105 3948.3984,1143.587 Q3951.1328,1142.0245 3954.2188,1142.0245 Q3956.0547,1142.0245 3957.6563,1142.4542 Q3959.2969,1142.8448 3960.6641,1143.7433 Z " fill="#000000"/><text fill="#000000" font-family="Arial" font-size="30" font-style="italic" lengthAdjust="spacing" textLength="115.0781" x="4014.5697" y="1143.3862">&#171;model&#187;</text><text fill="#000000" font-family="Arial" font-size="37.5" lengthAdjust="spacing" textLength="166.7175" x="3988.75" y="1184.9182">ChildTask</text><line style="stroke:#3B8B4F;stroke-width:1.25;" x1="3918.75" x2="4160.4675" y1="1205.365" y2="1205.365"/></g><!--class com_example_family_tasks_proj_Parents_Dashbord_and_mange_model_TaskListItem--><g class="entity" data-qualified-name="Models.com_example_family_tasks_proj_Parents_Dashbord_and_mange_model_TaskListItem" data-source-line="35" id="ent0010"><rect fill="#E2F5E6" height="122.6184" rx="6.25" ry="6.25" style="stroke:#3B8B4F;stroke-width:1.25;" width="292.5488" x="4581.25" y="1102.7466"/><ellipse cx="4618.75" cy="1154.0558" fill="#ADD1B2" rx="27.5" ry="27.5" style="stroke:#181818;stroke-width:2.5;"/><path d="M4625.6641,1143.7433 Q4626.0547,1143.1964 4626.5234,1142.923 Q4626.9922,1142.6495 4627.5391,1142.6495 Q4628.4766,1142.6495 4629.0625,1143.3136 Q4629.6484,1143.9386 4629.6484,1145.462 L4629.6484,1149.0948 Q4629.6484,1150.6183 4629.0625,1151.2823 Q4628.4766,1151.9464 4627.5391,1151.9464 Q4626.6797,1151.9464 4626.1719,1151.4386 Q4625.6641,1150.9698 4625.3906,1149.6808 Q4625.2734,1148.7823 4624.8047,1148.3136 Q4623.9844,1147.3761 4622.4609,1146.8292 Q4620.9375,1146.2823 4619.375,1146.2823 Q4617.4609,1146.2823 4615.8594,1147.1027 Q4614.2969,1147.923 4613.0469,1149.798 Q4611.8359,1151.673 4611.8359,1154.2511 L4611.8359,1156.9855 Q4611.8359,1160.0714 4614.0625,1162.1417 Q4616.2891,1164.173 4620.2734,1164.173 Q4622.6172,1164.173 4624.2578,1163.548 Q4625.2344,1163.1573 4626.2891,1162.0636 Q4626.9531,1161.3995 4627.3047,1161.2042 Q4627.6953,1161.0089 4628.2031,1161.0089 Q4629.0234,1161.0089 4629.6484,1161.673 Q4630.3125,1162.298 4630.3125,1163.1573 Q4630.3125,1164.0167 4629.4531,1165.0323 Q4628.2031,1166.4777 4626.2109,1167.298 Q4623.5156,1168.4308 4620.2734,1168.4308 Q4616.4844,1168.4308 4613.4766,1166.8683 Q4611.0156,1165.6183 4609.2969,1162.962 Q4607.5781,1160.2667 4607.5781,1157.0636 L4607.5781,1154.173 Q4607.5781,1150.8527 4609.1016,1148.0011 Q4610.6641,1145.1105 4613.3984,1143.587 Q4616.1328,1142.0245 4619.2188,1142.0245 Q4621.0547,1142.0245 4622.6563,1142.4542 Q4624.2969,1142.8448 4625.6641,1143.7433 Z " fill="#000000"/><text fill="#000000" font-family="Arial" font-size="30" font-style="italic" lengthAdjust="spacing" textLength="115.0781" x="4702.4854" y="1143.3862">&#171;model&#187;</text><text fill="#000000" font-family="Arial" font-size="37.5" lengthAdjust="spacing" textLength="212.5488" x="4653.75" y="1184.9182">TaskListItem</text><line style="stroke:#3B8B4F;stroke-width:1.25;" x1="4583.75" x2="4871.2988" y1="1205.365" y2="1205.365"/></g><!--class com_example_family_tasks_proj_Parents_Dashbord_and_mange_model_TaskTemplate--><g class="entity" data-qualified-name="Models.com_example_family_tasks_proj_Parents_Dashbord_and_mange_model_TaskTemplate" data-source-line="36" id="ent0011"><rect fill="#E2F5E6" height="122.6184" rx="6.25" ry="6.25" style="stroke:#3B8B4F;stroke-width:1.25;" width="317.5793" x="4918.75" y="1102.7466"/><ellipse cx="4956.25" cy="1154.0558" fill="#ADD1B2" rx="27.5" ry="27.5" style="stroke:#181818;stroke-width:2.5;"/><path d="M4963.1641,1143.7433 Q4963.5547,1143.1964 4964.0234,1142.923 Q4964.4922,1142.6495 4965.0391,1142.6495 Q4965.9766,1142.6495 4966.5625,1143.3136 Q4967.1484,1143.9386 4967.1484,1145.462 L4967.1484,1149.0948 Q4967.1484,1150.6183 4966.5625,1151.2823 Q4965.9766,1151.9464 4965.0391,1151.9464 Q4964.1797,1151.9464 4963.6719,1151.4386 Q4963.1641,1150.9698 4962.8906,1149.6808 Q4962.7734,1148.7823 4962.3047,1148.3136 Q4961.4844,1147.3761 4959.9609,1146.8292 Q4958.4375,1146.2823 4956.875,1146.2823 Q4954.9609,1146.2823 4953.3594,1147.1027 Q4951.7969,1147.923 4950.5469,1149.798 Q4949.3359,1151.673 4949.3359,1154.2511 L4949.3359,1156.9855 Q4949.3359,1160.0714 4951.5625,1162.1417 Q4953.7891,1164.173 4957.7734,1164.173 Q4960.1172,1164.173 4961.7578,1163.548 Q4962.7344,1163.1573 4963.7891,1162.0636 Q4964.4531,1161.3995 4964.8047,1161.2042 Q4965.1953,1161.0089 4965.7031,1161.0089 Q4966.5234,1161.0089 4967.1484,1161.673 Q4967.8125,1162.298 4967.8125,1163.1573 Q4967.8125,1164.0167 4966.9531,1165.0323 Q4965.7031,1166.4777 4963.7109,1167.298 Q4961.0156,1168.4308 4957.7734,1168.4308 Q4953.9844,1168.4308 4950.9766,1166.8683 Q4948.5156,1165.6183 4946.7969,1162.962 Q4945.0781,1160.2667 4945.0781,1157.0636 L4945.0781,1154.173 Q4945.0781,1150.8527 4946.6016,1148.0011 Q4948.1641,1145.1105 4950.8984,1143.587 Q4953.6328,1142.0245 4956.7188,1142.0245 Q4958.5547,1142.0245 4960.1563,1142.4542 Q4961.7969,1142.8448 4963.1641,1143.7433 Z " fill="#000000"/><text fill="#000000" font-family="Arial" font-size="30" font-style="italic" lengthAdjust="spacing" textLength="115.0781" x="5052.5006" y="1143.3862">&#171;model&#187;</text><text fill="#000000" font-family="Arial" font-size="37.5" lengthAdjust="spacing" textLength="237.5793" x="4991.25" y="1184.9182">TaskTemplate</text><line style="stroke:#3B8B4F;stroke-width:1.25;" x1="4921.25" x2="5233.8293" y1="1205.365" y2="1205.365"/></g><!--class com_example_family_tasks_proj_Parents_Dashbord_and_mange_ManageChildrenActivity_ChildListAdapter--><g class="entity" data-qualified-name="Adapters.com_example_family_tasks_proj_Parents_Dashbord_and_mange_ManageChildrenActivity_ChildListAdapter" data-source-line="40" id="ent0013"><rect fill="#FFF3BF" height="122.6184" rx="6.25" ry="6.25" style="stroke:#B68A00;stroke-width:1.25;" width="759.5044" x="1462.5" y="487.7466"/><ellipse cx="1500" cy="539.0558" fill="#ADD1B2" rx="27.5" ry="27.5" style="stroke:#181818;stroke-width:2.5;"/><path d="M1506.9141,528.7433 Q1507.3047,528.1964 1507.7734,527.923 Q1508.2422,527.6495 1508.7891,527.6495 Q1509.7266,527.6495 1510.3125,528.3136 Q1510.8984,528.9386 1510.8984,530.462 L1510.8984,534.0948 Q1510.8984,535.6183 1510.3125,536.2823 Q1509.7266,536.9464 1508.7891,536.9464 Q1507.9297,536.9464 1507.4219,536.4386 Q1506.9141,535.9698 1506.6406,534.6808 Q1506.5234,533.7823 1506.0547,533.3136 Q1505.2344,532.3761 1503.7109,531.8292 Q1502.1875,531.2823 1500.625,531.2823 Q1498.7109,531.2823 1497.1094,532.1027 Q1495.5469,532.923 1494.2969,534.798 Q1493.0859,536.673 1493.0859,539.2511 L1493.0859,541.9855 Q1493.0859,545.0714 1495.3125,547.1417 Q1497.5391,549.173 1501.5234,549.173 Q1503.8672,549.173 1505.5078,548.548 Q1506.4844,548.1573 1507.5391,547.0636 Q1508.2031,546.3995 1508.5547,546.2042 Q1508.9453,546.0089 1509.4531,546.0089 Q1510.2734,546.0089 1510.8984,546.673 Q1511.5625,547.298 1511.5625,548.1573 Q1511.5625,549.0167 1510.7031,550.0323 Q1509.4531,551.4777 1507.4609,552.298 Q1504.7656,553.4308 1501.5234,553.4308 Q1497.7344,553.4308 1494.7266,551.8683 Q1492.2656,550.6183 1490.5469,547.962 Q1488.8281,545.2667 1488.8281,542.0636 L1488.8281,539.173 Q1488.8281,535.8527 1490.3516,533.0011 Q1491.9141,530.1105 1494.6484,528.587 Q1497.3828,527.0245 1500.4688,527.0245 Q1502.3047,527.0245 1503.9063,527.4542 Q1505.5469,527.8448 1506.9141,528.7433 Z " fill="#000000"/><text fill="#000000" font-family="Arial" font-size="30" font-style="italic" lengthAdjust="spacing" textLength="135.1172" x="1807.1936" y="528.3862">&#171;adapter&#187;</text><text fill="#000000" font-family="Arial" font-size="37.5" lengthAdjust="spacing" textLength="679.5044" x="1535" y="569.9182">ManageChildrenActivity.ChildListAdapter</text><line style="stroke:#B68A00;stroke-width:1.25;" x1="1465" x2="2219.5044" y1="590.365" y2="590.365"/></g><!--class com_example_family_tasks_proj_Parents_Dashbord_and_mange_ParentDashboardChildSummaryAdapter_ChildSummaryViewHolder--><g class="entity" data-qualified-name="Adapters.com_example_family_tasks_proj_Parents_Dashbord_and_mange_ParentDashboardChildSummaryAdapter_ChildSummaryViewHolder" data-source-line="41" id="ent0014"><rect fill="#FFF3BF" height="122.6184" rx="6.25" ry="6.25" style="stroke:#B68A00;stroke-width:1.25;" width="1199.2322" x="2960" y="795.2466"/><ellipse cx="2997.5" cy="846.5558" fill="#ADD1B2" rx="27.5" ry="27.5" style="stroke:#181818;stroke-width:2.5;"/><path d="M3004.4141,836.2433 Q3004.8047,835.6964 3005.2734,835.423 Q3005.7422,835.1495 3006.2891,835.1495 Q3007.2266,835.1495 3007.8125,835.8136 Q3008.3984,836.4386 3008.3984,837.962 L3008.3984,841.5948 Q3008.3984,843.1183 3007.8125,843.7823 Q3007.2266,844.4464 3006.2891,844.4464 Q3005.4297,844.4464 3004.9219,843.9386 Q3004.4141,843.4698 3004.1406,842.1808 Q3004.0234,841.2823 3003.5547,840.8136 Q3002.7344,839.8761 3001.2109,839.3292 Q2999.6875,838.7823 2998.125,838.7823 Q2996.2109,838.7823 2994.6094,839.6027 Q2993.0469,840.423 2991.7969,842.298 Q2990.5859,844.173 2990.5859,846.7511 L2990.5859,849.4855 Q2990.5859,852.5714 2992.8125,854.6417 Q2995.0391,856.673 2999.0234,856.673 Q3001.3672,856.673 3003.0078,856.048 Q3003.9844,855.6573 3005.0391,854.5636 Q3005.7031,853.8995 3006.0547,853.7042 Q3006.4453,853.5089 3006.9531,853.5089 Q3007.7734,853.5089 3008.3984,854.173 Q3009.0625,854.798 3009.0625,855.6573 Q3009.0625,856.5167 3008.2031,857.5323 Q3006.9531,858.9777 3004.9609,859.798 Q3002.2656,860.9308 2999.0234,860.9308 Q2995.2344,860.9308 2992.2266,859.3683 Q2989.7656,858.1183 2988.0469,855.462 Q2986.3281,852.7667 2986.3281,849.5636 L2986.3281,846.673 Q2986.3281,843.3527 2987.8516,840.5011 Q2989.4141,837.6105 2992.1484,836.087 Q2994.8828,834.5245 2997.9688,834.5245 Q2999.8047,834.5245 3001.4063,834.9542 Q3003.0469,835.3448 3004.4141,836.2433 Z " fill="#000000"/><text fill="#000000" font-family="Arial" font-size="30" font-style="italic" lengthAdjust="spacing" textLength="135.1172" x="3524.5575" y="835.8862">&#171;adapter&#187;</text><text fill="#000000" font-family="Arial" font-size="37.5" lengthAdjust="spacing" textLength="1119.2322" x="3032.5" y="877.4182">ParentDashboardChildSummaryAdapter.ChildSummaryViewHolder</text><line style="stroke:#B68A00;stroke-width:1.25;" x1="2962.5" x2="4156.7322" y1="897.865" y2="897.865"/></g><!--class com_example_family_tasks_proj_child_ChildTaskAdapter--><g class="entity" data-qualified-name="Adapters.com_example_family_tasks_proj_child_ChildTaskAdapter" data-source-line="42" id="ent0015"><rect fill="#FFF3BF" height="122.6184" rx="6.25" ry="6.25" style="stroke:#B68A00;stroke-width:1.25;" width="378.0591" x="2268.75" y="487.7466"/><ellipse cx="2306.25" cy="539.0558" fill="#ADD1B2" rx="27.5" ry="27.5" style="stroke:#181818;stroke-width:2.5;"/><path d="M2313.1641,528.7433 Q2313.5547,528.1964 2314.0234,527.923 Q2314.4922,527.6495 2315.0391,527.6495 Q2315.9766,527.6495 2316.5625,528.3136 Q2317.1484,528.9386 2317.1484,530.462 L2317.1484,534.0948 Q2317.1484,535.6183 2316.5625,536.2823 Q2315.9766,536.9464 2315.0391,536.9464 Q2314.1797,536.9464 2313.6719,536.4386 Q2313.1641,535.9698 2312.8906,534.6808 Q2312.7734,533.7823 2312.3047,533.3136 Q2311.4844,532.3761 2309.9609,531.8292 Q2308.4375,531.2823 2306.875,531.2823 Q2304.9609,531.2823 2303.3594,532.1027 Q2301.7969,532.923 2300.5469,534.798 Q2299.3359,536.673 2299.3359,539.2511 L2299.3359,541.9855 Q2299.3359,545.0714 2301.5625,547.1417 Q2303.7891,549.173 2307.7734,549.173 Q2310.1172,549.173 2311.7578,548.548 Q2312.7344,548.1573 2313.7891,547.0636 Q2314.4531,546.3995 2314.8047,546.2042 Q2315.1953,546.0089 2315.7031,546.0089 Q2316.5234,546.0089 2317.1484,546.673 Q2317.8125,547.298 2317.8125,548.1573 Q2317.8125,549.0167 2316.9531,550.0323 Q2315.7031,551.4777 2313.7109,552.298 Q2311.0156,553.4308 2307.7734,553.4308 Q2303.9844,553.4308 2300.9766,551.8683 Q2298.5156,550.6183 2296.7969,547.962 Q2295.0781,545.2667 2295.0781,542.0636 L2295.0781,539.173 Q2295.0781,535.8527 2296.6016,533.0011 Q2298.1641,530.1105 2300.8984,528.587 Q2303.6328,527.0245 2306.7188,527.0245 Q2308.5547,527.0245 2310.1563,527.4542 Q2311.7969,527.8448 2313.1641,528.7433 Z " fill="#000000"/><text fill="#000000" font-family="Arial" font-size="30" font-style="italic" lengthAdjust="spacing" textLength="135.1172" x="2422.7209" y="528.3862">&#171;adapter&#187;</text><text fill="#000000" font-family="Arial" font-size="37.5" lengthAdjust="spacing" textLength="298.0591" x="2341.25" y="569.9182">ChildTaskAdapter</text><line style="stroke:#B68A00;stroke-width:1.25;" x1="2271.25" x2="2644.3091" y1="590.365" y2="590.365"/></g><!--class com_example_family_tasks_proj_Parents_Dashbord_and_mange_ParentDashboardChildSummaryAdapter_OnChildSelectedListener--><g class="entity" data-qualified-name="Adapters.com_example_family_tasks_proj_Parents_Dashbord_and_mange_ParentDashboardChildSummaryAdapter_OnChildSelectedListener" data-source-line="43" id="ent0016"><rect fill="#FFF3BF" height="122.6184" rx="6.25" ry="6.25" style="stroke:#B68A00;stroke-width:1.25;" width="1176.4172" x="4206.25" y="795.2466"/><ellipse cx="4243.75" cy="846.5558" fill="#B4A7E5" rx="27.5" ry="27.5" style="stroke:#181818;stroke-width:2.5;"/><path d="M4246.1328,838.1573 L4246.1328,854.798 L4250.4297,854.798 Q4251.9531,854.798 4252.6172,855.3839 Q4253.2813,855.9698 4253.2813,856.9464 Q4253.2813,857.8839 4252.6172,858.4698 Q4251.9531,859.0558 4250.4297,859.0558 L4237.5781,859.0558 Q4236.0547,859.0558 4235.3906,858.4698 Q4234.7266,857.8839 4234.7266,856.9073 Q4234.7266,855.9698 4235.3906,855.3839 Q4236.0547,854.798 4237.5781,854.798 L4241.875,854.798 L4241.875,838.1573 L4237.5781,838.1573 Q4236.0547,838.1573 4235.3906,837.5714 Q4234.7266,836.9855 4234.7266,836.0089 Q4234.7266,835.0714 4235.3906,834.4855 Q4236.0547,833.8995 4237.5781,833.8995 L4250.4297,833.8995 Q4251.9531,833.8995 4252.6172,834.4855 Q4253.2813,835.0714 4253.2813,836.0089 Q4253.2813,836.9855 4252.6172,837.5714 Q4251.9531,838.1573 4250.4297,838.1573 L4246.1328,838.1573 Z " fill="#000000"/><text fill="#000000" font-family="Arial" font-size="30" font-style="italic" lengthAdjust="spacing" textLength="135.1172" x="4759.4" y="835.8862">&#171;adapter&#187;</text><text fill="#000000" font-family="Arial" font-size="37.5" font-style="italic" lengthAdjust="spacing" textLength="1096.4172" x="4278.75" y="877.4182">ParentDashboardChildSummaryAdapter.OnChildSelectedListener</text><line style="stroke:#B68A00;stroke-width:1.25;" x1="4208.75" x2="5380.1672" y1="897.865" y2="897.865"/></g><!--class com_example_family_tasks_proj_child_ChildTaskAdapter_OnTaskDoneListener--><g class="entity" data-qualified-name="Adapters.com_example_family_tasks_proj_child_ChildTaskAdapter_OnTaskDoneListener" data-source-line="44" id="ent0017"><rect fill="#FFF3BF" height="122.6184" rx="6.25" ry="6.25" style="stroke:#B68A00;stroke-width:1.25;" width="742.8235" x="1463.75" y="795.2466"/><ellipse cx="1501.25" cy="846.5558" fill="#B4A7E5" rx="27.5" ry="27.5" style="stroke:#181818;stroke-width:2.5;"/><path d="M1503.6328,838.1573 L1503.6328,854.798 L1507.9297,854.798 Q1509.4531,854.798 1510.1172,855.3839 Q1510.7813,855.9698 1510.7813,856.9464 Q1510.7813,857.8839 1510.1172,858.4698 Q1509.4531,859.0558 1507.9297,859.0558 L1495.0781,859.0558 Q1493.5547,859.0558 1492.8906,858.4698 Q1492.2266,857.8839 1492.2266,856.9073 Q1492.2266,855.9698 1492.8906,855.3839 Q1493.5547,854.798 1495.0781,854.798 L1499.375,854.798 L1499.375,838.1573 L1495.0781,838.1573 Q1493.5547,838.1573 1492.8906,837.5714 Q1492.2266,836.9855 1492.2266,836.0089 Q1492.2266,835.0714 1492.8906,834.4855 Q1493.5547,833.8995 1495.0781,833.8995 L1507.9297,833.8995 Q1509.4531,833.8995 1510.1172,834.4855 Q1510.7813,835.0714 1510.7813,836.0089 Q1510.7813,836.9855 1510.1172,837.5714 Q1509.4531,838.1573 1507.9297,838.1573 L1503.6328,838.1573 Z " fill="#000000"/><text fill="#000000" font-family="Arial" font-size="30" font-style="italic" lengthAdjust="spacing" textLength="135.1172" x="1800.1031" y="835.8862">&#171;adapter&#187;</text><text fill="#000000" font-family="Arial" font-size="37.5" font-style="italic" lengthAdjust="spacing" textLength="662.8235" x="1536.25" y="877.4182">ChildTaskAdapter.OnTaskDoneListener</text><line style="stroke:#B68A00;stroke-width:1.25;" x1="1466.25" x2="2204.0735" y1="897.865" y2="897.865"/></g><!--class com_example_family_tasks_proj_Parents_Dashbord_and_mange_ParentDashboardChildSummaryAdapter--><g class="entity" data-qualified-name="Adapters.com_example_family_tasks_proj_Parents_Dashbord_and_mange_ParentDashboardChildSummaryAdapter" data-source-line="45" id="ent0018"><rect fill="#FFF3BF" height="122.6184" rx="6.25" ry="6.25" style="stroke:#B68A00;stroke-width:1.25;" width="751.1731" x="2782.5" y="487.7466"/><ellipse cx="2820" cy="539.0558" fill="#ADD1B2" rx="27.5" ry="27.5" style="stroke:#181818;stroke-width:2.5;"/><path d="M2826.9141,528.7433 Q2827.3047,528.1964 2827.7734,527.923 Q2828.2422,527.6495 2828.7891,527.6495 Q2829.7266,527.6495 2830.3125,528.3136 Q2830.8984,528.9386 2830.8984,530.462 L2830.8984,534.0948 Q2830.8984,535.6183 2830.3125,536.2823 Q2829.7266,536.9464 2828.7891,536.9464 Q2827.9297,536.9464 2827.4219,536.4386 Q2826.9141,535.9698 2826.6406,534.6808 Q2826.5234,533.7823 2826.0547,533.3136 Q2825.2344,532.3761 2823.7109,531.8292 Q2822.1875,531.2823 2820.625,531.2823 Q2818.7109,531.2823 2817.1094,532.1027 Q2815.5469,532.923 2814.2969,534.798 Q2813.0859,536.673 2813.0859,539.2511 L2813.0859,541.9855 Q2813.0859,545.0714 2815.3125,547.1417 Q2817.5391,549.173 2821.5234,549.173 Q2823.8672,549.173 2825.5078,548.548 Q2826.4844,548.1573 2827.5391,547.0636 Q2828.2031,546.3995 2828.5547,546.2042 Q2828.9453,546.0089 2829.4531,546.0089 Q2830.2734,546.0089 2830.8984,546.673 Q2831.5625,547.298 2831.5625,548.1573 Q2831.5625,549.0167 2830.7031,550.0323 Q2829.4531,551.4777 2827.4609,552.298 Q2824.7656,553.4308 2821.5234,553.4308 Q2817.7344,553.4308 2814.7266,551.8683 Q2812.2656,550.6183 2810.5469,547.962 Q2808.8281,545.2667 2808.8281,542.0636 L2808.8281,539.173 Q2808.8281,535.8527 2810.3516,533.0011 Q2811.9141,530.1105 2814.6484,528.587 Q2817.3828,527.0245 2820.4688,527.0245 Q2822.3047,527.0245 2823.9063,527.4542 Q2825.5469,527.8448 2826.9141,528.7433 Z " fill="#000000"/><text fill="#000000" font-family="Arial" font-size="30" font-style="italic" lengthAdjust="spacing" textLength="135.1172" x="3123.028" y="528.3862">&#171;adapter&#187;</text><text fill="#000000" font-family="Arial" font-size="37.5" lengthAdjust="spacing" textLength="671.1731" x="2855" y="569.9182">ParentDashboardChildSummaryAdapter</text><line style="stroke:#B68A00;stroke-width:1.25;" x1="2785" x2="3531.1731" y1="590.365" y2="590.365"/></g><!--class com_example_family_tasks_proj_Parents_Dashbord_and_mange_ParentDashboardTaskAdapter--><g class="entity" data-qualified-name="Adapters.com_example_family_tasks_proj_Parents_Dashbord_and_mange_ParentDashboardTaskAdapter" data-source-line="46" id="ent0019"><rect fill="#FFF3BF" height="122.6184" rx="6.25" ry="6.25" style="stroke:#B68A00;stroke-width:1.25;" width="586.543" x="4616.25" y="487.7466"/><ellipse cx="4653.75" cy="539.0558" fill="#ADD1B2" rx="27.5" ry="27.5" style="stroke:#181818;stroke-width:2.5;"/><path d="M4660.6641,528.7433 Q4661.0547,528.1964 4661.5234,527.923 Q4661.9922,527.6495 4662.5391,527.6495 Q4663.4766,527.6495 4664.0625,528.3136 Q4664.6484,528.9386 4664.6484,530.462 L4664.6484,534.0948 Q4664.6484,535.6183 4664.0625,536.2823 Q4663.4766,536.9464 4662.5391,536.9464 Q4661.6797,536.9464 4661.1719,536.4386 Q4660.6641,535.9698 4660.3906,534.6808 Q4660.2734,533.7823 4659.8047,533.3136 Q4658.9844,532.3761 4657.4609,531.8292 Q4655.9375,531.2823 4654.375,531.2823 Q4652.4609,531.2823 4650.8594,532.1027 Q4649.2969,532.923 4648.0469,534.798 Q4646.8359,536.673 4646.8359,539.2511 L4646.8359,541.9855 Q4646.8359,545.0714 4649.0625,547.1417 Q4651.2891,549.173 4655.2734,549.173 Q4657.6172,549.173 4659.2578,548.548 Q4660.2344,548.1573 4661.2891,547.0636 Q4661.9531,546.3995 4662.3047,546.2042 Q4662.6953,546.0089 4663.2031,546.0089 Q4664.0234,546.0089 4664.6484,546.673 Q4665.3125,547.298 4665.3125,548.1573 Q4665.3125,549.0167 4664.4531,550.0323 Q4663.2031,551.4777 4661.2109,552.298 Q4658.5156,553.4308 4655.2734,553.4308 Q4651.4844,553.4308 4648.4766,551.8683 Q4646.0156,550.6183 4644.2969,547.962 Q4642.5781,545.2667 4642.5781,542.0636 L4642.5781,539.173 Q4642.5781,535.8527 4644.1016,533.0011 Q4645.6641,530.1105 4648.3984,528.587 Q4651.1328,527.0245 4654.2188,527.0245 Q4656.0547,527.0245 4657.6563,527.4542 Q4659.2969,527.8448 4660.6641,528.7433 Z " fill="#000000"/><text fill="#000000" font-family="Arial" font-size="30" font-style="italic" lengthAdjust="spacing" textLength="135.1172" x="4874.4629" y="528.3862">&#171;adapter&#187;</text><text fill="#000000" font-family="Arial" font-size="37.5" lengthAdjust="spacing" textLength="506.543" x="4688.75" y="569.9182">ParentDashboardTaskAdapter</text><line style="stroke:#B68A00;stroke-width:1.25;" x1="4618.75" x2="5200.293" y1="590.365" y2="590.365"/></g><!--class com_example_family_tasks_proj_child_ChildTaskAdapter_TaskViewHolder--><g class="entity" data-qualified-name="Adapters.com_example_family_tasks_proj_child_ChildTaskAdapter_TaskViewHolder" data-source-line="47" id="ent0020"><rect fill="#FFF3BF" height="122.6184" rx="6.25" ry="6.25" style="stroke:#B68A00;stroke-width:1.25;" width="661.488" x="2251.25" y="795.2466"/><ellipse cx="2288.75" cy="846.5558" fill="#ADD1B2" rx="27.5" ry="27.5" style="stroke:#181818;stroke-width:2.5;"/><path d="M2295.6641,836.2433 Q2296.0547,835.6964 2296.5234,835.423 Q2296.9922,835.1495 2297.5391,835.1495 Q2298.4766,835.1495 2299.0625,835.8136 Q2299.6484,836.4386 2299.6484,837.962 L2299.6484,841.5948 Q2299.6484,843.1183 2299.0625,843.7823 Q2298.4766,844.4464 2297.5391,844.4464 Q2296.6797,844.4464 2296.1719,843.9386 Q2295.6641,843.4698 2295.3906,842.1808 Q2295.2734,841.2823 2294.8047,840.8136 Q2293.9844,839.8761 2292.4609,839.3292 Q2290.9375,838.7823 2289.375,838.7823 Q2287.4609,838.7823 2285.8594,839.6027 Q2284.2969,840.423 2283.0469,842.298 Q2281.8359,844.173 2281.8359,846.7511 L2281.8359,849.4855 Q2281.8359,852.5714 2284.0625,854.6417 Q2286.2891,856.673 2290.2734,856.673 Q2292.6172,856.673 2294.2578,856.048 Q2295.2344,855.6573 2296.2891,854.5636 Q2296.9531,853.8995 2297.3047,853.7042 Q2297.6953,853.5089 2298.2031,853.5089 Q2299.0234,853.5089 2299.6484,854.173 Q2300.3125,854.798 2300.3125,855.6573 Q2300.3125,856.5167 2299.4531,857.5323 Q2298.2031,858.9777 2296.2109,859.798 Q2293.5156,860.9308 2290.2734,860.9308 Q2286.4844,860.9308 2283.4766,859.3683 Q2281.0156,858.1183 2279.2969,855.462 Q2277.5781,852.7667 2277.5781,849.5636 L2277.5781,846.673 Q2277.5781,843.3527 2279.1016,840.5011 Q2280.6641,837.6105 2283.3984,836.087 Q2286.1328,834.5245 2289.2188,834.5245 Q2291.0547,834.5245 2292.6563,834.9542 Q2294.2969,835.3448 2295.6641,836.2433 Z " fill="#000000"/><text fill="#000000" font-family="Arial" font-size="30" font-style="italic" lengthAdjust="spacing" textLength="135.1172" x="2546.9354" y="835.8862">&#171;adapter&#187;</text><text fill="#000000" font-family="Arial" font-size="37.5" lengthAdjust="spacing" textLength="581.488" x="2323.75" y="877.4182">ChildTaskAdapter.TaskViewHolder</text><line style="stroke:#B68A00;stroke-width:1.25;" x1="2253.75" x2="2910.238" y1="897.865" y2="897.865"/></g><!--class com_example_family_tasks_proj_Parents_Dashbord_and_mange_ParentTaskTemplateActivity_TemplateListAdapter--><g class="entity" data-qualified-name="Adapters.com_example_family_tasks_proj_Parents_Dashbord_and_mange_ParentTaskTemplateActivity_TemplateListAdapter" data-source-line="48" id="ent0021"><rect fill="#FFF3BF" height="122.6184" rx="6.25" ry="6.25" style="stroke:#B68A00;stroke-width:1.25;" width="903.2605" x="3668.75" y="487.7466"/><ellipse cx="3706.25" cy="539.0558" fill="#ADD1B2" rx="27.5" ry="27.5" style="stroke:#181818;stroke-width:2.5;"/><path d="M3713.1641,528.7433 Q3713.5547,528.1964 3714.0234,527.923 Q3714.4922,527.6495 3715.0391,527.6495 Q3715.9766,527.6495 3716.5625,528.3136 Q3717.1484,528.9386 3717.1484,530.462 L3717.1484,534.0948 Q3717.1484,535.6183 3716.5625,536.2823 Q3715.9766,536.9464 3715.0391,536.9464 Q3714.1797,536.9464 3713.6719,536.4386 Q3713.1641,535.9698 3712.8906,534.6808 Q3712.7734,533.7823 3712.3047,533.3136 Q3711.4844,532.3761 3709.9609,531.8292 Q3708.4375,531.2823 3706.875,531.2823 Q3704.9609,531.2823 3703.3594,532.1027 Q3701.7969,532.923 3700.5469,534.798 Q3699.3359,536.673 3699.3359,539.2511 L3699.3359,541.9855 Q3699.3359,545.0714 3701.5625,547.1417 Q3703.7891,549.173 3707.7734,549.173 Q3710.1172,549.173 3711.7578,548.548 Q3712.7344,548.1573 3713.7891,547.0636 Q3714.4531,546.3995 3714.8047,546.2042 Q3715.1953,546.0089 3715.7031,546.0089 Q3716.5234,546.0089 3717.1484,546.673 Q3717.8125,547.298 3717.8125,548.1573 Q3717.8125,549.0167 3716.9531,550.0323 Q3715.7031,551.4777 3713.7109,552.298 Q3711.0156,553.4308 3707.7734,553.4308 Q3703.9844,553.4308 3700.9766,551.8683 Q3698.5156,550.6183 3696.7969,547.962 Q3695.0781,545.2667 3695.0781,542.0636 L3695.0781,539.173 Q3695.0781,535.8527 3696.6016,533.0011 Q3698.1641,530.1105 3700.8984,528.587 Q3703.6328,527.0245 3706.7188,527.0245 Q3708.5547,527.0245 3710.1563,527.4542 Q3711.7969,527.8448 3713.1641,528.7433 Z " fill="#000000"/><text fill="#000000" font-family="Arial" font-size="30" font-style="italic" lengthAdjust="spacing" textLength="135.1172" x="4085.3217" y="528.3862">&#171;adapter&#187;</text><text fill="#000000" font-family="Arial" font-size="37.5" lengthAdjust="spacing" textLength="823.2605" x="3741.25" y="569.9182">ParentTaskTemplateActivity.TemplateListAdapter</text><line style="stroke:#B68A00;stroke-width:1.25;" x1="3671.25" x2="4569.5105" y1="590.365" y2="590.365"/></g><!--class com_example_family_tasks_proj_util_DateUtils--><g class="entity" data-qualified-name="Utils . Firebase.com_example_family_tasks_proj_util_DateUtils" data-source-line="52" id="ent0023"><rect fill="#EFEFEF" height="122.6184" rx="6.25" ry="6.25" style="stroke:#777777;stroke-width:1.25;" width="232.124" x="696.25" y="795.2466"/><ellipse cx="733.75" cy="846.5558" fill="#ADD1B2" rx="27.5" ry="27.5" style="stroke:#181818;stroke-width:2.5;"/><path d="M740.6641,836.2433 Q741.0547,835.6964 741.5234,835.423 Q741.9922,835.1495 742.5391,835.1495 Q743.4766,835.1495 744.0625,835.8136 Q744.6484,836.4386 744.6484,837.962 L744.6484,841.5948 Q744.6484,843.1183 744.0625,843.7823 Q743.4766,844.4464 742.5391,844.4464 Q741.6797,844.4464 741.1719,843.9386 Q740.6641,843.4698 740.3906,842.1808 Q740.2734,841.2823 739.8047,840.8136 Q738.9844,839.8761 737.4609,839.3292 Q735.9375,838.7823 734.375,838.7823 Q732.4609,838.7823 730.8594,839.6027 Q729.2969,840.423 728.0469,842.298 Q726.8359,844.173 726.8359,846.7511 L726.8359,849.4855 Q726.8359,852.5714 729.0625,854.6417 Q731.2891,856.673 735.2734,856.673 Q737.6172,856.673 739.2578,856.048 Q740.2344,855.6573 741.2891,854.5636 Q741.9531,853.8995 742.3047,853.7042 Q742.6953,853.5089 743.2031,853.5089 Q744.0234,853.5089 744.6484,854.173 Q745.3125,854.798 745.3125,855.6573 Q745.3125,856.5167 744.4531,857.5323 Q743.2031,858.9777 741.2109,859.798 Q738.5156,860.9308 735.2734,860.9308 Q731.4844,860.9308 728.4766,859.3683 Q726.0156,858.1183 724.2969,855.462 Q722.5781,852.7667 722.5781,849.5636 L722.5781,846.673 Q722.5781,843.3527 724.1016,840.5011 Q725.6641,837.6105 728.3984,836.087 Q731.1328,834.5245 734.2188,834.5245 Q736.0547,834.5245 737.6563,834.9542 Q739.2969,835.3448 740.6641,836.2433 Z " fill="#000000"/><text fill="#000000" font-family="Arial" font-size="30" font-style="italic" lengthAdjust="spacing" textLength="71.7188" x="808.9526" y="835.8862">&#171;util&#187;</text><text fill="#000000" font-family="Arial" font-size="37.5" lengthAdjust="spacing" textLength="152.124" x="768.75" y="877.4182">DateUtils</text><line style="stroke:#777777;stroke-width:1.25;" x1="698.75" x2="925.874" y1="897.865" y2="897.865"/></g><!--class com_example_family_tasks_proj_util_ImageHelper--><g class="entity" data-qualified-name="Utils . Firebase.com_example_family_tasks_proj_util_ImageHelper" data-source-line="53" id="ent0024"><rect fill="#EFEFEF" height="122.6184" rx="6.25" ry="6.25" style="stroke:#777777;stroke-width:1.25;" width="294.6912" x="355" y="795.2466"/><ellipse cx="392.5" cy="846.5558" fill="#ADD1B2" rx="27.5" ry="27.5" style="stroke:#181818;stroke-width:2.5;"/><path d="M399.4141,836.2433 Q399.8047,835.6964 400.2734,835.423 Q400.7422,835.1495 401.2891,835.1495 Q402.2266,835.1495 402.8125,835.8136 Q403.3984,836.4386 403.3984,837.962 L403.3984,841.5948 Q403.3984,843.1183 402.8125,843.7823 Q402.2266,844.4464 401.2891,844.4464 Q400.4297,844.4464 399.9219,843.9386 Q399.4141,843.4698 399.1406,842.1808 Q399.0234,841.2823 398.5547,840.8136 Q397.7344,839.8761 396.2109,839.3292 Q394.6875,838.7823 393.125,838.7823 Q391.2109,838.7823 389.6094,839.6027 Q388.0469,840.423 386.7969,842.298 Q385.5859,844.173 385.5859,846.7511 L385.5859,849.4855 Q385.5859,852.5714 387.8125,854.6417 Q390.0391,856.673 394.0234,856.673 Q396.3672,856.673 398.0078,856.048 Q398.9844,855.6573 400.0391,854.5636 Q400.7031,853.8995 401.0547,853.7042 Q401.4453,853.5089 401.9531,853.5089 Q402.7734,853.5089 403.3984,854.173 Q404.0625,854.798 404.0625,855.6573 Q404.0625,856.5167 403.2031,857.5323 Q401.9531,858.9777 399.9609,859.798 Q397.2656,860.9308 394.0234,860.9308 Q390.2344,860.9308 387.2266,859.3683 Q384.7656,858.1183 383.0469,855.462 Q381.3281,852.7667 381.3281,849.5636 L381.3281,846.673 Q381.3281,843.3527 382.8516,840.5011 Q384.4141,837.6105 387.1484,836.087 Q389.8828,834.5245 392.9688,834.5245 Q394.8047,834.5245 396.4063,834.9542 Q398.0469,835.3448 399.4141,836.2433 Z " fill="#000000"/><text fill="#000000" font-family="Arial" font-size="30" font-style="italic" lengthAdjust="spacing" textLength="71.7188" x="498.9862" y="835.8862">&#171;util&#187;</text><text fill="#000000" font-family="Arial" font-size="37.5" lengthAdjust="spacing" textLength="214.6912" x="427.5" y="877.4182">ImageHelper</text><line style="stroke:#777777;stroke-width:1.25;" x1="357.5" x2="647.1912" y1="897.865" y2="897.865"/></g><!--class com_example_family_tasks_proj_util_NameUtils--><g class="entity" data-qualified-name="Utils . Firebase.com_example_family_tasks_proj_util_NameUtils" data-source-line="54" id="ent0025"><rect fill="#EFEFEF" height="122.6184" rx="6.25" ry="6.25" style="stroke:#777777;stroke-width:1.25;" width="252.9431" x="56.25" y="795.2466"/><ellipse cx="93.75" cy="846.5558" fill="#ADD1B2" rx="27.5" ry="27.5" style="stroke:#181818;stroke-width:2.5;"/><path d="M100.6641,836.2433 Q101.0547,835.6964 101.5234,835.423 Q101.9922,835.1495 102.5391,835.1495 Q103.4766,835.1495 104.0625,835.8136 Q104.6484,836.4386 104.6484,837.962 L104.6484,841.5948 Q104.6484,843.1183 104.0625,843.7823 Q103.4766,844.4464 102.5391,844.4464 Q101.6797,844.4464 101.1719,843.9386 Q100.6641,843.4698 100.3906,842.1808 Q100.2734,841.2823 99.8047,840.8136 Q98.9844,839.8761 97.4609,839.3292 Q95.9375,838.7823 94.375,838.7823 Q92.4609,838.7823 90.8594,839.6027 Q89.2969,840.423 88.0469,842.298 Q86.8359,844.173 86.8359,846.7511 L86.8359,849.4855 Q86.8359,852.5714 89.0625,854.6417 Q91.2891,856.673 95.2734,856.673 Q97.6172,856.673 99.2578,856.048 Q100.2344,855.6573 101.2891,854.5636 Q101.9531,853.8995 102.3047,853.7042 Q102.6953,853.5089 103.2031,853.5089 Q104.0234,853.5089 104.6484,854.173 Q105.3125,854.798 105.3125,855.6573 Q105.3125,856.5167 104.4531,857.5323 Q103.2031,858.9777 101.2109,859.798 Q98.5156,860.9308 95.2734,860.9308 Q91.4844,860.9308 88.4766,859.3683 Q86.0156,858.1183 84.2969,855.462 Q82.5781,852.7667 82.5781,849.5636 L82.5781,846.673 Q82.5781,843.3527 84.1016,840.5011 Q85.6641,837.6105 88.3984,836.087 Q91.1328,834.5245 94.2188,834.5245 Q96.0547,834.5245 97.6563,834.9542 Q99.2969,835.3448 100.6641,836.2433 Z " fill="#000000"/><text fill="#000000" font-family="Arial" font-size="30" font-style="italic" lengthAdjust="spacing" textLength="71.7188" x="179.3622" y="835.8862">&#171;util&#187;</text><text fill="#000000" font-family="Arial" font-size="37.5" lengthAdjust="spacing" textLength="172.9431" x="128.75" y="877.4182">NameUtils</text><line style="stroke:#777777;stroke-width:1.25;" x1="58.75" x2="306.6931" y1="897.865" y2="897.865"/></g><g class="link" data-entity-1="ent0015" data-entity-2="ent0009" data-link-type="dependency" id="lnk26"><polygon fill="#181818" points="3915.9162,1161.3572,3893.4492,1151.2835,3903.4163,1161.3162,3893.3835,1171.2834,3915.9162,1161.3572" style="stroke:#181818;stroke-width:2.5;"/><path d="M2267.9713,606.2096 C2260.2417,607.706 2252.5632,609.0631 2245,610.2466 C2002.1954,648.2396 1370.0327,568.7451 1140,655.2466 C1018.1368,701.072 994.0527,826.9965 1062.5,937.7466 C1097.7671,994.81 1132.6602,988.0477 1197.5,1005.2466 C1722.0904,1144.395 3423.686,1159.7421 3900.9163,1161.308" fill="none" style="stroke:#181818;stroke-width:2.5;stroke-dasharray:17.5,17.5;"/><text fill="#000000" font-family="Arial" font-size="30" lengthAdjust="spacing" textLength="63.3691" x="1067.5" y="868.3862">uses</text></g><g class="link" data-entity-1="ent0015" data-entity-2="ent0023" data-link-type="dependency" id="lnk27"><polygon fill="#181818" points="811.3744,795.2194,822.6356,773.3234,812.084,782.7395,802.6678,772.188,811.3744,795.2194" style="stroke:#181818;stroke-width:2.5;"/><path d="M2267.9833,606.2871 C2260.2504,607.7621 2252.5679,609.0936 2245,610.2466 C2169.3049,621.7793 927.6708,607.8945 867.5,655.2466 C825.8606,688.0152 814.8357,734.3472 812.2259,780.2436" fill="none" style="stroke:#181818;stroke-width:2.5;stroke-dasharray:17.5,17.5;"/><text fill="#000000" font-family="Arial" font-size="30" lengthAdjust="spacing" textLength="63.3691" x="872.5" y="688.3862">uses</text></g><g class="link" data-entity-1="ent0015" data-entity-2="ent0024" data-link-type="dependency" id="lnk28"><polygon fill="#181818" points="516.3139,794.9449,532.4747,776.3685,519.981,782.9949,513.3547,770.5012,516.3139,794.9449" style="stroke:#181818;stroke-width:2.5;"/><path d="M2267.9908,606.3371 C2260.2558,607.7983 2252.5709,609.1132 2245,610.2466 C2154.9964,623.7208 684.7928,607.2047 607.5,655.2466 C558.1156,685.9418 535.0484,733.8945 520.7144,780.6049" fill="none" style="stroke:#181818;stroke-width:2.5;stroke-dasharray:17.5,17.5;"/><text fill="#000000" font-family="Arial" font-size="30" lengthAdjust="spacing" textLength="63.3691" x="612.5" y="688.3862">uses</text></g><g class="link" data-entity-1="ent0015" data-entity-2="ent0017" data-link-type="nested" id="lnk29"><ellipse cx="2318.0094" cy="619.2812" fill="#FFFFFF" rx="20" ry="20" style="stroke:#181818;stroke-width:2.5;"/><line style="stroke:#181818;stroke-width:2.5;" x1="2300.0209" x2="2335.998" y1="628.0226" y2="610.5397"/><line style="stroke:#181818;stroke-width:2.5;" x1="2309.268" x2="2326.7509" y1="601.2926" y2="637.2697"/><path d="M2300.0209,628.0226 C2190.3349,681.3238 2065.7868,741.8472 1956.1956,795.1023" fill="none" style="stroke:#181818;stroke-width:2.5;"/><text fill="#000000" font-family="Arial" font-size="30" lengthAdjust="spacing" textLength="111.7383" x="2245" y="688.3862">contains</text></g><g class="link" data-entity-1="ent0017" data-entity-2="ent0009" data-link-type="dependency" id="lnk30"><polygon fill="#181818" points="3915.3837,1149.3762,3893.9864,1137.1939,3902.9453,1148.1364,3892.0028,1157.0953,3915.3837,1149.3762" style="stroke:#181818;stroke-width:2.5;"/><path d="M2115.4023,917.9191 C2153.0084,925.04 2191.1377,931.8629 2227.5,937.7466 C2858.9532,1039.9206 3605.9081,1118.5296 3900.4576,1147.8885" fill="none" style="stroke:#181818;stroke-width:2.5;stroke-dasharray:17.5,17.5;"/><text fill="#000000" font-family="Arial" font-size="30" lengthAdjust="spacing" textLength="63.3691" x="2680" y="995.8862">uses</text></g><g class="link" data-entity-1="ent0015" data-entity-2="ent0020" data-link-type="nested" id="lnk31"><ellipse cx="2489.536" cy="629.0238" fill="#FFFFFF" rx="20" ry="20" style="stroke:#181818;stroke-width:2.5;"/><line style="stroke:#181818;stroke-width:2.5;" x1="2497.1741" x2="2481.898" y1="647.5078" y2="610.5397"/><line style="stroke:#181818;stroke-width:2.5;" x1="2471.052" x2="2508.0201" y1="636.6618" y2="621.3858"/><path d="M2497.1741,647.5078 C2519.1994,700.8091 2536.1573,741.8472 2558.1635,795.1023" fill="none" style="stroke:#181818;stroke-width:2.5;"/><text fill="#000000" font-family="Arial" font-size="30" lengthAdjust="spacing" textLength="111.7383" x="2522.5" y="688.3862">contains</text></g><g class="link" data-entity-1="ent0003" data-entity-2="ent0007" data-link-type="dependency" id="lnk32"><polygon fill="#181818" points="5431.037,1102.3788,5453.2418,1091.7394,5439.1445,1092.8647,5438.0192,1078.7674,5431.037,1102.3788" style="stroke:#181818;stroke-width:2.5;"/><path d="M582.9641,302.9007 C612.4977,311.0043 643.1488,318.122 672.5,322.7466 C932.8058,363.7602 5199.8701,258.0613 5415,410.2466 C5610.8912,548.8222 5601.5789,708.7204 5530,937.7466 C5510.5466,999.9904 5476.7542,1048.7298 5440.766,1090.9619" fill="none" style="stroke:#181818;stroke-width:2.5;stroke-dasharray:17.5,17.5;"/><text fill="#000000" font-family="Arial" font-size="30" lengthAdjust="spacing" textLength="63.3691" x="5582.5" y="688.3862">uses</text></g><g class="link" data-entity-1="ent0003" data-entity-2="ent0024" data-link-type="dependency" id="lnk33"><polygon fill="#181818" points="432.3098,795.0561,423.5791,772.0338,423.5126,786.1758,409.3707,786.1092,432.3098,795.0561" style="stroke:#181818;stroke-width:2.5;"/><path d="M389.6252,303.476 C359.0881,392.3272 314.3856,563.6147 365,697.7466 C378.9054,734.597 395.3402,757.7371 421.7532,784.3997" fill="none" style="stroke:#181818;stroke-width:2.5;stroke-dasharray:17.5,17.5;"/><text fill="#000000" font-family="Arial" font-size="30" lengthAdjust="spacing" textLength="63.3691" x="365" y="560.8862">uses</text></g><g class="link" data-entity-1="ent0003" data-entity-2="ent0025" data-link-type="dependency" id="lnk34"><polygon fill="#181818" points="182.4553,794.7501,193.0028,772.5015,182.7611,782.2538,173.0087,772.0122,182.4553,794.7501" style="stroke:#181818;stroke-width:2.5;"/><path d="M342.7835,302.9674 C312.6942,332.1862 279.8991,369.8389 260,410.2466 C197.463,537.2362 184.9825,691.4866 182.8223,779.7546" fill="none" style="stroke:#181818;stroke-width:2.5;stroke-dasharray:17.5,17.5;"/><text fill="#000000" font-family="Arial" font-size="30" lengthAdjust="spacing" textLength="63.3691" x="265" y="560.8862">uses</text></g><g class="link" data-entity-1="ent0003" data-entity-2="ent0013" data-link-type="nested" id="lnk35"><ellipse cx="617.832" cy="308.4425" fill="#FFFFFF" rx="20" ry="20" style="stroke:#181818;stroke-width:2.5;"/><line style="stroke:#181818;stroke-width:2.5;" x1="637.0606" x2="598.6034" y1="313.9433" y2="302.9416"/><line style="stroke:#181818;stroke-width:2.5;" x1="612.3312" x2="623.3329" y1="327.6711" y2="289.2139"/><path d="M637.0606,313.9433 C661.7989,321.0204 648.4577,316.824 672.5,322.7466 C941.5762,389.0304 1249.5278,447.2279 1481.9338,487.6435" fill="none" style="stroke:#181818;stroke-width:2.5;"/><text fill="#000000" font-family="Arial" font-size="30" lengthAdjust="spacing" textLength="111.7383" x="965" y="380.8862">contains</text></g><g class="link" data-entity-1="ent0013" data-entity-2="ent0024" data-link-type="dependency" id="lnk36"><polygon fill="#181818" points="473.1417,795.1617,474.2074,770.5627,468.5641,783.5301,455.5967,777.8868,473.1417,795.1617" style="stroke:#181818;stroke-width:2.5;"/><path d="M1462.0978,567.7926 C1069.9289,586.4891 510.8721,619.2417 477.5,655.2466 C443.2207,692.2303 450.3007,737.1225 467.6486,781.2037" fill="none" style="stroke:#181818;stroke-width:2.5;stroke-dasharray:17.5,17.5;"/><text fill="#000000" font-family="Arial" font-size="30" lengthAdjust="spacing" textLength="63.3691" x="482.5" y="688.3862">uses</text></g><g class="link" data-entity-1="ent0010" data-entity-2="ent0006" data-link-type="dependency" id="lnk37"><polygon fill="#181818" points="5060.151,1357.6753,5045.6261,1337.7938,5049.3134,1351.4468,5035.6604,1355.1341,5060.151,1357.6753" style="stroke:#181818;stroke-width:2.5;"/><path d="M4830.5889,1225.7431 C4899.9314,1265.5951 4977.9584,1310.4382 5047.1458,1350.2011" fill="none" style="stroke:#181818;stroke-width:2.5;stroke-dasharray:17.5,17.5;"/><text fill="#000000" font-family="Arial" font-size="30" lengthAdjust="spacing" textLength="63.3691" x="4977.5" y="1303.3862">uses</text></g><g class="link" data-entity-1="ent0018" data-entity-2="ent0008" data-link-type="dependency" id="lnk38"><polygon fill="#181818" points="4312.163,1102.6113,4301.562,1080.3882,4302.6629,1094.4874,4288.5637,1095.5883,4312.163,1102.6113" style="stroke:#181818;stroke-width:2.5;"/><path d="M2781.9457,599.7711 C2743.3368,603.7611 2704.6584,607.3618 2667.5,610.2466 C2107.7169,653.7047 1959.049,564.2776 1405,655.2466 C1339.7831,665.9545 1326.1745,680.0418 1262.5,697.7466 C1228.2273,707.2761 1206.7856,689.6251 1185,717.7466 C1125.1187,795.0429 1132.7134,855.1233 1185,937.7466 C1222.4749,996.9644 1259.1822,989.6328 1327.5,1005.2466 C1482.2634,1040.6171 4034.1907,975.6547 4185,1025.2466 C4232.3993,1040.8333 4266.4716,1063.5385 4300.7629,1092.8626" fill="none" style="stroke:#181818;stroke-width:2.5;stroke-dasharray:17.5,17.5;"/><text fill="#000000" font-family="Arial" font-size="30" lengthAdjust="spacing" textLength="63.3691" x="1190" y="868.3862">uses</text></g><g class="link" data-entity-1="ent0018" data-entity-2="ent0024" data-link-type="dependency" id="lnk39"><polygon fill="#181818" points="567.358,794.3897,590.8011,786.8616,576.6815,786.0637,577.4794,771.9441,567.358,794.3897" style="stroke:#181818;stroke-width:2.5;"/><path d="M2781.9804,600.2372 C2743.3647,604.1355 2704.6753,607.5873 2667.5,610.2466 C2455.2059,625.4326 952.9138,583.5968 752.5,655.2466 C711.5143,669.8993 637.9598,731.341 578.5462,784.3985" fill="none" style="stroke:#181818;stroke-width:2.5;stroke-dasharray:17.5,17.5;"/><text fill="#000000" font-family="Arial" font-size="30" lengthAdjust="spacing" textLength="63.3691" x="757.5" y="688.3862">uses</text></g><g class="link" data-entity-1="ent0018" data-entity-2="ent0016" data-link-type="nested" id="lnk40"><ellipse cx="3553.0483" cy="610.1546" fill="#FFFFFF" rx="20" ry="20" style="stroke:#181818;stroke-width:2.5;"/><line style="stroke:#181818;stroke-width:2.5;" x1="3572.8126" x2="3533.2841" y1="613.2164" y2="607.0929"/><line style="stroke:#181818;stroke-width:2.5;" x1="3549.9866" x2="3556.1101" y1="629.9189" y2="590.3904"/><path d="M3572.8126,613.2164 C3767.1084,643.3157 3968.2839,676.5841 4182.5,717.7466 C4302.5838,740.8212 4435.12,769.8561 4546.101,795.188" fill="none" style="stroke:#181818;stroke-width:2.5;"/><text fill="#000000" font-family="Arial" font-size="30" lengthAdjust="spacing" textLength="111.7383" x="4077.5" y="688.3862">contains</text></g><g class="link" data-entity-1="ent0018" data-entity-2="ent0014" data-link-type="nested" id="lnk41"><ellipse cx="3252.0496" cy="622.5556" fill="#FFFFFF" rx="20" ry="20" style="stroke:#181818;stroke-width:2.5;"/><line style="stroke:#181818;stroke-width:2.5;" x1="3268.0377" x2="3236.0616" y1="634.5715" y2="610.5397"/><line style="stroke:#181818;stroke-width:2.5;" x1="3240.0337" x2="3264.0655" y1="638.5437" y2="606.5675"/><path d="M3268.0377,634.5715 C3338.9592,687.8727 3410.7764,741.8472 3481.6366,795.1023" fill="none" style="stroke:#181818;stroke-width:2.5;"/><text fill="#000000" font-family="Arial" font-size="30" lengthAdjust="spacing" textLength="111.7383" x="3352.5" y="688.3862">contains</text></g><g class="link" data-entity-1="ent0019" data-entity-2="ent0010" data-link-type="dependency" id="lnk42"><polygon fill="#181818" points="4673.7529,1102.7422,4664.3342,1079.9927,4664.6928,1094.1303,4650.5552,1094.4889,4673.7529,1102.7422" style="stroke:#181818;stroke-width:2.5;"/><path d="M4616.1775,607.6233 C4608.212,608.579 4600.3082,609.4575 4592.5,610.2466 C4414.1422,628.2708 1489.1426,586.0673 1367.5,717.7466 C1031.9461,1080.9869 1561.1131,973.7731 2415,1005.2466 C2474.4761,1007.4388 4501.4401,1005.2592 4557.5,1025.2466 C4601.6771,1040.9973 4632.0707,1063.1221 4662.8808,1092.4079" fill="none" style="stroke:#181818;stroke-width:2.5;stroke-dasharray:17.5,17.5;"/><text fill="#000000" font-family="Arial" font-size="30" lengthAdjust="spacing" textLength="63.3691" x="1372.5" y="868.3862">uses</text></g><g class="link" data-entity-1="ent0019" data-entity-2="ent0006" data-link-type="dependency" id="lnk43"><polygon fill="#181818" points="5320.3802,1359.9612,5344.9884,1359.1324,5331.6255,1354.5029,5336.2551,1341.1399,5320.3802,1359.9612" style="stroke:#181818;stroke-width:2.5;"/><path d="M5204.3747,595.4582 C5343.5259,622.8662 5488.2826,663.3691 5530,717.7466 C5667.719,897.2594 5615.9256,1037.2729 5490,1225.2466 C5449.5066,1285.6926 5396.447,1323.0391 5333.8746,1353.4112" fill="none" style="stroke:#181818;stroke-width:2.5;stroke-dasharray:17.5,17.5;"/><text fill="#000000" font-family="Arial" font-size="30" lengthAdjust="spacing" textLength="63.3691" x="5615" y="995.8862">uses</text></g><g class="link" data-entity-1="ent0019" data-entity-2="ent0023" data-link-type="dependency" id="lnk44"><polygon fill="#181818" points="862.3326,795.0339,885.1663,785.8213,871.0261,786.0521,870.7953,771.9118,862.3326,795.0339" style="stroke:#181818;stroke-width:2.5;"/><path d="M4616.1827,607.6755 C4608.2157,608.6158 4600.3102,609.477 4592.5,610.2466 C4223.1441,646.6422 1617.8509,589.9231 1252.5,655.2466 C1196.8038,665.2049 1187.5945,684.8692 1132.5,697.7466 C1059.4944,714.8104 1033.3341,686.9012 965,717.7466 C925.845,735.4208 900.0667,756.0479 872.7647,784.2557" fill="none" style="stroke:#181818;stroke-width:2.5;stroke-dasharray:17.5,17.5;"/><text fill="#000000" font-family="Arial" font-size="30" lengthAdjust="spacing" textLength="63.3691" x="1257.5" y="688.3862">uses</text></g><g class="link" data-entity-1="ent0004" data-entity-2="ent0011" data-link-type="dependency" id="lnk45"><polygon fill="#181818" points="5137.017,1102.6544,5160.5589,1095.4413,5146.4512,1094.4541,5147.4384,1080.3464,5137.017,1102.6544" style="stroke:#181818;stroke-width:2.5;"/><path d="M1244.3956,245.3942 C2223.7401,251.4516 5498.6513,281.3033 5680,410.2466 C5895.5668,563.5198 5898.5947,839.4555 5692.5,1005.2466 C5655.0162,1035.4001 5305.2924,1009.0332 5260,1025.2466 C5214.2111,1041.6377 5181.6134,1063.8909 5148.3381,1092.814" fill="none" style="stroke:#181818;stroke-width:2.5;stroke-dasharray:17.5,17.5;"/><text fill="#000000" font-family="Arial" font-size="30" lengthAdjust="spacing" textLength="63.3691" x="5847.5" y="688.3862">uses</text></g><g class="link" data-entity-1="ent0004" data-entity-2="ent0024" data-link-type="dependency" id="lnk46"><polygon fill="#181818" points="465.6423,794.4987,464.5955,769.8988,460.0845,783.3022,446.6811,778.7913,465.6423,794.4987" style="stroke:#181818;stroke-width:2.5;"/><path d="M841.6757,302.9564 C715.5966,368.7952 530.7406,488.4524 450,655.2466 C428.5412,699.5763 438.8042,740.4317 458.973,781.0629" fill="none" style="stroke:#181818;stroke-width:2.5;stroke-dasharray:17.5,17.5;"/><text fill="#000000" font-family="Arial" font-size="30" lengthAdjust="spacing" textLength="63.3691" x="672.5" y="560.8862">uses</text></g><g class="link" data-entity-1="ent0004" data-entity-2="ent0021" data-link-type="nested" id="lnk47"><ellipse cx="1264.2784" cy="246.4528" fill="#FFFFFF" rx="20" ry="20" style="stroke:#181818;stroke-width:2.5;"/><line style="stroke:#181818;stroke-width:2.5;" x1="1284.2761" x2="1244.2807" y1="246.7552" y2="246.1504"/><line style="stroke:#181818;stroke-width:2.5;" x1="1263.9759" x2="1264.5808" y1="266.4505" y2="226.4551"/><path d="M1284.2761,246.7552 C1758.143,253.9215 2719.6452,283.6287 3555,410.2466 C3675.214,428.4679 3807.44,459.7233 3913.735,487.7052" fill="none" style="stroke:#181818;stroke-width:2.5;"/><text fill="#000000" font-family="Arial" font-size="30" lengthAdjust="spacing" textLength="111.7383" x="3352.5" y="380.8862">contains</text></g><g class="link" data-entity-1="ent0021" data-entity-2="ent0011" data-link-type="dependency" id="lnk48"><polygon fill="#181818" points="5153.5438,1102.1089,5177.5096,1096.462,5163.4977,1094.5478,5165.4119,1080.5358,5153.5438,1102.1089" style="stroke:#181818;stroke-width:2.5;"/><path d="M4571.3299,608.1612 C4940.1499,654.7294 5401.4381,713.6942 5405,717.7466 C5469.5516,791.1877 5453.0673,852.5995 5405,937.7466 C5367.998,1003.2926 5322.4549,983.2368 5260,1025.2466 C5224.2387,1049.3011 5197.7897,1068.4992 5165.4884,1093.0356" fill="none" style="stroke:#181818;stroke-width:2.5;stroke-dasharray:17.5,17.5;"/><text fill="#000000" font-family="Arial" font-size="30" lengthAdjust="spacing" textLength="63.3691" x="5452.5" y="868.3862">uses</text></g><g class="link" data-entity-1="ent0021" data-entity-2="ent0024" data-link-type="dependency" id="lnk49"><polygon fill="#181818" points="558.1809,794.982,581.4694,786.9888,567.3367,786.4721,567.8535,772.3394,558.1809,794.982" style="stroke:#181818;stroke-width:2.5;"/><path d="M3668.4928,601.9212 C3630.1366,605.1486 3591.9138,607.9986 3555,610.2466 C3278.2454,627.1001 1332.8269,605.8236 1060,655.2466 C1004.3267,665.3319 995.3657,686.0902 940,697.7466 C823.3368,722.3083 783.43,674.0646 672.5,717.7466 C629.5644,734.6537 599.9299,756.1783 569.1679,784.7701" fill="none" style="stroke:#181818;stroke-width:2.5;stroke-dasharray:17.5,17.5;"/><text fill="#000000" font-family="Arial" font-size="30" lengthAdjust="spacing" textLength="63.3691" x="1065" y="688.3862">uses</text></g><g class="legend" data-source-line="82"><rect fill="#DDDDDD" height="276.4795" rx="18.75" ry="18.75" style="stroke:#000000;stroke-width:2.5;" width="608.4814" x="4826.5186" y="1535.2466"/><text fill="#000000" font-family="Arial" font-size="35" font-weight="bold" lengthAdjust="spacing" textLength="91.3794" x="4839.0186" y="1585.5762">Color</text><text fill="#000000" font-family="Arial" font-size="35" font-weight="bold" lengthAdjust="spacing" textLength="75.8447" x="4930.3979" y="1585.5762">Role</text><rect fill="#DCEEFF" height="40.2466" style="stroke:none;stroke-width:2.5;" width="91.3794" x="4839.0186" y="1592.9932"/><text fill="#000000" font-family="Arial" font-size="35" lengthAdjust="spacing" textLength="9.7241" x="4839.0186" y="1625.8228">&#160;</text><text fill="#000000" font-family="Arial" font-size="35" lengthAdjust="spacing" textLength="492.1021" x="4930.3979" y="1625.8228">Screens / Activities / Fragments</text><rect fill="#E2F5E6" height="40.2466" style="stroke:none;stroke-width:2.5;" width="91.3794" x="4839.0186" y="1633.2397"/><text fill="#000000" font-family="Arial" font-size="35" lengthAdjust="spacing" textLength="9.7241" x="4839.0186" y="1666.0693">&#160;</text><text fill="#000000" font-family="Arial" font-size="35" lengthAdjust="spacing" textLength="112.8271" x="4930.3979" y="1666.0693">Models</text><rect fill="#FFF3BF" height="40.2466" style="stroke:none;stroke-width:2.5;" width="91.3794" x="4839.0186" y="1673.4863"/><text fill="#000000" font-family="Arial" font-size="35" lengthAdjust="spacing" textLength="9.7241" x="4839.0186" y="1706.3159">&#160;</text><text fill="#000000" font-family="Arial" font-size="35" lengthAdjust="spacing" textLength="140.0854" x="4930.3979" y="1706.3159">Adapters</text><rect fill="#EFEFEF" height="40.2466" style="stroke:none;stroke-width:2.5;" width="91.3794" x="4839.0186" y="1713.7329"/><text fill="#000000" font-family="Arial" font-size="35" lengthAdjust="spacing" textLength="9.7241" x="4839.0186" y="1746.5625">&#160;</text><text fill="#000000" font-family="Arial" font-size="35" lengthAdjust="spacing" textLength="233.396" x="4930.3979" y="1746.5625">Utils / Firebase</text><rect fill="#FFFFFF" height="40.2466" style="stroke:none;stroke-width:2.5;" width="91.3794" x="4839.0186" y="1753.9795"/><text fill="#000000" font-family="Arial" font-size="35" lengthAdjust="spacing" textLength="9.7241" x="4839.0186" y="1786.8091">&#160;</text><text fill="#000000" font-family="Arial" font-size="35" lengthAdjust="spacing" textLength="457.2559" x="4930.3979" y="1786.8091">Inner or unconnected support</text><line style="stroke:#000000;stroke-width:2.5;" x1="4839.0186" x2="5422.5" y1="1552.7466" y2="1552.7466"/><line style="stroke:#000000;stroke-width:2.5;" x1="4839.0186" x2="5422.5" y1="1592.9932" y2="1592.9932"/><line style="stroke:#000000;stroke-width:2.5;" x1="4839.0186" x2="5422.5" y1="1633.2397" y2="1633.2397"/><line style="stroke:#000000;stroke-width:2.5;" x1="4839.0186" x2="5422.5" y1="1673.4863" y2="1673.4863"/><line style="stroke:#000000;stroke-width:2.5;" x1="4839.0186" x2="5422.5" y1="1713.7329" y2="1713.7329"/><line style="stroke:#000000;stroke-width:2.5;" x1="4839.0186" x2="5422.5" y1="1753.9795" y2="1753.9795"/><line style="stroke:#000000;stroke-width:2.5;" x1="4839.0186" x2="5422.5" y1="1794.2261" y2="1794.2261"/><line style="stroke:#000000;stroke-width:2.5;" x1="4839.0186" x2="4839.0186" y1="1552.7466" y2="1794.2261"/><line style="stroke:#000000;stroke-width:2.5;" x1="4930.3979" x2="4930.3979" y1="1552.7466" y2="1794.2261"/><line style="stroke:#000000;stroke-width:2.5;" x1="5422.5" x2="5422.5" y1="1552.7466" y2="1794.2261"/></g><g class="caption" data-source-line="23"><text fill="#000000" font-family="Arial" font-size="35" lengthAdjust="spacing" textLength="1167.2021" x="2148.8989" y="1879.5557">Generated from app/src/main/java with JavaParser; rendered by PlantUML.</text></g><?plantuml-src rLbHS-8s47xthzZIXpvq0cbobsQkEMOWYU_IkRGtpQMl7iLUG1TPyaZovMZfVwyaOp1W1mDsSoKF0KdxxQVLjsl9-W46gHP7O-GeYSO8HbB4y2lvGa29L8O83rE8HAXwQSnwMWYcUk_cWtqIKpRzHDIZkezPzxCnyhvB91d711YPYbI3Yb4JJZprI7b298aXIYYSl3ekjAW9YSGJvMCO4QQmqCCeHprD48JK4r7e21bHQg2rf0-fnfjGy3lw5q8HDS8HIPds1TU_aHXX82bXwn2srrd-zBhGbP3maOnnsNbUw1n8APwMNIVha4DZF9OYvT6bO49UNAXG8l9-7xw_kho-zlqD0o4Zb1k3J_mpVt2w5JqM4J8x_lh4VtrzzYpuOkpfy7puoj-AJIAIQ9JMmlVzq-7pr0kZXsVdW-FZhVYffXbrt_uz2vuF_TbzjY9JpXUy_IqXNumzSnzlGYC4Z1Cz1IFUYOYKfwbc29dSmUaTZc2GpHSkBI8gBpG_gU3mRZMLI9Bqb0nxCQ6yPrC4dgYUk0pxIAH2-Gj8v8QECJ2fzf4HhkzlFtGzRov3wDmvKIZemI3Kz0lL5EqFtsOQSgqwkRJWRy_D3pgt9kd6U3cXB3BeSxDf1uY2KCG1VYLnmZ0OkIa5saufIAJu71XE5ZAu8choOC8K41u5CU5Z3CenOIdQt7c6OUFqoSIHcLWqGw0QjqZYdqBaRgtYRNoox5Z6Pw0K7NECBDXXf5nI1KKyM6HQxit5h8QRq8wR8pgR2gYxD8w9d3P1l8XNuQrcZ3R8byV2jdwWIjzeZ9kOG16lt5ikbgQyvNW5RqNDpUk2LLrMDRTbPTSrs3dCJTj8qs3T2HGgzchYPfX4HaLjpAswnRO_AJwz5omwbF5sjq6vsx8vBAHNFvYPSjSDLy0fD_z7n6o7wWJfTvwr8iFGF0XirEr3eVKeLVYjcidwZ0rl--jASDo1SddqWasi_HJNTj1giDfDJVNPL8cjGibT-tsddAjOcbMSwW2KFMcxUKDZzQhQLr3YQuLjiUpUcnsYsnLHYGz4OIVVLoxBxvM1SiDg4BORpc1X0FaED8UwYOtJzyYIMhDtO0MJ3JXxGjc9sS9W2MM2iLUPwtRxUptPtq3gjhtj-5oB_t_WhBW-XxZxyUYeiOhvnY1nRKuE-t4fWto9vTux96kLgdOuTZ_5x16MUY5fWyf-UcsDoR8OjSHZktuQs0-t9wvDNo-mn2MdfUqiTZlt7agnncQj0Seh9zvlWdBZQrs3rK4fTS1Hf8ai-mQcLt4URM5sk-raTYi03UkiOQfjrfRsDwFxlSTiQ8KNhwXUb6fBTQsKJGC9N_i8sboMrtRv_z75dlIhjE8n72EFGDBnH7kpj-xIPlRs3y5mviqkvXSV_TcsEn8tEBi5wC-oQm7NbBsYxS_ojxRPEFVYe3zRVwUGM_ZMuuszDm8X8UL63jmzva2bIIAaddc6SyRyNm00?></g></svg>